<?xml version='1.0' encoding='ascii'?>
<svg xmlns="http://www.w3.org/2000/svg" version="1.1" width="1920" height="1080">
    <g id="ViewLayer_LineSet" xmlns:inkscape="http://www.inkscape.org/namespaces/inkscape" inkscape:groupmode="lineset" inkscape:label="ViewLayer_LineSet">
        <g xmlns:inkscape="http://www.inkscape.org/namespaces/inkscape" inkscape:groupmode="layer" id="strokes" inkscape:label="strokes">
            <path fill="none" stroke-width="3.0" stroke-linecap="butt" stroke-opacity="1.0" stroke="rgb(0, 0, 0)" stroke-linejoin="miter" d=" M 1407.341, 583.987 1408.565, 574.062 1409.789, 564.137 1410.225, 560.605 1410.961, 550.632 1411.696, 540.659 1411.958, 537.109 1412.204, 527.112 1412.449, 517.115 1412.536, 513.557 1412.536, 503.557 1412.536, 493.557 1412.536, 483.557 1412.536, 473.557 1412.536, 463.557 1412.536, 453.557 1412.536, 443.557 1412.536, 433.557 1412.536, 423.557 1412.536, 413.557 1412.536, 403.557 1412.536, 393.557 1412.536, 383.557 1412.536, 373.557 1412.536, 363.557 1412.536, 353.557 1412.536, 343.557 1412.536, 333.557 1412.536, 323.557 1412.536, 313.557 1412.536, 303.557 1412.536, 293.557 1412.536, 283.557 1412.536, 273.557 1412.536, 263.557 1412.536, 253.557 1412.536, 243.557 1412.536, 233.557 1412.536, 223.557 1412.536, 213.557 1412.536, 203.557 1412.536, 193.557 1412.536, 183.557 1412.536, 173.557 1412.536, 163.557 1412.536, 153.557 1412.536, 143.557 1412.536, 133.557 1412.536, 123.557 1412.536, 113.557 1402.536, 113.557 1392.536, 113.557 1382.536, 113.557 1372.536, 113.557 1362.536, 113.557 1352.536, 113.557 1342.536, 113.557 1332.536, 113.557 1322.536, 113.557 1312.536, 113.557 1302.536, 113.557 1292.536, 113.557 1282.536, 113.557 1272.536, 113.557 1262.536, 113.557 1252.536, 113.557 1242.536, 113.557 1232.536, 113.557 1222.536, 113.557 1212.536, 113.557 1202.536, 113.557 1192.536, 113.557 1182.536, 113.557 1172.536, 113.557 1162.536, 113.557 1152.536, 113.557 1142.536, 113.557 1132.536, 113.557 1122.536, 113.557 1112.536, 113.557 1102.536, 113.557 1092.536, 113.557 1082.536, 113.557 1072.536, 113.557 1062.536, 113.557 1052.536, 113.557 1042.536, 113.557 1032.536, 113.557 1022.536, 113.557 1012.536, 113.557 1002.536, 113.557 992.536, 113.557 982.536, 113.557 972.536, 113.557 962.536, 113.557 952.536, 113.557 942.536, 113.557 932.536, 113.557 922.536, 113.557 912.536, 113.557 902.536, 113.557 892.536, 113.557 882.536, 113.557 872.536, 113.557 862.536, 113.557 852.536, 113.557 842.536, 113.557 832.536, 113.557 822.536, 113.557 812.536, 113.557 802.536, 113.557 792.536, 113.557 782.536, 113.557 772.536, 113.557 762.536, 113.557 752.536, 113.557 742.536, 113.557 732.536, 113.557 722.536, 113.557 712.536, 113.557 702.536, 113.557 692.536, 113.557 682.536, 113.557 672.536, 113.557 662.536, 113.557 652.536, 113.557 642.536, 113.557 632.536, 113.557 622.536, 113.557 612.536, 113.557 602.536, 113.557 592.536, 113.557 582.536, 113.557 572.536, 113.557 562.536, 113.557 552.536, 113.557 542.536, 113.557 532.536, 113.557 522.536, 113.557 512.536, 113.557 502.536, 113.557 492.536, 113.557 482.536, 113.557 472.536, 113.557 462.536, 113.557 452.539, 113.557 452.539, 123.557 452.539, 133.557 452.539, 143.557 452.539, 153.557 452.539, 163.557 452.539, 173.557 452.539, 183.557 452.539, 193.557 452.539, 203.557 452.539, 213.557 452.539, 223.557 452.539, 233.557 452.539, 243.557 452.539, 253.557 452.539, 263.557 452.539, 273.557 452.539, 283.557 452.539, 293.557 452.539, 303.557 452.539, 313.557 452.539, 323.557 452.539, 333.557 452.539, 343.557 452.539, 353.557 452.539, 363.557 452.539, 373.557 452.539, 383.557 452.539, 393.557 452.539, 403.557 452.539, 413.557 452.539, 423.557 452.539, 433.557 452.539, 443.557 452.539, 453.557 452.539, 463.557 452.539, 473.557 452.539, 483.557 452.539, 493.557 452.539, 503.557 452.539, 513.557 452.784, 523.554 453.029, 533.551 453.117, 537.109 453.852, 547.082 454.588, 557.055 454.850, 560.605 456.074, 570.529 457.298, 580.454 457.734, 583.987 459.443, 593.840 461.153, 603.693 461.762, 607.200 463.953, 616.957 466.144, 626.714 466.923, 630.187 469.591, 639.825 472.258, 649.462 473.207, 652.893 476.344, 662.388 479.481, 671.883 480.597, 675.263 484.196, 684.593 487.795, 693.923 489.076, 697.244 493.129, 706.386 497.181, 715.528 498.624, 718.783 503.120, 727.715 507.616, 736.647 509.216, 739.826 514.145, 748.527 519.074, 757.228 520.829, 760.325 526.179, 768.774 531.529, 777.222 533.433, 780.230 539.191, 788.406 544.949, 796.581 546.999, 799.492 553.151, 807.375 559.303, 815.258 561.493, 818.065 568.025, 825.637 574.557, 833.209 576.882, 835.904 583.777, 843.147 590.672, 850.389 593.127, 852.967 600.369, 859.862 607.612, 866.758 610.190, 869.212 617.762, 875.744 625.334, 882.276 628.029, 884.601 635.913, 890.753 643.796, 896.905 646.602, 899.095 654.778, 904.853 662.954, 910.611 665.864, 912.661 674.313, 918.011 682.761, 923.361 685.769, 925.265 694.469, 930.194 703.170, 935.123 706.268, 936.878 715.200, 941.374 724.132, 945.870 727.312, 947.470 736.454, 951.523 745.596, 955.575 748.850, 957.018 758.180, 960.617 767.510, 964.216 770.831, 965.497 780.326, 968.633 789.821, 971.770 793.201, 972.887 802.839, 975.554 812.477, 978.221 815.907, 979.170 825.664, 981.362 835.421, 983.553 838.894, 984.332 848.747, 986.042 858.600, 987.752 862.107, 988.360 872.032, 989.584 881.957, 990.808 885.489, 991.244 895.462, 991.980 905.435, 992.715 908.985, 992.977 918.982, 993.223 928.979, 993.468 932.537, 993.555 942.534, 993.310 952.531, 993.065 956.090, 992.977 966.063, 992.242 976.036, 991.506 979.585, 991.244 989.510, 990.020 999.435, 988.796 1002.968, 988.360 1012.821, 986.651 1022.673, 984.941 1026.181, 984.332 1035.938, 982.141 1045.695, 979.950 1049.168, 979.170 1058.806, 976.503 1068.443, 973.836 1071.874, 972.887 1081.369, 969.750 1090.864, 966.613 1094.244, 965.497 1103.574, 961.898 1112.904, 958.299 1116.225, 957.018 1125.367, 952.965 1134.509, 948.913 1137.763, 947.470 1146.696, 942.974 1155.628, 938.478 1158.807, 936.878 1167.508, 931.949 1176.209, 927.020 1179.306, 925.265 1187.755, 919.915 1196.203, 914.565 1199.210, 912.661 1207.386, 906.903 1215.562, 901.145 1218.472, 899.095 1226.356, 892.943 1234.239, 886.791 1237.046, 884.601 1244.618, 878.069 1252.190, 871.537 1254.885, 869.212 1262.128, 862.317 1269.370, 855.421 1271.948, 852.967 1278.843, 845.725 1285.739, 838.482 1288.193, 835.904 1294.725, 828.332 1301.257, 820.760 1303.582, 818.065 1309.734, 810.181 1315.886, 802.298 1318.076, 799.492 1323.834, 791.316 1329.592, 783.140 1331.642, 780.230 1336.992, 771.781 1342.342, 763.333 1344.246, 760.325 1349.175, 751.624 1354.104, 742.924 1355.859, 739.826 1360.355, 730.894 1364.851, 721.962 1366.451, 718.783 1370.504, 709.641 1374.556, 700.498 1375.999, 697.244 1379.598, 687.914 1383.197, 678.584 1384.478, 675.263 1387.614, 665.768 1390.751, 656.273 1391.868, 652.893 1394.535, 643.255 1397.202, 633.617 1398.151, 630.187 1400.342, 620.430 1402.533, 610.673 1403.313, 607.200 1405.023, 597.347 1406.733, 587.494 1407.341, 583.987 " />
            <path fill="none" stroke-width="3.0" stroke-linecap="butt" stroke-opacity="1.0" stroke="rgb(0, 0, 0)" stroke-linejoin="miter" d=" M 1212.537, 245.473 1218.780, 246.088 1224.783, 247.909 1230.315, 250.866 1235.164, 254.846 1239.144, 259.695 1242.101, 265.227 1243.922, 271.230 1244.537, 277.473 1243.922, 283.716 1242.101, 289.719 1239.144, 295.251 1235.164, 300.101 1230.315, 304.080 1224.783, 307.037 1218.780, 308.858 1212.537, 309.473 1206.294, 308.858 1200.291, 307.037 1194.759, 304.080 1189.909, 300.101 1185.930, 295.251 1182.973, 289.719 1181.152, 283.716 1180.537, 277.473 1181.152, 271.230 1182.973, 265.227 1185.930, 259.695 1189.909, 254.846 1194.759, 250.866 1200.291, 247.909 1206.294, 246.088 1212.537, 245.473 " />
            <path fill="none" stroke-width="3.0" stroke-linecap="butt" stroke-opacity="1.0" stroke="rgb(0, 0, 0)" stroke-linejoin="miter" d=" M 652.538, 305.557 646.295, 304.942 640.292, 303.121 634.760, 300.164 629.911, 296.184 625.931, 291.335 622.974, 285.803 621.153, 279.800 620.538, 273.557 621.153, 267.314 622.974, 261.311 625.931, 255.779 629.911, 250.930 634.760, 246.950 640.292, 243.993 646.295, 242.172 652.538, 241.557 658.781, 242.172 664.784, 243.993 670.316, 246.950 675.165, 250.930 679.145, 255.779 682.102, 261.311 683.923, 267.314 684.538, 273.557 683.923, 279.800 682.102, 285.803 679.145, 291.335 675.165, 296.184 670.316, 300.164 664.784, 303.121 658.781, 304.942 652.538, 305.557 " />
            <path fill="none" stroke-width="3.0" stroke-linecap="butt" stroke-opacity="1.0" stroke="rgb(0, 0, 0)" stroke-linejoin="miter" d=" M 938.780, 825.249 932.537, 825.864 926.295, 825.249 920.292, 823.428 914.759, 820.471 909.910, 816.491 905.930, 811.642 902.973, 806.110 901.152, 800.107 900.537, 793.864 901.152, 787.621 902.973, 781.618 905.930, 776.086 909.910, 771.237 914.759, 767.257 920.292, 764.300 926.295, 762.479 932.537, 761.864 938.780, 762.479 944.783, 764.300 950.316, 767.257 955.165, 771.237 959.144, 776.086 962.102, 781.618 963.922, 787.621 964.537, 793.864 963.922, 800.107 962.102, 806.110 959.144, 811.642 955.165, 816.491 950.316, 820.471 944.783, 823.428 938.780, 825.249 " />
        </g>
    </g>
</svg>
