<?xml version='1.0' encoding='ascii'?>
<svg xmlns="http://www.w3.org/2000/svg" version="1.1" width="1920" height="1080">
    <g id="ViewLayer_LineSet" xmlns:inkscape="http://www.inkscape.org/namespaces/inkscape" inkscape:groupmode="lineset" inkscape:label="ViewLayer_LineSet">
        <g xmlns:inkscape="http://www.inkscape.org/namespaces/inkscape" inkscape:groupmode="layer" id="strokes" inkscape:label="strokes">
            <path fill="none" stroke-width="3.0" stroke-linecap="butt" stroke-opacity="1.0" stroke="rgb(0, 0, 0)" stroke-linejoin="miter" d=" M 1277.013, 958.185 1276.647, 958.430 1276.214, 958.516 1275.781, 958.430 1275.415, 958.185 1275.410, 958.185 1275.410, 958.179 1275.169, 957.817 " />
            <path fill="none" stroke-width="3.0" stroke-linecap="butt" stroke-opacity="1.0" stroke="rgb(0, 0, 0)" stroke-linejoin="miter" d=" M 386.962, 979.743 396.962, 979.743 399.303, 979.743 409.303, 979.743 419.303, 979.743 429.303, 979.743 439.303, 979.743 449.303, 979.743 459.303, 979.743 469.303, 979.743 479.303, 979.743 489.303, 979.743 499.303, 979.743 509.303, 979.743 519.303, 979.743 529.303, 979.743 539.303, 979.743 550.337, 979.743 560.337, 979.743 570.337, 979.743 580.337, 979.743 590.337, 979.743 600.337, 979.743 610.337, 979.743 618.330, 979.743 628.330, 979.743 638.330, 979.743 648.330, 979.743 658.330, 979.743 668.330, 979.743 678.330, 979.743 688.330, 979.743 698.330, 979.743 708.330, 979.743 718.330, 979.743 728.330, 979.743 738.330, 979.743 748.330, 979.743 758.330, 979.743 768.330, 979.743 778.330, 979.743 788.330, 979.743 798.330, 979.743 803.559, 979.743 813.559, 979.743 823.559, 979.743 833.559, 979.743 837.357, 979.743 847.357, 979.743 857.357, 979.743 867.357, 979.743 871.473, 979.743 881.473, 979.743 891.473, 979.743 901.473, 979.743 911.473, 979.743 921.473, 979.743 931.473, 979.743 941.473, 979.743 951.473, 979.743 961.473, 979.743 971.473, 979.743 981.473, 979.743 991.473, 979.743 1001.473, 979.743 1011.473, 979.743 1021.473, 979.743 1031.473, 979.743 1041.473, 979.743 1051.473, 979.743 1056.384, 979.743 1066.384, 979.743 1076.384, 979.743 1086.384, 979.743 1096.384, 979.743 1106.384, 979.743 1116.384, 979.743 1124.342, 979.743 1134.342, 979.743 1144.342, 979.743 1154.342, 979.743 1164.342, 979.743 1174.342, 979.743 1184.342, 979.743 1194.342, 979.743 1204.342, 979.743 1214.342, 979.743 1224.342, 979.743 1234.342, 979.743 1244.342, 979.743 1254.342, 979.743 1264.342, 979.743 1275.410, 979.743 1285.410, 979.743 1287.721, 979.743 1287.721, 969.743 1287.721, 959.743 1287.721, 958.185 1277.721, 958.185 1277.013, 958.185 " />
            <path fill="none" stroke-width="3.0" stroke-linecap="butt" stroke-opacity="1.0" stroke="rgb(0, 0, 0)" stroke-linejoin="miter" d=" M 1276.214, 958.516 1275.781, 958.430 1275.415, 958.185 " />
            <path fill="none" stroke-width="3.0" stroke-linecap="butt" stroke-opacity="1.0" stroke="rgb(0, 0, 0)" stroke-linejoin="miter" d=" M 1275.415, 958.185 1275.781, 958.430 1276.214, 958.516 1276.647, 958.430 1277.013, 958.185 " />
            <path fill="none" stroke-width="3.0" stroke-linecap="butt" stroke-opacity="1.0" stroke="rgb(0, 0, 0)" stroke-linejoin="miter" d=" M 1275.169, 957.817 1275.083, 957.384 1275.169, 956.951 1275.410, 956.590 1275.410, 956.590 1275.410, 948.970 1275.410, 938.970 1275.410, 936.627 1265.410, 936.627 1255.410, 936.627 1245.410, 936.627 1235.410, 936.627 1225.410, 936.627 1215.410, 936.627 1205.410, 936.627 1195.410, 936.627 1185.410, 936.627 1175.410, 936.627 1165.410, 936.627 1155.410, 936.627 1145.410, 936.627 1135.410, 936.627 1124.342, 936.627 1124.342, 946.627 1124.342, 947.383 1124.577, 947.735 1124.663, 948.168 1124.577, 948.601 1124.342, 948.954 1124.342, 948.970 1124.330, 948.970 " />
            <path fill="none" stroke-width="3.0" stroke-linecap="butt" stroke-opacity="1.0" stroke="rgb(0, 0, 0)" stroke-linejoin="miter" d=" M 399.303, 958.185 399.293, 958.185 399.291, 958.189 398.924, 958.434 398.491, 958.520 398.058, 958.434 397.691, 958.189 397.688, 958.185 387.688, 958.185 386.962, 958.185 " />
            <path fill="none" stroke-width="3.0" stroke-linecap="butt" stroke-opacity="1.0" stroke="rgb(0, 0, 0)" stroke-linejoin="miter" d=" M 550.337, 936.627 540.337, 936.627 530.337, 936.627 520.337, 936.627 510.337, 936.627 500.337, 936.627 490.337, 936.627 480.337, 936.627 470.337, 936.627 460.337, 936.627 450.337, 936.627 440.337, 936.627 430.337, 936.627 420.337, 936.627 410.337, 936.627 399.303, 936.627 399.303, 946.627 399.303, 948.970 399.303, 956.607 399.536, 956.956 399.622, 957.389 " />
            <path fill="none" stroke-width="3.0" stroke-linecap="butt" stroke-opacity="1.0" stroke="rgb(0, 0, 0)" stroke-linejoin="miter" d=" M 398.924, 958.434 399.291, 958.189 399.293, 958.185 399.303, 958.185 " />
            <path fill="none" stroke-width="3.0" stroke-linecap="butt" stroke-opacity="1.0" stroke="rgb(0, 0, 0)" stroke-linejoin="miter" d=" M 1056.375, 947.368 1056.384, 947.362 1056.384, 937.362 1056.384, 936.627 1046.384, 936.627 1036.384, 936.627 1026.384, 936.627 1016.384, 936.627 1006.384, 936.627 996.384, 936.627 986.384, 936.627 976.384, 936.627 966.384, 936.627 956.383, 936.627 946.383, 936.627 936.384, 936.627 926.384, 936.627 916.384, 936.627 906.384, 936.627 896.384, 936.627 886.384, 936.627 876.384, 936.627 871.473, 936.627 871.473, 946.627 871.473, 947.397 " />
            <path fill="none" stroke-width="3.0" stroke-linecap="butt" stroke-opacity="1.0" stroke="rgb(0, 0, 0)" stroke-linejoin="miter" d=" M 1056.375, 948.968 1056.376, 948.970 1056.384, 948.974 1056.742, 949.214 " />
            <path fill="none" stroke-width="3.0" stroke-linecap="butt" stroke-opacity="1.0" stroke="rgb(0, 0, 0)" stroke-linejoin="miter" d=" M 618.649, 948.168 618.562, 948.601 618.330, 948.949 618.330, 948.949 618.330, 948.970 618.315, 948.970 " />
            <path fill="none" stroke-width="3.0" stroke-linecap="butt" stroke-opacity="1.0" stroke="rgb(0, 0, 0)" stroke-linejoin="miter" d=" M 551.571, 949.214 551.138, 949.300 550.705, 949.214 550.339, 948.970 " />
            <path fill="none" stroke-width="3.0" stroke-linecap="butt" stroke-opacity="1.0" stroke="rgb(0, 0, 0)" stroke-linejoin="miter" d=" M 618.315, 948.970 617.950, 949.214 617.517, 949.300 617.084, 949.214 616.719, 948.970 " />
            <path fill="none" stroke-width="3.0" stroke-linecap="butt" stroke-opacity="1.0" stroke="rgb(0, 0, 0)" stroke-linejoin="miter" d=" M 616.719, 948.970 606.719, 948.970 596.719, 948.970 586.719, 948.970 576.719, 948.970 566.719, 948.970 556.719, 948.970 551.937, 948.970 551.571, 949.214 " />
            <path fill="none" stroke-width="3.0" stroke-linecap="butt" stroke-opacity="1.0" stroke="rgb(0, 0, 0)" stroke-linejoin="miter" d=" M 871.473, 948.940 871.473, 948.970 871.453, 948.970 871.087, 949.214 870.654, 949.300 870.221, 949.214 869.856, 948.970 859.856, 948.970 849.856, 948.970 839.856, 948.970 837.357, 948.970 827.357, 948.970 817.357, 948.970 807.357, 948.970 805.159, 948.970 805.157, 948.973 804.790, 949.218 804.357, 949.304 803.924, 949.218 803.559, 948.974 803.557, 948.973 803.555, 948.970 803.312, 948.605 803.226, 948.172 803.312, 947.739 803.557, 947.372 803.559, 947.371 803.559, 937.371 803.559, 936.627 793.559, 936.627 783.559, 936.627 773.559, 936.627 763.559, 936.627 753.559, 936.627 743.559, 936.627 733.559, 936.627 723.559, 936.627 713.559, 936.627 703.559, 936.627 693.559, 936.627 683.559, 936.627 673.559, 936.627 663.559, 936.627 653.559, 936.627 643.559, 936.627 633.559, 936.627 623.559, 936.627 618.330, 936.627 618.330, 946.627 618.330, 947.387 618.562, 947.735 618.649, 948.168 618.562, 948.601 " />
            <path fill="none" stroke-width="3.0" stroke-linecap="butt" stroke-opacity="1.0" stroke="rgb(0, 0, 0)" stroke-linejoin="miter" d=" M 1057.973, 948.970 1057.608, 949.214 1057.175, 949.300 1056.742, 949.214 1056.384, 948.974 " />
            <path fill="none" stroke-width="3.0" stroke-linecap="butt" stroke-opacity="1.0" stroke="rgb(0, 0, 0)" stroke-linejoin="miter" d=" M 1124.330, 948.970 1123.965, 949.214 1123.532, 949.300 1123.099, 949.214 1122.734, 948.970 " />
            <path fill="none" stroke-width="3.0" stroke-linecap="butt" stroke-opacity="1.0" stroke="rgb(0, 0, 0)" stroke-linejoin="miter" d=" M 803.557, 948.973 803.548, 948.970 803.312, 948.605 803.557, 948.973 " />
            <path fill="none" stroke-width="3.0" stroke-linecap="butt" stroke-opacity="1.0" stroke="rgb(0, 0, 0)" stroke-linejoin="miter" d=" M 803.312, 948.605 803.555, 948.970 803.557, 948.973 " />
            <path fill="none" stroke-width="3.0" stroke-linecap="butt" stroke-opacity="1.0" stroke="rgb(0, 0, 0)" stroke-linejoin="miter" d=" M 399.622, 957.389 399.536, 957.822 399.303, 958.170 399.303, 958.170 " />
            <path fill="none" stroke-width="3.0" stroke-linecap="butt" stroke-opacity="1.0" stroke="rgb(0, 0, 0)" stroke-linejoin="miter" d=" M 399.303, 958.170 399.303, 958.185 " />
            <path fill="none" stroke-width="3.0" stroke-linecap="butt" stroke-opacity="1.0" stroke="rgb(0, 0, 0)" stroke-linejoin="miter" d=" M 399.622, 957.389 399.622, 957.389 399.536, 957.822 " />
            <path fill="none" stroke-width="3.0" stroke-linecap="butt" stroke-opacity="1.0" stroke="rgb(0, 0, 0)" stroke-linejoin="miter" d=" M 399.303, 958.185 399.303, 958.170 " />
            <path fill="none" stroke-width="3.0" stroke-linecap="butt" stroke-opacity="1.0" stroke="rgb(0, 0, 0)" stroke-linejoin="miter" d=" M 399.536, 957.822 399.303, 958.170 399.303, 958.170 399.303, 958.170 399.536, 957.822 " />
            <path fill="none" stroke-width="3.0" stroke-linecap="butt" stroke-opacity="1.0" stroke="rgb(0, 0, 0)" stroke-linejoin="miter" d=" M 399.536, 957.822 399.622, 957.389 " />
            <path fill="none" stroke-width="3.0" stroke-linecap="butt" stroke-opacity="1.0" stroke="rgb(0, 0, 0)" stroke-linejoin="miter" d=" M 550.337, 948.970 550.337, 948.967 550.093, 948.602 " />
            <path fill="none" stroke-width="3.0" stroke-linecap="butt" stroke-opacity="1.0" stroke="rgb(0, 0, 0)" stroke-linejoin="miter" d=" M 550.337, 936.627 550.337, 946.627 550.337, 947.370 550.093, 947.736 " />
            <path fill="none" stroke-width="3.0" stroke-linecap="butt" stroke-opacity="1.0" stroke="rgb(0, 0, 0)" stroke-linejoin="miter" d=" M 550.093, 948.602 550.007, 948.169 550.093, 947.736 550.337, 947.370 550.337, 937.370 550.337, 936.627 " />
            <path fill="none" stroke-width="3.0" stroke-linecap="butt" stroke-opacity="1.0" stroke="rgb(0, 0, 0)" stroke-linejoin="miter" d=" M 550.339, 948.970 550.337, 948.970 550.337, 948.967 550.093, 948.602 " />
            <path fill="none" stroke-width="3.0" stroke-linecap="butt" stroke-opacity="1.0" stroke="rgb(0, 0, 0)" stroke-linejoin="miter" d=" M 618.562, 948.601 618.330, 948.949 " />
            <path fill="none" stroke-width="3.0" stroke-linecap="butt" stroke-opacity="1.0" stroke="rgb(0, 0, 0)" stroke-linejoin="miter" d=" M 871.473, 947.397 871.700, 947.735 871.786, 948.168 871.700, 948.601 871.473, 948.940 " />
            <path fill="none" stroke-width="3.0" stroke-linecap="butt" stroke-opacity="1.0" stroke="rgb(0, 0, 0)" stroke-linejoin="miter" d=" M 1056.384, 948.974 1056.375, 948.968 1056.129, 948.601 1056.043, 948.168 " />
            <path fill="none" stroke-width="3.0" stroke-linecap="butt" stroke-opacity="1.0" stroke="rgb(0, 0, 0)" stroke-linejoin="miter" d=" M 1056.043, 948.168 1056.129, 947.735 1056.375, 947.368 1056.384, 947.362 " />
            <path fill="none" stroke-width="3.0" stroke-linecap="butt" stroke-opacity="1.0" stroke="rgb(0, 0, 0)" stroke-linejoin="miter" d=" M 1056.384, 936.627 1056.384, 946.627 1056.384, 947.362 1056.384, 947.362 1056.384, 937.362 1056.384, 936.627 " />
            <path fill="none" stroke-width="3.0" stroke-linecap="butt" stroke-opacity="1.0" stroke="rgb(0, 0, 0)" stroke-linejoin="miter" d=" M 871.786, 948.168 871.700, 948.601 871.473, 948.940 " />
            <path fill="none" stroke-width="3.0" stroke-linecap="butt" stroke-opacity="1.0" stroke="rgb(0, 0, 0)" stroke-linejoin="miter" d=" M 1124.342, 948.970 1124.342, 948.954 1124.577, 948.601 " />
            <path fill="none" stroke-width="3.0" stroke-linecap="butt" stroke-opacity="1.0" stroke="rgb(0, 0, 0)" stroke-linejoin="miter" d=" M 550.093, 947.736 550.337, 947.370 550.337, 937.370 550.337, 936.627 " />
            <path fill="none" stroke-width="3.0" stroke-linecap="butt" stroke-opacity="1.0" stroke="rgb(0, 0, 0)" stroke-linejoin="miter" d=" M 1056.384, 948.974 1056.375, 948.968 " />
            <path fill="none" stroke-width="3.0" stroke-linecap="butt" stroke-opacity="1.0" stroke="rgb(0, 0, 0)" stroke-linejoin="miter" d=" M 1276.659, 893.817 1276.226, 893.903 1275.793, 893.817 1275.434, 893.576 1275.410, 893.576 1275.410, 893.547 " />
            <path fill="none" stroke-width="3.0" stroke-linecap="butt" stroke-opacity="1.0" stroke="rgb(0, 0, 0)" stroke-linejoin="miter" d=" M 386.962, 915.135 396.962, 915.135 399.303, 915.135 409.303, 915.135 419.303, 915.135 429.303, 915.135 439.303, 915.135 449.303, 915.135 459.303, 915.135 469.303, 915.135 479.303, 915.135 489.303, 915.135 499.303, 915.135 509.303, 915.135 519.303, 915.135 529.303, 915.135 539.303, 915.135 550.337, 915.135 560.337, 915.135 570.337, 915.135 580.337, 915.135 590.337, 915.135 600.337, 915.135 610.337, 915.135 618.330, 915.135 628.330, 915.135 638.330, 915.135 648.330, 915.135 658.330, 915.135 668.330, 915.135 678.330, 915.135 688.330, 915.135 698.330, 915.135 708.330, 915.135 718.330, 915.135 728.330, 915.135 738.330, 915.135 748.330, 915.135 758.330, 915.135 768.330, 915.135 778.330, 915.135 788.330, 915.135 798.330, 915.135 803.559, 915.135 813.559, 915.135 823.559, 915.135 833.559, 915.135 837.357, 915.135 847.357, 915.135 857.357, 915.135 867.357, 915.135 871.473, 915.135 881.473, 915.135 891.473, 915.135 901.473, 915.135 911.473, 915.135 921.473, 915.135 931.473, 915.135 941.473, 915.135 951.473, 915.135 961.473, 915.135 971.473, 915.135 981.473, 915.135 991.473, 915.135 1001.473, 915.135 1011.473, 915.135 1021.473, 915.135 1031.473, 915.135 1041.473, 915.135 1051.473, 915.135 1056.384, 915.135 1066.384, 915.135 1076.384, 915.135 1086.384, 915.135 1096.384, 915.135 1106.384, 915.135 1116.384, 915.135 1124.342, 915.135 1134.342, 915.135 1144.342, 915.135 1154.342, 915.135 1164.342, 915.135 1174.342, 915.135 1184.342, 915.135 1194.342, 915.135 1204.342, 915.135 1214.342, 915.135 1224.342, 915.135 1234.342, 915.135 1244.342, 915.135 1254.342, 915.135 1264.342, 915.135 1275.410, 915.135 1285.410, 915.135 1287.721, 915.135 1287.721, 905.135 1287.721, 895.135 1287.721, 893.576 1277.721, 893.576 1277.019, 893.576 1276.659, 893.817 " />
            <path fill="none" stroke-width="3.0" stroke-linecap="butt" stroke-opacity="1.0" stroke="rgb(0, 0, 0)" stroke-linejoin="miter" d=" M 1276.226, 893.903 1275.793, 893.817 1275.434, 893.576 " />
            <path fill="none" stroke-width="3.0" stroke-linecap="butt" stroke-opacity="1.0" stroke="rgb(0, 0, 0)" stroke-linejoin="miter" d=" M 1276.226, 893.903 1276.659, 893.817 1277.019, 893.576 1276.659, 893.817 1276.226, 893.903 " />
            <path fill="none" stroke-width="3.0" stroke-linecap="butt" stroke-opacity="1.0" stroke="rgb(0, 0, 0)" stroke-linejoin="miter" d=" M 1275.434, 893.576 1275.793, 893.817 1276.226, 893.903 " />
            <path fill="none" stroke-width="3.0" stroke-linecap="butt" stroke-opacity="1.0" stroke="rgb(0, 0, 0)" stroke-linejoin="miter" d=" M 1275.410, 893.547 1275.181, 893.204 1275.095, 892.771 1275.181, 892.338 1275.410, 891.996 1275.410, 884.361 1275.410, 874.361 1275.410, 872.018 1265.410, 872.018 1255.410, 872.018 1245.410, 872.018 1235.410, 872.018 1225.410, 872.018 1215.410, 872.018 1205.410, 872.018 1195.410, 872.018 1185.410, 872.018 1175.410, 872.018 1165.410, 872.018 1155.410, 872.018 1145.410, 872.018 1135.410, 872.018 1124.342, 872.018 1124.342, 882.018 1124.342, 882.753 " />
            <path fill="none" stroke-width="3.0" stroke-linecap="butt" stroke-opacity="1.0" stroke="rgb(0, 0, 0)" stroke-linejoin="miter" d=" M 399.303, 893.576 399.272, 893.576 399.139, 893.712 398.732, 893.884 398.291, 893.887 397.882, 893.721 397.735, 893.576 387.735, 893.576 386.962, 893.576 " />
            <path fill="none" stroke-width="3.0" stroke-linecap="butt" stroke-opacity="1.0" stroke="rgb(0, 0, 0)" stroke-linejoin="miter" d=" M 399.303, 872.018 399.303, 882.018 399.303, 884.361 399.303, 892.006 399.303, 892.006 399.439, 892.140 399.611, 892.547 399.615, 892.988 399.449, 893.397 " />
            <path fill="none" stroke-width="3.0" stroke-linecap="butt" stroke-opacity="1.0" stroke="rgb(0, 0, 0)" stroke-linejoin="miter" d=" M 399.139, 893.712 399.272, 893.576 399.303, 893.576 " />
            <path fill="none" stroke-width="3.0" stroke-linecap="butt" stroke-opacity="1.0" stroke="rgb(0, 0, 0)" stroke-linejoin="miter" d=" M 618.330, 884.361 618.322, 884.361 617.963, 884.601 617.530, 884.687 617.097, 884.601 616.738, 884.361 606.738, 884.361 596.738, 884.361 586.738, 884.361 576.738, 884.361 566.738, 884.361 556.738, 884.361 551.929, 884.361 551.570, 884.601 551.137, 884.687 550.704, 884.601 550.345, 884.361 550.337, 884.361 " />
            <path fill="none" stroke-width="3.0" stroke-linecap="butt" stroke-opacity="1.0" stroke="rgb(0, 0, 0)" stroke-linejoin="miter" d=" M 805.152, 884.361 804.793, 884.601 804.360, 884.687 803.927, 884.601 803.568, 884.361 803.559, 884.361 " />
            <path fill="none" stroke-width="3.0" stroke-linecap="butt" stroke-opacity="1.0" stroke="rgb(0, 0, 0)" stroke-linejoin="miter" d=" M 871.459, 884.361 871.100, 884.601 870.667, 884.687 870.234, 884.601 869.875, 884.361 859.875, 884.361 849.875, 884.361 839.875, 884.361 837.357, 884.361 827.357, 884.361 817.357, 884.361 807.357, 884.361 805.152, 884.361 " />
            <path fill="none" stroke-width="3.0" stroke-linecap="butt" stroke-opacity="1.0" stroke="rgb(0, 0, 0)" stroke-linejoin="miter" d=" M 1124.342, 884.358 1124.345, 884.356 1124.342, 884.357 1124.342, 884.358 1124.342, 884.361 1124.337, 884.361 1123.978, 884.601 " />
            <path fill="none" stroke-width="3.0" stroke-linecap="butt" stroke-opacity="1.0" stroke="rgb(0, 0, 0)" stroke-linejoin="miter" d=" M 1057.187, 884.687 1056.754, 884.601 1056.395, 884.361 " />
            <path fill="none" stroke-width="3.0" stroke-linecap="butt" stroke-opacity="1.0" stroke="rgb(0, 0, 0)" stroke-linejoin="miter" d=" M 1123.978, 884.601 1123.545, 884.687 1123.112, 884.601 1122.753, 884.361 1112.753, 884.361 1102.753, 884.361 1092.753, 884.361 1082.753, 884.361 1072.753, 884.361 1062.753, 884.361 1057.979, 884.361 " />
            <path fill="none" stroke-width="3.0" stroke-linecap="butt" stroke-opacity="1.0" stroke="rgb(0, 0, 0)" stroke-linejoin="miter" d=" M 1057.979, 884.361 1057.620, 884.601 1057.187, 884.687 " />
            <path fill="none" stroke-width="3.0" stroke-linecap="butt" stroke-opacity="1.0" stroke="rgb(0, 0, 0)" stroke-linejoin="miter" d=" M 871.712, 883.988 871.473, 884.346 871.473, 884.361 871.459, 884.361 " />
            <path fill="none" stroke-width="3.0" stroke-linecap="butt" stroke-opacity="1.0" stroke="rgb(0, 0, 0)" stroke-linejoin="miter" d=" M 803.559, 884.361 803.559, 884.354 803.315, 883.988 803.229, 883.556 803.315, 883.123 803.559, 882.757 803.559, 872.757 803.559, 872.018 793.559, 872.018 783.559, 872.018 773.559, 872.018 763.559, 872.018 753.559, 872.018 743.559, 872.018 733.559, 872.018 723.559, 872.018 713.559, 872.018 703.559, 872.018 693.559, 872.018 683.559, 872.018 673.559, 872.018 663.559, 872.018 653.559, 872.018 643.559, 872.018 633.559, 872.018 623.559, 872.018 618.330, 872.018 618.330, 882.018 618.330, 882.756 " />
            <path fill="none" stroke-width="3.0" stroke-linecap="butt" stroke-opacity="1.0" stroke="rgb(0, 0, 0)" stroke-linejoin="miter" d=" M 399.303, 893.545 399.303, 893.576 " />
            <path fill="none" stroke-width="3.0" stroke-linecap="butt" stroke-opacity="1.0" stroke="rgb(0, 0, 0)" stroke-linejoin="miter" d=" M 399.303, 892.006 399.439, 892.140 " />
            <path fill="none" stroke-width="3.0" stroke-linecap="butt" stroke-opacity="1.0" stroke="rgb(0, 0, 0)" stroke-linejoin="miter" d=" M 399.439, 892.140 399.303, 892.006 " />
            <path fill="none" stroke-width="3.0" stroke-linecap="butt" stroke-opacity="1.0" stroke="rgb(0, 0, 0)" stroke-linejoin="miter" d=" M 399.303, 893.576 399.303, 893.545 " />
            <path fill="none" stroke-width="3.0" stroke-linecap="butt" stroke-opacity="1.0" stroke="rgb(0, 0, 0)" stroke-linejoin="miter" d=" M 399.449, 893.397 399.303, 893.545 399.303, 893.545 399.303, 893.545 399.449, 893.397 399.303, 893.545 399.303, 893.545 " />
            <path fill="none" stroke-width="3.0" stroke-linecap="butt" stroke-opacity="1.0" stroke="rgb(0, 0, 0)" stroke-linejoin="miter" d=" M 550.092, 883.988 550.006, 883.556 550.092, 883.123 550.337, 882.756 550.337, 872.756 550.337, 872.018 540.337, 872.018 530.337, 872.018 520.337, 872.018 510.337, 872.018 500.337, 872.018 490.337, 872.018 480.337, 872.018 470.337, 872.018 460.337, 872.018 450.337, 872.018 440.337, 872.018 430.337, 872.018 420.337, 872.018 410.337, 872.018 399.303, 872.018 " />
            <path fill="none" stroke-width="3.0" stroke-linecap="butt" stroke-opacity="1.0" stroke="rgb(0, 0, 0)" stroke-linejoin="miter" d=" M 550.337, 884.361 550.337, 884.355 550.092, 883.988 550.006, 883.556 " />
            <path fill="none" stroke-width="3.0" stroke-linecap="butt" stroke-opacity="1.0" stroke="rgb(0, 0, 0)" stroke-linejoin="miter" d=" M 550.337, 872.018 550.337, 882.018 550.337, 882.756 550.092, 883.123 " />
            <path fill="none" stroke-width="3.0" stroke-linecap="butt" stroke-opacity="1.0" stroke="rgb(0, 0, 0)" stroke-linejoin="miter" d=" M 550.092, 883.123 550.337, 882.756 550.337, 872.756 550.337, 872.018 " />
            <path fill="none" stroke-width="3.0" stroke-linecap="butt" stroke-opacity="1.0" stroke="rgb(0, 0, 0)" stroke-linejoin="miter" d=" M 550.337, 884.361 550.337, 884.355 550.092, 883.988 " />
            <path fill="none" stroke-width="3.0" stroke-linecap="butt" stroke-opacity="1.0" stroke="rgb(0, 0, 0)" stroke-linejoin="miter" d=" M 803.559, 884.354 803.315, 883.988 803.229, 883.556 " />
            <path fill="none" stroke-width="3.0" stroke-linecap="butt" stroke-opacity="1.0" stroke="rgb(0, 0, 0)" stroke-linejoin="miter" d=" M 618.330, 884.361 618.330, 884.355 618.575, 883.988 618.661, 883.556 " />
            <path fill="none" stroke-width="3.0" stroke-linecap="butt" stroke-opacity="1.0" stroke="rgb(0, 0, 0)" stroke-linejoin="miter" d=" M 618.575, 883.123 618.330, 882.756 618.330, 882.756 618.330, 882.756 618.575, 883.123 " />
            <path fill="none" stroke-width="3.0" stroke-linecap="butt" stroke-opacity="1.0" stroke="rgb(0, 0, 0)" stroke-linejoin="miter" d=" M 618.330, 882.756 618.330, 882.756 " />
            <path fill="none" stroke-width="3.0" stroke-linecap="butt" stroke-opacity="1.0" stroke="rgb(0, 0, 0)" stroke-linejoin="miter" d=" M 618.575, 883.123 618.661, 883.556 618.575, 883.988 618.330, 884.355 618.330, 884.361 " />
            <path fill="none" stroke-width="3.0" stroke-linecap="butt" stroke-opacity="1.0" stroke="rgb(0, 0, 0)" stroke-linejoin="miter" d=" M 1056.395, 884.361 1056.384, 884.361 1056.384, 884.350 1056.142, 883.988 1056.056, 883.556 1056.142, 883.123 1056.384, 882.761 1056.384, 882.761 1056.384, 872.761 1056.384, 872.018 " />
            <path fill="none" stroke-width="3.0" stroke-linecap="butt" stroke-opacity="1.0" stroke="rgb(0, 0, 0)" stroke-linejoin="miter" d=" M 871.473, 882.765 871.712, 883.123 871.798, 883.556 871.712, 883.988 871.473, 884.346 871.712, 883.988 871.798, 883.556 " />
            <path fill="none" stroke-width="3.0" stroke-linecap="butt" stroke-opacity="1.0" stroke="rgb(0, 0, 0)" stroke-linejoin="miter" d=" M 1056.384, 882.761 1056.384, 872.761 1056.384, 872.018 " />
            <path fill="none" stroke-width="3.0" stroke-linecap="butt" stroke-opacity="1.0" stroke="rgb(0, 0, 0)" stroke-linejoin="miter" d=" M 1056.142, 883.988 1056.384, 884.350 1056.384, 884.361 " />
            <path fill="none" stroke-width="3.0" stroke-linecap="butt" stroke-opacity="1.0" stroke="rgb(0, 0, 0)" stroke-linejoin="miter" d=" M 871.473, 884.361 871.473, 884.346 " />
            <path fill="none" stroke-width="3.0" stroke-linecap="butt" stroke-opacity="1.0" stroke="rgb(0, 0, 0)" stroke-linejoin="miter" d=" M 1124.342, 884.361 1124.342, 884.358 " />
            <path fill="none" stroke-width="3.0" stroke-linecap="butt" stroke-opacity="1.0" stroke="rgb(0, 0, 0)" stroke-linejoin="miter" d=" M 1124.342, 882.753 1124.345, 882.755 1124.590, 883.123 1124.676, 883.556 1124.590, 883.988 1124.345, 884.356 1124.342, 884.358 " />
            <path fill="none" stroke-width="3.0" stroke-linecap="butt" stroke-opacity="1.0" stroke="rgb(0, 0, 0)" stroke-linejoin="miter" d=" M 618.330, 884.355 618.330, 884.355 " />
            <path fill="none" stroke-width="3.0" stroke-linecap="butt" stroke-opacity="1.0" stroke="rgb(0, 0, 0)" stroke-linejoin="miter" d=" M 1056.384, 884.350 1056.142, 883.988 " />
            <path fill="none" stroke-width="3.0" stroke-linecap="butt" stroke-opacity="1.0" stroke="rgb(0, 0, 0)" stroke-linejoin="miter" d=" M 1324.949, 836.519 1325.309, 836.759 1325.320, 836.759 1325.320, 836.770 " />
            <path fill="none" stroke-width="3.0" stroke-linecap="butt" stroke-opacity="1.0" stroke="rgb(0, 0, 0)" stroke-linejoin="miter" d=" M 1324.516, 836.433 1324.949, 836.519 1325.309, 836.759 1325.320, 836.759 1325.320, 836.770 " />
            <path fill="none" stroke-width="3.0" stroke-linecap="butt" stroke-opacity="1.0" stroke="rgb(0, 0, 0)" stroke-linejoin="miter" d=" M 1325.320, 836.770 1325.562, 837.131 1325.648, 837.564 1325.562, 837.997 1325.320, 838.359 1325.320, 848.359 1325.320, 849.042 1334.535, 849.042 1344.535, 849.042 1346.878, 849.042 1356.727, 847.310 1366.576, 845.578 1376.425, 843.846 1386.274, 842.114 1396.123, 840.382 1397.826, 840.083 1397.826, 836.759 1397.826, 826.759 1397.826, 816.759 1397.826, 806.759 1397.826, 796.759 1397.826, 786.759 1397.826, 776.759 1397.826, 766.759 1397.826, 756.759 1397.826, 746.759 1397.826, 736.759 1397.826, 726.759 1397.826, 721.114 1387.826, 721.114 1377.826, 721.114 1367.826, 721.114 1357.826, 721.114 1347.826, 721.114 1346.878, 721.114 1336.878, 721.114 1336.122, 721.114 " />
            <path fill="none" stroke-width="3.0" stroke-linecap="butt" stroke-opacity="1.0" stroke="rgb(0, 0, 0)" stroke-linejoin="miter" d=" M 1397.826, 99.328 1387.996, 97.493 1378.166, 95.658 1368.336, 93.824 1358.505, 91.989 1348.675, 90.154 1346.878, 89.819 1336.878, 89.819 1334.536, 89.819 1325.320, 89.819 1325.320, 99.819 1325.320, 100.700 " />
            <path fill="none" stroke-width="3.0" stroke-linecap="butt" stroke-opacity="1.0" stroke="rgb(0, 0, 0)" stroke-linejoin="miter" d=" M 1324.083, 102.540 1323.724, 102.300 1313.724, 102.300 1303.762, 102.300 1303.762, 112.300 1303.762, 122.300 1303.762, 132.300 1303.762, 142.300 1303.762, 152.300 1303.762, 162.300 1303.762, 172.300 1303.762, 182.300 1303.762, 192.300 1303.762, 202.300 1303.762, 212.300 1303.762, 217.922 1303.762, 227.922 1303.762, 237.922 1303.762, 247.922 1303.762, 257.922 1303.762, 267.922 1303.762, 277.922 1303.762, 285.915 1303.762, 295.915 1303.762, 305.915 1303.762, 315.915 1303.762, 325.915 1303.762, 335.915 1303.762, 345.915 1303.762, 355.915 1303.762, 365.915 1303.762, 375.915 1303.762, 385.915 1303.762, 395.915 1303.762, 405.915 1303.762, 415.915 1303.762, 425.915 1303.762, 435.507 1303.762, 445.507 1303.762, 455.507 1303.762, 465.507 1303.762, 469.530 1303.762, 479.530 1303.762, 489.530 1303.762, 499.530 1303.762, 503.530 " />
            <path fill="none" stroke-width="3.0" stroke-linecap="butt" stroke-opacity="1.0" stroke="rgb(0, 0, 0)" stroke-linejoin="miter" d=" M 1325.562, 837.131 1325.320, 836.770 " />
            <path fill="none" stroke-width="3.0" stroke-linecap="butt" stroke-opacity="1.0" stroke="rgb(0, 0, 0)" stroke-linejoin="miter" d=" M 1303.762, 836.759 1313.762, 836.759 1323.724, 836.759 1324.083, 836.519 1324.516, 836.433 " />
            <path fill="none" stroke-width="3.0" stroke-linecap="butt" stroke-opacity="1.0" stroke="rgb(0, 0, 0)" stroke-linejoin="miter" d=" M 1303.762, 503.530 1303.762, 513.530 1303.762, 523.530 1303.762, 533.530 1303.762, 543.530 1303.762, 553.530 1303.762, 563.530 1303.762, 573.530 1303.762, 583.530 1303.762, 593.530 1303.762, 603.530 1303.762, 613.530 1303.762, 623.530 1303.762, 633.530 1303.762, 643.530 1303.762, 653.145 1303.762, 663.145 1303.762, 673.145 1303.762, 683.145 1303.762, 693.145 1303.762, 703.145 1303.762, 713.145 1303.762, 721.114 1303.762, 731.114 1303.762, 741.114 1303.762, 751.114 1303.762, 761.114 1303.762, 771.114 1303.762, 781.114 1303.762, 791.114 1303.762, 801.114 1303.762, 811.114 1303.762, 821.114 1303.762, 831.114 1303.762, 836.759 " />
            <path fill="none" stroke-width="3.0" stroke-linecap="butt" stroke-opacity="1.0" stroke="rgb(0, 0, 0)" stroke-linejoin="miter" d=" M 1325.320, 100.700 1325.562, 101.062 1325.648, 101.495 1325.562, 101.928 1325.320, 102.289 1325.320, 102.300 " />
            <path fill="none" stroke-width="3.0" stroke-linecap="butt" stroke-opacity="1.0" stroke="rgb(0, 0, 0)" stroke-linejoin="miter" d=" M 1325.562, 101.928 1325.320, 102.289 1325.320, 102.300 " />
            <path fill="none" stroke-width="3.0" stroke-linecap="butt" stroke-opacity="1.0" stroke="rgb(0, 0, 0)" stroke-linejoin="miter" d=" M 1336.140, 217.914 1336.145, 217.922 1346.145, 217.922 1346.878, 217.922 1356.878, 217.922 1366.878, 217.922 1376.878, 217.922 1386.878, 217.922 1396.878, 217.922 1397.826, 217.922 " />
            <path fill="none" stroke-width="3.0" stroke-linecap="butt" stroke-opacity="1.0" stroke="rgb(0, 0, 0)" stroke-linejoin="miter" d=" M 1334.907, 217.669 1334.540, 217.914 1334.536, 217.920 1334.534, 217.922 1334.294, 218.281 1334.208, 218.714 1334.294, 219.147 1334.536, 219.508 1334.536, 229.508 1334.536, 239.508 1334.536, 249.508 1334.536, 259.508 1334.536, 269.508 1334.536, 279.508 1334.536, 284.317 1334.294, 284.678 " />
            <path fill="none" stroke-width="3.0" stroke-linecap="butt" stroke-opacity="1.0" stroke="rgb(0, 0, 0)" stroke-linejoin="miter" d=" M 1334.294, 284.678 1334.208, 285.111 1334.294, 285.544 " />
            <path fill="none" stroke-width="3.0" stroke-linecap="butt" stroke-opacity="1.0" stroke="rgb(0, 0, 0)" stroke-linejoin="miter" d=" M 1334.208, 218.714 1334.294, 219.147 " />
            <path fill="none" stroke-width="3.0" stroke-linecap="butt" stroke-opacity="1.0" stroke="rgb(0, 0, 0)" stroke-linejoin="miter" d=" M 1334.536, 435.522 1334.294, 435.883 1334.208, 436.316 " />
            <path fill="none" stroke-width="3.0" stroke-linecap="butt" stroke-opacity="1.0" stroke="rgb(0, 0, 0)" stroke-linejoin="miter" d=" M 1334.536, 437.109 1334.294, 436.748 1334.208, 436.316 " />
            <path fill="none" stroke-width="3.0" stroke-linecap="butt" stroke-opacity="1.0" stroke="rgb(0, 0, 0)" stroke-linejoin="miter" d=" M 1334.208, 218.714 1334.294, 218.281 1334.534, 217.922 " />
            <path fill="none" stroke-width="3.0" stroke-linecap="butt" stroke-opacity="1.0" stroke="rgb(0, 0, 0)" stroke-linejoin="miter" d=" M 1334.536, 285.915 1334.536, 285.905 " />
            <path fill="none" stroke-width="3.0" stroke-linecap="butt" stroke-opacity="1.0" stroke="rgb(0, 0, 0)" stroke-linejoin="miter" d=" M 1334.294, 219.147 1334.208, 218.714 " />
            <path fill="none" stroke-width="3.0" stroke-linecap="butt" stroke-opacity="1.0" stroke="rgb(0, 0, 0)" stroke-linejoin="miter" d=" M 1334.536, 285.905 1334.294, 285.544 1334.208, 285.111 1334.294, 284.678 " />
            <path fill="none" stroke-width="3.0" stroke-linecap="butt" stroke-opacity="1.0" stroke="rgb(0, 0, 0)" stroke-linejoin="miter" d=" M 1334.294, 436.748 1334.208, 436.316 1334.294, 435.883 1334.536, 435.522 1334.536, 435.507 1334.552, 435.507 " />
            <path fill="none" stroke-width="3.0" stroke-linecap="butt" stroke-opacity="1.0" stroke="rgb(0, 0, 0)" stroke-linejoin="miter" d=" M 1334.536, 501.918 1334.536, 491.918 1334.536, 481.918 1334.536, 471.918 1334.536, 469.530 1334.536, 459.530 1334.536, 449.530 1334.536, 439.530 1334.536, 437.109 " />
            <path fill="none" stroke-width="3.0" stroke-linecap="butt" stroke-opacity="1.0" stroke="rgb(0, 0, 0)" stroke-linejoin="miter" d=" M 1334.208, 436.316 1334.294, 435.883 1334.536, 435.522 " />
            <path fill="none" stroke-width="3.0" stroke-linecap="butt" stroke-opacity="1.0" stroke="rgb(0, 0, 0)" stroke-linejoin="miter" d=" M 1334.294, 719.869 1334.208, 720.302 1334.294, 720.735 1334.535, 721.096 1334.535, 721.114 " />
            <path fill="none" stroke-width="3.0" stroke-linecap="butt" stroke-opacity="1.0" stroke="rgb(0, 0, 0)" stroke-linejoin="miter" d=" M 1334.907, 721.347 1334.557, 721.114 1334.535, 721.114 1334.536, 721.114 1334.536, 721.096 1334.294, 720.735 " />
            <path fill="none" stroke-width="3.0" stroke-linecap="butt" stroke-opacity="1.0" stroke="rgb(0, 0, 0)" stroke-linejoin="miter" d=" M 1334.535, 719.508 1334.535, 709.508 1334.535, 699.508 1334.535, 689.508 1334.536, 679.508 1334.536, 669.508 1334.536, 659.508 1334.536, 654.739 " />
            <path fill="none" stroke-width="3.0" stroke-linecap="butt" stroke-opacity="1.0" stroke="rgb(0, 0, 0)" stroke-linejoin="miter" d=" M 1334.294, 719.869 1334.536, 719.508 1334.536, 709.508 1334.536, 699.508 1334.536, 689.508 1334.536, 679.508 1334.536, 669.508 1334.536, 659.508 1334.536, 654.739 " />
            <path fill="none" stroke-width="3.0" stroke-linecap="butt" stroke-opacity="1.0" stroke="rgb(0, 0, 0)" stroke-linejoin="miter" d=" M 1334.294, 653.512 1334.536, 653.151 1334.536, 653.145 1334.540, 653.145 " />
            <path fill="none" stroke-width="3.0" stroke-linecap="butt" stroke-opacity="1.0" stroke="rgb(0, 0, 0)" stroke-linejoin="miter" d=" M 1334.536, 719.508 1334.294, 719.869 " />
            <path fill="none" stroke-width="3.0" stroke-linecap="butt" stroke-opacity="1.0" stroke="rgb(0, 0, 0)" stroke-linejoin="miter" d=" M 1334.536, 654.739 1334.294, 654.378 1334.208, 653.945 1334.294, 653.512 " />
            <path fill="none" stroke-width="3.0" stroke-linecap="butt" stroke-opacity="1.0" stroke="rgb(0, 0, 0)" stroke-linejoin="miter" d=" M 1334.294, 719.869 1334.535, 719.508 " />
            <path fill="none" stroke-width="3.0" stroke-linecap="butt" stroke-opacity="1.0" stroke="rgb(0, 0, 0)" stroke-linejoin="miter" d=" M 1334.536, 503.530 1334.536, 503.506 1334.294, 503.145 " />
            <path fill="none" stroke-width="3.0" stroke-linecap="butt" stroke-opacity="1.0" stroke="rgb(0, 0, 0)" stroke-linejoin="miter" d=" M 1334.294, 503.145 1334.208, 502.712 1334.294, 502.279 1334.536, 501.918 " />
            <path fill="none" stroke-width="3.0" stroke-linecap="butt" stroke-opacity="1.0" stroke="rgb(0, 0, 0)" stroke-linejoin="miter" d=" M 1334.552, 435.507 1334.907, 435.270 1335.340, 435.184 1335.773, 435.270 1336.127, 435.507 1346.127, 435.507 1346.878, 435.507 1356.878, 435.507 1366.878, 435.507 1376.878, 435.507 1386.878, 435.507 1396.878, 435.507 1397.826, 435.507 1397.826, 425.507 1397.826, 415.507 1397.826, 405.507 1397.826, 395.507 1397.826, 385.507 1397.826, 375.507 1397.826, 365.507 1397.826, 355.507 1397.826, 345.507 1397.826, 335.507 1397.826, 325.507 1397.826, 315.507 1397.826, 305.507 1397.826, 295.507 1397.826, 285.915 1387.826, 285.915 1377.826, 285.915 1367.826, 285.915 1357.826, 285.915 1347.826, 285.915 1346.878, 285.915 1336.878, 285.915 1336.133, 285.915 1336.133, 285.915 1335.773, 286.156 1335.340, 286.242 " />
            <path fill="none" stroke-width="3.0" stroke-linecap="butt" stroke-opacity="1.0" stroke="rgb(0, 0, 0)" stroke-linejoin="miter" d=" M 1335.340, 217.583 1334.907, 217.669 1334.540, 217.914 1334.534, 217.922 1334.536, 217.913 1334.540, 217.914 " />
            <path fill="none" stroke-width="3.0" stroke-linecap="butt" stroke-opacity="1.0" stroke="rgb(0, 0, 0)" stroke-linejoin="miter" d=" M 1335.340, 652.813 1335.773, 652.899 1336.139, 653.145 1346.139, 653.145 1346.878, 653.145 1356.878, 653.145 1366.878, 653.145 1376.878, 653.145 1386.878, 653.145 1396.878, 653.145 1397.826, 653.145 1397.826, 643.145 1397.826, 633.145 1397.826, 623.145 1397.826, 613.145 1397.826, 603.145 1397.826, 593.145 1397.826, 583.145 1397.826, 573.145 1397.826, 563.145 1397.826, 553.145 1397.826, 543.145 1397.826, 533.145 1397.826, 523.145 1397.826, 513.145 1397.826, 503.530 1387.826, 503.530 1377.826, 503.530 1367.826, 503.530 1357.826, 503.530 1347.826, 503.530 1346.878, 503.530 1336.878, 503.530 1336.113, 503.530 " />
            <path fill="none" stroke-width="3.0" stroke-linecap="butt" stroke-opacity="1.0" stroke="rgb(0, 0, 0)" stroke-linejoin="miter" d=" M 1325.320, 102.300 1325.309, 102.300 1324.949, 102.540 1324.516, 102.626 1324.083, 102.540 " />
            <path fill="none" stroke-width="3.0" stroke-linecap="butt" stroke-opacity="1.0" stroke="rgb(0, 0, 0)" stroke-linejoin="miter" d=" M 1335.340, 217.583 1335.773, 217.669 1336.140, 217.914 " />
            <path fill="none" stroke-width="3.0" stroke-linecap="butt" stroke-opacity="1.0" stroke="rgb(0, 0, 0)" stroke-linejoin="miter" d=" M 1335.340, 286.242 1334.907, 286.156 1334.546, 285.915 1334.546, 285.915 1334.536, 285.915 " />
            <path fill="none" stroke-width="3.0" stroke-linecap="butt" stroke-opacity="1.0" stroke="rgb(0, 0, 0)" stroke-linejoin="miter" d=" M 1334.546, 285.915 1334.907, 286.156 " />
            <path fill="none" stroke-width="3.0" stroke-linecap="butt" stroke-opacity="1.0" stroke="rgb(0, 0, 0)" stroke-linejoin="miter" d=" M 1336.133, 285.915 1346.133, 285.915 1346.878, 285.915 " />
            <path fill="none" stroke-width="3.0" stroke-linecap="butt" stroke-opacity="1.0" stroke="rgb(0, 0, 0)" stroke-linejoin="miter" d=" M 1334.546, 285.915 1334.536, 285.915 " />
            <path fill="none" stroke-width="3.0" stroke-linecap="butt" stroke-opacity="1.0" stroke="rgb(0, 0, 0)" stroke-linejoin="miter" d=" M 1346.878, 285.915 1336.878, 285.915 1336.133, 285.915 " />
            <path fill="none" stroke-width="3.0" stroke-linecap="butt" stroke-opacity="1.0" stroke="rgb(0, 0, 0)" stroke-linejoin="miter" d=" M 1336.113, 503.530 1335.773, 503.758 1335.340, 503.844 1334.907, 503.758 1334.566, 503.530 1334.536, 503.530 " />
            <path fill="none" stroke-width="3.0" stroke-linecap="butt" stroke-opacity="1.0" stroke="rgb(0, 0, 0)" stroke-linejoin="miter" d=" M 1334.540, 653.145 1334.907, 652.899 1335.340, 652.813 " />
            <path fill="none" stroke-width="3.0" stroke-linecap="butt" stroke-opacity="1.0" stroke="rgb(0, 0, 0)" stroke-linejoin="miter" d=" M 1334.907, 652.899 1335.340, 652.813 1335.340, 652.813 " />
            <path fill="none" stroke-width="3.0" stroke-linecap="butt" stroke-opacity="1.0" stroke="rgb(0, 0, 0)" stroke-linejoin="miter" d=" M 1336.122, 721.114 1335.773, 721.347 1335.340, 721.434 " />
            <path fill="none" stroke-width="3.0" stroke-linecap="butt" stroke-opacity="1.0" stroke="rgb(0, 0, 0)" stroke-linejoin="miter" d=" M 1397.826, 217.922 1397.826, 207.922 1397.826, 197.922 1397.826, 187.922 1397.826, 177.922 1397.826, 167.922 1397.826, 157.922 1397.826, 147.922 1397.826, 137.922 1397.826, 127.922 1397.826, 117.922 1397.826, 107.922 1397.826, 102.300 1397.826, 99.328 " />
            <path fill="none" stroke-width="3.0" stroke-linecap="butt" stroke-opacity="1.0" stroke="rgb(0, 0, 0)" stroke-linejoin="miter" d=" M 1334.208, 436.316 1334.294, 436.748 1334.536, 437.109 " />
            <path fill="none" stroke-width="3.0" stroke-linecap="butt" stroke-opacity="1.0" stroke="rgb(0, 0, 0)" stroke-linejoin="miter" d=" M 1334.294, 218.281 1334.534, 217.922 1334.540, 217.914 1334.536, 217.920 " />
            <path fill="none" stroke-width="3.0" stroke-linecap="butt" stroke-opacity="1.0" stroke="rgb(0, 0, 0)" stroke-linejoin="miter" d=" M 1334.294, 285.544 1334.208, 285.111 " />
            <path fill="none" stroke-width="3.0" stroke-linecap="butt" stroke-opacity="1.0" stroke="rgb(0, 0, 0)" stroke-linejoin="miter" d=" M 1509.016, 93.870 1499.186, 92.035 1489.355, 90.200 1479.525, 88.366 1469.695, 86.531 1459.865, 84.696 1458.068, 84.361 1448.068, 84.361 1445.725, 84.361 1436.509, 84.361 " />
            <path fill="none" stroke-width="3.0" stroke-linecap="butt" stroke-opacity="1.0" stroke="rgb(0, 0, 0)" stroke-linejoin="miter" d=" M 1436.509, 832.924 1436.509, 842.924 1436.509, 843.584 1445.725, 843.584 1455.725, 843.584 1458.068, 843.584 1467.917, 841.852 1477.765, 840.120 1487.614, 838.388 1497.463, 836.656 1507.312, 834.924 1509.016, 834.625 1509.016, 831.301 1509.016, 821.301 1509.016, 811.301 1509.016, 801.301 1509.016, 791.301 1509.016, 781.301 1509.016, 771.301 1509.016, 761.301 1509.016, 751.301 1509.016, 741.301 1509.016, 731.301 1509.016, 721.301 1509.016, 715.656 1499.016, 715.656 1489.016, 715.656 1479.016, 715.656 1469.016, 715.656 1459.016, 715.656 1458.068, 715.656 1448.068, 715.656 1447.336, 715.656 " />
            <path fill="none" stroke-width="3.0" stroke-linecap="butt" stroke-opacity="1.0" stroke="rgb(0, 0, 0)" stroke-linejoin="miter" d=" M 1435.276, 97.101 1434.908, 96.856 1434.900, 96.842 1434.900, 96.842 1424.900, 96.842 1414.951, 96.842 1414.951, 106.842 1414.951, 116.842 1414.951, 126.842 1414.951, 136.842 1414.951, 146.842 1414.951, 156.842 1414.951, 166.842 1414.951, 176.842 1414.951, 186.842 1414.951, 196.842 1414.951, 206.842 1414.951, 212.464 1414.951, 222.464 1414.951, 232.464 1414.951, 242.464 1414.951, 252.464 1414.951, 262.464 1414.951, 272.464 1414.951, 280.457 1414.951, 290.457 1414.951, 300.457 1414.951, 310.457 1414.951, 320.457 1414.951, 330.457 1414.951, 340.457 1414.951, 350.457 1414.951, 360.457 1414.951, 370.457 1414.951, 380.457 1414.951, 390.457 1414.951, 400.457 1414.951, 410.457 1414.951, 420.457 1414.951, 430.049 1414.951, 440.049 1414.951, 450.049 1414.951, 460.049 1414.951, 464.072 1414.951, 474.072 1414.951, 484.072 1414.951, 494.072 1414.951, 498.072 " />
            <path fill="none" stroke-width="3.0" stroke-linecap="butt" stroke-opacity="1.0" stroke="rgb(0, 0, 0)" stroke-linejoin="miter" d=" M 1436.509, 831.301 1436.509, 831.326 1436.754, 831.692 1436.840, 832.125 1436.754, 832.558 1436.509, 832.924 " />
            <path fill="none" stroke-width="3.0" stroke-linecap="butt" stroke-opacity="1.0" stroke="rgb(0, 0, 0)" stroke-linejoin="miter" d=" M 1414.951, 498.072 1414.951, 508.072 1414.951, 518.072 1414.951, 528.072 1414.951, 538.072 1414.951, 548.072 1414.951, 558.072 1414.951, 568.072 1414.951, 578.072 1414.951, 588.072 1414.951, 598.072 1414.951, 608.072 1414.951, 618.072 1414.951, 628.072 1414.951, 638.072 1414.951, 647.687 1414.951, 657.687 1414.951, 667.687 1414.951, 677.687 1414.951, 687.687 1414.951, 697.687 1414.951, 707.687 1414.951, 715.656 1414.951, 725.656 1414.951, 735.656 1414.951, 745.656 1414.951, 755.656 1414.951, 765.656 1414.951, 775.656 1414.951, 785.656 1414.951, 795.656 1414.951, 805.656 1414.951, 815.656 1414.951, 825.656 1414.951, 831.301 1424.951, 831.301 1434.944, 831.301 1435.276, 831.080 1435.708, 830.994 1436.141, 831.080 1436.473, 831.301 1436.509, 831.301 " />
            <path fill="none" stroke-width="3.0" stroke-linecap="butt" stroke-opacity="1.0" stroke="rgb(0, 0, 0)" stroke-linejoin="miter" d=" M 1436.509, 96.854 1436.517, 96.842 1436.754, 96.489 " />
            <path fill="none" stroke-width="3.0" stroke-linecap="butt" stroke-opacity="1.0" stroke="rgb(0, 0, 0)" stroke-linejoin="miter" d=" M 1436.509, 84.361 1436.509, 94.361 1436.509, 95.257 1436.754, 95.623 " />
            <path fill="none" stroke-width="3.0" stroke-linecap="butt" stroke-opacity="1.0" stroke="rgb(0, 0, 0)" stroke-linejoin="miter" d=" M 1436.754, 96.489 1436.519, 96.849 1436.509, 96.854 " />
            <path fill="none" stroke-width="3.0" stroke-linecap="butt" stroke-opacity="1.0" stroke="rgb(0, 0, 0)" stroke-linejoin="miter" d=" M 1436.754, 95.623 1436.840, 96.056 1436.754, 96.489 " />
            <path fill="none" stroke-width="3.0" stroke-linecap="butt" stroke-opacity="1.0" stroke="rgb(0, 0, 0)" stroke-linejoin="miter" d=" M 1445.725, 212.464 1445.747, 212.464 1445.747, 212.464 1446.099, 212.229 1446.532, 212.143 " />
            <path fill="none" stroke-width="3.0" stroke-linecap="butt" stroke-opacity="1.0" stroke="rgb(0, 0, 0)" stroke-linejoin="miter" d=" M 1446.532, 212.143 1446.965, 212.229 1447.316, 212.464 1447.316, 212.464 1457.316, 212.464 1458.068, 212.464 1468.068, 212.464 1478.068, 212.464 1488.068, 212.464 1498.068, 212.464 1508.068, 212.464 1509.016, 212.464 " />
            <path fill="none" stroke-width="3.0" stroke-linecap="butt" stroke-opacity="1.0" stroke="rgb(0, 0, 0)" stroke-linejoin="miter" d=" M 1445.486, 279.238 1445.400, 279.671 1445.486, 280.104 " />
            <path fill="none" stroke-width="3.0" stroke-linecap="butt" stroke-opacity="1.0" stroke="rgb(0, 0, 0)" stroke-linejoin="miter" d=" M 1445.486, 279.238 1445.725, 278.882 1445.725, 268.882 1445.725, 258.882 1445.725, 248.882 1445.725, 238.882 1445.725, 228.882 1445.725, 218.882 1445.725, 214.064 1445.486, 213.708 1445.400, 213.275 1445.486, 212.842 " />
            <path fill="none" stroke-width="3.0" stroke-linecap="butt" stroke-opacity="1.0" stroke="rgb(0, 0, 0)" stroke-linejoin="miter" d=" M 1445.400, 213.275 1445.486, 213.708 " />
            <path fill="none" stroke-width="3.0" stroke-linecap="butt" stroke-opacity="1.0" stroke="rgb(0, 0, 0)" stroke-linejoin="miter" d=" M 1445.725, 430.086 1445.486, 430.443 1445.400, 430.876 " />
            <path fill="none" stroke-width="3.0" stroke-linecap="butt" stroke-opacity="1.0" stroke="rgb(0, 0, 0)" stroke-linejoin="miter" d=" M 1445.725, 431.666 1445.486, 431.309 1445.400, 430.876 " />
            <path fill="none" stroke-width="3.0" stroke-linecap="butt" stroke-opacity="1.0" stroke="rgb(0, 0, 0)" stroke-linejoin="miter" d=" M 1445.400, 213.275 1445.486, 212.842 1445.725, 212.485 1445.725, 212.464 " />
            <path fill="none" stroke-width="3.0" stroke-linecap="butt" stroke-opacity="1.0" stroke="rgb(0, 0, 0)" stroke-linejoin="miter" d=" M 1445.722, 280.457 1445.486, 280.104 " />
            <path fill="none" stroke-width="3.0" stroke-linecap="butt" stroke-opacity="1.0" stroke="rgb(0, 0, 0)" stroke-linejoin="miter" d=" M 1445.486, 280.104 1445.400, 279.671 1445.486, 279.238 " />
            <path fill="none" stroke-width="3.0" stroke-linecap="butt" stroke-opacity="1.0" stroke="rgb(0, 0, 0)" stroke-linejoin="miter" d=" M 1445.486, 213.708 1445.400, 213.275 " />
            <path fill="none" stroke-width="3.0" stroke-linecap="butt" stroke-opacity="1.0" stroke="rgb(0, 0, 0)" stroke-linejoin="miter" d=" M 1445.725, 431.666 1445.486, 431.309 1445.400, 430.876 1445.486, 430.443 1445.725, 430.086 1445.725, 430.049 " />
            <path fill="none" stroke-width="3.0" stroke-linecap="butt" stroke-opacity="1.0" stroke="rgb(0, 0, 0)" stroke-linejoin="miter" d=" M 1445.725, 496.483 1445.725, 486.483 1445.725, 476.483 1445.725, 466.483 1445.725, 464.072 1445.725, 454.072 1445.725, 444.072 1445.725, 434.072 1445.725, 431.666 " />
            <path fill="none" stroke-width="3.0" stroke-linecap="butt" stroke-opacity="1.0" stroke="rgb(0, 0, 0)" stroke-linejoin="miter" d=" M 1445.400, 430.876 1445.486, 430.443 1445.725, 430.086 " />
            <path fill="none" stroke-width="3.0" stroke-linecap="butt" stroke-opacity="1.0" stroke="rgb(0, 0, 0)" stroke-linejoin="miter" d=" M 1445.725, 649.295 1445.725, 659.295 1445.725, 669.295 1445.725, 679.295 1445.725, 689.295 1445.725, 699.295 1445.725, 709.295 1445.725, 714.073 1445.486, 714.430 1445.400, 714.863 1445.486, 715.296 1445.725, 715.653 1445.725, 715.656 " />
            <path fill="none" stroke-width="3.0" stroke-linecap="butt" stroke-opacity="1.0" stroke="rgb(0, 0, 0)" stroke-linejoin="miter" d=" M 1445.727, 715.656 1445.725, 715.656 1445.725, 715.656 1445.725, 715.653 1445.486, 715.296 1445.725, 715.653 " />
            <path fill="none" stroke-width="3.0" stroke-linecap="butt" stroke-opacity="1.0" stroke="rgb(0, 0, 0)" stroke-linejoin="miter" d=" M 1445.725, 714.073 1445.725, 704.073 1445.725, 694.073 1445.725, 684.073 1445.725, 674.073 1445.725, 664.073 1445.725, 654.073 1445.725, 649.295 1445.486, 648.938 " />
            <path fill="none" stroke-width="3.0" stroke-linecap="butt" stroke-opacity="1.0" stroke="rgb(0, 0, 0)" stroke-linejoin="miter" d=" M 1445.486, 648.072 1445.725, 647.716 1445.725, 647.687 1445.760, 647.687 1446.099, 647.460 1446.532, 647.374 " />
            <path fill="none" stroke-width="3.0" stroke-linecap="butt" stroke-opacity="1.0" stroke="rgb(0, 0, 0)" stroke-linejoin="miter" d=" M 1445.725, 714.073 1445.486, 714.430 " />
            <path fill="none" stroke-width="3.0" stroke-linecap="butt" stroke-opacity="1.0" stroke="rgb(0, 0, 0)" stroke-linejoin="miter" d=" M 1445.486, 714.430 1445.725, 714.073 " />
            <path fill="none" stroke-width="3.0" stroke-linecap="butt" stroke-opacity="1.0" stroke="rgb(0, 0, 0)" stroke-linejoin="miter" d=" M 1445.725, 498.072 1445.725, 498.063 1445.486, 497.706 " />
            <path fill="none" stroke-width="3.0" stroke-linecap="butt" stroke-opacity="1.0" stroke="rgb(0, 0, 0)" stroke-linejoin="miter" d=" M 1445.486, 497.706 1445.400, 497.273 1445.486, 496.840 1445.725, 496.483 " />
            <path fill="none" stroke-width="3.0" stroke-linecap="butt" stroke-opacity="1.0" stroke="rgb(0, 0, 0)" stroke-linejoin="miter" d=" M 1446.532, 280.803 1446.099, 280.717 1445.732, 280.471 1445.725, 280.461 1445.722, 280.457 " />
            <path fill="none" stroke-width="3.0" stroke-linecap="butt" stroke-opacity="1.0" stroke="rgb(0, 0, 0)" stroke-linejoin="miter" d=" M 1446.965, 429.831 1447.291, 430.049 1457.291, 430.049 1458.068, 430.049 1468.068, 430.049 1478.068, 430.049 1488.068, 430.049 1498.068, 430.049 1508.068, 430.049 1509.016, 430.049 1509.016, 420.049 1509.016, 410.049 1509.016, 400.049 1509.016, 390.049 1509.016, 380.049 1509.016, 370.049 1509.016, 360.049 1509.016, 350.049 1509.016, 340.049 1509.016, 330.049 1509.016, 320.049 1509.016, 310.049 1509.016, 300.049 1509.016, 290.049 1509.016, 280.457 1499.016, 280.457 1489.016, 280.457 1479.016, 280.457 1469.016, 280.457 1459.016, 280.457 1458.068, 280.457 1448.068, 280.457 1447.341, 280.457 1447.341, 280.457 " />
            <path fill="none" stroke-width="3.0" stroke-linecap="butt" stroke-opacity="1.0" stroke="rgb(0, 0, 0)" stroke-linejoin="miter" d=" M 1446.532, 647.374 1446.965, 647.460 1447.304, 647.687 1457.304, 647.687 1458.068, 647.687 1468.068, 647.687 1478.068, 647.687 1488.068, 647.687 1498.068, 647.687 1508.068, 647.687 1509.016, 647.687 1509.016, 637.687 1509.016, 627.687 1509.016, 617.687 1509.016, 607.687 1509.016, 597.687 1509.016, 587.687 1509.016, 577.687 1509.016, 567.687 1509.016, 557.687 1509.016, 547.687 1509.016, 537.687 1509.016, 527.687 1509.016, 517.687 1509.016, 507.687 1509.016, 498.072 " />
            <path fill="none" stroke-width="3.0" stroke-linecap="butt" stroke-opacity="1.0" stroke="rgb(0, 0, 0)" stroke-linejoin="miter" d=" M 1434.900, 96.842 1434.908, 96.856 " />
            <path fill="none" stroke-width="3.0" stroke-linecap="butt" stroke-opacity="1.0" stroke="rgb(0, 0, 0)" stroke-linejoin="miter" d=" M 1436.754, 96.489 1436.509, 96.854 1436.508, 96.856 1436.141, 97.101 1435.708, 97.187 1435.276, 97.101 " />
            <path fill="none" stroke-width="3.0" stroke-linecap="butt" stroke-opacity="1.0" stroke="rgb(0, 0, 0)" stroke-linejoin="miter" d=" M 1434.908, 96.856 1434.900, 96.842 " />
            <path fill="none" stroke-width="3.0" stroke-linecap="butt" stroke-opacity="1.0" stroke="rgb(0, 0, 0)" stroke-linejoin="miter" d=" M 1446.099, 212.229 1445.747, 212.464 " />
            <path fill="none" stroke-width="3.0" stroke-linecap="butt" stroke-opacity="1.0" stroke="rgb(0, 0, 0)" stroke-linejoin="miter" d=" M 1446.965, 212.229 1447.316, 212.464 " />
            <path fill="none" stroke-width="3.0" stroke-linecap="butt" stroke-opacity="1.0" stroke="rgb(0, 0, 0)" stroke-linejoin="miter" d=" M 1445.747, 212.464 1446.099, 212.229 " />
            <path fill="none" stroke-width="3.0" stroke-linecap="butt" stroke-opacity="1.0" stroke="rgb(0, 0, 0)" stroke-linejoin="miter" d=" M 1446.099, 429.831 1445.772, 430.049 " />
            <path fill="none" stroke-width="3.0" stroke-linecap="butt" stroke-opacity="1.0" stroke="rgb(0, 0, 0)" stroke-linejoin="miter" d=" M 1445.486, 280.104 1445.725, 280.461 1445.732, 280.471 1446.099, 280.717 " />
            <path fill="none" stroke-width="3.0" stroke-linecap="butt" stroke-opacity="1.0" stroke="rgb(0, 0, 0)" stroke-linejoin="miter" d=" M 1458.068, 280.457 1448.068, 280.457 1447.341, 280.457 1447.341, 280.457 1447.332, 280.471 " />
            <path fill="none" stroke-width="3.0" stroke-linecap="butt" stroke-opacity="1.0" stroke="rgb(0, 0, 0)" stroke-linejoin="miter" d=" M 1445.725, 430.049 1445.772, 430.049 1445.772, 430.049 1446.099, 429.831 1446.532, 429.745 1446.965, 429.831 " />
            <path fill="none" stroke-width="3.0" stroke-linecap="butt" stroke-opacity="1.0" stroke="rgb(0, 0, 0)" stroke-linejoin="miter" d=" M 1445.772, 430.049 1446.099, 429.831 " />
            <path fill="none" stroke-width="3.0" stroke-linecap="butt" stroke-opacity="1.0" stroke="rgb(0, 0, 0)" stroke-linejoin="miter" d=" M 1447.332, 280.471 1446.965, 280.717 1446.532, 280.803 " />
            <path fill="none" stroke-width="3.0" stroke-linecap="butt" stroke-opacity="1.0" stroke="rgb(0, 0, 0)" stroke-linejoin="miter" d=" M 1445.727, 715.656 1445.725, 715.656 " />
            <path fill="none" stroke-width="3.0" stroke-linecap="butt" stroke-opacity="1.0" stroke="rgb(0, 0, 0)" stroke-linejoin="miter" d=" M 1446.965, 498.318 1446.532, 498.404 1446.099, 498.318 1445.732, 498.073 1445.731, 498.072 1445.725, 498.072 " />
            <path fill="none" stroke-width="3.0" stroke-linecap="butt" stroke-opacity="1.0" stroke="rgb(0, 0, 0)" stroke-linejoin="miter" d=" M 1446.099, 647.460 1446.532, 647.374 1446.532, 647.374 " />
            <path fill="none" stroke-width="3.0" stroke-linecap="butt" stroke-opacity="1.0" stroke="rgb(0, 0, 0)" stroke-linejoin="miter" d=" M 1509.016, 498.072 1499.016, 498.072 1489.016, 498.072 1479.016, 498.072 1469.016, 498.072 1459.016, 498.072 1458.068, 498.072 1448.068, 498.072 1447.332, 498.072 1447.332, 498.073 " />
            <path fill="none" stroke-width="3.0" stroke-linecap="butt" stroke-opacity="1.0" stroke="rgb(0, 0, 0)" stroke-linejoin="miter" d=" M 1445.725, 498.072 1445.731, 498.072 1445.732, 498.080 " />
            <path fill="none" stroke-width="3.0" stroke-linecap="butt" stroke-opacity="1.0" stroke="rgb(0, 0, 0)" stroke-linejoin="miter" d=" M 1446.965, 715.908 1446.532, 715.994 1446.099, 715.908 1445.732, 715.663 1445.727, 715.656 " />
            <path fill="none" stroke-width="3.0" stroke-linecap="butt" stroke-opacity="1.0" stroke="rgb(0, 0, 0)" stroke-linejoin="miter" d=" M 1447.336, 715.656 1447.332, 715.663 1446.965, 715.908 " />
            <path fill="none" stroke-width="3.0" stroke-linecap="butt" stroke-opacity="1.0" stroke="rgb(0, 0, 0)" stroke-linejoin="miter" d=" M 1509.016, 212.464 1509.016, 202.464 1509.016, 192.464 1509.016, 182.464 1509.016, 172.464 1509.016, 162.464 1509.016, 152.464 1509.016, 142.464 1509.016, 132.464 1509.016, 122.464 1509.016, 112.464 1509.016, 102.464 1509.016, 96.842 1509.016, 93.870 " />
            <path fill="none" stroke-width="3.0" stroke-linecap="butt" stroke-opacity="1.0" stroke="rgb(0, 0, 0)" stroke-linejoin="miter" d=" M 1445.486, 280.104 1445.400, 279.671 " />
            <path fill="none" stroke-width="3.0" stroke-linecap="butt" stroke-opacity="1.0" stroke="rgb(0, 0, 0)" stroke-linejoin="miter" d=" M 1445.732, 280.471 1445.725, 280.461 1445.486, 280.104 " />
            <path fill="none" stroke-width="3.0" stroke-linecap="butt" stroke-opacity="1.0" stroke="rgb(0, 0, 0)" stroke-linejoin="miter" d=" M 1436.509, 96.854 1436.754, 96.489 1436.517, 96.842 " />
            <path fill="none" stroke-width="3.0" stroke-linecap="butt" stroke-opacity="1.0" stroke="rgb(0, 0, 0)" stroke-linejoin="miter" d=" M 400.425, 278.871 400.425, 278.862 400.416, 278.862 " />
            <path fill="none" stroke-width="3.0" stroke-linecap="butt" stroke-opacity="1.0" stroke="rgb(0, 0, 0)" stroke-linejoin="miter" d=" M 400.416, 278.862 400.054, 278.620 " />
            <path fill="none" stroke-width="3.0" stroke-linecap="butt" stroke-opacity="1.0" stroke="rgb(0, 0, 0)" stroke-linejoin="miter" d=" M 619.456, 829.708 619.456, 829.718 " />
            <path fill="none" stroke-width="3.0" stroke-linecap="butt" stroke-opacity="1.0" stroke="rgb(0, 0, 0)" stroke-linejoin="miter" d=" M 619.456, 829.718 619.214, 830.081 " />
            <path fill="none" stroke-width="3.0" stroke-linecap="butt" stroke-opacity="1.0" stroke="rgb(0, 0, 0)" stroke-linejoin="miter" d=" M 1125.841, 829.468 1125.482, 829.708 " />
            <path fill="none" stroke-width="3.0" stroke-linecap="butt" stroke-opacity="1.0" stroke="rgb(0, 0, 0)" stroke-linejoin="miter" d=" M 1125.482, 829.708 1125.469, 829.708 1125.469, 829.721 1125.229, 830.080 " />
            <path fill="none" stroke-width="3.0" stroke-linecap="butt" stroke-opacity="1.0" stroke="rgb(0, 0, 0)" stroke-linejoin="miter" d=" M 1276.922, 713.837 1276.563, 714.077 1276.551, 714.077 1276.551, 714.090 1276.310, 714.449 " />
            <path fill="none" stroke-width="3.0" stroke-linecap="butt" stroke-opacity="1.0" stroke="rgb(0, 0, 0)" stroke-linejoin="miter" d=" M 619.214, 94.878 619.456, 95.241 619.456, 95.246 619.461, 95.246 619.826, 95.490 " />
            <path fill="none" stroke-width="3.0" stroke-linecap="butt" stroke-opacity="1.0" stroke="rgb(0, 0, 0)" stroke-linejoin="miter" d=" M 1057.519, 829.708 1057.512, 829.708 1057.153, 829.468 " />
            <path fill="none" stroke-width="3.0" stroke-linecap="butt" stroke-opacity="1.0" stroke="rgb(0, 0, 0)" stroke-linejoin="miter" d=" M 400.667, 714.446 400.425, 714.084 400.425, 714.077 400.419, 714.077 " />
            <path fill="none" stroke-width="3.0" stroke-linecap="butt" stroke-opacity="1.0" stroke="rgb(0, 0, 0)" stroke-linejoin="miter" d=" M 551.481, 829.708 551.475, 829.708 " />
            <path fill="none" stroke-width="3.0" stroke-linecap="butt" stroke-opacity="1.0" stroke="rgb(0, 0, 0)" stroke-linejoin="miter" d=" M 551.475, 829.708 551.116, 829.469 " />
            <path fill="none" stroke-width="3.0" stroke-linecap="butt" stroke-opacity="1.0" stroke="rgb(0, 0, 0)" stroke-linejoin="miter" d=" M 400.667, 496.844 400.425, 496.482 400.425, 496.476 " />
            <path fill="none" stroke-width="3.0" stroke-linecap="butt" stroke-opacity="1.0" stroke="rgb(0, 0, 0)" stroke-linejoin="miter" d=" M 874.195, 95.246 873.829, 95.490 873.396, 95.576 872.963, 95.490 872.598, 95.246 872.596, 95.245 " />
            <path fill="none" stroke-width="3.0" stroke-linecap="butt" stroke-opacity="1.0" stroke="rgb(0, 0, 0)" stroke-linejoin="miter" d=" M 872.351, 94.878 872.596, 95.245 " />
            <path fill="none" stroke-width="3.0" stroke-linecap="butt" stroke-opacity="1.0" stroke="rgb(0, 0, 0)" stroke-linejoin="miter" d=" M 1057.519, 95.246 1057.519, 95.245 " />
            <path fill="none" stroke-width="3.0" stroke-linecap="butt" stroke-opacity="1.0" stroke="rgb(0, 0, 0)" stroke-linejoin="miter" d=" M 1057.519, 829.713 1057.527, 829.714 1057.765, 830.080 " />
            <path fill="none" stroke-width="3.0" stroke-linecap="butt" stroke-opacity="1.0" stroke="rgb(0, 0, 0)" stroke-linejoin="miter" d=" M 400.419, 714.077 400.054, 713.833 " />
            <path fill="none" stroke-width="3.0" stroke-linecap="butt" stroke-opacity="1.0" stroke="rgb(0, 0, 0)" stroke-linejoin="miter" d=" M 400.425, 496.476 400.420, 496.476 400.054, 496.232 " />
            <path fill="none" stroke-width="3.0" stroke-linecap="butt" stroke-opacity="1.0" stroke="rgb(0, 0, 0)" stroke-linejoin="miter" d=" M 400.667, 279.232 400.425, 278.871 " />
            <path fill="none" stroke-width="3.0" stroke-linecap="butt" stroke-opacity="1.0" stroke="rgb(0, 0, 0)" stroke-linejoin="miter" d=" M 872.598, 95.246 872.606, 95.252 " />
            <path fill="none" stroke-width="3.0" stroke-linecap="butt" stroke-opacity="1.0" stroke="rgb(0, 0, 0)" stroke-linejoin="miter" d=" M 551.116, 95.491 551.481, 95.247 551.482, 95.246 " />
            <path fill="none" stroke-width="3.0" stroke-linecap="butt" stroke-opacity="1.0" stroke="rgb(0, 0, 0)" stroke-linejoin="miter" d=" M 400.425, 210.874 400.425, 210.866 400.667, 210.505 " />
            <path fill="none" stroke-width="3.0" stroke-linecap="butt" stroke-opacity="1.0" stroke="rgb(0, 0, 0)" stroke-linejoin="miter" d=" M 1125.469, 95.246 1125.476, 95.246 1125.841, 95.490 " />
            <path fill="none" stroke-width="3.0" stroke-linecap="butt" stroke-opacity="1.0" stroke="rgb(0, 0, 0)" stroke-linejoin="miter" d=" M 1277.788, 496.247 1278.131, 496.476 1288.131, 496.476 1288.843, 496.476 1288.843, 486.476 1288.843, 476.476 1288.843, 466.476 1288.843, 462.477 1288.843, 452.477 1288.843, 442.477 1288.843, 432.477 1288.843, 428.462 1278.843, 428.462 1278.105, 428.462 1277.952, 428.612 1277.543, 428.777 1277.101, 428.773 " />
            <path fill="none" stroke-width="3.0" stroke-linecap="butt" stroke-opacity="1.0" stroke="rgb(0, 0, 0)" stroke-linejoin="miter" d=" M 1277.101, 428.773 1276.695, 428.600 1276.560, 428.462 " />
            <path fill="none" stroke-width="3.0" stroke-linecap="butt" stroke-opacity="1.0" stroke="rgb(0, 0, 0)" stroke-linejoin="miter" d=" M 398.821, 428.473 398.814, 428.462 388.814, 428.462 388.087, 428.462 " />
            <path fill="none" stroke-width="3.0" stroke-linecap="butt" stroke-opacity="1.0" stroke="rgb(0, 0, 0)" stroke-linejoin="miter" d=" M 400.667, 428.106 400.425, 428.468 400.421, 428.473 400.054, 428.719 " />
            <path fill="none" stroke-width="3.0" stroke-linecap="butt" stroke-opacity="1.0" stroke="rgb(0, 0, 0)" stroke-linejoin="miter" d=" M 400.054, 428.719 399.621, 428.805 399.188, 428.719 398.821, 428.473 " />
            <path fill="none" stroke-width="3.0" stroke-linecap="butt" stroke-opacity="1.0" stroke="rgb(0, 0, 0)" stroke-linejoin="miter" d=" M 804.702, 829.718 804.948, 830.085 805.034, 830.518 804.948, 830.951 804.702, 831.318 804.686, 831.328 " />
            <path fill="none" stroke-width="3.0" stroke-linecap="butt" stroke-opacity="1.0" stroke="rgb(0, 0, 0)" stroke-linejoin="miter" d=" M 804.686, 831.328 804.686, 841.328 804.686, 842.008 814.686, 842.008 824.686, 842.008 834.686, 842.008 838.488, 842.008 848.488, 842.008 858.488, 842.008 868.488, 842.008 872.606, 842.008 872.606, 832.008 872.606, 831.320 872.596, 831.313 " />
            <path fill="none" stroke-width="3.0" stroke-linecap="butt" stroke-opacity="1.0" stroke="rgb(0, 0, 0)" stroke-linejoin="miter" d=" M 804.686, 829.707 804.689, 829.708 804.702, 829.718 " />
            <path fill="none" stroke-width="3.0" stroke-linecap="butt" stroke-opacity="1.0" stroke="rgb(0, 0, 0)" stroke-linejoin="miter" d=" M 400.425, 210.874 400.418, 210.874 400.054, 211.117 399.621, 211.203 399.188, 211.117 398.825, 210.874 388.825, 210.874 388.087, 210.874 388.087, 220.874 388.087, 230.874 388.087, 240.874 388.087, 250.874 388.087, 260.874 388.087, 270.874 388.087, 278.862 398.087, 278.862 398.827, 278.862 399.188, 278.620 399.621, 278.534 400.054, 278.620 400.416, 278.862 " />
            <path fill="none" stroke-width="3.0" stroke-linecap="butt" stroke-opacity="1.0" stroke="rgb(0, 0, 0)" stroke-linejoin="miter" d=" M 400.416, 278.862 400.425, 278.862 400.425, 278.871 " />
            <path fill="none" stroke-width="3.0" stroke-linecap="butt" stroke-opacity="1.0" stroke="rgb(0, 0, 0)" stroke-linejoin="miter" d=" M 619.456, 831.309 619.214, 830.946 619.128, 830.513 619.214, 830.081 619.456, 829.718 " />
            <path fill="none" stroke-width="3.0" stroke-linecap="butt" stroke-opacity="1.0" stroke="rgb(0, 0, 0)" stroke-linejoin="miter" d=" M 619.456, 829.718 619.456, 829.708 619.467, 829.708 619.826, 829.468 620.259, 829.382 620.692, 829.468 621.052, 829.708 631.052, 829.708 641.052, 829.708 651.052, 829.708 661.052, 829.708 671.052, 829.708 681.052, 829.708 691.052, 829.708 701.052, 829.708 711.052, 829.708 721.052, 829.708 731.052, 829.708 741.052, 829.708 751.052, 829.708 761.052, 829.708 771.052, 829.708 781.052, 829.708 791.052, 829.708 801.052, 829.708 803.116, 829.708 803.469, 829.472 803.902, 829.386 804.335, 829.472 804.686, 829.707 " />
            <path fill="none" stroke-width="3.0" stroke-linecap="butt" stroke-opacity="1.0" stroke="rgb(0, 0, 0)" stroke-linejoin="miter" d=" M 551.475, 829.708 551.481, 829.708 551.481, 829.712 551.483, 829.714 " />
            <path fill="none" stroke-width="3.0" stroke-linecap="butt" stroke-opacity="1.0" stroke="rgb(0, 0, 0)" stroke-linejoin="miter" d=" M 551.483, 829.714 551.729, 830.081 551.815, 830.514 551.729, 830.947 " />
            <path fill="none" stroke-width="3.0" stroke-linecap="butt" stroke-opacity="1.0" stroke="rgb(0, 0, 0)" stroke-linejoin="miter" d=" M 551.483, 831.314 551.481, 831.315 551.481, 841.315 551.481, 842.008 " />
            <path fill="none" stroke-width="3.0" stroke-linecap="butt" stroke-opacity="1.0" stroke="rgb(0, 0, 0)" stroke-linejoin="miter" d=" M 1277.355, 211.190 1276.922, 211.104 1276.578, 210.874 1276.551, 210.874 1276.551, 210.851 1276.310, 210.492 " />
            <path fill="none" stroke-width="3.0" stroke-linecap="butt" stroke-opacity="1.0" stroke="rgb(0, 0, 0)" stroke-linejoin="miter" d=" M 1276.551, 278.862 1276.599, 278.862 1276.922, 278.646 1277.355, 278.560 1277.788, 278.646 " />
            <path fill="none" stroke-width="3.0" stroke-linecap="butt" stroke-opacity="1.0" stroke="rgb(0, 0, 0)" stroke-linejoin="miter" d=" M 1277.788, 278.646 1278.112, 278.862 1288.112, 278.862 1288.843, 278.862 " />
            <path fill="none" stroke-width="3.0" stroke-linecap="butt" stroke-opacity="1.0" stroke="rgb(0, 0, 0)" stroke-linejoin="miter" d=" M 1288.843, 210.874 1278.843, 210.874 1278.133, 210.874 1277.788, 211.104 " />
            <path fill="none" stroke-width="3.0" stroke-linecap="butt" stroke-opacity="1.0" stroke="rgb(0, 0, 0)" stroke-linejoin="miter" d=" M 1288.843, 278.862 1288.843, 268.862 1288.843, 258.862 1288.843, 248.862 1288.843, 238.862 1288.843, 228.862 1288.843, 218.862 1288.843, 210.874 " />
            <path fill="none" stroke-width="3.0" stroke-linecap="butt" stroke-opacity="1.0" stroke="rgb(0, 0, 0)" stroke-linejoin="miter" d=" M 1276.310, 715.315 1276.224, 714.882 1276.310, 714.449 1276.551, 714.090 1276.551, 714.077 1276.563, 714.077 1276.922, 713.837 1277.355, 713.751 1277.788, 713.837 1278.148, 714.077 1288.148, 714.077 1288.843, 714.077 1288.843, 704.077 1288.843, 694.077 1288.843, 684.077 1288.843, 674.077 1288.843, 664.077 1288.843, 654.077 1288.843, 646.093 1278.843, 646.093 1278.122, 646.093 1277.990, 646.226 1277.583, 646.398 1277.142, 646.401 1276.733, 646.234 " />
            <path fill="none" stroke-width="3.0" stroke-linecap="butt" stroke-opacity="1.0" stroke="rgb(0, 0, 0)" stroke-linejoin="miter" d=" M 1125.469, 831.306 1125.229, 830.946 1125.143, 830.513 1125.229, 830.080 1125.469, 829.721 1125.469, 829.708 1125.482, 829.708 " />
            <path fill="none" stroke-width="3.0" stroke-linecap="butt" stroke-opacity="1.0" stroke="rgb(0, 0, 0)" stroke-linejoin="miter" d=" M 1125.482, 829.708 1125.841, 829.468 1126.274, 829.382 1126.707, 829.468 1127.067, 829.708 " />
            <path fill="none" stroke-width="3.0" stroke-linecap="butt" stroke-opacity="1.0" stroke="rgb(0, 0, 0)" stroke-linejoin="miter" d=" M 1127.067, 829.708 1137.067, 829.708 1147.067, 829.708 1157.067, 829.708 1167.067, 829.708 1177.067, 829.708 1187.067, 829.708 1197.067, 829.708 1207.067, 829.708 1217.067, 829.708 1227.067, 829.708 1237.067, 829.708 1247.067, 829.708 1257.067, 829.708 1267.067, 829.708 1276.551, 829.708 " />
            <path fill="none" stroke-width="3.0" stroke-linecap="butt" stroke-opacity="1.0" stroke="rgb(0, 0, 0)" stroke-linejoin="miter" d=" M 1276.551, 829.708 1276.551, 819.708 1276.551, 809.708 1276.551, 799.708 1276.551, 789.708 1276.551, 779.708 1276.551, 769.708 1276.551, 759.708 1276.551, 749.708 1276.551, 739.708 1276.551, 729.708 1276.551, 719.708 1276.551, 715.675 1276.310, 715.315 " />
            <path fill="none" stroke-width="3.0" stroke-linecap="butt" stroke-opacity="1.0" stroke="rgb(0, 0, 0)" stroke-linejoin="miter" d=" M 872.606, 93.638 872.606, 83.638 872.606, 82.769 862.606, 82.769 852.606, 82.769 842.606, 82.769 838.488, 82.769 828.488, 82.769 818.488, 82.769 808.488, 82.769 804.686, 82.769 " />
            <path fill="none" stroke-width="3.0" stroke-linecap="butt" stroke-opacity="1.0" stroke="rgb(0, 0, 0)" stroke-linejoin="miter" d=" M 804.686, 82.769 804.686, 92.769 804.686, 93.638 804.702, 93.649 804.948, 94.016 805.034, 94.449 " />
            <path fill="none" stroke-width="3.0" stroke-linecap="butt" stroke-opacity="1.0" stroke="rgb(0, 0, 0)" stroke-linejoin="miter" d=" M 619.826, 95.490 619.461, 95.246 619.456, 95.246 619.456, 95.241 619.214, 94.878 619.128, 94.445 619.214, 94.012 619.456, 93.649 619.456, 83.649 619.456, 82.769 609.456, 82.769 599.456, 82.769 589.456, 82.769 579.456, 82.769 569.456, 82.769 559.456, 82.769 551.481, 82.769 551.481, 92.769 551.481, 93.644 551.483, 93.645 551.729, 94.012 " />
            <path fill="none" stroke-width="3.0" stroke-linecap="butt" stroke-opacity="1.0" stroke="rgb(0, 0, 0)" stroke-linejoin="miter" d=" M 551.729, 94.012 551.815, 94.445 551.729, 94.878 551.483, 95.245 551.482, 95.246 " />
            <path fill="none" stroke-width="3.0" stroke-linecap="butt" stroke-opacity="1.0" stroke="rgb(0, 0, 0)" stroke-linejoin="miter" d=" M 1057.153, 829.468 1057.512, 829.708 1057.519, 829.708 1057.519, 829.713 1057.527, 829.713 1057.765, 830.080 " />
            <path fill="none" stroke-width="3.0" stroke-linecap="butt" stroke-opacity="1.0" stroke="rgb(0, 0, 0)" stroke-linejoin="miter" d=" M 872.604, 829.708 872.606, 829.707 872.963, 829.468 873.396, 829.382 873.829, 829.468 " />
            <path fill="none" stroke-width="3.0" stroke-linecap="butt" stroke-opacity="1.0" stroke="rgb(0, 0, 0)" stroke-linejoin="miter" d=" M 873.829, 829.468 874.189, 829.708 884.189, 829.708 894.189, 829.708 904.189, 829.708 914.189, 829.708 924.189, 829.708 934.189, 829.708 944.189, 829.708 954.189, 829.708 964.189, 829.708 974.189, 829.708 984.189, 829.708 994.189, 829.708 1004.189, 829.708 1014.189, 829.708 1024.189, 829.708 1034.189, 829.708 1044.189, 829.708 1055.927, 829.708 1056.287, 829.468 1056.720, 829.382 1057.153, 829.468 " />
            <path fill="none" stroke-width="3.0" stroke-linecap="butt" stroke-opacity="1.0" stroke="rgb(0, 0, 0)" stroke-linejoin="miter" d=" M 1276.224, 497.293 1276.310, 496.860 1276.551, 496.500 " />
            <path fill="none" stroke-width="3.0" stroke-linecap="butt" stroke-opacity="1.0" stroke="rgb(0, 0, 0)" stroke-linejoin="miter" d=" M 1276.551, 496.500 1276.551, 496.476 1276.580, 496.476 " />
            <path fill="none" stroke-width="3.0" stroke-linecap="butt" stroke-opacity="1.0" stroke="rgb(0, 0, 0)" stroke-linejoin="miter" d=" M 1276.733, 646.234 1276.590, 646.093 1276.551, 646.093 1276.551, 646.054 " />
            <path fill="none" stroke-width="3.0" stroke-linecap="butt" stroke-opacity="1.0" stroke="rgb(0, 0, 0)" stroke-linejoin="miter" d=" M 1276.551, 646.054 1276.419, 645.924 1276.247, 645.517 " />
            <path fill="none" stroke-width="3.0" stroke-linecap="butt" stroke-opacity="1.0" stroke="rgb(0, 0, 0)" stroke-linejoin="miter" d=" M 1276.551, 498.085 1276.310, 497.725 1276.224, 497.293 " />
            <path fill="none" stroke-width="3.0" stroke-linecap="butt" stroke-opacity="1.0" stroke="rgb(0, 0, 0)" stroke-linejoin="miter" d=" M 1276.551, 644.525 1276.551, 634.525 1276.551, 624.525 1276.551, 614.525 1276.551, 604.525 1276.551, 594.525 1276.551, 584.525 1276.551, 574.525 1276.551, 564.526 1276.551, 554.526 1276.551, 544.526 1276.551, 534.526 1276.551, 524.526 1276.551, 514.526 1276.551, 504.526 1276.551, 498.085 " />
            <path fill="none" stroke-width="3.0" stroke-linecap="butt" stroke-opacity="1.0" stroke="rgb(0, 0, 0)" stroke-linejoin="miter" d=" M 1276.244, 645.076 1276.411, 644.667 1276.551, 644.525 " />
            <path fill="none" stroke-width="3.0" stroke-linecap="butt" stroke-opacity="1.0" stroke="rgb(0, 0, 0)" stroke-linejoin="miter" d=" M 550.683, 829.382 551.116, 829.469 551.475, 829.708 " />
            <path fill="none" stroke-width="3.0" stroke-linecap="butt" stroke-opacity="1.0" stroke="rgb(0, 0, 0)" stroke-linejoin="miter" d=" M 400.419, 714.077 400.425, 714.077 400.425, 714.084 400.667, 714.446 400.753, 714.879 400.667, 715.312 400.425, 715.673 " />
            <path fill="none" stroke-width="3.0" stroke-linecap="butt" stroke-opacity="1.0" stroke="rgb(0, 0, 0)" stroke-linejoin="miter" d=" M 400.425, 715.673 400.425, 725.673 400.425, 735.673 400.425, 745.673 400.425, 755.673 400.425, 765.673 400.425, 775.673 400.425, 785.673 400.425, 795.673 400.425, 805.673 400.425, 815.673 400.425, 825.673 400.425, 829.708 410.425, 829.708 420.425, 829.708 430.425, 829.708 440.425, 829.708 450.425, 829.708 460.425, 829.708 470.425, 829.708 480.425, 829.708 490.425, 829.708 500.425, 829.708 510.425, 829.708 520.425, 829.708 530.425, 829.708 540.425, 829.708 549.891, 829.708 550.250, 829.469 " />
            <path fill="none" stroke-width="3.0" stroke-linecap="butt" stroke-opacity="1.0" stroke="rgb(0, 0, 0)" stroke-linejoin="miter" d=" M 550.250, 829.469 550.683, 829.382 " />
            <path fill="none" stroke-width="3.0" stroke-linecap="butt" stroke-opacity="1.0" stroke="rgb(0, 0, 0)" stroke-linejoin="miter" d=" M 400.753, 497.277 400.667, 497.710 400.425, 498.071 400.425, 508.071 400.425, 518.071 400.425, 528.071 400.425, 538.071 400.425, 548.071 400.425, 558.071 400.425, 568.071 400.425, 578.071 400.425, 588.071 400.425, 598.071 400.425, 608.071 400.425, 618.071 400.425, 628.071 400.425, 638.071 400.425, 644.508 400.667, 644.869 400.753, 645.302 400.667, 645.735 400.428, 646.093 400.425, 646.097 400.421, 646.102 " />
            <path fill="none" stroke-width="3.0" stroke-linecap="butt" stroke-opacity="1.0" stroke="rgb(0, 0, 0)" stroke-linejoin="miter" d=" M 400.425, 496.476 400.425, 496.482 400.667, 496.844 400.753, 497.277 " />
            <path fill="none" stroke-width="3.0" stroke-linecap="butt" stroke-opacity="1.0" stroke="rgb(0, 0, 0)" stroke-linejoin="miter" d=" M 400.753, 427.673 400.667, 428.106 400.429, 428.462 400.425, 428.468 " />
            <path fill="none" stroke-width="3.0" stroke-linecap="butt" stroke-opacity="1.0" stroke="rgb(0, 0, 0)" stroke-linejoin="miter" d=" M 872.351, 830.946 872.265, 830.513 872.351, 830.080 872.596, 829.713 872.604, 829.708 " />
            <path fill="none" stroke-width="3.0" stroke-linecap="butt" stroke-opacity="1.0" stroke="rgb(0, 0, 0)" stroke-linejoin="miter" d=" M 872.351, 94.878 872.265, 94.445 872.351, 94.012 872.596, 93.645 872.606, 93.638 " />
            <path fill="none" stroke-width="3.0" stroke-linecap="butt" stroke-opacity="1.0" stroke="rgb(0, 0, 0)" stroke-linejoin="miter" d=" M 872.606, 95.252 872.591, 95.246 872.596, 95.245 " />
            <path fill="none" stroke-width="3.0" stroke-linecap="butt" stroke-opacity="1.0" stroke="rgb(0, 0, 0)" stroke-linejoin="miter" d=" M 872.963, 95.490 872.606, 95.252 872.596, 95.245 872.351, 94.878 " />
            <path fill="none" stroke-width="3.0" stroke-linecap="butt" stroke-opacity="1.0" stroke="rgb(0, 0, 0)" stroke-linejoin="miter" d=" M 1057.765, 94.878 1057.520, 95.245 1057.519, 95.245 1057.519, 95.246 1057.518, 95.246 1057.153, 95.490 1056.720, 95.576 " />
            <path fill="none" stroke-width="3.0" stroke-linecap="butt" stroke-opacity="1.0" stroke="rgb(0, 0, 0)" stroke-linejoin="miter" d=" M 1125.469, 95.246 1125.469, 95.237 1125.229, 94.878 " />
            <path fill="none" stroke-width="3.0" stroke-linecap="butt" stroke-opacity="1.0" stroke="rgb(0, 0, 0)" stroke-linejoin="miter" d=" M 1057.519, 82.769 1057.519, 92.769 1057.519, 93.644 1057.520, 93.645 1057.765, 94.012 1057.851, 94.445 1057.765, 94.878 " />
            <path fill="none" stroke-width="3.0" stroke-linecap="butt" stroke-opacity="1.0" stroke="rgb(0, 0, 0)" stroke-linejoin="miter" d=" M 1125.229, 94.878 1125.143, 94.445 1125.229, 94.012 1125.469, 93.653 1125.469, 83.653 1125.469, 82.769 " />
            <path fill="none" stroke-width="3.0" stroke-linecap="butt" stroke-opacity="1.0" stroke="rgb(0, 0, 0)" stroke-linejoin="miter" d=" M 1057.765, 830.080 1057.851, 830.513 1057.765, 830.946 1057.520, 831.313 1057.519, 831.314 " />
            <path fill="none" stroke-width="3.0" stroke-linecap="butt" stroke-opacity="1.0" stroke="rgb(0, 0, 0)" stroke-linejoin="miter" d=" M 1057.519, 831.314 1057.519, 841.314 1057.519, 842.008 1067.519, 842.008 1077.519, 842.008 1087.519, 842.008 1097.519, 842.008 1107.519, 842.008 1117.519, 842.008 1125.469, 842.008 1125.469, 832.008 1125.469, 831.306 " />
            <path fill="none" stroke-width="3.0" stroke-linecap="butt" stroke-opacity="1.0" stroke="rgb(0, 0, 0)" stroke-linejoin="miter" d=" M 398.824, 714.077 399.188, 713.833 399.621, 713.747 400.054, 713.833 400.419, 714.077 " />
            <path fill="none" stroke-width="3.0" stroke-linecap="butt" stroke-opacity="1.0" stroke="rgb(0, 0, 0)" stroke-linejoin="miter" d=" M 400.421, 646.102 400.054, 646.348 399.621, 646.434 399.188, 646.348 " />
            <path fill="none" stroke-width="3.0" stroke-linecap="butt" stroke-opacity="1.0" stroke="rgb(0, 0, 0)" stroke-linejoin="miter" d=" M 398.821, 646.102 398.815, 646.093 388.815, 646.093 388.087, 646.093 " />
            <path fill="none" stroke-width="3.0" stroke-linecap="butt" stroke-opacity="1.0" stroke="rgb(0, 0, 0)" stroke-linejoin="miter" d=" M 398.823, 496.476 399.188, 496.232 399.621, 496.145 400.054, 496.232 400.420, 496.476 400.425, 496.476 " />
            <path fill="none" stroke-width="3.0" stroke-linecap="butt" stroke-opacity="1.0" stroke="rgb(0, 0, 0)" stroke-linejoin="miter" d=" M 388.087, 428.462 388.087, 438.462 388.087, 448.462 388.087, 458.462 388.087, 462.477 388.087, 472.477 388.087, 482.477 388.087, 492.477 388.087, 496.476 398.087, 496.476 398.823, 496.476 " />
            <path fill="none" stroke-width="3.0" stroke-linecap="butt" stroke-opacity="1.0" stroke="rgb(0, 0, 0)" stroke-linejoin="miter" d=" M 1276.580, 496.476 1276.922, 496.247 1277.355, 496.161 1277.788, 496.247 " />
            <path fill="none" stroke-width="3.0" stroke-linecap="butt" stroke-opacity="1.0" stroke="rgb(0, 0, 0)" stroke-linejoin="miter" d=" M 400.425, 278.871 400.667, 279.232 400.753, 279.665 400.667, 280.098 400.425, 280.460 400.425, 290.460 400.425, 300.460 400.425, 310.460 400.425, 320.460 400.425, 330.460 400.425, 340.460 400.425, 350.460 400.425, 360.460 400.425, 370.460 400.425, 380.460 400.425, 390.460 400.425, 400.460 400.425, 410.460 400.425, 420.460 400.425, 426.879 400.667, 427.240 " />
            <path fill="none" stroke-width="3.0" stroke-linecap="butt" stroke-opacity="1.0" stroke="rgb(0, 0, 0)" stroke-linejoin="miter" d=" M 400.667, 427.240 400.753, 427.673 " />
            <path fill="none" stroke-width="3.0" stroke-linecap="butt" stroke-opacity="1.0" stroke="rgb(0, 0, 0)" stroke-linejoin="miter" d=" M 1276.398, 427.028 1276.551, 426.878 1276.551, 416.878 1276.551, 406.878 1276.551, 396.878 1276.551, 386.878 1276.551, 376.878 1276.551, 366.878 1276.551, 356.878 1276.551, 346.878 1276.551, 336.878 1276.551, 326.878 1276.551, 316.878 1276.551, 306.878 1276.551, 296.878 1276.551, 286.878 1276.551, 280.484 1276.310, 280.124 1276.224, 279.691 1276.310, 279.258 1276.551, 278.898 1276.551, 278.862 " />
            <path fill="none" stroke-width="3.0" stroke-linecap="butt" stroke-opacity="1.0" stroke="rgb(0, 0, 0)" stroke-linejoin="miter" d=" M 1276.560, 428.462 1276.551, 428.462 1276.551, 428.452 1276.386, 428.285 " />
            <path fill="none" stroke-width="3.0" stroke-linecap="butt" stroke-opacity="1.0" stroke="rgb(0, 0, 0)" stroke-linejoin="miter" d=" M 1276.225, 427.434 1276.398, 427.028 " />
            <path fill="none" stroke-width="3.0" stroke-linecap="butt" stroke-opacity="1.0" stroke="rgb(0, 0, 0)" stroke-linejoin="miter" d=" M 804.686, 95.260 804.335, 95.494 803.902, 95.580 803.469, 95.494 " />
            <path fill="none" stroke-width="3.0" stroke-linecap="butt" stroke-opacity="1.0" stroke="rgb(0, 0, 0)" stroke-linejoin="miter" d=" M 803.102, 95.249 803.100, 95.246 793.100, 95.246 783.100, 95.246 773.100, 95.246 763.100, 95.246 753.100, 95.246 743.100, 95.246 733.100, 95.246 723.100, 95.246 713.100, 95.246 703.100, 95.246 693.100, 95.246 683.100, 95.246 673.100, 95.246 663.100, 95.246 653.100, 95.246 643.100, 95.246 633.100, 95.246 623.100, 95.246 621.058, 95.246 620.692, 95.490 620.259, 95.576 619.826, 95.490 " />
            <path fill="none" stroke-width="3.0" stroke-linecap="butt" stroke-opacity="1.0" stroke="rgb(0, 0, 0)" stroke-linejoin="miter" d=" M 551.483, 95.245 551.481, 95.247 551.116, 95.491 550.683, 95.577 550.250, 95.491 549.884, 95.246 539.884, 95.246 529.884, 95.246 519.884, 95.246 509.884, 95.246 499.884, 95.246 489.884, 95.246 479.884, 95.246 469.884, 95.246 459.884, 95.246 449.884, 95.246 439.884, 95.246 429.884, 95.246 419.884, 95.246 409.884, 95.246 400.425, 95.246 400.425, 105.246 400.425, 115.246 400.425, 125.246 400.425, 135.246 400.425, 145.246 400.425, 155.246 400.425, 165.246 400.425, 175.246 400.425, 185.246 400.425, 195.246 400.425, 205.246 400.425, 209.277 400.667, 209.639 400.753, 210.072 400.667, 210.505 400.425, 210.866 400.425, 210.874 " />
            <path fill="none" stroke-width="3.0" stroke-linecap="butt" stroke-opacity="1.0" stroke="rgb(0, 0, 0)" stroke-linejoin="miter" d=" M 551.477, 95.253 551.116, 95.491 551.482, 95.246 551.477, 95.253 " />
            <path fill="none" stroke-width="3.0" stroke-linecap="butt" stroke-opacity="1.0" stroke="rgb(0, 0, 0)" stroke-linejoin="miter" d=" M 1276.310, 210.492 1276.224, 210.059 1276.310, 209.626 1276.551, 209.266 1276.551, 199.266 1276.551, 189.266 1276.551, 179.266 1276.551, 169.266 1276.551, 159.266 1276.551, 149.266 1276.551, 139.266 1276.551, 129.266 1276.551, 119.266 1276.551, 109.266 1276.551, 99.266 1276.551, 95.246 1266.551, 95.246 1256.551, 95.246 1246.551, 95.246 1236.551, 95.246 1226.551, 95.246 1216.551, 95.246 1206.551, 95.246 1196.551, 95.246 1186.551, 95.246 1176.550, 95.246 1166.551, 95.246 1156.551, 95.246 1146.551, 95.246 1136.551, 95.246 1127.072, 95.246 1126.707, 95.490 1126.274, 95.576 1125.841, 95.490 1125.476, 95.246 1125.469, 95.246 " />
            <path fill="none" stroke-width="3.0" stroke-linecap="butt" stroke-opacity="1.0" stroke="rgb(0, 0, 0)" stroke-linejoin="miter" d=" M 1056.287, 95.490 1055.922, 95.246 1045.922, 95.246 1035.922, 95.246 1025.922, 95.246 1015.922, 95.246 1005.922, 95.246 995.922, 95.246 985.922, 95.246 975.922, 95.246 965.922, 95.246 955.922, 95.246 945.922, 95.246 935.922, 95.246 925.922, 95.246 915.922, 95.246 905.922, 95.246 895.922, 95.246 885.922, 95.246 874.195, 95.246 " />
            <path fill="none" stroke-width="3.0" stroke-linecap="butt" stroke-opacity="1.0" stroke="rgb(0, 0, 0)" stroke-linejoin="miter" d=" M 400.425, 428.468 400.667, 428.106 " />
            <path fill="none" stroke-width="3.0" stroke-linecap="butt" stroke-opacity="1.0" stroke="rgb(0, 0, 0)" stroke-linejoin="miter" d=" M 397.818, 1026.216 397.818, 1033.073 407.818, 1033.073 417.818, 1033.073 427.818, 1033.073 437.818, 1033.073 447.818, 1033.073 457.818, 1033.073 467.818, 1033.073 477.818, 1033.073 487.818, 1033.073 497.818, 1033.073 507.818, 1033.073 517.818, 1033.073 527.818, 1033.073 537.818, 1033.073 547.818, 1033.073 557.818, 1033.073 567.818, 1033.073 577.818, 1033.073 587.818, 1033.073 597.818, 1033.073 607.818, 1033.073 617.818, 1033.073 627.818, 1033.073 637.818, 1033.073 647.818, 1033.073 657.818, 1033.073 667.818, 1033.073 677.818, 1033.073 687.818, 1033.073 697.818, 1033.073 707.818, 1033.073 717.818, 1033.073 727.818, 1033.073 737.818, 1033.073 747.818, 1033.073 757.818, 1033.073 767.818, 1033.073 777.818, 1033.073 787.818, 1033.073 797.818, 1033.073 807.818, 1033.073 817.818, 1033.073 827.818, 1033.073 837.818, 1033.073 847.818, 1033.073 857.818, 1033.073 867.818, 1033.073 877.818, 1033.073 887.818, 1033.073 897.818, 1033.073 907.818, 1033.073 917.818, 1033.073 927.818, 1033.073 937.818, 1033.073 947.818, 1033.073 957.818, 1033.073 967.818, 1033.073 977.818, 1033.073 987.818, 1033.073 997.818, 1033.073 1007.818, 1033.073 1017.818, 1033.073 1027.818, 1033.073 1037.818, 1033.073 1047.818, 1033.073 1057.818, 1033.073 1067.818, 1033.073 1083.532, 1033.073 1083.532, 1026.216 1073.532, 1026.216 1063.532, 1026.216 1053.532, 1026.216 1043.532, 1026.216 1033.532, 1026.216 1023.532, 1026.216 1013.532, 1026.216 1003.532, 1026.216 993.532, 1026.216 983.532, 1026.216 973.532, 1026.216 963.532, 1026.216 953.532, 1026.216 943.532, 1026.216 933.532, 1026.216 923.532, 1026.216 913.532, 1026.216 903.532, 1026.216 893.532, 1026.216 883.532, 1026.216 873.532, 1026.216 863.532, 1026.216 853.532, 1026.216 843.532, 1026.216 833.532, 1026.216 823.532, 1026.216 813.532, 1026.216 803.532, 1026.216 793.532, 1026.216 783.532, 1026.216 773.532, 1026.216 763.532, 1026.216 753.532, 1026.216 743.532, 1026.216 733.532, 1026.216 723.532, 1026.216 713.532, 1026.216 703.532, 1026.216 693.532, 1026.216 683.532, 1026.216 673.532, 1026.216 663.532, 1026.216 653.532, 1026.216 643.532, 1026.216 633.532, 1026.216 623.532, 1026.216 613.532, 1026.216 603.532, 1026.216 593.532, 1026.216 583.532, 1026.216 573.532, 1026.216 563.532, 1026.216 553.532, 1026.216 543.532, 1026.216 533.532, 1026.216 523.532, 1026.216 513.532, 1026.216 503.532, 1026.216 493.532, 1026.216 483.532, 1026.216 473.532, 1026.216 463.532, 1026.216 453.532, 1026.216 443.532, 1026.216 433.532, 1026.216 423.532, 1026.216 413.532, 1026.216 397.818, 1026.216 " />
            <path fill="none" stroke-width="3.0" stroke-linecap="butt" stroke-opacity="1.0" stroke="rgb(0, 0, 0)" stroke-linejoin="miter" d=" M 386.962, 958.185 386.962, 968.185 386.962, 978.185 386.962, 979.743 " />
            <path fill="none" stroke-width="3.0" stroke-linecap="butt" stroke-opacity="1.0" stroke="rgb(0, 0, 0)" stroke-linejoin="miter" d=" M 386.962, 893.576 386.962, 903.576 386.962, 913.576 386.962, 915.135 " />
            <path fill="none" stroke-width="3.0" stroke-linecap="butt" stroke-opacity="1.0" stroke="rgb(0, 0, 0)" stroke-linejoin="miter" d=" M 388.087, 646.093 388.087, 656.093 388.087, 666.093 388.087, 676.093 388.087, 686.093 388.087, 696.093 388.087, 706.093 388.087, 714.077 " />
            <path fill="none" stroke-width="3.0" stroke-linecap="butt" stroke-opacity="1.0" stroke="rgb(0, 0, 0)" stroke-linejoin="miter" d=" M 388.087, 714.077 398.087, 714.077 398.824, 714.077 " />
            <path fill="none" stroke-width="3.0" stroke-linecap="butt" stroke-opacity="1.0" stroke="rgb(0, 0, 0)" stroke-linejoin="miter" d=" M 399.188, 646.348 398.821, 646.102 " />
            <path fill="none" stroke-width="3.0" stroke-linecap="butt" stroke-opacity="1.0" stroke="rgb(0, 0, 0)" stroke-linejoin="miter" d=" M 399.303, 958.170 399.303, 958.170 " />
            <path fill="none" stroke-width="3.0" stroke-linecap="butt" stroke-opacity="1.0" stroke="rgb(0, 0, 0)" stroke-linejoin="miter" d=" M 399.303, 893.545 399.303, 893.545 " />
            <path fill="none" stroke-width="3.0" stroke-linecap="butt" stroke-opacity="1.0" stroke="rgb(0, 0, 0)" stroke-linejoin="miter" d=" M 550.093, 948.602 550.337, 948.967 " />
            <path fill="none" stroke-width="3.0" stroke-linecap="butt" stroke-opacity="1.0" stroke="rgb(0, 0, 0)" stroke-linejoin="miter" d=" M 551.729, 830.947 551.483, 831.314 " />
            <path fill="none" stroke-width="3.0" stroke-linecap="butt" stroke-opacity="1.0" stroke="rgb(0, 0, 0)" stroke-linejoin="miter" d=" M 619.456, 842.008 619.456, 832.008 619.456, 831.309 " />
            <path fill="none" stroke-width="3.0" stroke-linecap="butt" stroke-opacity="1.0" stroke="rgb(0, 0, 0)" stroke-linejoin="miter" d=" M 551.481, 842.008 561.481, 842.008 571.481, 842.008 581.481, 842.008 591.481, 842.008 601.481, 842.008 611.481, 842.008 619.456, 842.008 " />
            <path fill="none" stroke-width="3.0" stroke-linecap="butt" stroke-opacity="1.0" stroke="rgb(0, 0, 0)" stroke-linejoin="miter" d=" M 803.469, 95.494 803.102, 95.249 " />
            <path fill="none" stroke-width="3.0" stroke-linecap="butt" stroke-opacity="1.0" stroke="rgb(0, 0, 0)" stroke-linejoin="miter" d=" M 804.686, 829.707 804.702, 829.718 " />
            <path fill="none" stroke-width="3.0" stroke-linecap="butt" stroke-opacity="1.0" stroke="rgb(0, 0, 0)" stroke-linejoin="miter" d=" M 804.702, 95.249 804.686, 95.260 " />
            <path fill="none" stroke-width="3.0" stroke-linecap="butt" stroke-opacity="1.0" stroke="rgb(0, 0, 0)" stroke-linejoin="miter" d=" M 804.704, 95.246 804.702, 95.249 " />
            <path fill="none" stroke-width="3.0" stroke-linecap="butt" stroke-opacity="1.0" stroke="rgb(0, 0, 0)" stroke-linejoin="miter" d=" M 804.948, 94.882 804.704, 95.246 " />
            <path fill="none" stroke-width="3.0" stroke-linecap="butt" stroke-opacity="1.0" stroke="rgb(0, 0, 0)" stroke-linejoin="miter" d=" M 805.034, 94.449 804.948, 94.882 " />
            <path fill="none" stroke-width="3.0" stroke-linecap="butt" stroke-opacity="1.0" stroke="rgb(0, 0, 0)" stroke-linejoin="miter" d=" M 871.473, 872.018 871.473, 882.018 871.473, 882.765 " />
            <path fill="none" stroke-width="3.0" stroke-linecap="butt" stroke-opacity="1.0" stroke="rgb(0, 0, 0)" stroke-linejoin="miter" d=" M 872.596, 831.313 872.351, 830.946 " />
            <path fill="none" stroke-width="3.0" stroke-linecap="butt" stroke-opacity="1.0" stroke="rgb(0, 0, 0)" stroke-linejoin="miter" d=" M 1056.384, 872.018 1046.384, 872.018 1036.384, 872.018 1026.384, 872.018 1016.384, 872.018 1006.384, 872.018 996.384, 872.018 986.384, 872.018 976.384, 872.018 966.384, 872.018 956.383, 872.018 946.383, 872.018 936.384, 872.018 926.384, 872.018 916.384, 872.018 906.384, 872.018 896.384, 872.018 886.384, 872.018 876.384, 872.018 871.473, 872.018 " />
            <path fill="none" stroke-width="3.0" stroke-linecap="butt" stroke-opacity="1.0" stroke="rgb(0, 0, 0)" stroke-linejoin="miter" d=" M 1056.384, 872.018 1056.384, 882.018 1056.384, 882.761 " />
            <path fill="none" stroke-width="3.0" stroke-linecap="butt" stroke-opacity="1.0" stroke="rgb(0, 0, 0)" stroke-linejoin="miter" d=" M 1056.720, 95.576 1056.287, 95.490 " />
            <path fill="none" stroke-width="3.0" stroke-linecap="butt" stroke-opacity="1.0" stroke="rgb(0, 0, 0)" stroke-linejoin="miter" d=" M 1122.734, 948.970 1112.734, 948.970 1102.734, 948.970 1092.734, 948.970 1082.734, 948.970 1072.734, 948.970 1062.734, 948.970 1057.973, 948.970 " />
            <path fill="none" stroke-width="3.0" stroke-linecap="butt" stroke-opacity="1.0" stroke="rgb(0, 0, 0)" stroke-linejoin="miter" d=" M 1124.342, 884.358 1124.342, 884.357 " />
            <path fill="none" stroke-width="3.0" stroke-linecap="butt" stroke-opacity="1.0" stroke="rgb(0, 0, 0)" stroke-linejoin="miter" d=" M 1125.469, 82.769 1115.469, 82.769 1105.469, 82.769 1095.469, 82.769 1085.469, 82.769 1075.469, 82.769 1065.469, 82.769 1057.519, 82.769 " />
            <path fill="none" stroke-width="3.0" stroke-linecap="butt" stroke-opacity="1.0" stroke="rgb(0, 0, 0)" stroke-linejoin="miter" d=" M 1276.221, 427.875 1276.225, 427.434 " />
            <path fill="none" stroke-width="3.0" stroke-linecap="butt" stroke-opacity="1.0" stroke="rgb(0, 0, 0)" stroke-linejoin="miter" d=" M 1276.247, 645.517 1276.244, 645.076 " />
            <path fill="none" stroke-width="3.0" stroke-linecap="butt" stroke-opacity="1.0" stroke="rgb(0, 0, 0)" stroke-linejoin="miter" d=" M 1276.386, 428.285 1276.221, 427.875 " />
            <path fill="none" stroke-width="3.0" stroke-linecap="butt" stroke-opacity="1.0" stroke="rgb(0, 0, 0)" stroke-linejoin="miter" d=" M 1277.788, 211.104 1277.355, 211.190 " />
            <path fill="none" stroke-width="3.0" stroke-linecap="butt" stroke-opacity="1.0" stroke="rgb(0, 0, 0)" stroke-linejoin="miter" d=" M 1335.340, 721.434 1334.907, 721.347 " />
            <path fill="none" stroke-width="3.0" stroke-linecap="butt" stroke-opacity="1.0" stroke="rgb(0, 0, 0)" stroke-linejoin="miter" d=" M 1335.340, 652.813 1334.907, 652.899 " />
            <path fill="none" stroke-width="3.0" stroke-linecap="butt" stroke-opacity="1.0" stroke="rgb(0, 0, 0)" stroke-linejoin="miter" d=" M 1445.486, 648.938 1445.400, 648.505 " />
            <path fill="none" stroke-width="3.0" stroke-linecap="butt" stroke-opacity="1.0" stroke="rgb(0, 0, 0)" stroke-linejoin="miter" d=" M 1445.400, 648.505 1445.486, 648.072 " />
            <path fill="none" stroke-width="3.0" stroke-linecap="butt" stroke-opacity="1.0" stroke="rgb(0, 0, 0)" stroke-linejoin="miter" d=" M 1445.727, 715.656 1445.732, 715.663 " />
            <path fill="none" stroke-width="3.0" stroke-linecap="butt" stroke-opacity="1.0" stroke="rgb(0, 0, 0)" stroke-linejoin="miter" d=" M 1446.532, 647.374 1446.099, 647.460 " />
            <path fill="none" stroke-width="3.0" stroke-linecap="butt" stroke-opacity="1.0" stroke="rgb(0, 0, 0)" stroke-linejoin="miter" d=" M 1447.332, 498.073 1446.965, 498.318 " />
            <path fill="none" stroke-width="3.0" stroke-linecap="butt" stroke-opacity="1.0" stroke="rgb(0, 0, 0)" stroke-linejoin="miter" d=" M 1447.341, 280.457 1447.341, 280.457 " />
        </g>
    </g>
</svg>
