999
"DXF R12 Output" (www.mydxf.blogspot.com)
 0 
SECTION
 2 
HEADER
 9 
$ACADVER
 1 
AC1009
 9 
$EXTMIN
 10 
 0 
 20 
 0 
 9 
$EXTMAX
 10 
 8.5 
 20 
 11 
 0 
ENDSEC
 0 
SECTION
 2 
ENTITIES
0
LINE
8
strokes
10
397.183000
20
139.986000
11
397.528000
21
142.787000
0
LINE
8
strokes
10
397.528000
20
142.787000
11
397.873000
21
145.588000
0
LINE
8
strokes
10
397.873000
20
145.588000
11
397.997000
21
146.585000
0
LINE
8
strokes
10
397.997000
20
146.585000
11
398.204000
21
149.400000
0
LINE
8
strokes
10
398.204000
20
149.400000
11
398.412000
21
152.214000
0
LINE
8
strokes
10
398.412000
20
152.214000
11
398.486000
21
153.216000
0
LINE
8
strokes
10
398.486000
20
153.216000
11
398.555000
21
156.037000
0
LINE
8
strokes
10
398.555000
20
156.037000
11
398.624000
21
158.859000
0
LINE
8
strokes
10
398.624000
20
158.859000
11
398.649000
21
159.863000
0
LINE
8
strokes
10
398.649000
20
159.863000
11
398.649000
21
162.685000
0
LINE
8
strokes
10
398.649000
20
162.685000
11
398.649000
21
165.507000
0
LINE
8
strokes
10
398.649000
20
165.507000
11
398.649000
21
168.330000
0
LINE
8
strokes
10
398.649000
20
168.330000
11
398.649000
21
171.152000
0
LINE
8
strokes
10
398.649000
20
171.152000
11
398.649000
21
173.974000
0
LINE
8
strokes
10
398.649000
20
173.974000
11
398.649000
21
176.796000
0
LINE
8
strokes
10
398.649000
20
176.796000
11
398.649000
21
179.618000
0
LINE
8
strokes
10
398.649000
20
179.618000
11
398.649000
21
182.441000
0
LINE
8
strokes
10
398.649000
20
182.441000
11
398.649000
21
185.263000
0
LINE
8
strokes
10
398.649000
20
185.263000
11
398.649000
21
188.085000
0
LINE
8
strokes
10
398.649000
20
188.085000
11
398.649000
21
190.907000
0
LINE
8
strokes
10
398.649000
20
190.907000
11
398.649000
21
193.730000
0
LINE
8
strokes
10
398.649000
20
193.730000
11
398.649000
21
196.552000
0
LINE
8
strokes
10
398.649000
20
196.552000
11
398.649000
21
199.374000
0
LINE
8
strokes
10
398.649000
20
199.374000
11
398.649000
21
202.196000
0
LINE
8
strokes
10
398.649000
20
202.196000
11
398.649000
21
205.018000
0
LINE
8
strokes
10
398.649000
20
205.018000
11
398.649000
21
207.841000
0
LINE
8
strokes
10
398.649000
20
207.841000
11
398.649000
21
210.663000
0
LINE
8
strokes
10
398.649000
20
210.663000
11
398.649000
21
213.485000
0
LINE
8
strokes
10
398.649000
20
213.485000
11
398.649000
21
216.307000
0
LINE
8
strokes
10
398.649000
20
216.307000
11
398.649000
21
219.130000
0
LINE
8
strokes
10
398.649000
20
219.130000
11
398.649000
21
221.952000
0
LINE
8
strokes
10
398.649000
20
221.952000
11
398.649000
21
224.774000
0
LINE
8
strokes
10
398.649000
20
224.774000
11
398.649000
21
227.596000
0
LINE
8
strokes
10
398.649000
20
227.596000
11
398.649000
21
230.418000
0
LINE
8
strokes
10
398.649000
20
230.418000
11
398.649000
21
233.241000
0
LINE
8
strokes
10
398.649000
20
233.241000
11
398.649000
21
236.063000
0
LINE
8
strokes
10
398.649000
20
236.063000
11
398.649000
21
238.885000
0
LINE
8
strokes
10
398.649000
20
238.885000
11
398.649000
21
241.707000
0
LINE
8
strokes
10
398.649000
20
241.707000
11
398.649000
21
244.530000
0
LINE
8
strokes
10
398.649000
20
244.530000
11
398.649000
21
247.352000
0
LINE
8
strokes
10
398.649000
20
247.352000
11
398.649000
21
250.174000
0
LINE
8
strokes
10
398.649000
20
250.174000
11
398.649000
21
252.996000
0
LINE
8
strokes
10
398.649000
20
252.996000
11
398.649000
21
255.818000
0
LINE
8
strokes
10
398.649000
20
255.818000
11
398.649000
21
258.641000
0
LINE
8
strokes
10
398.649000
20
258.641000
11
398.649000
21
261.463000
0
LINE
8
strokes
10
398.649000
20
261.463000
11
398.649000
21
264.285000
0
LINE
8
strokes
10
398.649000
20
264.285000
11
398.649000
21
267.107000
0
LINE
8
strokes
10
398.649000
20
267.107000
11
398.649000
21
269.929000
0
LINE
8
strokes
10
398.649000
20
269.929000
11
398.649000
21
272.752000
0
LINE
8
strokes
10
398.649000
20
272.752000
11
395.827000
21
272.752000
0
LINE
8
strokes
10
395.827000
20
272.752000
11
393.004000
21
272.752000
0
LINE
8
strokes
10
393.004000
20
272.752000
11
390.182000
21
272.752000
0
LINE
8
strokes
10
390.182000
20
272.752000
11
387.360000
21
272.752000
0
LINE
8
strokes
10
387.360000
20
272.752000
11
384.538000
21
272.752000
0
LINE
8
strokes
10
384.538000
20
272.752000
11
381.715000
21
272.752000
0
LINE
8
strokes
10
381.715000
20
272.752000
11
378.893000
21
272.752000
0
LINE
8
strokes
10
378.893000
20
272.752000
11
376.071000
21
272.752000
0
LINE
8
strokes
10
376.071000
20
272.752000
11
373.249000
21
272.752000
0
LINE
8
strokes
10
373.249000
20
272.752000
11
370.427000
21
272.752000
0
LINE
8
strokes
10
370.427000
20
272.752000
11
367.604000
21
272.752000
0
LINE
8
strokes
10
367.604000
20
272.752000
11
364.782000
21
272.752000
0
LINE
8
strokes
10
364.782000
20
272.752000
11
361.960000
21
272.752000
0
LINE
8
strokes
10
361.960000
20
272.752000
11
359.138000
21
272.752000
0
LINE
8
strokes
10
359.138000
20
272.752000
11
356.315000
21
272.752000
0
LINE
8
strokes
10
356.315000
20
272.752000
11
353.493000
21
272.752000
0
LINE
8
strokes
10
353.493000
20
272.752000
11
350.671000
21
272.752000
0
LINE
8
strokes
10
350.671000
20
272.752000
11
347.849000
21
272.752000
0
LINE
8
strokes
10
347.849000
20
272.752000
11
345.027000
21
272.752000
0
LINE
8
strokes
10
345.027000
20
272.752000
11
342.204000
21
272.752000
0
LINE
8
strokes
10
342.204000
20
272.752000
11
339.382000
21
272.752000
0
LINE
8
strokes
10
339.382000
20
272.752000
11
336.560000
21
272.752000
0
LINE
8
strokes
10
336.560000
20
272.752000
11
333.738000
21
272.752000
0
LINE
8
strokes
10
333.738000
20
272.752000
11
330.915000
21
272.752000
0
LINE
8
strokes
10
330.915000
20
272.752000
11
328.093000
21
272.752000
0
LINE
8
strokes
10
328.093000
20
272.752000
11
325.271000
21
272.752000
0
LINE
8
strokes
10
325.271000
20
272.752000
11
322.449000
21
272.752000
0
LINE
8
strokes
10
322.449000
20
272.752000
11
319.627000
21
272.752000
0
LINE
8
strokes
10
319.627000
20
272.752000
11
316.804000
21
272.752000
0
LINE
8
strokes
10
316.804000
20
272.752000
11
313.982000
21
272.752000
0
LINE
8
strokes
10
313.982000
20
272.752000
11
311.160000
21
272.752000
0
LINE
8
strokes
10
311.160000
20
272.752000
11
308.338000
21
272.752000
0
LINE
8
strokes
10
308.338000
20
272.752000
11
305.515000
21
272.752000
0
LINE
8
strokes
10
305.515000
20
272.752000
11
302.693000
21
272.752000
0
LINE
8
strokes
10
302.693000
20
272.752000
11
299.871000
21
272.752000
0
LINE
8
strokes
10
299.871000
20
272.752000
11
297.049000
21
272.752000
0
LINE
8
strokes
10
297.049000
20
272.752000
11
294.227000
21
272.752000
0
LINE
8
strokes
10
294.227000
20
272.752000
11
291.404000
21
272.752000
0
LINE
8
strokes
10
291.404000
20
272.752000
11
288.582000
21
272.752000
0
LINE
8
strokes
10
288.582000
20
272.752000
11
285.760000
21
272.752000
0
LINE
8
strokes
10
285.760000
20
272.752000
11
282.938000
21
272.752000
0
LINE
8
strokes
10
282.938000
20
272.752000
11
280.115000
21
272.752000
0
LINE
8
strokes
10
280.115000
20
272.752000
11
277.293000
21
272.752000
0
LINE
8
strokes
10
277.293000
20
272.752000
11
274.471000
21
272.752000
0
LINE
8
strokes
10
274.471000
20
272.752000
11
271.649000
21
272.752000
0
LINE
8
strokes
10
271.649000
20
272.752000
11
268.827000
21
272.752000
0
LINE
8
strokes
10
268.827000
20
272.752000
11
266.004000
21
272.752000
0
LINE
8
strokes
10
266.004000
20
272.752000
11
263.182000
21
272.752000
0
LINE
8
strokes
10
263.182000
20
272.752000
11
260.360000
21
272.752000
0
LINE
8
strokes
10
260.360000
20
272.752000
11
257.538000
21
272.752000
0
LINE
8
strokes
10
257.538000
20
272.752000
11
254.716000
21
272.752000
0
LINE
8
strokes
10
254.716000
20
272.752000
11
251.893000
21
272.752000
0
LINE
8
strokes
10
251.893000
20
272.752000
11
249.071000
21
272.752000
0
LINE
8
strokes
10
249.071000
20
272.752000
11
246.249000
21
272.752000
0
LINE
8
strokes
10
246.249000
20
272.752000
11
243.427000
21
272.752000
0
LINE
8
strokes
10
243.427000
20
272.752000
11
240.604000
21
272.752000
0
LINE
8
strokes
10
240.604000
20
272.752000
11
237.782000
21
272.752000
0
LINE
8
strokes
10
237.782000
20
272.752000
11
234.960000
21
272.752000
0
LINE
8
strokes
10
234.960000
20
272.752000
11
232.138000
21
272.752000
0
LINE
8
strokes
10
232.138000
20
272.752000
11
229.316000
21
272.752000
0
LINE
8
strokes
10
229.316000
20
272.752000
11
226.493000
21
272.752000
0
LINE
8
strokes
10
226.493000
20
272.752000
11
223.671000
21
272.752000
0
LINE
8
strokes
10
223.671000
20
272.752000
11
220.849000
21
272.752000
0
LINE
8
strokes
10
220.849000
20
272.752000
11
218.027000
21
272.752000
0
LINE
8
strokes
10
218.027000
20
272.752000
11
215.204000
21
272.752000
0
LINE
8
strokes
10
215.204000
20
272.752000
11
212.382000
21
272.752000
0
LINE
8
strokes
10
212.382000
20
272.752000
11
209.560000
21
272.752000
0
LINE
8
strokes
10
209.560000
20
272.752000
11
206.738000
21
272.752000
0
LINE
8
strokes
10
206.738000
20
272.752000
11
203.916000
21
272.752000
0
LINE
8
strokes
10
203.916000
20
272.752000
11
201.093000
21
272.752000
0
LINE
8
strokes
10
201.093000
20
272.752000
11
198.271000
21
272.752000
0
LINE
8
strokes
10
198.271000
20
272.752000
11
195.449000
21
272.752000
0
LINE
8
strokes
10
195.449000
20
272.752000
11
192.627000
21
272.752000
0
LINE
8
strokes
10
192.627000
20
272.752000
11
189.804000
21
272.752000
0
LINE
8
strokes
10
189.804000
20
272.752000
11
186.982000
21
272.752000
0
LINE
8
strokes
10
186.982000
20
272.752000
11
184.160000
21
272.752000
0
LINE
8
strokes
10
184.160000
20
272.752000
11
181.338000
21
272.752000
0
LINE
8
strokes
10
181.338000
20
272.752000
11
178.516000
21
272.752000
0
LINE
8
strokes
10
178.516000
20
272.752000
11
175.693000
21
272.752000
0
LINE
8
strokes
10
175.693000
20
272.752000
11
172.871000
21
272.752000
0
LINE
8
strokes
10
172.871000
20
272.752000
11
170.049000
21
272.752000
0
LINE
8
strokes
10
170.049000
20
272.752000
11
167.227000
21
272.752000
0
LINE
8
strokes
10
167.227000
20
272.752000
11
164.404000
21
272.752000
0
LINE
8
strokes
10
164.404000
20
272.752000
11
161.582000
21
272.752000
0
LINE
8
strokes
10
161.582000
20
272.752000
11
158.760000
21
272.752000
0
LINE
8
strokes
10
158.760000
20
272.752000
11
155.938000
21
272.752000
0
LINE
8
strokes
10
155.938000
20
272.752000
11
153.116000
21
272.752000
0
LINE
8
strokes
10
153.116000
20
272.752000
11
150.293000
21
272.752000
0
LINE
8
strokes
10
150.293000
20
272.752000
11
147.471000
21
272.752000
0
LINE
8
strokes
10
147.471000
20
272.752000
11
144.649000
21
272.752000
0
LINE
8
strokes
10
144.649000
20
272.752000
11
141.827000
21
272.752000
0
LINE
8
strokes
10
141.827000
20
272.752000
11
139.004000
21
272.752000
0
LINE
8
strokes
10
139.004000
20
272.752000
11
136.182000
21
272.752000
0
LINE
8
strokes
10
136.182000
20
272.752000
11
133.360000
21
272.752000
0
LINE
8
strokes
10
133.360000
20
272.752000
11
130.538000
21
272.752000
0
LINE
8
strokes
10
130.538000
20
272.752000
11
127.716000
21
272.752000
0
LINE
8
strokes
10
127.716000
20
272.752000
11
127.716000
21
269.929000
0
LINE
8
strokes
10
127.716000
20
269.929000
11
127.716000
21
267.107000
0
LINE
8
strokes
10
127.716000
20
267.107000
11
127.716000
21
264.285000
0
LINE
8
strokes
10
127.716000
20
264.285000
11
127.716000
21
261.463000
0
LINE
8
strokes
10
127.716000
20
261.463000
11
127.716000
21
258.641000
0
LINE
8
strokes
10
127.716000
20
258.641000
11
127.716000
21
255.818000
0
LINE
8
strokes
10
127.716000
20
255.818000
11
127.716000
21
252.996000
0
LINE
8
strokes
10
127.716000
20
252.996000
11
127.716000
21
250.174000
0
LINE
8
strokes
10
127.716000
20
250.174000
11
127.716000
21
247.352000
0
LINE
8
strokes
10
127.716000
20
247.352000
11
127.716000
21
244.530000
0
LINE
8
strokes
10
127.716000
20
244.530000
11
127.716000
21
241.707000
0
LINE
8
strokes
10
127.716000
20
241.707000
11
127.716000
21
238.885000
0
LINE
8
strokes
10
127.716000
20
238.885000
11
127.716000
21
236.063000
0
LINE
8
strokes
10
127.716000
20
236.063000
11
127.716000
21
233.241000
0
LINE
8
strokes
10
127.716000
20
233.241000
11
127.716000
21
230.418000
0
LINE
8
strokes
10
127.716000
20
230.418000
11
127.716000
21
227.596000
0
LINE
8
strokes
10
127.716000
20
227.596000
11
127.716000
21
224.774000
0
LINE
8
strokes
10
127.716000
20
224.774000
11
127.716000
21
221.952000
0
LINE
8
strokes
10
127.716000
20
221.952000
11
127.716000
21
219.130000
0
LINE
8
strokes
10
127.716000
20
219.130000
11
127.716000
21
216.307000
0
LINE
8
strokes
10
127.716000
20
216.307000
11
127.716000
21
213.485000
0
LINE
8
strokes
10
127.716000
20
213.485000
11
127.716000
21
210.663000
0
LINE
8
strokes
10
127.716000
20
210.663000
11
127.716000
21
207.841000
0
LINE
8
strokes
10
127.716000
20
207.841000
11
127.716000
21
205.018000
0
LINE
8
strokes
10
127.716000
20
205.018000
11
127.716000
21
202.196000
0
LINE
8
strokes
10
127.716000
20
202.196000
11
127.716000
21
199.374000
0
LINE
8
strokes
10
127.716000
20
199.374000
11
127.716000
21
196.552000
0
LINE
8
strokes
10
127.716000
20
196.552000
11
127.716000
21
193.730000
0
LINE
8
strokes
10
127.716000
20
193.730000
11
127.716000
21
190.907000
0
LINE
8
strokes
10
127.716000
20
190.907000
11
127.716000
21
188.085000
0
LINE
8
strokes
10
127.716000
20
188.085000
11
127.716000
21
185.263000
0
LINE
8
strokes
10
127.716000
20
185.263000
11
127.716000
21
182.441000
0
LINE
8
strokes
10
127.716000
20
182.441000
11
127.716000
21
179.618000
0
LINE
8
strokes
10
127.716000
20
179.618000
11
127.716000
21
176.796000
0
LINE
8
strokes
10
127.716000
20
176.796000
11
127.716000
21
173.974000
0
LINE
8
strokes
10
127.716000
20
173.974000
11
127.716000
21
171.152000
0
LINE
8
strokes
10
127.716000
20
171.152000
11
127.716000
21
168.330000
0
LINE
8
strokes
10
127.716000
20
168.330000
11
127.716000
21
165.507000
0
LINE
8
strokes
10
127.716000
20
165.507000
11
127.716000
21
162.685000
0
LINE
8
strokes
10
127.716000
20
162.685000
11
127.716000
21
159.863000
0
LINE
8
strokes
10
127.716000
20
159.863000
11
127.786000
21
157.042000
0
LINE
8
strokes
10
127.786000
20
157.042000
11
127.855000
21
154.220000
0
LINE
8
strokes
10
127.855000
20
154.220000
11
127.880000
21
153.216000
0
LINE
8
strokes
10
127.880000
20
153.216000
11
128.087000
21
150.401000
0
LINE
8
strokes
10
128.087000
20
150.401000
11
128.295000
21
147.587000
0
LINE
8
strokes
10
128.295000
20
147.587000
11
128.369000
21
146.585000
0
LINE
8
strokes
10
128.369000
20
146.585000
11
128.714000
21
143.784000
0
LINE
8
strokes
10
128.714000
20
143.784000
11
129.060000
21
140.983000
0
LINE
8
strokes
10
129.060000
20
140.983000
11
129.183000
21
139.986000
0
LINE
8
strokes
10
129.183000
20
139.986000
11
129.665000
21
137.205000
0
LINE
8
strokes
10
129.665000
20
137.205000
11
130.148000
21
134.425000
0
LINE
8
strokes
10
130.148000
20
134.425000
11
130.319000
21
133.435000
0
LINE
8
strokes
10
130.319000
20
133.435000
11
130.938000
21
130.681000
0
LINE
8
strokes
10
130.938000
20
130.681000
11
131.556000
21
127.928000
0
LINE
8
strokes
10
131.556000
20
127.928000
11
131.776000
21
126.947000
0
LINE
8
strokes
10
131.776000
20
126.947000
11
132.529000
21
124.227000
0
LINE
8
strokes
10
132.529000
20
124.227000
11
133.282000
21
121.508000
0
LINE
8
strokes
10
133.282000
20
121.508000
11
133.549000
21
120.539000
0
LINE
8
strokes
10
133.549000
20
120.539000
11
134.435000
21
117.860000
0
LINE
8
strokes
10
134.435000
20
117.860000
11
135.320000
21
115.180000
0
LINE
8
strokes
10
135.320000
20
115.180000
11
135.635000
21
114.226000
0
LINE
8
strokes
10
135.635000
20
114.226000
11
136.651000
21
111.593000
0
LINE
8
strokes
10
136.651000
20
111.593000
11
137.666000
21
108.960000
0
LINE
8
strokes
10
137.666000
20
108.960000
11
138.028000
21
108.022000
0
LINE
8
strokes
10
138.028000
20
108.022000
11
139.172000
21
105.442000
0
LINE
8
strokes
10
139.172000
20
105.442000
11
140.315000
21
102.862000
0
LINE
8
strokes
10
140.315000
20
102.862000
11
140.723000
21
101.944000
0
LINE
8
strokes
10
140.723000
20
101.944000
11
141.992000
21
99.422800
0
LINE
8
strokes
10
141.992000
20
99.422800
11
143.260000
21
96.902000
0
LINE
8
strokes
10
143.260000
20
96.902000
11
143.712000
21
96.004800
0
LINE
8
strokes
10
143.712000
20
96.004800
11
145.103000
21
93.549200
0
LINE
8
strokes
10
145.103000
20
93.549200
11
146.494000
21
91.093600
0
LINE
8
strokes
10
146.494000
20
91.093600
11
146.989000
21
90.219600
0
LINE
8
strokes
10
146.989000
20
90.219600
11
148.499000
21
87.835100
0
LINE
8
strokes
10
148.499000
20
87.835100
11
150.009000
21
85.450900
0
LINE
8
strokes
10
150.009000
20
85.450900
11
150.547000
21
84.601900
0
LINE
8
strokes
10
150.547000
20
84.601900
11
152.172000
21
82.294500
0
LINE
8
strokes
10
152.172000
20
82.294500
11
153.797000
21
79.987300
0
LINE
8
strokes
10
153.797000
20
79.987300
11
154.375000
21
79.165800
0
LINE
8
strokes
10
154.375000
20
79.165800
11
156.111000
21
76.941000
0
LINE
8
strokes
10
156.111000
20
76.941000
11
157.848000
21
74.716300
0
LINE
8
strokes
10
157.848000
20
74.716300
11
158.466000
21
73.924100
0
LINE
8
strokes
10
158.466000
20
73.924100
11
160.309000
21
71.787100
0
LINE
8
strokes
10
160.309000
20
71.787100
11
162.153000
21
69.650100
0
LINE
8
strokes
10
162.153000
20
69.650100
11
162.809000
21
68.889500
0
LINE
8
strokes
10
162.809000
20
68.889500
11
164.755000
21
66.845400
0
LINE
8
strokes
10
164.755000
20
66.845400
11
166.701000
21
64.801500
0
LINE
8
strokes
10
166.701000
20
64.801500
11
167.393000
21
64.073900
0
LINE
8
strokes
10
167.393000
20
64.073900
11
169.437000
21
62.128000
0
LINE
8
strokes
10
169.437000
20
62.128000
11
171.481000
21
60.181800
0
LINE
8
strokes
10
171.481000
20
60.181800
11
172.209000
21
59.489300
0
LINE
8
strokes
10
172.209000
20
59.489300
11
174.346000
21
57.645800
0
LINE
8
strokes
10
174.346000
20
57.645800
11
176.483000
21
55.802300
0
LINE
8
strokes
10
176.483000
20
55.802300
11
177.244000
21
55.146100
0
LINE
8
strokes
10
177.244000
20
55.146100
11
179.469000
21
53.409900
0
LINE
8
strokes
10
179.469000
20
53.409900
11
181.693000
21
51.673700
0
LINE
8
strokes
10
181.693000
20
51.673700
11
182.485000
21
51.055600
0
LINE
8
strokes
10
182.485000
20
51.055600
11
184.793000
21
49.430600
0
LINE
8
strokes
10
184.793000
20
49.430600
11
187.100000
21
47.805500
0
LINE
8
strokes
10
187.100000
20
47.805500
11
187.921000
21
47.227000
0
LINE
8
strokes
10
187.921000
20
47.227000
11
190.306000
21
45.717100
0
LINE
8
strokes
10
190.306000
20
45.717100
11
192.690000
21
44.207200
0
LINE
8
strokes
10
192.690000
20
44.207200
11
193.539000
21
43.669900
0
LINE
8
strokes
10
193.539000
20
43.669900
11
195.994000
21
42.278800
0
LINE
8
strokes
10
195.994000
20
42.278800
11
198.450000
21
40.887700
0
LINE
8
strokes
10
198.450000
20
40.887700
11
199.324000
21
40.392400
0
LINE
8
strokes
10
199.324000
20
40.392400
11
201.845000
21
39.123500
0
LINE
8
strokes
10
201.845000
20
39.123500
11
204.366000
21
37.854700
0
LINE
8
strokes
10
204.366000
20
37.854700
11
205.263000
21
37.403100
0
LINE
8
strokes
10
205.263000
20
37.403100
11
207.844000
21
36.259300
0
LINE
8
strokes
10
207.844000
20
36.259300
11
210.424000
21
35.115700
0
LINE
8
strokes
10
210.424000
20
35.115700
11
211.342000
21
34.708500
0
LINE
8
strokes
10
211.342000
20
34.708500
11
213.975000
21
33.692700
0
LINE
8
strokes
10
213.975000
20
33.692700
11
216.608000
21
32.677000
0
LINE
8
strokes
10
216.608000
20
32.677000
11
217.545000
21
32.315500
0
LINE
8
strokes
10
217.545000
20
32.315500
11
220.225000
21
31.430500
0
LINE
8
strokes
10
220.225000
20
31.430500
11
222.905000
21
30.545100
0
LINE
8
strokes
10
222.905000
20
30.545100
11
223.859000
21
30.229900
0
LINE
8
strokes
10
223.859000
20
30.229900
11
226.579000
21
29.477200
0
LINE
8
strokes
10
226.579000
20
29.477200
11
229.299000
21
28.724500
0
LINE
8
strokes
10
229.299000
20
28.724500
11
230.267000
21
28.456700
0
LINE
8
strokes
10
230.267000
20
28.456700
11
233.021000
21
27.838100
0
LINE
8
strokes
10
233.021000
20
27.838100
11
235.774000
21
27.219700
0
LINE
8
strokes
10
235.774000
20
27.219700
11
236.754000
21
26.999900
0
LINE
8
strokes
10
236.754000
20
26.999900
11
239.535000
21
26.517300
0
LINE
8
strokes
10
239.535000
20
26.517300
11
242.316000
21
26.034700
0
LINE
8
strokes
10
242.316000
20
26.034700
11
243.306000
21
25.863100
0
LINE
8
strokes
10
243.306000
20
25.863100
11
246.107000
21
25.517600
0
LINE
8
strokes
10
246.107000
20
25.517600
11
248.908000
21
25.172200
0
LINE
8
strokes
10
248.908000
20
25.172200
11
249.904000
21
25.049100
0
LINE
8
strokes
10
249.904000
20
25.049100
11
252.719000
21
24.841400
0
LINE
8
strokes
10
252.719000
20
24.841400
11
255.534000
21
24.634000
0
LINE
8
strokes
10
255.534000
20
24.634000
11
256.536000
21
24.560000
0
LINE
8
strokes
10
256.536000
20
24.560000
11
259.357000
21
24.490600
0
LINE
8
strokes
10
259.357000
20
24.490600
11
262.178000
21
24.421500
0
LINE
8
strokes
10
262.178000
20
24.421500
11
263.182000
21
24.396900
0
LINE
8
strokes
10
263.182000
20
24.396900
11
266.004000
21
24.466100
0
LINE
8
strokes
10
266.004000
20
24.466100
11
268.825000
21
24.535200
0
LINE
8
strokes
10
268.825000
20
24.535200
11
269.830000
21
24.560000
0
LINE
8
strokes
10
269.830000
20
24.560000
11
272.644000
21
24.767500
0
LINE
8
strokes
10
272.644000
20
24.767500
11
275.459000
21
24.975200
0
LINE
8
strokes
10
275.459000
20
24.975200
11
276.460000
21
25.049100
0
LINE
8
strokes
10
276.460000
20
25.049100
11
279.261000
21
25.394600
0
LINE
8
strokes
10
279.261000
20
25.394600
11
282.063000
21
25.740000
0
LINE
8
strokes
10
282.063000
20
25.740000
11
283.060000
21
25.863100
0
LINE
8
strokes
10
283.060000
20
25.863100
11
285.840000
21
26.345400
0
LINE
8
strokes
10
285.840000
20
26.345400
11
288.621000
21
26.828000
0
LINE
8
strokes
10
288.621000
20
26.828000
11
289.611000
21
26.999900
0
LINE
8
strokes
10
289.611000
20
26.999900
11
292.364000
21
27.618200
0
LINE
8
strokes
10
292.364000
20
27.618200
11
295.118000
21
28.236600
0
LINE
8
strokes
10
295.118000
20
28.236600
11
296.098000
21
28.456700
0
LINE
8
strokes
10
296.098000
20
28.456700
11
298.818000
21
29.209400
0
LINE
8
strokes
10
298.818000
20
29.209400
11
301.538000
21
29.962100
0
LINE
8
strokes
10
301.538000
20
29.962100
11
302.506000
21
30.229900
0
LINE
8
strokes
10
302.506000
20
30.229900
11
305.186000
21
31.115200
0
LINE
8
strokes
10
305.186000
20
31.115200
11
307.866000
21
32.000500
0
LINE
8
strokes
10
307.866000
20
32.000500
11
308.820000
21
32.315500
0
LINE
8
strokes
10
308.820000
20
32.315500
11
311.453000
21
33.331200
0
LINE
8
strokes
10
311.453000
20
33.331200
11
314.086000
21
34.346900
0
LINE
8
strokes
10
314.086000
20
34.346900
11
315.023000
21
34.708500
0
LINE
8
strokes
10
315.023000
20
34.708500
11
317.603000
21
35.852300
0
LINE
8
strokes
10
317.603000
20
35.852300
11
320.183000
21
36.995900
0
LINE
8
strokes
10
320.183000
20
36.995900
11
321.102000
21
37.403100
0
LINE
8
strokes
10
321.102000
20
37.403100
11
323.623000
21
38.672000
0
LINE
8
strokes
10
323.623000
20
38.672000
11
326.144000
21
39.940900
0
LINE
8
strokes
10
326.144000
20
39.940900
11
327.041000
21
40.392400
0
LINE
8
strokes
10
327.041000
20
40.392400
11
329.496000
21
41.783500
0
LINE
8
strokes
10
329.496000
20
41.783500
11
331.952000
21
43.174600
0
LINE
8
strokes
10
331.952000
20
43.174600
11
332.826000
21
43.669900
0
LINE
8
strokes
10
332.826000
20
43.669900
11
335.211000
21
45.179700
0
LINE
8
strokes
10
335.211000
20
45.179700
11
337.595000
21
46.689600
0
LINE
8
strokes
10
337.595000
20
46.689600
11
338.443000
21
47.227000
0
LINE
8
strokes
10
338.443000
20
47.227000
11
340.751000
21
48.852000
0
LINE
8
strokes
10
340.751000
20
48.852000
11
343.058000
21
50.477100
0
LINE
8
strokes
10
343.058000
20
50.477100
11
343.880000
21
51.055600
0
LINE
8
strokes
10
343.880000
20
51.055600
11
346.105000
21
52.791800
0
LINE
8
strokes
10
346.105000
20
52.791800
11
348.329000
21
54.528100
0
LINE
8
strokes
10
348.329000
20
54.528100
11
349.122000
21
55.146100
0
LINE
8
strokes
10
349.122000
20
55.146100
11
351.259000
21
56.989600
0
LINE
8
strokes
10
351.259000
20
56.989600
11
353.396000
21
58.833100
0
LINE
8
strokes
10
353.396000
20
58.833100
11
354.156000
21
59.489300
0
LINE
8
strokes
10
354.156000
20
59.489300
11
356.200000
21
61.435200
0
LINE
8
strokes
10
356.200000
20
61.435200
11
358.244000
21
63.381400
0
LINE
8
strokes
10
358.244000
20
63.381400
11
358.972000
21
64.073900
0
LINE
8
strokes
10
358.972000
20
64.073900
11
360.918000
21
66.117800
0
LINE
8
strokes
10
360.918000
20
66.117800
11
362.864000
21
68.161900
0
LINE
8
strokes
10
362.864000
20
68.161900
11
363.556000
21
68.889500
0
LINE
8
strokes
10
363.556000
20
68.889500
11
365.400000
21
71.026500
0
LINE
8
strokes
10
365.400000
20
71.026500
11
367.243000
21
73.163500
0
LINE
8
strokes
10
367.243000
20
73.163500
11
367.900000
21
73.924100
0
LINE
8
strokes
10
367.900000
20
73.924100
11
369.636000
21
76.149100
0
LINE
8
strokes
10
369.636000
20
76.149100
11
371.372000
21
78.373900
0
LINE
8
strokes
10
371.372000
20
78.373900
11
371.990000
21
79.165800
0
LINE
8
strokes
10
371.990000
20
79.165800
11
373.615000
21
81.473200
0
LINE
8
strokes
10
373.615000
20
81.473200
11
375.240000
21
83.780700
0
LINE
8
strokes
10
375.240000
20
83.780700
11
375.819000
21
84.601900
0
LINE
8
strokes
10
375.819000
20
84.601900
11
377.329000
21
86.986400
0
LINE
8
strokes
10
377.329000
20
86.986400
11
378.838000
21
89.370600
0
LINE
8
strokes
10
378.838000
20
89.370600
11
379.376000
21
90.219600
0
LINE
8
strokes
10
379.376000
20
90.219600
11
380.767000
21
92.675200
0
LINE
8
strokes
10
380.767000
20
92.675200
11
382.158000
21
95.130500
0
LINE
8
strokes
10
382.158000
20
95.130500
11
382.653000
21
96.004800
0
LINE
8
strokes
10
382.653000
20
96.004800
11
383.922000
21
98.525600
0
LINE
8
strokes
10
383.922000
20
98.525600
11
385.191000
21
101.046000
0
LINE
8
strokes
10
385.191000
20
101.046000
11
385.643000
21
101.944000
0
LINE
8
strokes
10
385.643000
20
101.944000
11
386.786000
21
104.524000
0
LINE
8
strokes
10
386.786000
20
104.524000
11
387.930000
21
107.104000
0
LINE
8
strokes
10
387.930000
20
107.104000
11
388.337000
21
108.022000
0
LINE
8
strokes
10
388.337000
20
108.022000
11
389.353000
21
110.656000
0
LINE
8
strokes
10
389.353000
20
110.656000
11
390.369000
21
113.289000
0
LINE
8
strokes
10
390.369000
20
113.289000
11
390.730000
21
114.226000
0
LINE
8
strokes
10
390.730000
20
114.226000
11
391.615000
21
116.906000
0
LINE
8
strokes
10
391.615000
20
116.906000
11
392.501000
21
119.585000
0
LINE
8
strokes
10
392.501000
20
119.585000
11
392.816000
21
120.539000
0
LINE
8
strokes
10
392.816000
20
120.539000
11
393.568000
21
123.259000
0
LINE
8
strokes
10
393.568000
20
123.259000
11
394.321000
21
125.979000
0
LINE
8
strokes
10
394.321000
20
125.979000
11
394.589000
21
126.947000
0
LINE
8
strokes
10
394.589000
20
126.947000
11
395.207000
21
129.701000
0
LINE
8
strokes
10
395.207000
20
129.701000
11
395.826000
21
132.455000
0
LINE
8
strokes
10
395.826000
20
132.455000
11
396.046000
21
133.435000
0
LINE
8
strokes
10
396.046000
20
133.435000
11
396.528000
21
136.216000
0
LINE
8
strokes
10
396.528000
20
136.216000
11
397.011000
21
138.996000
0
LINE
8
strokes
10
397.011000
20
138.996000
11
397.183000
21
139.986000
0
LINE
8
strokes
10
342.205000
20
235.522000
11
343.967000
21
235.349000
0
LINE
8
strokes
10
343.967000
20
235.349000
11
345.661000
21
234.835000
0
LINE
8
strokes
10
345.661000
20
234.835000
11
347.222000
21
234.000000
0
LINE
8
strokes
10
347.222000
20
234.000000
11
348.590000
21
232.877000
0
LINE
8
strokes
10
348.590000
20
232.877000
11
349.714000
21
231.508000
0
LINE
8
strokes
10
349.714000
20
231.508000
11
350.548000
21
229.947000
0
LINE
8
strokes
10
350.548000
20
229.947000
11
351.062000
21
228.253000
0
LINE
8
strokes
10
351.062000
20
228.253000
11
351.236000
21
226.491000
0
LINE
8
strokes
10
351.236000
20
226.491000
11
351.062000
21
224.729000
0
LINE
8
strokes
10
351.062000
20
224.729000
11
350.548000
21
223.035000
0
LINE
8
strokes
10
350.548000
20
223.035000
11
349.714000
21
221.474000
0
LINE
8
strokes
10
349.714000
20
221.474000
11
348.590000
21
220.105000
0
LINE
8
strokes
10
348.590000
20
220.105000
11
347.222000
21
218.982000
0
LINE
8
strokes
10
347.222000
20
218.982000
11
345.661000
21
218.147000
0
LINE
8
strokes
10
345.661000
20
218.147000
11
343.967000
21
217.633000
0
LINE
8
strokes
10
343.967000
20
217.633000
11
342.205000
21
217.460000
0
LINE
8
strokes
10
342.205000
20
217.460000
11
340.443000
21
217.633000
0
LINE
8
strokes
10
340.443000
20
217.633000
11
338.749000
21
218.147000
0
LINE
8
strokes
10
338.749000
20
218.147000
11
337.187000
21
218.982000
0
LINE
8
strokes
10
337.187000
20
218.982000
11
335.818000
21
220.105000
0
LINE
8
strokes
10
335.818000
20
220.105000
11
334.696000
21
221.474000
0
LINE
8
strokes
10
334.696000
20
221.474000
11
333.861000
21
223.035000
0
LINE
8
strokes
10
333.861000
20
223.035000
11
333.347000
21
224.729000
0
LINE
8
strokes
10
333.347000
20
224.729000
11
333.174000
21
226.491000
0
LINE
8
strokes
10
333.174000
20
226.491000
11
333.347000
21
228.253000
0
LINE
8
strokes
10
333.347000
20
228.253000
11
333.861000
21
229.947000
0
LINE
8
strokes
10
333.861000
20
229.947000
11
334.696000
21
231.508000
0
LINE
8
strokes
10
334.696000
20
231.508000
11
335.818000
21
232.877000
0
LINE
8
strokes
10
335.818000
20
232.877000
11
337.187000
21
234.000000
0
LINE
8
strokes
10
337.187000
20
234.000000
11
338.749000
21
234.835000
0
LINE
8
strokes
10
338.749000
20
234.835000
11
340.443000
21
235.349000
0
LINE
8
strokes
10
340.443000
20
235.349000
11
342.205000
21
235.522000
0
LINE
8
strokes
10
184.161000
20
218.565000
11
182.399000
21
218.739000
0
LINE
8
strokes
10
182.399000
20
218.739000
11
180.704000
21
219.253000
0
LINE
8
strokes
10
180.704000
20
219.253000
11
179.143000
21
220.087000
0
LINE
8
strokes
10
179.143000
20
220.087000
11
177.775000
21
221.210000
0
LINE
8
strokes
10
177.775000
20
221.210000
11
176.651000
21
222.579000
0
LINE
8
strokes
10
176.651000
20
222.579000
11
175.817000
21
224.140000
0
LINE
8
strokes
10
175.817000
20
224.140000
11
175.303000
21
225.834000
0
LINE
8
strokes
10
175.303000
20
225.834000
11
175.129000
21
227.596000
0
LINE
8
strokes
10
175.129000
20
227.596000
11
175.303000
21
229.358000
0
LINE
8
strokes
10
175.303000
20
229.358000
11
175.817000
21
231.052000
0
LINE
8
strokes
10
175.817000
20
231.052000
11
176.651000
21
232.614000
0
LINE
8
strokes
10
176.651000
20
232.614000
11
177.775000
21
233.982000
0
LINE
8
strokes
10
177.775000
20
233.982000
11
179.143000
21
235.105000
0
LINE
8
strokes
10
179.143000
20
235.105000
11
180.704000
21
235.940000
0
LINE
8
strokes
10
180.704000
20
235.940000
11
182.399000
21
236.454000
0
LINE
8
strokes
10
182.399000
20
236.454000
11
184.161000
21
236.627000
0
LINE
8
strokes
10
184.161000
20
236.627000
11
185.922000
21
236.454000
0
LINE
8
strokes
10
185.922000
20
236.454000
11
187.617000
21
235.940000
0
LINE
8
strokes
10
187.617000
20
235.940000
11
189.178000
21
235.105000
0
LINE
8
strokes
10
189.178000
20
235.105000
11
190.546000
21
233.982000
0
LINE
8
strokes
10
190.546000
20
233.982000
11
191.670000
21
232.614000
0
LINE
8
strokes
10
191.670000
20
232.614000
11
192.504000
21
231.052000
0
LINE
8
strokes
10
192.504000
20
231.052000
11
193.018000
21
229.358000
0
LINE
8
strokes
10
193.018000
20
229.358000
11
193.192000
21
227.596000
0
LINE
8
strokes
10
193.192000
20
227.596000
11
193.018000
21
225.834000
0
LINE
8
strokes
10
193.018000
20
225.834000
11
192.504000
21
224.140000
0
LINE
8
strokes
10
192.504000
20
224.140000
11
191.670000
21
222.579000
0
LINE
8
strokes
10
191.670000
20
222.579000
11
190.546000
21
221.210000
0
LINE
8
strokes
10
190.546000
20
221.210000
11
189.178000
21
220.087000
0
LINE
8
strokes
10
189.178000
20
220.087000
11
187.617000
21
219.253000
0
LINE
8
strokes
10
187.617000
20
219.253000
11
185.922000
21
218.739000
0
LINE
8
strokes
10
185.922000
20
218.739000
11
184.161000
21
218.565000
0
LINE
8
strokes
10
264.944000
20
71.896600
11
263.182000
21
71.723000
0
LINE
8
strokes
10
263.182000
20
71.723000
11
261.421000
21
71.896600
0
LINE
8
strokes
10
261.421000
20
71.896600
11
259.727000
21
72.410500
0
LINE
8
strokes
10
259.727000
20
72.410500
11
258.165000
21
73.245000
0
LINE
8
strokes
10
258.165000
20
73.245000
11
256.797000
21
74.368300
0
LINE
8
strokes
10
256.797000
20
74.368300
11
255.673000
21
75.736800
0
LINE
8
strokes
10
255.673000
20
75.736800
11
254.839000
21
77.298000
0
LINE
8
strokes
10
254.839000
20
77.298000
11
254.325000
21
78.992200
0
LINE
8
strokes
10
254.325000
20
78.992200
11
254.151000
21
80.754100
0
LINE
8
strokes
10
254.151000
20
80.754100
11
254.325000
21
82.516000
0
LINE
8
strokes
10
254.325000
20
82.516000
11
254.839000
21
84.210200
0
LINE
8
strokes
10
254.839000
20
84.210200
11
255.673000
21
85.771500
0
LINE
8
strokes
10
255.673000
20
85.771500
11
256.797000
21
87.140000
0
LINE
8
strokes
10
256.797000
20
87.140000
11
258.165000
21
88.263200
0
LINE
8
strokes
10
258.165000
20
88.263200
11
259.727000
21
89.097700
0
LINE
8
strokes
10
259.727000
20
89.097700
11
261.421000
21
89.611700
0
LINE
8
strokes
10
261.421000
20
89.611700
11
263.182000
21
89.785200
0
LINE
8
strokes
10
263.182000
20
89.785200
11
264.944000
21
89.611700
0
LINE
8
strokes
10
264.944000
20
89.611700
11
266.639000
21
89.097700
0
LINE
8
strokes
10
266.639000
20
89.097700
11
268.200000
21
88.263200
0
LINE
8
strokes
10
268.200000
20
88.263200
11
269.569000
21
87.140000
0
LINE
8
strokes
10
269.569000
20
87.140000
11
270.692000
21
85.771500
0
LINE
8
strokes
10
270.692000
20
85.771500
11
271.526000
21
84.210200
0
LINE
8
strokes
10
271.526000
20
84.210200
11
272.040000
21
82.516000
0
LINE
8
strokes
10
272.040000
20
82.516000
11
272.214000
21
80.754100
0
LINE
8
strokes
10
272.214000
20
80.754100
11
272.040000
21
78.992200
0
LINE
8
strokes
10
272.040000
20
78.992200
11
271.526000
21
77.298000
0
LINE
8
strokes
10
271.526000
20
77.298000
11
270.692000
21
75.736800
0
LINE
8
strokes
10
270.692000
20
75.736800
11
269.569000
21
74.368300
0
LINE
8
strokes
10
269.569000
20
74.368300
11
268.200000
21
73.245000
0
LINE
8
strokes
10
268.200000
20
73.245000
11
266.639000
21
72.410500
0
LINE
8
strokes
10
266.639000
20
72.410500
11
264.944000
21
71.896600
 0 
ENDSEC
 0 
EOF