  0
SECTION
  2
HEADER
  9
$ACADVER
  1
AC1014
  9
$HANDSEED
  5
FFFF
  9
$MEASUREMENT
 70
     1
  0
ENDSEC
  0
SECTION
  2
TABLES
  0
TABLE
  2
VPORT
  5
8
330
0
100
AcDbSymbolTable
 70
     4
  0
VPORT
  5
2E
330
8
100
AcDbSymbolTableRecord
100
AcDbViewportTableRecord
  2
*ACTIVE
 70
     0
 10
0.0
 20
0.0
 11
1.0
 21
1.0
 12
210.0
 22
148.5
 13
0.0
 23
0.0
 14
10.0
 24
10.0
 15
10.0
 25
10.0
 16
0.0
 26
0.0
 36
1.0
 17
0.0
 27
0.0
 37
0.0
 40
341.0
 41
1.24
 42
50.0
 43
0.0
 44
0.0
 50
0.0
 51
0.0
 71
     0
 72
   100
 73
     1
 74
     3
 75
     0
 76
     0
 77
     0
 78
     0
  0
ENDTAB
  0
TABLE
  2
LTYPE
  5
5
330
0
100
AcDbSymbolTable
 70
     1
  0
LTYPE
  5
14
330
5
100
AcDbSymbolTableRecord
100
AcDbLinetypeTableRecord
  2
BYBLOCK
 70
     0
  3

 72
    65
 73
     0
 40
0.0
  0
LTYPE
  5
15
330
5
100
AcDbSymbolTableRecord
100
AcDbLinetypeTableRecord
  2
BYLAYER
 70
     0
  3

 72
    65
 73
     0
 40
0.0
  0
LTYPE
  5
16
330
5
100
AcDbSymbolTableRecord
100
AcDbLinetypeTableRecord
  2
CONTINUOUS
 70
     0
  3
Solid line
 72
    65
 73
     0
 40
0.0
  0
ENDTAB
  0
TABLE
  2
LAYER
  5
2
100
AcDbSymbolTable
 70
1
  0
LAYER
  5
50
100
AcDbSymbolTableRecord
100
AcDbLayerTableRecord
  2
0
 70
0
  6
CONTINUOUS
  0
ENDTAB
  0
TABLE
  2
STYLE
  5
3
330
0
100
AcDbSymbolTable
 70
     1
  0
STYLE
  5
11
330
3
100
AcDbSymbolTableRecord
100
AcDbTextStyleTableRecord
  2
STANDARD
 70
     0
 40
0.0
 41
1.0
 50
0.0
 71
     0
 42
2.5
  3
txt
  4

  0
ENDTAB
  0
TABLE
  2
VIEW
  5
6
330
0
100
AcDbSymbolTable
 70
     0
  0
ENDTAB
  0
TABLE
  2
UCS
  5
7
330
0
100
AcDbSymbolTable
 70
     0
  0
ENDTAB
  0
TABLE
  2
APPID
  5
9
330
0
100
AcDbSymbolTable
 70
     2
  0
APPID
  5
12
330
9
100
AcDbSymbolTableRecord
100
AcDbRegAppTableRecord
  2
ACAD
 70
     0
  0
ENDTAB
  0
TABLE
  2
DIMSTYLE
  5
A
330
0
100
AcDbSymbolTable
 70
     1
  0
DIMSTYLE
105
27
330
A
100
AcDbSymbolTableRecord
100
AcDbDimStyleTableRecord
  2
ISO-25
 70
     0
  3

  4

  5

  6

  7

 40
1.0
 41
2.5
 42
0.625
 43
3.75
 44
1.25
 45
0.0
 46
0.0
 47
0.0
 48
0.0
140
2.5
141
2.5
142
0.0
143
0.03937007874016
144
1.0
145
0.0
146
1.0
147
0.625
 71
     0
 72
     0
 73
     0
 74
     0
 75
     0
 76
     0
 77
     1
 78
     8
170
     0
171
     3
172
     1
173
     0
174
     0
175
     0
176
     0
177
     0
178
     0
270
     2
271
     2
272
     2
273
     2
274
     3
340
11
275
     0
280
     0
281
     0
282
     0
283
     0
284
     8
285
     0
286
     0
287
     3
288
     0
  0
ENDTAB
  0
TABLE
  2
BLOCK_RECORD
  5
1
330
0
100
AcDbSymbolTable
 70
     1
  0
BLOCK_RECORD
  5
1F
330
1
100
AcDbSymbolTableRecord
100
AcDbBlockTableRecord
  2
*MODEL_SPACE
  0
BLOCK_RECORD
  5
1B
330
1
100
AcDbSymbolTableRecord
100
AcDbBlockTableRecord
  2
*PAPER_SPACE
  0
ENDTAB
  0
ENDSEC
  0
SECTION
  2
BLOCKS
  0
BLOCK
  5
20
330
1F
100
AcDbEntity
  8
0
100
AcDbBlockBegin
  2
*MODEL_SPACE
 70
     0
 10
0.0
 20
0.0
 30
0.0
  3
*MODEL_SPACE
  1

  0
ENDBLK
  5
21
330
1F
100
AcDbEntity
  8
0
100
AcDbBlockEnd
  0
BLOCK
  5
1C
330
1B
100
AcDbEntity
 67
     1
  8
0
100
AcDbBlockBegin
  2
*PAPER_SPACE
  1

  0
ENDBLK
  5
1D
330
1B
100
AcDbEntity
 67
     1
  8
0
100
AcDbBlockEnd
  0
ENDSEC
  0
SECTION
  2
ENTITIES
  0
LWPOLYLINE
  5
100
100
AcDbEntity
  8
0
 62
7
100
AcDbPolyline
 90
4
 70
1
 10
0.000000
 20
235.479167
 30
0.0
 10
223.308333
 20
235.479167
 30
0.0
 10
223.308333
 20
0.000000
 30
0.0
 10
0.000000
 20
0.000000
 30
0.0
  0
LWPOLYLINE
  5
101
100
AcDbEntity
  8
0
 62
7
100
AcDbPolyline
 90
10
 70
1
 10
48.971729
 20
42.992146
 30
0.0
 10
48.971729
 20
40.343667
 30
0.0
 10
53.173313
 20
40.343667
 30
0.0
 10
53.173313
 20
38.975771
 30
0.0
 10
48.971729
 20
38.975771
 30
0.0
 10
48.971729
 20
35.642021
 30
0.0
 10
47.355125
 20
35.642021
 30
0.0
 10
47.355125
 20
44.346812
 30
0.0
 10
53.710417
 20
44.346812
 30
0.0
 10
53.710417
 20
42.992146
 30
0.0
  0
LWPOLYLINE
  5
102
100
AcDbEntity
  8
0
 62
7
100
AcDbPolyline
 90
8
 70
1
 10
60.549896
 20
37.658146
 30
0.0
 10
56.197500
 20
37.658146
 30
0.0
 10
55.340250
 20
35.644667
 30
0.0
 10
53.673375
 20
35.644667
 30
0.0
 10
57.589208
 20
44.349458
 30
0.0
 10
59.182000
 20
44.349458
 30
0.0
 10
63.111063
 20
35.644667
 30
0.0
 10
61.420375
 20
35.644667
 30
0.0
  0
SPLINE
  5
103
100
AcDbEntity
  8
0
 62
7
100
AcDbSpline
 70
8
 71
3
 72
8
 73
4
 74
0
 40
0
 40
0
 40
0
 40
0
 40
1
 40
1
 40
1
 40
1
 10
71.953437
 20
38.004750
 30
0.0
 10
71.953437
 20
36.512500
 30
0.0
 10
70.783979
 20
35.642021
 30
0.0
 10
68.545604
 20
35.642021
 30
0.0
  0
LWPOLYLINE
  5
104
100
AcDbEntity
  8
0
 62
7
100
AcDbPolyline
 90
3
 70
1
 10
60.015437
 20
38.925500
 30
0.0
 10
58.375021
 20
42.730208
 30
0.0
 10
56.745188
 20
38.925500
 30
0.0
  0
SPLINE
  5
105
100
AcDbEntity
  8
0
 62
7
100
AcDbSpline
 70
8
 71
3
 72
8
 73
4
 74
0
 40
0
 40
0
 40
0
 40
0
 40
1
 40
1
 40
1
 40
1
 10
68.299542
 20
44.346812
 30
0.0
 10
70.389750
 20
44.346812
 30
0.0
 10
71.508938
 20
43.463104
 30
0.0
 10
71.508938
 20
42.084625
 30
0.0
  0
SPLINE
  5
106
100
AcDbEntity
  8
0
 62
7
100
AcDbSpline
 70
8
 71
3
 72
8
 73
4
 74
0
 40
0
 40
0
 40
0
 40
0
 40
1
 40
1
 40
1
 40
1
 10
71.508938
 20
42.084625
 30
0.0
 10
71.508938
 20
41.190333
 30
0.0
 10
71.061792
 20
40.528875
 30
0.0
 10
70.389750
 20
40.169042
 30
0.0
  0
SPLINE
  5
107
100
AcDbEntity
  8
0
 62
7
100
AcDbSpline
 70
8
 71
3
 72
8
 73
4
 74
0
 40
0
 40
0
 40
0
 40
0
 40
1
 40
1
 40
1
 40
1
 10
70.389750
 20
40.169042
 30
0.0
 10
71.318437
 20
39.870062
 30
0.0
 10
71.953437
 20
39.137167
 30
0.0
 10
71.953437
 20
38.004750
 30
0.0
  0
LWPOLYLINE
  5
108
100
AcDbEntity
  8
0
 62
7
100
AcDbPolyline
 90
4
 70
0
 10
68.545604
 20
35.642021
 30
0.0
 10
64.219667
 20
35.642021
 30
0.0
 10
64.219667
 20
44.346812
 30
0.0
 10
68.299542
 20
44.346812
 30
0.0
  0
LWPOLYLINE
  5
109
100
AcDbEntity
  8
0
 62
7
100
AcDbPolyline
 90
1
 70
1
 10
71.953437
 20
38.004750
 30
0.0
  0
SPLINE
  5
10a
100
AcDbEntity
  8
0
 62
7
100
AcDbSpline
 70
8
 71
3
 72
8
 73
4
 74
0
 40
0
 40
0
 40
0
 40
0
 40
1
 40
1
 40
1
 40
1
 10
68.122271
 20
40.679687
 30
0.0
 10
69.241458
 20
40.679687
 30
0.0
 10
69.876458
 20
41.076562
 30
0.0
 10
69.876458
 20
41.872958
 30
0.0
  0
SPLINE
  5
10b
100
AcDbEntity
  8
0
 62
7
100
AcDbSpline
 70
8
 71
3
 72
8
 73
4
 74
0
 40
0
 40
0
 40
0
 40
0
 40
1
 40
1
 40
1
 40
1
 10
69.876458
 20
41.872958
 30
0.0
 10
69.876458
 20
42.679937
 30
0.0
 10
69.241458
 20
43.079458
 30
0.0
 10
68.122271
 20
43.079458
 30
0.0
  0
LWPOLYLINE
  5
10c
100
AcDbEntity
  8
0
 62
7
100
AcDbPolyline
 90
3
 70
0
 10
65.833625
 20
43.079458
 30
0.0
 10
65.833625
 20
40.679687
 30
0.0
 10
68.122271
 20
40.679687
 30
0.0
  0
SPLINE
  5
10d
100
AcDbEntity
  8
0
 62
7
100
AcDbSpline
 70
8
 71
3
 72
8
 73
4
 74
0
 40
0
 40
0
 40
0
 40
0
 40
1
 40
1
 40
1
 40
1
 10
70.323604
 20
38.166146
 30
0.0
 10
70.323604
 20
39.036625
 30
0.0
 10
69.664792
 20
39.422917
 30
0.0
 10
68.445062
 20
39.422917
 30
0.0
  0
LWPOLYLINE
  5
10e
100
AcDbEntity
  8
0
 62
7
100
AcDbPolyline
 90
2
 70
0
 10
68.122271
 20
43.079458
 30
0.0
 10
65.833625
 20
43.079458
 30
0.0
  0
SPLINE
  5
10f
100
AcDbEntity
  8
0
 62
7
100
AcDbSpline
 70
8
 71
3
 72
8
 73
4
 74
0
 40
0
 40
0
 40
0
 40
0
 40
1
 40
1
 40
1
 40
1
 10
68.445062
 20
36.912021
 30
0.0
 10
69.664792
 20
36.912021
 30
0.0
 10
70.323604
 20
37.295667
 30
0.0
 10
70.323604
 20
38.166146
 30
0.0
  0
LWPOLYLINE
  5
110
100
AcDbEntity
  8
0
 62
7
100
AcDbPolyline
 90
4
 70
0
 10
68.445062
 20
39.422917
 30
0.0
 10
65.833625
 20
39.422917
 30
0.0
 10
65.833625
 20
36.912021
 30
0.0
 10
68.445062
 20
36.912021
 30
0.0
  0
LWPOLYLINE
  5
111
100
AcDbEntity
  8
0
 62
7
100
AcDbPolyline
 90
1
 70
1
 10
70.323604
 20
38.166146
 30
0.0
  0
LWPOLYLINE
  5
112
100
AcDbEntity
  8
0
 62
7
100
AcDbPolyline
 90
10
 70
1
 10
75.297771
 20
42.992146
 30
0.0
 10
75.297771
 20
40.343667
 30
0.0
 10
79.502000
 20
40.343667
 30
0.0
 10
79.502000
 20
38.975771
 30
0.0
 10
75.297771
 20
38.975771
 30
0.0
 10
75.297771
 20
35.642021
 30
0.0
 10
73.681167
 20
35.642021
 30
0.0
 10
73.681167
 20
44.346812
 30
0.0
 10
80.036458
 20
44.346812
 30
0.0
 10
80.036458
 20
42.992146
 30
0.0
  0
LWPOLYLINE
  5
113
100
AcDbEntity
  8
0
 62
7
100
AcDbPolyline
 90
8
 70
1
 10
86.875938
 20
37.658146
 30
0.0
 10
82.523542
 20
37.658146
 30
0.0
 10
81.666292
 20
35.644667
 30
0.0
 10
79.999417
 20
35.644667
 30
0.0
 10
83.915250
 20
44.349458
 30
0.0
 10
85.508042
 20
44.349458
 30
0.0
 10
89.437104
 20
35.644667
 30
0.0
 10
87.746417
 20
35.644667
 30
0.0
  0
LWPOLYLINE
  5
114
100
AcDbEntity
  8
0
 62
7
100
AcDbPolyline
 90
3
 70
1
 10
86.338833
 20
38.925500
 30
0.0
 10
84.698417
 20
42.730208
 30
0.0
 10
83.068583
 20
38.925500
 30
0.0
  0
SPLINE
  5
115
100
AcDbEntity
  8
0
 62
7
100
AcDbSpline
 70
8
 71
3
 72
8
 73
4
 74
0
 40
0
 40
0
 40
0
 40
0
 40
1
 40
1
 40
1
 40
1
 10
94.461542
 20
38.189958
 30
0.0
 10
94.350417
 20
38.176729
 30
0.0
 10
94.236646
 20
38.176729
 30
0.0
 10
94.125521
 20
38.176729
 30
0.0
  0
LWPOLYLINE
  5
116
100
AcDbEntity
  8
0
 62
7
100
AcDbPolyline
 90
2
 70
0
 10
96.239542
 20
35.642021
 30
0.0
 10
94.461542
 20
38.189958
 30
0.0
  0
SPLINE
  5
117
100
AcDbEntity
  8
0
 62
7
100
AcDbSpline
 70
8
 71
3
 72
8
 73
4
 74
0
 40
0
 40
0
 40
0
 40
0
 40
1
 40
1
 40
1
 40
1
 10
94.125521
 20
44.344167
 30
0.0
 10
96.414167
 20
44.344167
 30
0.0
 10
97.832333
 20
43.174708
 30
0.0
 10
97.832333
 20
41.248542
 30
0.0
  0
SPLINE
  5
118
100
AcDbEntity
  8
0
 62
7
100
AcDbSpline
 70
8
 71
3
 72
8
 73
4
 74
0
 40
0
 40
0
 40
0
 40
0
 40
1
 40
1
 40
1
 40
1
 10
97.832333
 20
41.248542
 30
0.0
 10
97.832333
 20
39.930917
 30
0.0
 10
97.160292
 20
38.959896
 30
0.0
 10
95.980250
 20
38.499521
 30
0.0
  0
LWPOLYLINE
  5
119
100
AcDbEntity
  8
0
 62
7
100
AcDbPolyline
 90
6
 70
0
 10
94.125521
 20
38.176729
 30
0.0
 10
92.159667
 20
38.176729
 30
0.0
 10
92.159667
 20
35.639375
 30
0.0
 10
90.543062
 20
35.639375
 30
0.0
 10
90.543062
 20
44.344167
 30
0.0
 10
94.125521
 20
44.344167
 30
0.0
  0
LWPOLYLINE
  5
11a
100
AcDbEntity
  8
0
 62
7
100
AcDbPolyline
 90
4
 70
0
 10
95.980250
 20
38.499521
 30
0.0
 10
97.983146
 20
35.639375
 30
0.0
 10
96.239542
 20
35.639375
 30
0.0
 10
96.239542
 20
35.642021
 30
0.0
  0
SPLINE
  5
11b
100
AcDbEntity
  8
0
 62
7
100
AcDbSpline
 70
8
 71
3
 72
8
 73
4
 74
0
 40
0
 40
0
 40
0
 40
0
 40
1
 40
1
 40
1
 40
1
 10
94.048792
 20
39.510229
 30
0.0
 10
95.466958
 20
39.510229
 30
0.0
 10
96.199854
 20
40.155813
 30
0.0
 10
96.199854
 20
41.251188
 30
0.0
  0
SPLINE
  5
11c
100
AcDbEntity
  8
0
 62
7
100
AcDbSpline
 70
8
 71
3
 72
8
 73
4
 74
0
 40
0
 40
0
 40
0
 40
0
 40
1
 40
1
 40
1
 40
1
 10
96.199854
 20
41.251188
 30
0.0
 10
96.199854
 20
42.346563
 30
0.0
 10
95.466958
 20
42.978917
 30
0.0
 10
94.048792
 20
42.978917
 30
0.0
  0
LWPOLYLINE
  5
11d
100
AcDbEntity
  8
0
 62
7
100
AcDbPolyline
 90
4
 70
0
 10
94.048792
 20
42.978917
 30
0.0
 10
92.159667
 20
42.978917
 30
0.0
 10
92.159667
 20
39.510229
 30
0.0
 10
94.048792
 20
39.510229
 30
0.0
  0
LWPOLYLINE
  5
11e
100
AcDbEntity
  8
0
 62
7
100
AcDbPolyline
 90
1
 70
1
 10
94.048792
 20
42.978917
 30
0.0
  0
LWPOLYLINE
  5
11f
100
AcDbEntity
  8
0
 62
7
100
AcDbPolyline
 90
13
 70
1
 10
107.629854
 20
35.642021
 30
0.0
 10
107.616625
 20
41.412583
 30
0.0
 10
104.756479
 20
36.636854
 30
0.0
 10
104.034167
 20
36.636854
 30
0.0
 10
101.174021
 20
41.335854
 30
0.0
 10
101.174021
 20
35.642021
 30
0.0
 10
99.631500
 20
35.642021
 30
0.0
 10
99.631500
 20
44.346812
 30
0.0
 10
100.962354
 20
44.346812
 30
0.0
 10
104.420458
 20
38.576250
 30
0.0
 10
107.815062
 20
44.346812
 30
0.0
 10
109.145917
 20
44.346812
 30
0.0
 10
109.159146
 20
35.642021
 30
0.0
  0
LWPOLYLINE
  5
120
100
AcDbEntity
  8
0
 62
7
100
AcDbPolyline
 90
8
 70
1
 10
123.996979
 20
38.155563
 30
0.0
 10
118.948729
 20
38.155563
 30
0.0
 10
117.842771
 20
35.583812
 30
0.0
 10
117.160146
 20
35.583812
 30
0.0
 10
121.163292
 20
44.722521
 30
0.0
 10
121.798292
 20
44.722521
 30
0.0
 10
125.801437
 20
35.583812
 30
0.0
 10
125.118813
 20
35.583812
 30
0.0
  0
LWPOLYLINE
  5
121
100
AcDbEntity
  8
0
 62
7
100
AcDbPolyline
 90
3
 70
1
 10
123.761500
 20
38.716479
 30
0.0
 10
121.472854
 20
43.992271
 30
0.0
 10
119.197437
 20
38.716479
 30
0.0
  0
LWPOLYLINE
  5
122
100
AcDbEntity
  8
0
 62
7
100
AcDbPolyline
 90
6
 70
1
 10
127.343958
 20
44.722521
 30
0.0
 10
127.978958
 20
44.722521
 30
0.0
 10
127.978958
 20
36.184417
 30
0.0
 10
132.990167
 20
36.184417
 30
0.0
 10
132.990167
 20
35.583812
 30
0.0
 10
127.343958
 20
35.583812
 30
0.0
  0
SPLINE
  5
123
100
AcDbEntity
  8
0
 62
7
100
AcDbSpline
 70
8
 71
3
 72
8
 73
4
 74
0
 40
0
 40
0
 40
0
 40
0
 40
1
 40
1
 40
1
 40
1
 10
141.231937
 20
36.692417
 30
0.0
 10
140.448771
 20
35.909250
 30
0.0
 10
139.316354
 20
35.517667
 30
0.0
 10
138.123083
 20
35.517667
 30
0.0
  0
SPLINE
  5
124
100
AcDbEntity
  8
0
 62
7
100
AcDbSpline
 70
8
 71
3
 72
8
 73
4
 74
0
 40
0
 40
0
 40
0
 40
0
 40
1
 40
1
 40
1
 40
1
 10
138.123083
 20
35.517667
 30
0.0
 10
135.498417
 20
35.517667
 30
0.0
 10
133.572250
 20
37.488812
 30
0.0
 10
133.572250
 20
40.153167
 30
0.0
  0
SPLINE
  5
125
100
AcDbEntity
  8
0
 62
7
100
AcDbSpline
 70
8
 71
3
 72
8
 73
4
 74
0
 40
0
 40
0
 40
0
 40
0
 40
1
 40
1
 40
1
 40
1
 10
133.572250
 20
40.153167
 30
0.0
 10
133.572250
 20
42.817521
 30
0.0
 10
135.498417
 20
44.788667
 30
0.0
 10
138.136312
 20
44.788667
 30
0.0
  0
SPLINE
  5
126
100
AcDbEntity
  8
0
 62
7
100
AcDbSpline
 70
8
 71
3
 72
8
 73
4
 74
0
 40
0
 40
0
 40
0
 40
0
 40
1
 40
1
 40
1
 40
1
 10
138.136312
 20
44.788667
 30
0.0
 10
139.393083
 20
44.788667
 30
0.0
 10
140.499042
 20
44.370625
 30
0.0
 10
141.268979
 20
43.534542
 30
0.0
  0
LWPOLYLINE
  5
127
100
AcDbEntity
  8
0
 62
7
100
AcDbPolyline
 90
3
 70
0
 10
140.623396
 20
40.113479
 30
0.0
 10
141.231937
 20
40.113479
 30
0.0
 10
141.231937
 20
36.692417
 30
0.0
  0
SPLINE
  5
128
100
AcDbEntity
  8
0
 62
7
100
AcDbSpline
 70
8
 71
3
 72
8
 73
4
 74
0
 40
0
 40
0
 40
0
 40
0
 40
1
 40
1
 40
1
 40
1
 10
140.872104
 20
43.090042
 30
0.0
 10
140.112750
 20
43.873208
 30
0.0
 10
139.205229
 20
44.174833
 30
0.0
 10
138.149542
 20
44.174833
 30
0.0
  0
SPLINE
  5
129
100
AcDbEntity
  8
0
 62
7
100
AcDbSpline
 70
8
 71
3
 72
8
 73
4
 74
0
 40
0
 40
0
 40
0
 40
0
 40
1
 40
1
 40
1
 40
1
 10
138.149542
 20
44.174833
 30
0.0
 10
135.887354
 20
44.174833
 30
0.0
 10
134.207250
 20
42.452396
 30
0.0
 10
134.207250
 20
40.153167
 30
0.0
  0
SPLINE
  5
12a
100
AcDbEntity
  8
0
 62
7
100
AcDbSpline
 70
8
 71
3
 72
8
 73
4
 74
0
 40
0
 40
0
 40
0
 40
0
 40
1
 40
1
 40
1
 40
1
 10
134.207250
 20
40.153167
 30
0.0
 10
134.207250
 20
37.867167
 30
0.0
 10
135.884708
 20
36.131500
 30
0.0
 10
138.149542
 20
36.131500
 30
0.0
  0
SPLINE
  5
12b
100
AcDbEntity
  8
0
 62
7
100
AcDbSpline
 70
8
 71
3
 72
8
 73
4
 74
0
 40
0
 40
0
 40
0
 40
0
 40
1
 40
1
 40
1
 40
1
 10
138.149542
 20
36.131500
 30
0.0
 10
139.070292
 20
36.131500
 30
0.0
 10
139.914312
 20
36.366979
 30
0.0
 10
140.623396
 20
36.967583
 30
0.0
  0
LWPOLYLINE
  5
12c
100
AcDbEntity
  8
0
 62
7
100
AcDbPolyline
 90
2
 70
0
 10
141.268979
 20
43.534542
 30
0.0
 10
140.872104
 20
43.090042
 30
0.0
  0
LWPOLYLINE
  5
12d
100
AcDbEntity
  8
0
 62
7
100
AcDbPolyline
 90
2
 70
0
 10
140.623396
 20
36.967583
 30
0.0
 10
140.623396
 20
40.113479
 30
0.0
  0
LWPOLYLINE
  5
12e
100
AcDbEntity
  8
0
 62
7
100
AcDbPolyline
 90
8
 70
1
 10
149.365229
 20
38.155563
 30
0.0
 10
144.316979
 20
38.155563
 30
0.0
 10
143.211021
 20
35.583812
 30
0.0
 10
142.528396
 20
35.583812
 30
0.0
 10
146.531542
 20
44.722521
 30
0.0
 10
147.166542
 20
44.722521
 30
0.0
 10
151.169687
 20
35.583812
 30
0.0
 10
150.487062
 20
35.583812
 30
0.0
  0
LWPOLYLINE
  5
12f
100
AcDbEntity
  8
0
 62
7
100
AcDbPolyline
 90
3
 70
1
 10
149.129750
 20
38.716479
 30
0.0
 10
146.841104
 20
43.992271
 30
0.0
 10
144.565687
 20
38.716479
 30
0.0
  0
SPLINE
  5
130
100
AcDbEntity
  8
0
 62
7
100
AcDbSpline
 70
8
 71
3
 72
8
 73
4
 74
0
 40
0
 40
0
 40
0
 40
0
 40
1
 40
1
 40
1
 40
1
 10
156.678313
 20
38.639750
 30
0.0
 10
156.405792
 20
38.600062
 30
0.0
 10
156.130625
 20
38.573604
 30
0.0
 10
155.831646
 20
38.573604
 30
0.0
  0
LWPOLYLINE
  5
131
100
AcDbEntity
  8
0
 62
7
100
AcDbPolyline
 90
2
 70
0
 10
158.755292
 20
35.583812
 30
0.0
 10
156.678313
 20
38.639750
 30
0.0
  0
SPLINE
  5
132
100
AcDbEntity
  8
0
 62
7
100
AcDbSpline
 70
8
 71
3
 72
8
 73
4
 74
0
 40
0
 40
0
 40
0
 40
0
 40
1
 40
1
 40
1
 40
1
 10
155.831646
 20
44.722521
 30
0.0
 10
158.019750
 20
44.722521
 30
0.0
 10
159.337375
 20
43.574229
 30
0.0
 10
159.337375
 20
41.640125
 30
0.0
  0
SPLINE
  5
133
100
AcDbEntity
  8
0
 62
7
100
AcDbSpline
 70
8
 71
3
 72
8
 73
4
 74
0
 40
0
 40
0
 40
0
 40
0
 40
1
 40
1
 40
1
 40
1
 10
159.337375
 20
41.640125
 30
0.0
 10
159.337375
 20
40.190208
 30
0.0
 10
158.591250
 20
39.184792
 30
0.0
 10
157.297437
 20
38.779979
 30
0.0
  0
LWPOLYLINE
  5
134
100
AcDbEntity
  8
0
 62
7
100
AcDbPolyline
 90
6
 70
0
 10
155.831646
 20
38.573604
 30
0.0
 10
153.344562
 20
38.573604
 30
0.0
 10
153.344562
 20
35.583812
 30
0.0
 10
152.709563
 20
35.583812
 30
0.0
 10
152.709563
 20
44.722521
 30
0.0
 10
155.831646
 20
44.722521
 30
0.0
  0
SPLINE
  5
135
100
AcDbEntity
  8
0
 62
7
100
AcDbSpline
 70
8
 71
3
 72
8
 73
4
 74
0
 40
0
 40
0
 40
0
 40
0
 40
1
 40
1
 40
1
 40
1
 10
155.831646
 20
39.160979
 30
0.0
 10
157.696958
 20
39.160979
 30
0.0
 10
158.691792
 20
40.073792
 30
0.0
 10
158.691792
 20
41.642771
 30
0.0
  0
SPLINE
  5
136
100
AcDbEntity
  8
0
 62
7
100
AcDbSpline
 70
8
 71
3
 72
8
 73
4
 74
0
 40
0
 40
0
 40
0
 40
0
 40
1
 40
1
 40
1
 40
1
 10
158.691792
 20
41.642771
 30
0.0
 10
158.691792
 20
43.222333
 30
0.0
 10
157.696958
 20
44.124562
 30
0.0
 10
155.831646
 20
44.124562
 30
0.0
  0
LWPOLYLINE
  5
137
100
AcDbEntity
  8
0
 62
7
100
AcDbPolyline
 90
4
 70
0
 10
157.297437
 20
38.779979
 30
0.0
 10
159.472312
 20
35.581167
 30
0.0
 10
158.755292
 20
35.581167
 30
0.0
 10
158.755292
 20
35.583812
 30
0.0
  0
LWPOLYLINE
  5
138
100
AcDbEntity
  8
0
 62
7
100
AcDbPolyline
 90
5
 70
0
 10
155.831646
 20
44.124562
 30
0.0
 10
153.344563
 20
44.124562
 30
0.0
 10
153.344563
 20
39.163625
 30
0.0
 10
155.831646
 20
39.163625
 30
0.0
 10
155.831646
 20
39.160979
 30
0.0
  0
LWPOLYLINE
  5
139
100
AcDbEntity
  8
0
 62
7
100
AcDbPolyline
 90
7
 70
1
 10
168.579271
 20
44.722521
 30
0.0
 10
164.700479
 20
35.583812
 30
0.0
 10
164.065479
 20
35.583812
 30
0.0
 10
160.186688
 20
44.722521
 30
0.0
 10
160.882542
 20
44.722521
 30
0.0
 10
164.401500
 20
36.443708
 30
0.0
 10
167.920458
 20
44.722521
 30
0.0
  0
LWPOLYLINE
  5
13a
100
AcDbEntity
  8
0
 62
7
100
AcDbPolyline
 90
12
 70
1
 10
175.953208
 20
36.184417
 30
0.0
 10
175.953208
 20
35.583812
 30
0.0
 10
169.947167
 20
35.583812
 30
0.0
 10
169.947167
 20
44.722521
 30
0.0
 10
175.768000
 20
44.722521
 30
0.0
 10
175.768000
 20
44.121917
 30
0.0
 10
170.582167
 20
44.121917
 30
0.0
 10
170.582167
 20
40.518292
 30
0.0
 10
175.220312
 20
40.518292
 30
0.0
 10
175.220312
 20
39.930917
 30
0.0
 10
170.582167
 20
39.930917
 30
0.0
 10
170.582167
 20
36.184417
 30
0.0
  0
SPLINE
  5
13b
100
AcDbEntity
  8
0
 62
7
100
AcDbSpline
 70
8
 71
3
 72
8
 73
4
 74
0
 40
0
 40
0
 40
0
 40
0
 40
1
 40
1
 40
1
 40
1
 10
94.980125
 20
143.390938
 30
0.0
 10
95.469604
 20
143.832792
 30
0.0
 10
95.982896
 20
144.248187
 30
0.0
 10
96.512062
 20
144.647708
 30
0.0
  0
SPLINE
  5
13c
100
AcDbEntity
  8
0
 62
7
100
AcDbSpline
 70
8
 71
3
 72
8
 73
4
 74
0
 40
0
 40
0
 40
0
 40
0
 40
1
 40
1
 40
1
 40
1
 10
96.512062
 20
144.647708
 30
0.0
 10
95.623062
 20
146.200812
 30
0.0
 10
94.731417
 20
147.756562
 30
0.0
 10
93.842417
 20
149.309667
 30
0.0
  0
SPLINE
  5
13d
100
AcDbEntity
  8
0
 62
7
100
AcDbSpline
 70
8
 71
3
 72
8
 73
4
 74
0
 40
0
 40
0
 40
0
 40
0
 40
1
 40
1
 40
1
 40
1
 10
93.842417
 20
149.309667
 30
0.0
 10
93.490521
 20
149.926146
 30
0.0
 10
93.138625
 20
150.539979
 30
0.0
 10
92.784083
 20
151.156458
 30
0.0
  0
SPLINE
  5
13e
100
AcDbEntity
  8
0
 62
7
100
AcDbSpline
 70
8
 71
3
 72
8
 73
4
 74
0
 40
0
 40
0
 40
0
 40
0
 40
1
 40
1
 40
1
 40
1
 10
92.784083
 20
151.156458
 30
0.0
 10
92.209937
 20
151.339021
 30
0.0
 10
91.641083
 20
151.529521
 30
0.0
 10
91.056354
 20
151.680333
 30
0.0
  0
SPLINE
  5
13f
100
AcDbEntity
  8
0
 62
7
100
AcDbSpline
 70
8
 71
3
 72
8
 73
4
 74
0
 40
0
 40
0
 40
0
 40
0
 40
1
 40
1
 40
1
 40
1
 10
91.056354
 20
151.680333
 30
0.0
 10
89.056104
 20
152.196271
 30
0.0
 10
87.010875
 20
152.431750
 30
0.0
 10
84.947125
 20
152.474083
 30
0.0
  0
SPLINE
  5
140
100
AcDbEntity
  8
0
 62
7
100
AcDbSpline
 70
8
 71
3
 72
8
 73
4
 74
0
 40
0
 40
0
 40
0
 40
0
 40
1
 40
1
 40
1
 40
1
 10
84.947125
 20
152.474083
 30
0.0
 10
76.890563
 20
152.640771
 30
0.0
 10
69.188542
 20
149.812375
 30
0.0
 10
62.317313
 20
145.782771
 30
0.0
  0
SPLINE
  5
141
100
AcDbEntity
  8
0
 62
7
100
AcDbSpline
 70
8
 71
3
 72
8
 73
4
 74
0
 40
0
 40
0
 40
0
 40
0
 40
1
 40
1
 40
1
 40
1
 10
62.317313
 20
145.782771
 30
0.0
 10
59.859333
 20
144.340792
 30
0.0
 10
57.642125
 20
148.158729
 30
0.0
 10
60.089521
 20
149.592771
 30
0.0
  0
SPLINE
  5
142
100
AcDbEntity
  8
0
 62
7
100
AcDbSpline
 70
8
 71
3
 72
8
 73
4
 74
0
 40
0
 40
0
 40
0
 40
0
 40
1
 40
1
 40
1
 40
1
 10
60.089521
 20
149.592771
 30
0.0
 10
67.603688
 20
153.998083
 30
0.0
 10
76.139146
 20
157.072542
 30
0.0
 10
84.947125
 20
156.887333
 30
0.0
  0
SPLINE
  5
143
100
AcDbEntity
  8
0
 62
7
100
AcDbSpline
 70
8
 71
3
 72
8
 73
4
 74
0
 40
0
 40
0
 40
0
 40
0
 40
1
 40
1
 40
1
 40
1
 10
84.947125
 20
156.887333
 30
0.0
 10
86.518750
 20
156.852937
 30
0.0
 10
88.138000
 20
156.731229
 30
0.0
 10
89.736083
 20
156.479875
 30
0.0
  0
SPLINE
  5
144
100
AcDbEntity
  8
0
 62
7
100
AcDbSpline
 70
8
 71
3
 72
8
 73
4
 74
0
 40
0
 40
0
 40
0
 40
0
 40
1
 40
1
 40
1
 40
1
 10
89.736083
 20
156.479875
 30
0.0
 10
88.966146
 20
157.823958
 30
0.0
 10
88.198854
 20
159.165396
 30
0.0
 10
87.428917
 20
160.509479
 30
0.0
  0
SPLINE
  5
145
100
AcDbEntity
  8
0
 62
7
100
AcDbSpline
 70
8
 71
3
 72
8
 73
4
 74
0
 40
0
 40
0
 40
0
 40
0
 40
1
 40
1
 40
1
 40
1
 10
87.428917
 20
160.509479
 30
0.0
 10
87.291333
 20
160.559750
 30
0.0
 10
87.122000
 20
160.612667
 30
0.0
 10
86.759521
 20
160.739667
 30
0.0
  0
SPLINE
  5
146
100
AcDbEntity
  8
0
 62
7
100
AcDbSpline
 70
8
 71
3
 72
8
 73
4
 74
0
 40
0
 40
0
 40
0
 40
0
 40
1
 40
1
 40
1
 40
1
 10
86.759521
 20
160.739667
 30
0.0
 10
85.240813
 20
161.274125
 30
0.0
 10
83.650667
 20
161.641896
 30
0.0
 10
82.049938
 20
161.805937
 30
0.0
  0
SPLINE
  5
147
100
AcDbEntity
  8
0
 62
7
100
AcDbSpline
 70
8
 71
3
 72
8
 73
4
 74
0
 40
0
 40
0
 40
0
 40
0
 40
1
 40
1
 40
1
 40
1
 10
82.049938
 20
161.805937
 30
0.0
 10
76.057125
 20
162.427708
 30
0.0
 10
70.283917
 20
160.620604
 30
0.0
 10
65.140417
 20
157.630812
 30
0.0
  0
SPLINE
  5
148
100
AcDbEntity
  8
0
 62
7
100
AcDbSpline
 70
8
 71
3
 72
8
 73
4
 74
0
 40
0
 40
0
 40
0
 40
0
 40
1
 40
1
 40
1
 40
1
 10
65.140417
 20
157.630812
 30
0.0
 10
62.677146
 20
156.199417
 30
0.0
 10
60.457292
 20
160.014708
 30
0.0
 10
62.912625
 20
161.440812
 30
0.0
  0
SPLINE
  5
149
100
AcDbEntity
  8
0
 62
7
100
AcDbSpline
 70
8
 71
3
 72
8
 73
4
 74
0
 40
0
 40
0
 40
0
 40
0
 40
1
 40
1
 40
1
 40
1
 10
62.912625
 20
161.440812
 30
0.0
 10
68.987458
 20
164.970354
 30
0.0
 10
76.993750
 20
167.341021
 30
0.0
 10
84.240688
 20
166.078958
 30
0.0
  0
SPLINE
  5
14a
100
AcDbEntity
  8
0
 62
7
100
AcDbSpline
 70
8
 71
3
 72
8
 73
4
 74
0
 40
0
 40
0
 40
0
 40
0
 40
1
 40
1
 40
1
 40
1
 10
84.240688
 20
166.078958
 30
0.0
 10
83.751208
 20
166.933562
 30
0.0
 10
83.264375
 20
167.785521
 30
0.0
 10
82.774896
 20
168.640125
 30
0.0
  0
SPLINE
  5
14b
100
AcDbEntity
  8
0
 62
7
100
AcDbSpline
 70
8
 71
3
 72
8
 73
4
 74
0
 40
0
 40
0
 40
0
 40
0
 40
1
 40
1
 40
1
 40
1
 10
82.774896
 20
168.640125
 30
0.0
 10
78.708250
 20
171.161604
 30
0.0
 10
73.519771
 20
170.807062
 30
0.0
 10
69.442542
 20
168.502542
 30
0.0
  0
SPLINE
  5
14c
100
AcDbEntity
  8
0
 62
7
100
AcDbSpline
 70
8
 71
3
 72
8
 73
4
 74
0
 40
0
 40
0
 40
0
 40
0
 40
1
 40
1
 40
1
 40
1
 10
69.442542
 20
168.502542
 30
0.0
 10
66.963396
 20
167.102896
 30
0.0
 10
64.743542
 20
170.915542
 30
0.0
 10
67.214750
 20
172.312542
 30
0.0
  0
SPLINE
  5
14d
100
AcDbEntity
  8
0
 62
7
100
AcDbSpline
 70
8
 71
3
 72
8
 73
4
 74
0
 40
0
 40
0
 40
0
 40
0
 40
1
 40
1
 40
1
 40
1
 10
67.214750
 20
172.312542
 30
0.0
 10
70.834250
 20
174.357771
 30
0.0
 10
75.247500
 20
175.246771
 30
0.0
 10
79.382938
 20
174.564146
 30
0.0
  0
SPLINE
  5
14e
100
AcDbEntity
  8
0
 62
7
100
AcDbSpline
 70
8
 71
3
 72
8
 73
4
 74
0
 40
0
 40
0
 40
0
 40
0
 40
1
 40
1
 40
1
 40
1
 10
79.382938
 20
174.564146
 30
0.0
 10
78.880229
 20
175.442562
 30
0.0
 10
78.374875
 20
176.323625
 30
0.0
 10
77.872167
 20
177.202042
 30
0.0
  0
SPLINE
  5
14f
100
AcDbEntity
  8
0
 62
7
100
AcDbSpline
 70
8
 71
3
 72
8
 73
4
 74
0
 40
0
 40
0
 40
0
 40
0
 40
1
 40
1
 40
1
 40
1
 10
77.872167
 20
177.202042
 30
0.0
 10
76.456646
 20
179.673250
 30
0.0
 10
80.271938
 20
181.893104
 30
0.0
 10
81.682167
 20
179.429833
 30
0.0
  0
SPLINE
  5
150
100
AcDbEntity
  8
0
 62
7
100
AcDbSpline
 70
8
 71
3
 72
8
 73
4
 74
0
 40
0
 40
0
 40
0
 40
0
 40
1
 40
1
 40
1
 40
1
 10
81.682167
 20
179.429833
 30
0.0
 10
82.579104
 20
177.860854
 30
0.0
 10
83.478688
 20
176.294521
 30
0.0
 10
84.375625
 20
174.725542
 30
0.0
  0
SPLINE
  5
151
100
AcDbEntity
  8
0
 62
7
100
AcDbSpline
 70
8
 71
3
 72
8
 73
4
 74
0
 40
0
 40
0
 40
0
 40
0
 40
1
 40
1
 40
1
 40
1
 10
84.375625
 20
174.725542
 30
0.0
 10
84.849229
 20
173.900042
 30
0.0
 10
85.320188
 20
173.074542
 30
0.0
 10
85.793792
 20
172.249042
 30
0.0
  0
SPLINE
  5
152
100
AcDbEntity
  8
0
 62
7
100
AcDbSpline
 70
8
 71
3
 72
8
 73
4
 74
0
 40
0
 40
0
 40
0
 40
0
 40
1
 40
1
 40
1
 40
1
 10
85.793792
 20
172.249042
 30
0.0
 10
87.251646
 20
176.127833
 30
0.0
 10
90.175292
 20
179.488042
 30
0.0
 10
93.686313
 20
181.586187
 30
0.0
  0
SPLINE
  5
153
100
AcDbEntity
  8
0
 62
7
100
AcDbSpline
 70
8
 71
3
 72
8
 73
4
 74
0
 40
0
 40
0
 40
0
 40
0
 40
1
 40
1
 40
1
 40
1
 10
93.686313
 20
181.586187
 30
0.0
 10
96.133708
 20
183.046687
 30
0.0
 10
98.348271
 20
179.231396
 30
0.0
 10
95.914104
 20
177.776187
 30
0.0
  0
SPLINE
  5
154
100
AcDbEntity
  8
0
 62
7
100
AcDbSpline
 70
8
 71
3
 72
8
 73
4
 74
0
 40
0
 40
0
 40
0
 40
0
 40
1
 40
1
 40
1
 40
1
 10
95.914104
 20
177.776187
 30
0.0
 10
91.897729
 20
175.376417
 30
0.0
 10
89.048167
 20
171.005500
 30
0.0
 10
89.236021
 20
166.240354
 30
0.0
  0
SPLINE
  5
155
100
AcDbEntity
  8
0
 62
7
100
AcDbSpline
 70
8
 71
3
 72
8
 73
4
 74
0
 40
0
 40
0
 40
0
 40
0
 40
1
 40
1
 40
1
 40
1
 10
89.236021
 20
166.240354
 30
0.0
 10
89.706979
 20
165.417500
 30
0.0
 10
90.177938
 20
164.594646
 30
0.0
 10
90.648896
 20
163.771792
 30
0.0
  0
SPLINE
  5
156
100
AcDbEntity
  8
0
 62
7
100
AcDbSpline
 70
8
 71
3
 72
8
 73
4
 74
0
 40
0
 40
0
 40
0
 40
0
 40
1
 40
1
 40
1
 40
1
 10
90.648896
 20
163.771792
 30
0.0
 10
90.678000
 20
163.750625
 30
0.0
 10
90.715042
 20
163.729458
 30
0.0
 10
90.741500
 20
163.708292
 30
0.0
  0
SPLINE
  5
157
100
AcDbEntity
  8
0
 62
7
100
AcDbSpline
 70
8
 71
3
 72
8
 73
4
 74
0
 40
0
 40
0
 40
0
 40
0
 40
1
 40
1
 40
1
 40
1
 10
90.741500
 20
163.708292
 30
0.0
 10
93.204771
 20
170.635083
 30
0.0
 10
99.224042
 20
176.458562
 30
0.0
 10
105.267125
 20
179.993396
 30
0.0
  0
SPLINE
  5
158
100
AcDbEntity
  8
0
 62
7
100
AcDbSpline
 70
8
 71
3
 72
8
 73
4
 74
0
 40
0
 40
0
 40
0
 40
0
 40
1
 40
1
 40
1
 40
1
 10
105.267125
 20
179.993396
 30
0.0
 10
107.725104
 20
181.432729
 30
0.0
 10
109.944958
 20
177.614792
 30
0.0
 10
107.494917
 20
176.183396
 30
0.0
  0
SPLINE
  5
159
100
AcDbEntity
  8
0
 62
7
100
AcDbSpline
 70
8
 71
3
 72
8
 73
4
 74
0
 40
0
 40
0
 40
0
 40
0
 40
1
 40
1
 40
1
 40
1
 10
107.494917
 20
176.183396
 30
0.0
 10
102.372583
 20
173.188312
 30
0.0
 10
97.901125
 20
169.010542
 30
0.0
 10
95.530458
 20
163.480750
 30
0.0
  0
SPLINE
  5
15a
100
AcDbEntity
  8
0
 62
7
100
AcDbSpline
 70
8
 71
3
 72
8
 73
4
 74
0
 40
0
 40
0
 40
0
 40
0
 40
1
 40
1
 40
1
 40
1
 10
95.530458
 20
163.480750
 30
0.0
 10
94.884875
 20
161.972625
 30
0.0
 10
94.440375
 20
160.385125
 30
0.0
 10
94.136104
 20
158.773812
 30
0.0
  0
SPLINE
  5
15b
100
AcDbEntity
  8
0
 62
7
100
AcDbSpline
 70
8
 71
3
 72
8
 73
4
 74
0
 40
0
 40
0
 40
0
 40
0
 40
1
 40
1
 40
1
 40
1
 10
94.136104
 20
158.773812
 30
0.0
 10
93.993229
 20
158.025042
 30
0.0
 10
94.056729
 20
158.514521
 30
0.0
 10
94.019688
 20
157.887458
 30
0.0
  0
SPLINE
  5
15c
100
AcDbEntity
  8
0
 62
7
100
AcDbSpline
 70
8
 71
3
 72
8
 73
4
 74
0
 40
0
 40
0
 40
0
 40
0
 40
1
 40
1
 40
1
 40
1
 10
94.019688
 20
157.887458
 30
0.0
 10
94.781688
 20
156.559250
 30
0.0
 10
95.541042
 20
155.228396
 30
0.0
 10
96.303042
 20
153.900187
 30
0.0
  0
SPLINE
  5
15d
100
AcDbEntity
  8
0
 62
7
100
AcDbSpline
 70
8
 71
3
 72
8
 73
4
 74
0
 40
0
 40
0
 40
0
 40
0
 40
1
 40
1
 40
1
 40
1
 10
96.303042
 20
153.900187
 30
0.0
 10
96.893063
 20
155.540604
 30
0.0
 10
97.641833
 20
157.128104
 30
0.0
 10
98.440875
 20
158.615062
 30
0.0
  0
SPLINE
  5
15e
100
AcDbEntity
  8
0
 62
7
100
AcDbSpline
 70
8
 71
3
 72
8
 73
4
 74
0
 40
0
 40
0
 40
0
 40
0
 40
1
 40
1
 40
1
 40
1
 10
98.440875
 20
158.615062
 30
0.0
 10
102.597479
 20
166.354125
 30
0.0
 10
109.466063
 20
172.267562
 30
0.0
 10
116.974938
 20
176.627896
 30
0.0
  0
SPLINE
  5
15f
100
AcDbEntity
  8
0
 62
7
100
AcDbSpline
 70
8
 71
3
 72
8
 73
4
 74
0
 40
0
 40
0
 40
0
 40
0
 40
1
 40
1
 40
1
 40
1
 10
116.974938
 20
176.627896
 30
0.0
 10
119.438208
 20
178.059292
 30
0.0
 10
121.658063
 20
174.244000
 30
0.0
 10
119.202729
 20
172.817896
 30
0.0
  0
SPLINE
  5
160
100
AcDbEntity
  8
0
 62
7
100
AcDbSpline
 70
8
 71
3
 72
8
 73
4
 74
0
 40
0
 40
0
 40
0
 40
0
 40
1
 40
1
 40
1
 40
1
 10
119.202729
 20
172.817896
 30
0.0
 10
112.307688
 20
168.814750
 30
0.0
 10
106.068813
 20
163.488687
 30
0.0
 10
102.250875
 20
156.387271
 30
0.0
  0
SPLINE
  5
161
100
AcDbEntity
  8
0
 62
7
100
AcDbSpline
 70
8
 71
3
 72
8
 73
4
 74
0
 40
0
 40
0
 40
0
 40
0
 40
1
 40
1
 40
1
 40
1
 10
102.250875
 20
156.387271
 30
0.0
 10
101.261333
 20
154.548417
 30
0.0
 10
100.464938
 20
152.622250
 30
0.0
 10
99.930479
 20
150.600833
 30
0.0
  0
SPLINE
  5
162
100
AcDbEntity
  8
0
 62
7
100
AcDbSpline
 70
8
 71
3
 72
8
 73
4
 74
0
 40
0
 40
0
 40
0
 40
0
 40
1
 40
1
 40
1
 40
1
 10
99.930479
 20
150.600833
 30
0.0
 10
99.774375
 20
150.016104
 30
0.0
 10
99.663250
 20
149.426083
 30
0.0
 10
99.541542
 20
148.833417
 30
0.0
  0
SPLINE
  5
163
100
AcDbEntity
  8
0
 62
7
100
AcDbSpline
 70
8
 71
3
 72
8
 73
4
 74
0
 40
0
 40
0
 40
0
 40
0
 40
1
 40
1
 40
1
 40
1
 10
99.541542
 20
148.833417
 30
0.0
 10
99.536250
 20
148.804312
 30
0.0
 10
99.530958
 20
148.783146
 30
0.0
 10
99.525667
 20
148.761979
 30
0.0
  0
SPLINE
  5
164
100
AcDbEntity
  8
0
 62
7
100
AcDbSpline
 70
8
 71
3
 72
8
 73
4
 74
0
 40
0
 40
0
 40
0
 40
0
 40
1
 40
1
 40
1
 40
1
 10
99.525667
 20
148.761979
 30
0.0
 10
99.525667
 20
148.746104
 30
0.0
 10
99.523021
 20
148.727583
 30
0.0
 10
99.520375
 20
148.703771
 30
0.0
  0
SPLINE
  5
165
100
AcDbEntity
  8
0
 62
7
100
AcDbSpline
 70
8
 71
3
 72
8
 73
4
 74
0
 40
0
 40
0
 40
0
 40
0
 40
1
 40
1
 40
1
 40
1
 10
99.520375
 20
148.703771
 30
0.0
 10
99.509792
 20
148.590000
 30
0.0
 10
99.483333
 20
148.486812
 30
0.0
 10
99.462167
 20
148.383625
 30
0.0
  0
SPLINE
  5
166
100
AcDbEntity
  8
0
 62
7
100
AcDbSpline
 70
8
 71
3
 72
8
 73
4
 74
0
 40
0
 40
0
 40
0
 40
0
 40
1
 40
1
 40
1
 40
1
 10
99.462167
 20
148.383625
 30
0.0
 10
99.732042
 20
147.910021
 30
0.0
 10
100.001917
 20
147.439062
 30
0.0
 10
100.274438
 20
146.965458
 30
0.0
  0
SPLINE
  5
167
100
AcDbEntity
  8
0
 62
7
100
AcDbSpline
 70
8
 71
3
 72
8
 73
4
 74
0
 40
0
 40
0
 40
0
 40
0
 40
1
 40
1
 40
1
 40
1
 10
100.274438
 20
146.965458
 30
0.0
 10
101.240167
 20
147.436417
 30
0.0
 10
102.242938
 20
147.849167
 30
0.0
 10
103.277458
 20
148.185187
 30
0.0
  0
LWPOLYLINE
  5
168
100
AcDbEntity
  8
0
 62
7
100
AcDbPolyline
 90
5
 70
0
 10
52.136146
 20
132.042958
 30
0.0
 10
86.497583
 20
132.225521
 30
0.0
 10
82.536771
 20
135.117417
 30
0.0
 10
88.857667
 20
146.081750
 30
0.0
 10
94.980125
 20
143.390938
 30
0.0
  0
SPLINE
  5
169
100
AcDbEntity
  8
0
 62
7
100
AcDbSpline
 70
8
 71
3
 72
8
 73
4
 74
0
 40
0
 40
0
 40
0
 40
0
 40
1
 40
1
 40
1
 40
1
 10
135.180917
 20
180.474937
 30
0.0
 10
136.175750
 20
182.221187
 30
0.0
 10
135.569854
 20
184.443687
 30
0.0
 10
133.823604
 20
185.438521
 30
0.0
  0
LWPOLYLINE
  5
16a
100
AcDbEntity
  8
0
 62
7
100
AcDbPolyline
 90
5
 70
0
 10
103.277458
 20
148.185187
 30
0.0
 10
104.018292
 20
154.826229
 30
0.0
 10
116.660083
 20
154.826229
 30
0.0
 10
117.295083
 20
149.137687
 30
0.0
 10
135.180917
 20
180.474937
 30
0.0
  0
SPLINE
  5
16b
100
AcDbEntity
  8
0
 62
7
100
AcDbSpline
 70
8
 71
3
 72
8
 73
4
 74
0
 40
0
 40
0
 40
0
 40
0
 40
1
 40
1
 40
1
 40
1
 10
109.214708
 20
199.485250
 30
0.0
 10
108.084938
 20
200.130833
 30
0.0
 10
106.698521
 20
200.122896
 30
0.0
 10
105.576688
 20
199.466729
 30
0.0
  0
LWPOLYLINE
  5
16c
100
AcDbEntity
  8
0
 62
7
100
AcDbPolyline
 90
2
 70
0
 10
133.823604
 20
185.438521
 30
0.0
 10
109.214708
 20
199.485250
 30
0.0
  0
SPLINE
  5
16d
100
AcDbEntity
  8
0
 62
7
100
AcDbSpline
 70
8
 71
3
 72
8
 73
4
 74
0
 40
0
 40
0
 40
0
 40
0
 40
1
 40
1
 40
1
 40
1
 10
50.141188
 20
167.089667
 30
0.0
 10
49.019354
 20
166.433500
 30
0.0
 10
48.331437
 20
165.229646
 30
0.0
 10
48.336729
 20
163.930542
 30
0.0
  0
LWPOLYLINE
  5
16e
100
AcDbEntity
  8
0
 62
7
100
AcDbPolyline
 90
2
 70
0
 10
105.576688
 20
199.466729
 30
0.0
 10
50.141188
 20
167.089667
 30
0.0
  0
SPLINE
  5
16f
100
AcDbEntity
  8
0
 62
7
100
AcDbSpline
 70
8
 71
3
 72
8
 73
4
 74
0
 40
0
 40
0
 40
0
 40
0
 40
1
 40
1
 40
1
 40
1
 10
48.476958
 20
135.665104
 30
0.0
 10
48.487542
 20
133.654271
 30
0.0
 10
50.125312
 20
132.032375
 30
0.0
 10
52.136146
 20
132.042958
 30
0.0
  0
LWPOLYLINE
  5
170
100
AcDbEntity
  8
0
 62
7
100
AcDbPolyline
 90
2
 70
0
 10
48.336729
 20
163.930542
 30
0.0
 10
48.476958
 20
135.665104
 30
0.0
  0
LWPOLYLINE
  5
171
100
AcDbEntity
  8
0
 62
7
100
AcDbPolyline
 90
1
 70
1
 10
52.136146
 20
132.042958
 30
0.0
  0
SPLINE
  5
172
100
AcDbEntity
  8
0
 62
7
100
AcDbSpline
 70
8
 71
3
 72
8
 73
4
 74
0
 40
0
 40
0
 40
0
 40
0
 40
1
 40
1
 40
1
 40
1
 10
103.280104
 20
104.576562
 30
0.0
 10
100.171250
 20
105.581979
 30
0.0
 10
97.350792
 20
107.227687
 30
0.0
 10
94.982771
 20
109.365521
 30
0.0
  0
LWPOLYLINE
  5
173
100
AcDbEntity
  8
0
 62
7
100
AcDbPolyline
 90
5
 70
0
 10
122.118437
 20
96.385062
 30
0.0
 10
117.400917
 20
104.552750
 30
0.0
 10
116.662729
 20
97.935521
 30
0.0
 10
104.020938
 20
97.935521
 30
0.0
 10
103.280104
 20
104.576562
 30
0.0
  0
SPLINE
  5
174
100
AcDbEntity
  8
0
 62
7
100
AcDbSpline
 70
8
 71
3
 72
8
 73
4
 74
0
 40
0
 40
0
 40
0
 40
0
 40
1
 40
1
 40
1
 40
1
 10
87.947500
 20
121.589271
 30
0.0
 10
87.926333
 20
121.692458
 30
0.0
 10
87.907813
 20
121.800937
 30
0.0
 10
87.889292
 20
121.904125
 30
0.0
  0
LWPOLYLINE
  5
175
100
AcDbEntity
  8
0
 62
7
100
AcDbPolyline
 90
4
 70
0
 10
94.982771
 20
109.365521
 30
0.0
 10
88.860312
 20
106.674708
 30
0.0
 10
82.539417
 20
117.639042
 30
0.0
 10
87.947500
 20
121.589271
 30
0.0
  0
SPLINE
  5
176
100
AcDbEntity
  8
0
 62
7
100
AcDbSpline
 70
8
 71
3
 72
8
 73
4
 74
0
 40
0
 40
0
 40
0
 40
0
 40
1
 40
1
 40
1
 40
1
 10
51.956229
 20
121.904125
 30
0.0
 10
49.945396
 20
121.904125
 30
0.0
 10
48.318208
 20
120.274292
 30
0.0
 10
48.318208
 20
118.266104
 30
0.0
  0
LWPOLYLINE
  5
177
100
AcDbEntity
  8
0
 62
7
100
AcDbPolyline
 90
2
 70
0
 10
87.889292
 20
121.904125
 30
0.0
 10
51.956229
 20
121.904125
 30
0.0
  0
SPLINE
  5
178
100
AcDbEntity
  8
0
 62
7
100
AcDbSpline
 70
8
 71
3
 72
8
 73
4
 74
0
 40
0
 40
0
 40
0
 40
0
 40
1
 40
1
 40
1
 40
1
 10
48.318208
 20
105.378250
 30
0.0
 10
64.164104
 20
104.005063
 30
0.0
 10
79.591958
 20
98.975333
 30
0.0
 10
92.469229
 20
89.487375
 30
0.0
  0
SPLINE
  5
179
100
AcDbEntity
  8
0
 62
7
100
AcDbSpline
 70
8
 71
3
 72
8
 73
4
 74
0
 40
0
 40
0
 40
0
 40
0
 40
1
 40
1
 40
1
 40
1
 10
92.469229
 20
89.487375
 30
0.0
 10
101.973063
 20
93.030146
 30
0.0
 10
111.969021
 20
95.294979
 30
0.0
 10
122.118437
 20
96.385063
 30
0.0
  0
LWPOLYLINE
  5
17a
100
AcDbEntity
  8
0
 62
7
100
AcDbPolyline
 90
2
 70
0
 10
48.318208
 20
118.266104
 30
0.0
 10
48.318208
 20
105.378250
 30
0.0
  0
SPLINE
  5
17b
100
AcDbEntity
  8
0
 62
7
100
AcDbSpline
 70
8
 71
3
 72
8
 73
4
 74
0
 40
0
 40
0
 40
0
 40
0
 40
1
 40
1
 40
1
 40
1
 10
134.921625
 20
74.226208
 30
0.0
 10
124.518208
 20
74.059521
 30
0.0
 10
114.344979
 20
71.540687
 30
0.0
 10
105.388833
 20
66.090271
 30
0.0
  0
SPLINE
  5
17c
100
AcDbEntity
  8
0
 62
7
100
AcDbSpline
 70
8
 71
3
 72
8
 73
4
 74
0
 40
0
 40
0
 40
0
 40
0
 40
1
 40
1
 40
1
 40
1
 10
105.388833
 20
66.090271
 30
0.0
 10
102.954667
 20
64.608604
 30
0.0
 10
100.737458
 20
68.426542
 30
0.0
 10
103.161042
 20
69.900271
 30
0.0
  0
SPLINE
  5
17d
100
AcDbEntity
  8
0
 62
7
100
AcDbSpline
 70
8
 71
3
 72
8
 73
4
 74
0
 40
0
 40
0
 40
0
 40
0
 40
1
 40
1
 40
1
 40
1
 10
103.161042
 20
69.900271
 30
0.0
 10
112.035167
 20
75.300417
 30
0.0
 10
122.121083
 20
78.046792
 30
0.0
 10
132.416021
 20
78.557437
 30
0.0
  0
LWPOLYLINE
  5
17e
100
AcDbEntity
  8
0
 62
7
100
AcDbPolyline
 90
1
 70
1
 10
122.118437
 20
96.385063
 30
0.0
  0
SPLINE
  5
17f
100
AcDbEntity
  8
0
 62
7
100
AcDbSpline
 70
8
 71
3
 72
8
 73
4
 74
0
 40
0
 40
0
 40
0
 40
0
 40
1
 40
1
 40
1
 40
1
 10
129.534708
 20
83.542187
 30
0.0
 10
117.059604
 20
82.721979
 30
0.0
 10
104.976083
 20
79.017812
 30
0.0
 10
94.580604
 20
71.924333
 30
0.0
  0
SPLINE
  5
180
100
AcDbEntity
  8
0
 62
7
100
AcDbSpline
 70
8
 71
3
 72
8
 73
4
 74
0
 40
0
 40
0
 40
0
 40
0
 40
1
 40
1
 40
1
 40
1
 10
94.580604
 20
71.924333
 30
0.0
 10
92.225813
 20
70.318312
 30
0.0
 10
90.021833
 20
74.144187
 30
0.0
 10
92.352812
 20
75.734333
 30
0.0
  0
SPLINE
  5
181
100
AcDbEntity
  8
0
 62
7
100
AcDbSpline
 70
8
 71
3
 72
8
 73
4
 74
0
 40
0
 40
0
 40
0
 40
0
 40
1
 40
1
 40
1
 40
1
 10
92.352812
 20
75.734333
 30
0.0
 10
102.695375
 20
82.790771
 30
0.0
 10
114.720687
 20
86.621937
 30
0.0
 10
127.095250
 20
87.762292
 30
0.0
  0
LWPOLYLINE
  5
182
100
AcDbEntity
  8
0
 62
7
100
AcDbPolyline
 90
2
 70
0
 10
132.416021
 20
78.557437
 30
0.0
 10
129.534708
 20
83.542187
 30
0.0
  0
SPLINE
  5
183
100
AcDbEntity
  8
0
 62
7
100
AcDbSpline
 70
8
 71
3
 72
8
 73
4
 74
0
 40
0
 40
0
 40
0
 40
0
 40
1
 40
1
 40
1
 40
1
 10
124.526146
 20
92.207292
 30
0.0
 10
105.822750
 20
90.524542
 30
0.0
 10
87.664396
 20
84.645500
 30
0.0
 10
72.125417
 20
74.075396
 30
0.0
  0
LWPOLYLINE
  5
184
100
AcDbEntity
  8
0
 62
7
100
AcDbPolyline
 90
2
 70
0
 10
127.095250
 20
87.762292
 30
0.0
 10
124.526146
 20
92.207292
 30
0.0
  0
SPLINE
  5
185
100
AcDbEntity
  8
0
 62
7
100
AcDbSpline
 70
8
 71
3
 72
8
 73
4
 74
0
 40
0
 40
0
 40
0
 40
0
 40
1
 40
1
 40
1
 40
1
 10
105.724854
 20
54.676146
 30
0.0
 10
106.849333
 20
54.025271
 30
0.0
 10
108.238396
 20
54.025271
 30
0.0
 10
109.362875
 20
54.676146
 30
0.0
  0
LWPOLYLINE
  5
186
100
AcDbEntity
  8
0
 62
7
100
AcDbPolyline
 90
2
 70
0
 10
72.125417
 20
74.075396
 30
0.0
 10
105.724854
 20
54.676146
 30
0.0
  0
SPLINE
  5
187
100
AcDbEntity
  8
0
 62
7
100
AcDbSpline
 70
8
 71
3
 72
8
 73
4
 74
0
 40
0
 40
0
 40
0
 40
0
 40
1
 40
1
 40
1
 40
1
 10
133.842125
 20
68.807542
 30
0.0
 10
135.583083
 20
69.812958
 30
0.0
 10
136.178396
 20
72.038104
 30
0.0
 10
135.172979
 20
73.779062
 30
0.0
  0
LWPOLYLINE
  5
188
100
AcDbEntity
  8
0
 62
7
100
AcDbPolyline
 90
2
 70
0
 10
109.362875
 20
54.676146
 30
0.0
 10
133.842125
 20
68.807542
 30
0.0
  0
LWPOLYLINE
  5
189
100
AcDbEntity
  8
0
 62
7
100
AcDbPolyline
 90
2
 70
0
 10
135.172979
 20
73.779062
 30
0.0
 10
134.921625
 20
74.226208
 30
0.0
  0
SPLINE
  5
18a
100
AcDbEntity
  8
0
 62
7
100
AcDbSpline
 70
8
 71
3
 72
8
 73
4
 74
0
 40
0
 40
0
 40
0
 40
0
 40
1
 40
1
 40
1
 40
1
 10
48.315563
 20
96.901000
 30
0.0
 10
57.700333
 20
95.911458
 30
0.0
 10
66.786125
 20
92.958708
 30
0.0
 10
74.670708
 20
87.630000
 30
0.0
  0
SPLINE
  5
18b
100
AcDbEntity
  8
0
 62
7
100
AcDbSpline
 70
8
 71
3
 72
8
 73
4
 74
0
 40
0
 40
0
 40
0
 40
0
 40
1
 40
1
 40
1
 40
1
 10
74.670708
 20
87.630000
 30
0.0
 10
77.014917
 20
86.047792
 30
0.0
 10
74.803000
 20
82.224563
 30
0.0
 10
72.442917
 20
83.820000
 30
0.0
  0
SPLINE
  5
18c
100
AcDbEntity
  8
0
 62
7
100
AcDbSpline
 70
8
 71
3
 72
8
 73
4
 74
0
 40
0
 40
0
 40
0
 40
0
 40
1
 40
1
 40
1
 40
1
 10
72.442917
 20
83.820000
 30
0.0
 10
65.182750
 20
88.722729
 30
0.0
 10
56.925104
 20
91.503500
 30
0.0
 10
48.312917
 20
92.471875
 30
0.0
  0
LWPOLYLINE
  5
18d
100
AcDbEntity
  8
0
 62
7
100
AcDbPolyline
 90
2
 70
0
 10
48.315563
 20
100.962354
 30
0.0
 10
48.315563
 20
96.901000
 30
0.0
  0
SPLINE
  5
18e
100
AcDbEntity
  8
0
 62
7
100
AcDbSpline
 70
8
 71
3
 72
8
 73
4
 74
0
 40
0
 40
0
 40
0
 40
0
 40
1
 40
1
 40
1
 40
1
 10
48.312917
 20
89.929229
 30
0.0
 10
48.312917
 20
88.630125
 30
0.0
 10
49.006125
 20
87.428917
 30
0.0
 10
50.133250
 20
86.778042
 30
0.0
  0
LWPOLYLINE
  5
18f
100
AcDbEntity
  8
0
 62
7
100
AcDbPolyline
 90
2
 70
0
 10
48.312917
 20
92.471875
 30
0.0
 10
48.312917
 20
89.929229
 30
0.0
  0
SPLINE
  5
190
100
AcDbEntity
  8
0
 62
7
100
AcDbSpline
 70
8
 71
3
 72
8
 73
4
 74
0
 40
0
 40
0
 40
0
 40
0
 40
1
 40
1
 40
1
 40
1
 10
67.923833
 20
76.506917
 30
0.0
 10
74.085979
 20
80.925458
 30
0.0
 10
80.684688
 20
84.587292
 30
0.0
 10
87.585021
 20
87.540042
 30
0.0
  0
SPLINE
  5
191
100
AcDbEntity
  8
0
 62
7
100
AcDbSpline
 70
8
 71
3
 72
8
 73
4
 74
0
 40
0
 40
0
 40
0
 40
0
 40
1
 40
1
 40
1
 40
1
 10
87.585021
 20
87.540042
 30
0.0
 10
75.906312
 20
95.382292
 30
0.0
 10
62.335833
 20
99.734688
 30
0.0
 10
48.315563
 20
100.962354
 30
0.0
  0
LWPOLYLINE
  5
192
100
AcDbEntity
  8
0
 62
7
100
AcDbPolyline
 90
2
 70
0
 10
50.133250
 20
86.778042
 30
0.0
 10
67.923833
 20
76.506917
 30
0.0
  0
LWPOLYLINE
  5
193
100
AcDbEntity
  8
0
 62
7
100
AcDbPolyline
 90
1
 70
1
 10
48.315563
 20
100.962354
 30
0.0
  0
LWPOLYLINE
  5
194
100
AcDbEntity
  8
0
 62
7
100
AcDbPolyline
 90
4
 70
1
 10
103.399164
 20
140.374685
 30
0.0
 10
104.814685
 20
140.374685
 30
0.0
 10
104.814685
 20
136.839852
 30
0.0
 10
103.399164
 20
136.839852
 30
0.0
  0
LWPOLYLINE
  5
195
100
AcDbEntity
  8
0
 62
7
100
AcDbPolyline
 90
4
 70
1
 10
107.555773
 20
140.374685
 30
0.0
 10
108.971294
 20
140.374685
 30
0.0
 10
108.971294
 20
136.839852
 30
0.0
 10
107.555773
 20
136.839852
 30
0.0
  0
LWPOLYLINE
  5
196
100
AcDbEntity
  8
0
 62
7
100
AcDbPolyline
 90
4
 70
1
 10
111.712375
 20
140.374685
 30
0.0
 10
113.127896
 20
140.374685
 30
0.0
 10
113.127896
 20
136.839852
 30
0.0
 10
111.712375
 20
136.839852
 30
0.0
  0
LWPOLYLINE
  5
197
100
AcDbEntity
  8
0
 62
7
100
AcDbPolyline
 90
4
 70
1
 10
115.868977
 20
140.374685
 30
0.0
 10
117.284497
 20
140.374685
 30
0.0
 10
117.284497
 20
136.839852
 30
0.0
 10
115.868977
 20
136.839852
 30
0.0
  0
LWPOLYLINE
  5
198
100
AcDbEntity
  8
0
 62
7
100
AcDbPolyline
 90
4
 70
1
 10
103.399164
 20
115.919250
 30
0.0
 10
104.814685
 20
115.919250
 30
0.0
 10
104.814685
 20
112.384417
 30
0.0
 10
103.399164
 20
112.384417
 30
0.0
  0
LWPOLYLINE
  5
199
100
AcDbEntity
  8
0
 62
7
100
AcDbPolyline
 90
4
 70
1
 10
107.555773
 20
115.919250
 30
0.0
 10
108.971294
 20
115.919250
 30
0.0
 10
108.971294
 20
112.384417
 30
0.0
 10
107.555773
 20
112.384417
 30
0.0
  0
LWPOLYLINE
  5
19a
100
AcDbEntity
  8
0
 62
7
100
AcDbPolyline
 90
4
 70
1
 10
111.712375
 20
115.919250
 30
0.0
 10
113.127896
 20
115.919250
 30
0.0
 10
113.127896
 20
112.384417
 30
0.0
 10
111.712375
 20
112.384417
 30
0.0
  0
LWPOLYLINE
  5
19b
100
AcDbEntity
  8
0
 62
7
100
AcDbPolyline
 90
4
 70
1
 10
115.868977
 20
115.919250
 30
0.0
 10
117.284497
 20
115.919250
 30
0.0
 10
117.284497
 20
112.384417
 30
0.0
 10
115.868977
 20
112.384417
 30
0.0
  0
LWPOLYLINE
  5
19c
100
AcDbEntity
  8
0
 62
7
100
AcDbPolyline
 90
4
 70
1
 10
96.348018
 20
120.851086
 30
0.0
 10
99.882852
 20
120.851086
 30
0.0
 10
99.882852
 20
119.435565
 30
0.0
 10
96.348018
 20
119.435565
 30
0.0
  0
LWPOLYLINE
  5
19d
100
AcDbEntity
  8
0
 62
7
100
AcDbPolyline
 90
4
 70
1
 10
96.348018
 20
125.007688
 30
0.0
 10
99.882852
 20
125.007688
 30
0.0
 10
99.882852
 20
123.592167
 30
0.0
 10
96.348018
 20
123.592167
 30
0.0
  0
LWPOLYLINE
  5
19e
100
AcDbEntity
  8
0
 62
7
100
AcDbPolyline
 90
4
 70
1
 10
96.348018
 20
129.164289
 30
0.0
 10
99.882852
 20
129.164289
 30
0.0
 10
99.882852
 20
127.748768
 30
0.0
 10
96.348018
 20
127.748768
 30
0.0
  0
LWPOLYLINE
  5
19f
100
AcDbEntity
  8
0
 62
7
100
AcDbPolyline
 90
4
 70
1
 10
96.348018
 20
133.320898
 30
0.0
 10
99.882852
 20
133.320898
 30
0.0
 10
99.882852
 20
131.905378
 30
0.0
 10
96.348018
 20
131.905378
 30
0.0
  0
LWPOLYLINE
  5
1a0
100
AcDbEntity
  8
0
 62
7
100
AcDbPolyline
 90
4
 70
1
 10
120.800815
 20
120.851086
 30
0.0
 10
124.335648
 20
120.851086
 30
0.0
 10
124.335648
 20
119.435565
 30
0.0
 10
120.800815
 20
119.435565
 30
0.0
  0
LWPOLYLINE
  5
1a1
100
AcDbEntity
  8
0
 62
7
100
AcDbPolyline
 90
4
 70
1
 10
120.800815
 20
125.007688
 30
0.0
 10
124.335648
 20
125.007688
 30
0.0
 10
124.335648
 20
123.592167
 30
0.0
 10
120.800815
 20
123.592167
 30
0.0
  0
SPLINE
  5
1a2
100
AcDbEntity
  8
0
 62
7
100
AcDbSpline
 70
8
 71
3
 72
8
 73
4
 74
0
 40
0
 40
0
 40
0
 40
0
 40
1
 40
1
 40
1
 40
1
 10
151.487187
 20
156.485167
 30
0.0
 10
151.487187
 20
157.387396
 30
0.0
 10
150.754292
 20
158.120292
 30
0.0
 10
149.852063
 20
158.120292
 30
0.0
  0
SPLINE
  5
1a3
100
AcDbEntity
  8
0
 62
7
100
AcDbSpline
 70
8
 71
3
 72
8
 73
4
 74
0
 40
0
 40
0
 40
0
 40
0
 40
1
 40
1
 40
1
 40
1
 10
149.852063
 20
158.120292
 30
0.0
 10
148.949833
 20
158.120292
 30
0.0
 10
148.216938
 20
157.387396
 30
0.0
 10
148.216938
 20
156.485167
 30
0.0
  0
SPLINE
  5
1a4
100
AcDbEntity
  8
0
 62
7
100
AcDbSpline
 70
8
 71
3
 72
8
 73
4
 74
0
 40
0
 40
0
 40
0
 40
0
 40
1
 40
1
 40
1
 40
1
 10
148.216938
 20
156.485167
 30
0.0
 10
148.216938
 20
155.582937
 30
0.0
 10
148.949833
 20
154.850042
 30
0.0
 10
149.852063
 20
154.850042
 30
0.0
  0
SPLINE
  5
1a5
100
AcDbEntity
  8
0
 62
7
100
AcDbSpline
 70
8
 71
3
 72
8
 73
4
 74
0
 40
0
 40
0
 40
0
 40
0
 40
1
 40
1
 40
1
 40
1
 10
149.852063
 20
154.850042
 30
0.0
 10
150.754292
 20
154.852688
 30
0.0
 10
151.487187
 20
155.585583
 30
0.0
 10
151.487187
 20
156.485167
 30
0.0
  0
LWPOLYLINE
  5
1a6
100
AcDbEntity
  8
0
 62
7
100
AcDbPolyline
 90
4
 70
1
 10
120.800815
 20
133.320898
 30
0.0
 10
124.335648
 20
133.320898
 30
0.0
 10
124.335648
 20
131.905378
 30
0.0
 10
120.800815
 20
131.905378
 30
0.0
  0
SPLINE
  5
1a7
100
AcDbEntity
  8
0
 62
7
100
AcDbSpline
 70
8
 71
3
 72
8
 73
4
 74
0
 40
0
 40
0
 40
0
 40
0
 40
1
 40
1
 40
1
 40
1
 10
159.332083
 20
136.382125
 30
0.0
 10
159.332083
 20
137.284354
 30
0.0
 10
158.599188
 20
138.017250
 30
0.0
 10
157.696958
 20
138.017250
 30
0.0
  0
SPLINE
  5
1a8
100
AcDbEntity
  8
0
 62
7
100
AcDbSpline
 70
8
 71
3
 72
8
 73
4
 74
0
 40
0
 40
0
 40
0
 40
0
 40
1
 40
1
 40
1
 40
1
 10
157.696958
 20
138.017250
 30
0.0
 10
156.794729
 20
138.017250
 30
0.0
 10
156.061833
 20
137.284354
 30
0.0
 10
156.061833
 20
136.382125
 30
0.0
  0
SPLINE
  5
1a9
100
AcDbEntity
  8
0
 62
7
100
AcDbSpline
 70
8
 71
3
 72
8
 73
4
 74
0
 40
0
 40
0
 40
0
 40
0
 40
1
 40
1
 40
1
 40
1
 10
156.061833
 20
136.382125
 30
0.0
 10
156.061833
 20
135.479896
 30
0.0
 10
156.794729
 20
134.747000
 30
0.0
 10
157.696958
 20
134.747000
 30
0.0
  0
SPLINE
  5
1aa
100
AcDbEntity
  8
0
 62
7
100
AcDbSpline
 70
8
 71
3
 72
8
 73
4
 74
0
 40
0
 40
0
 40
0
 40
0
 40
1
 40
1
 40
1
 40
1
 10
157.696958
 20
134.747000
 30
0.0
 10
158.599188
 20
134.749646
 30
0.0
 10
159.332083
 20
135.482542
 30
0.0
 10
159.332083
 20
136.382125
 30
0.0
  0
LWPOLYLINE
  5
1ab
100
AcDbEntity
  8
0
 62
7
100
AcDbPolyline
 90
1
 70
1
 10
151.487187
 20
156.485167
 30
0.0
  0
SPLINE
  5
1ac
100
AcDbEntity
  8
0
 62
7
100
AcDbSpline
 70
8
 71
3
 72
8
 73
4
 74
0
 40
0
 40
0
 40
0
 40
0
 40
1
 40
1
 40
1
 40
1
 10
149.870583
 20
106.735562
 30
0.0
 10
148.968354
 20
106.735562
 30
0.0
 10
148.235458
 20
106.002667
 30
0.0
 10
148.235458
 20
105.100437
 30
0.0
  0
SPLINE
  5
1ad
100
AcDbEntity
  8
0
 62
7
100
AcDbSpline
 70
8
 71
3
 72
8
 73
4
 74
0
 40
0
 40
0
 40
0
 40
0
 40
1
 40
1
 40
1
 40
1
 10
148.235458
 20
105.100437
 30
0.0
 10
148.235458
 20
104.198208
 30
0.0
 10
148.968354
 20
103.465312
 30
0.0
 10
149.870583
 20
103.465312
 30
0.0
  0
SPLINE
  5
1ae
100
AcDbEntity
  8
0
 62
7
100
AcDbSpline
 70
8
 71
3
 72
8
 73
4
 74
0
 40
0
 40
0
 40
0
 40
0
 40
1
 40
1
 40
1
 40
1
 10
149.870583
 20
103.465312
 30
0.0
 10
150.772813
 20
103.465312
 30
0.0
 10
151.505708
 20
104.198208
 30
0.0
 10
151.505708
 20
105.100437
 30
0.0
  0
SPLINE
  5
1af
100
AcDbEntity
  8
0
 62
7
100
AcDbSpline
 70
8
 71
3
 72
8
 73
4
 74
0
 40
0
 40
0
 40
0
 40
0
 40
1
 40
1
 40
1
 40
1
 10
151.505708
 20
105.100437
 30
0.0
 10
151.503062
 20
106.002667
 30
0.0
 10
150.770167
 20
106.735562
 30
0.0
 10
149.870583
 20
106.735562
 30
0.0
  0
LWPOLYLINE
  5
1b0
100
AcDbEntity
  8
0
 62
7
100
AcDbPolyline
 90
1
 70
1
 10
159.332083
 20
136.382125
 30
0.0
  0
SPLINE
  5
1b1
100
AcDbEntity
  8
0
 62
7
100
AcDbSpline
 70
8
 71
3
 72
8
 73
4
 74
0
 40
0
 40
0
 40
0
 40
0
 40
1
 40
1
 40
1
 40
1
 10
143.782521
 20
78.941083
 30
0.0
 10
144.727083
 20
77.305958
 30
0.0
 10
146.827875
 20
76.742396
 30
0.0
 10
148.465646
 20
77.686958
 30
0.0
  0
LWPOLYLINE
  5
1b2
100
AcDbEntity
  8
0
 62
7
100
AcDbPolyline
 90
1
 70
1
 10
149.870583
 20
106.735562
 30
0.0
  0
LWPOLYLINE
  5
1b3
100
AcDbEntity
  8
0
 62
7
100
AcDbPolyline
 90
4
 70
0
 10
148.465646
 20
77.686958
 30
0.0
 10
152.960917
 20
80.282521
 30
0.0
 10
143.007292
 20
80.282521
 30
0.0
 10
143.782521
 20
78.941083
 30
0.0
  0
SPLINE
  5
1b4
100
AcDbEntity
  8
0
 62
7
100
AcDbSpline
 70
8
 71
3
 72
8
 73
4
 74
0
 40
0
 40
0
 40
0
 40
0
 40
1
 40
1
 40
1
 40
1
 10
160.721146
 20
147.208875
 30
0.0
 10
160.387771
 20
145.848917
 30
0.0
 10
159.162750
 20
144.835562
 30
0.0
 10
157.699604
 20
144.835562
 30
0.0
  0
SPLINE
  5
1b5
100
AcDbEntity
  8
0
 62
7
100
AcDbSpline
 70
8
 71
3
 72
8
 73
4
 74
0
 40
0
 40
0
 40
0
 40
0
 40
1
 40
1
 40
1
 40
1
 10
157.699604
 20
144.835562
 30
0.0
 10
155.982458
 20
144.835562
 30
0.0
 10
154.585458
 20
146.232562
 30
0.0
 10
154.585458
 20
147.949708
 30
0.0
  0
SPLINE
  5
1b6
100
AcDbEntity
  8
0
 62
7
100
AcDbSpline
 70
8
 71
3
 72
8
 73
4
 74
0
 40
0
 40
0
 40
0
 40
0
 40
1
 40
1
 40
1
 40
1
 10
154.585458
 20
147.949708
 30
0.0
 10
154.585458
 20
149.666854
 30
0.0
 10
155.982458
 20
151.063854
 30
0.0
 10
157.699604
 20
151.063854
 30
0.0
  0
SPLINE
  5
1b7
100
AcDbEntity
  8
0
 62
7
100
AcDbSpline
 70
8
 71
3
 72
8
 73
4
 74
0
 40
0
 40
0
 40
0
 40
0
 40
1
 40
1
 40
1
 40
1
 10
157.699604
 20
151.063854
 30
0.0
 10
159.160104
 20
151.063854
 30
0.0
 10
160.387771
 20
150.050500
 30
0.0
 10
160.721146
 20
148.690542
 30
0.0
  0
LWPOLYLINE
  5
1b8
100
AcDbEntity
  8
0
 62
7
100
AcDbPolyline
 90
6
 70
0
 10
173.280917
 20
162.149896
 30
0.0
 10
157.845125
 20
171.061062
 30
0.0
 10
157.845125
 20
160.115250
 30
0.0
 10
168.034229
 20
160.115250
 30
0.0
 10
168.034229
 20
147.208875
 30
0.0
 10
160.721146
 20
147.208875
 30
0.0
  0
SPLINE
  5
1b9
100
AcDbEntity
  8
0
 62
7
100
AcDbSpline
 70
8
 71
3
 72
8
 73
4
 74
0
 40
0
 40
0
 40
0
 40
0
 40
1
 40
1
 40
1
 40
1
 10
148.576771
 20
176.416229
 30
0.0
 10
148.037021
 20
176.728437
 30
0.0
 10
147.449646
 20
176.873958
 30
0.0
 10
146.867562
 20
176.873958
 30
0.0
  0
SPLINE
  5
1ba
100
AcDbEntity
  8
0
 62
7
100
AcDbSpline
 70
8
 71
3
 72
8
 73
4
 74
0
 40
0
 40
0
 40
0
 40
0
 40
1
 40
1
 40
1
 40
1
 10
146.867562
 20
176.873958
 30
0.0
 10
145.682229
 20
176.873958
 30
0.0
 10
144.528646
 20
176.260125
 30
0.0
 10
143.893646
 20
175.162104
 30
0.0
  0
LWPOLYLINE
  5
1bb
100
AcDbEntity
  8
0
 62
7
100
AcDbPolyline
 90
6
 70
0
 10
160.721146
 20
148.690542
 30
0.0
 10
166.557854
 20
148.690542
 30
0.0
 10
166.557854
 20
158.638875
 30
0.0
 10
156.368750
 20
158.638875
 30
0.0
 10
156.368750
 20
171.915667
 30
0.0
 10
148.576771
 20
176.416229
 30
0.0
  0
SPLINE
  5
1bc
100
AcDbEntity
  8
0
 62
7
100
AcDbSpline
 70
8
 71
3
 72
8
 73
4
 74
0
 40
0
 40
0
 40
0
 40
0
 40
1
 40
1
 40
1
 40
1
 10
142.787688
 20
108.124625
 30
0.0
 10
144.147646
 20
107.791250
 30
0.0
 10
145.161000
 20
106.566229
 30
0.0
 10
145.161000
 20
105.103083
 30
0.0
  0
SPLINE
  5
1bd
100
AcDbEntity
  8
0
 62
7
100
AcDbSpline
 70
8
 71
3
 72
8
 73
4
 74
0
 40
0
 40
0
 40
0
 40
0
 40
1
 40
1
 40
1
 40
1
 10
145.161000
 20
105.103083
 30
0.0
 10
145.161000
 20
103.385937
 30
0.0
 10
143.764000
 20
101.988937
 30
0.0
 10
142.046854
 20
101.988937
 30
0.0
  0
SPLINE
  5
1be
100
AcDbEntity
  8
0
 62
7
100
AcDbSpline
 70
8
 71
3
 72
8
 73
4
 74
0
 40
0
 40
0
 40
0
 40
0
 40
1
 40
1
 40
1
 40
1
 10
142.046854
 20
101.988937
 30
0.0
 10
140.329708
 20
101.988937
 30
0.0
 10
138.932708
 20
103.385937
 30
0.0
 10
138.932708
 20
105.103083
 30
0.0
  0
SPLINE
  5
1bf
100
AcDbEntity
  8
0
 62
7
100
AcDbSpline
 70
8
 71
3
 72
8
 73
4
 74
0
 40
0
 40
0
 40
0
 40
0
 40
1
 40
1
 40
1
 40
1
 10
138.932708
 20
105.103083
 30
0.0
 10
138.932708
 20
106.563583
 30
0.0
 10
139.946063
 20
107.791250
 30
0.0
 10
141.306021
 20
108.124625
 30
0.0
  0
LWPOLYLINE
  5
1c0
100
AcDbEntity
  8
0
 62
7
100
AcDbPolyline
 90
4
 70
0
 10
143.893646
 20
175.162104
 30
0.0
 10
135.202083
 20
160.117896
 30
0.0
 10
142.787688
 20
160.117896
 30
0.0
 10
142.787688
 20
108.124625
 30
0.0
  0
SPLINE
  5
1c1
100
AcDbEntity
  8
0
 62
7
100
AcDbSpline
 70
8
 71
3
 72
8
 73
4
 74
0
 40
0
 40
0
 40
0
 40
0
 40
1
 40
1
 40
1
 40
1
 10
125.589771
 20
143.488833
 30
0.0
 10
125.626813
 20
143.457083
 30
0.0
 10
125.666500
 20
143.425333
 30
0.0
 10
125.703542
 20
143.393583
 30
0.0
  0
LWPOLYLINE
  5
1c2
100
AcDbEntity
  8
0
 62
7
100
AcDbPolyline
 90
4
 70
0
 10
141.306021
 20
108.124625
 30
0.0
 10
141.306021
 20
158.638875
 30
0.0
 10
134.344833
 20
158.638875
 30
0.0
 10
125.589771
 20
143.488833
 30
0.0
  0
SPLINE
  5
1c3
100
AcDbEntity
  8
0
 62
7
100
AcDbSpline
 70
8
 71
3
 72
8
 73
4
 74
0
 40
0
 40
0
 40
0
 40
0
 40
1
 40
1
 40
1
 40
1
 10
132.738813
 20
131.169833
 30
0.0
 10
133.066896
 20
129.624667
 30
0.0
 10
133.257396
 20
128.023937
 30
0.0
 10
133.257396
 20
126.380875
 30
0.0
  0
SPLINE
  5
1c4
100
AcDbEntity
  8
0
 62
7
100
AcDbSpline
 70
8
 71
3
 72
8
 73
4
 74
0
 40
0
 40
0
 40
0
 40
0
 40
1
 40
1
 40
1
 40
1
 10
133.257396
 20
126.380875
 30
0.0
 10
133.257396
 20
124.737812
 30
0.0
 10
133.066896
 20
123.137083
 30
0.0
 10
132.738813
 20
121.591917
 30
0.0
  0
LWPOLYLINE
  5
1c5
100
AcDbEntity
  8
0
 62
7
100
AcDbPolyline
 90
4
 70
0
 10
125.703542
 20
143.393583
 30
0.0
 10
131.826000
 20
146.084396
 30
0.0
 10
138.146896
 20
135.120062
 30
0.0
 10
132.738813
 20
131.169833
 30
0.0
  0
SPLINE
  5
1c6
100
AcDbEntity
  8
0
 62
7
100
AcDbSpline
 70
8
 71
3
 72
8
 73
4
 74
0
 40
0
 40
0
 40
0
 40
0
 40
1
 40
1
 40
1
 40
1
 10
166.557854
 20
133.363229
 30
0.0
 10
165.197896
 20
133.696604
 30
0.0
 10
164.184542
 20
134.921625
 30
0.0
 10
164.184542
 20
136.384771
 30
0.0
  0
SPLINE
  5
1c7
100
AcDbEntity
  8
0
 62
7
100
AcDbSpline
 70
8
 71
3
 72
8
 73
4
 74
0
 40
0
 40
0
 40
0
 40
0
 40
1
 40
1
 40
1
 40
1
 10
164.184542
 20
136.384771
 30
0.0
 10
164.184542
 20
138.101917
 30
0.0
 10
165.581542
 20
139.498917
 30
0.0
 10
167.298687
 20
139.498917
 30
0.0
  0
SPLINE
  5
1c8
100
AcDbEntity
  8
0
 62
7
100
AcDbSpline
 70
8
 71
3
 72
8
 73
4
 74
0
 40
0
 40
0
 40
0
 40
0
 40
1
 40
1
 40
1
 40
1
 10
167.298687
 20
139.498917
 30
0.0
 10
169.015833
 20
139.498917
 30
0.0
 10
170.412833
 20
138.101917
 30
0.0
 10
170.412833
 20
136.384771
 30
0.0
  0
SPLINE
  5
1c9
100
AcDbEntity
  8
0
 62
7
100
AcDbSpline
 70
8
 71
3
 72
8
 73
4
 74
0
 40
0
 40
0
 40
0
 40
0
 40
1
 40
1
 40
1
 40
1
 10
170.412833
 20
136.384771
 30
0.0
 10
170.412833
 20
134.924271
 30
0.0
 10
169.399479
 20
133.696604
 30
0.0
 10
168.039521
 20
133.363229
 30
0.0
  0
LWPOLYLINE
  5
1ca
100
AcDbEntity
  8
0
 62
7
100
AcDbPolyline
 90
8
 70
0
 10
132.738813
 20
121.591917
 30
0.0
 10
138.146896
 20
117.641687
 30
0.0
 10
135.255000
 20
112.625187
 30
0.0
 10
131.826000
 20
106.677354
 30
0.0
 10
126.375583
 20
109.071833
 30
0.0
 10
133.429375
 20
96.863958
 30
0.0
 10
166.557854
 20
96.863958
 30
0.0
 10
166.557854
 20
133.363229
 30
0.0
  0
SPLINE
  5
1cb
100
AcDbEntity
  8
0
 62
7
100
AcDbSpline
 70
8
 71
3
 72
8
 73
4
 74
0
 40
0
 40
0
 40
0
 40
0
 40
1
 40
1
 40
1
 40
1
 10
173.280917
 20
92.016792
 30
0.0
 10
174.339250
 20
92.627979
 30
0.0
 10
174.995417
 20
93.765687
 30
0.0
 10
174.995417
 20
94.985417
 30
0.0
  0
LWPOLYLINE
  5
1cc
100
AcDbEntity
  8
0
 62
7
100
AcDbPolyline
 90
7
 70
0
 10
168.039521
 20
133.363229
 30
0.0
 10
168.039521
 20
95.384937
 30
0.0
 10
134.281333
 20
95.384937
 30
0.0
 10
137.686521
 20
89.492667
 30
0.0
 10
164.898917
 20
89.492667
 30
0.0
 10
164.898917
 20
87.177562
 30
0.0
 10
173.280917
 20
92.016792
 30
0.0
  0
SPLINE
  5
1cd
100
AcDbEntity
  8
0
 62
7
100
AcDbSpline
 70
8
 71
3
 72
8
 73
4
 74
0
 40
0
 40
0
 40
0
 40
0
 40
1
 40
1
 40
1
 40
1
 10
174.995417
 20
159.181271
 30
0.0
 10
174.992771
 20
160.401000
 30
0.0
 10
174.336604
 20
161.538708
 30
0.0
 10
173.280917
 20
162.149896
 30
0.0
  0
LWPOLYLINE
  5
1ce
100
AcDbEntity
  8
0
 62
7
100
AcDbPolyline
 90
2
 70
0
 10
174.995417
 20
94.985417
 30
0.0
 10
174.995417
 20
159.181271
 30
0.0
  0
SPLINE
  5
1cf
100
AcDbEntity
  8
0
 62
7
100
AcDbSpline
 70
8
 71
3
 72
8
 73
4
 74
0
 40
0
 40
0
 40
0
 40
0
 40
1
 40
1
 40
1
 40
1
 10
149.870583
 20
101.988937
 30
0.0
 10
148.153437
 20
101.988937
 30
0.0
 10
146.756438
 20
103.385937
 30
0.0
 10
146.756438
 20
105.103083
 30
0.0
  0
SPLINE
  5
1d0
100
AcDbEntity
  8
0
 62
7
100
AcDbSpline
 70
8
 71
3
 72
8
 73
4
 74
0
 40
0
 40
0
 40
0
 40
0
 40
1
 40
1
 40
1
 40
1
 10
146.756438
 20
105.103083
 30
0.0
 10
146.756438
 20
106.558292
 30
0.0
 10
147.761854
 20
107.780667
 30
0.0
 10
149.113875
 20
108.119333
 30
0.0
  0
LWPOLYLINE
  5
1d1
100
AcDbEntity
  8
0
 62
7
100
AcDbPolyline
 90
1
 70
1
 10
173.280917
 20
162.149896
 30
0.0
  0
SPLINE
  5
1d2
100
AcDbEntity
  8
0
 62
7
100
AcDbSpline
 70
8
 71
3
 72
8
 73
4
 74
0
 40
0
 40
0
 40
0
 40
0
 40
1
 40
1
 40
1
 40
1
 10
149.113875
 20
153.466271
 30
0.0
 10
147.753917
 20
153.799646
 30
0.0
 10
146.740562
 20
155.024667
 30
0.0
 10
146.740562
 20
156.487812
 30
0.0
  0
SPLINE
  5
1d3
100
AcDbEntity
  8
0
 62
7
100
AcDbSpline
 70
8
 71
3
 72
8
 73
4
 74
0
 40
0
 40
0
 40
0
 40
0
 40
1
 40
1
 40
1
 40
1
 10
146.740562
 20
156.487812
 30
0.0
 10
146.740562
 20
158.204958
 30
0.0
 10
148.137562
 20
159.601958
 30
0.0
 10
149.854708
 20
159.601958
 30
0.0
  0
SPLINE
  5
1d4
100
AcDbEntity
  8
0
 62
7
100
AcDbSpline
 70
8
 71
3
 72
8
 73
4
 74
0
 40
0
 40
0
 40
0
 40
0
 40
1
 40
1
 40
1
 40
1
 10
149.854708
 20
159.601958
 30
0.0
 10
151.571854
 20
159.601958
 30
0.0
 10
152.968854
 20
158.204958
 30
0.0
 10
152.968854
 20
156.487812
 30
0.0
  0
SPLINE
  5
1d5
100
AcDbEntity
  8
0
 62
7
100
AcDbSpline
 70
8
 71
3
 72
8
 73
4
 74
0
 40
0
 40
0
 40
0
 40
0
 40
1
 40
1
 40
1
 40
1
 10
152.968854
 20
156.487812
 30
0.0
 10
152.968854
 20
155.027312
 30
0.0
 10
151.955500
 20
153.799646
 30
0.0
 10
150.595542
 20
153.466271
 30
0.0
  0
LWPOLYLINE
  5
1d6
100
AcDbEntity
  8
0
 62
7
100
AcDbPolyline
 90
2
 70
0
 10
149.113875
 20
108.119333
 30
0.0
 10
149.113875
 20
153.466271
 30
0.0
  0
SPLINE
  5
1d7
100
AcDbEntity
  8
0
 62
7
100
AcDbSpline
 70
8
 71
3
 72
8
 73
4
 74
0
 40
0
 40
0
 40
0
 40
0
 40
1
 40
1
 40
1
 40
1
 10
150.595542
 20
108.127271
 30
0.0
 10
151.963437
 20
107.799187
 30
0.0
 10
152.984729
 20
106.568875
 30
0.0
 10
152.984729
 20
105.103083
 30
0.0
  0
SPLINE
  5
1d8
100
AcDbEntity
  8
0
 62
7
100
AcDbSpline
 70
8
 71
3
 72
8
 73
4
 74
0
 40
0
 40
0
 40
0
 40
0
 40
1
 40
1
 40
1
 40
1
 10
152.984729
 20
105.103083
 30
0.0
 10
152.982083
 20
103.385937
 30
0.0
 10
151.585083
 20
101.988937
 30
0.0
 10
149.870583
 20
101.988937
 30
0.0
  0
LWPOLYLINE
  5
1d9
100
AcDbEntity
  8
0
 62
7
100
AcDbPolyline
 90
2
 70
0
 10
150.595542
 20
153.466271
 30
0.0
 10
150.595542
 20
108.127271
 30
0.0
  0
SPLINE
  5
1da
100
AcDbEntity
  8
0
 62
7
100
AcDbSpline
 70
8
 71
3
 72
8
 73
4
 74
0
 40
0
 40
0
 40
0
 40
0
 40
1
 40
1
 40
1
 40
1
 10
160.811104
 20
105.103083
 30
0.0
 10
160.811104
 20
103.385937
 30
0.0
 10
159.414104
 20
101.988937
 30
0.0
 10
157.696958
 20
101.988937
 30
0.0
  0
SPLINE
  5
1db
100
AcDbEntity
  8
0
 62
7
100
AcDbSpline
 70
8
 71
3
 72
8
 73
4
 74
0
 40
0
 40
0
 40
0
 40
0
 40
1
 40
1
 40
1
 40
1
 10
157.696958
 20
101.988937
 30
0.0
 10
155.979813
 20
101.988937
 30
0.0
 10
154.582812
 20
103.385937
 30
0.0
 10
154.582812
 20
105.103083
 30
0.0
  0
SPLINE
  5
1dc
100
AcDbEntity
  8
0
 62
7
100
AcDbSpline
 70
8
 71
3
 72
8
 73
4
 74
0
 40
0
 40
0
 40
0
 40
0
 40
1
 40
1
 40
1
 40
1
 10
154.582812
 20
105.103083
 30
0.0
 10
154.582812
 20
106.563583
 30
0.0
 10
155.596167
 20
107.791250
 30
0.0
 10
156.956125
 20
108.124625
 30
0.0
  0
LWPOLYLINE
  5
1dd
100
AcDbEntity
  8
0
 62
7
100
AcDbPolyline
 90
1
 70
1
 10
149.870583
 20
101.988937
 30
0.0
  0
SPLINE
  5
1de
100
AcDbEntity
  8
0
 62
7
100
AcDbSpline
 70
8
 71
3
 72
8
 73
4
 74
0
 40
0
 40
0
 40
0
 40
0
 40
1
 40
1
 40
1
 40
1
 10
156.956125
 20
133.363229
 30
0.0
 10
155.596167
 20
133.696604
 30
0.0
 10
154.582812
 20
134.921625
 30
0.0
 10
154.582812
 20
136.384771
 30
0.0
  0
SPLINE
  5
1df
100
AcDbEntity
  8
0
 62
7
100
AcDbSpline
 70
8
 71
3
 72
8
 73
4
 74
0
 40
0
 40
0
 40
0
 40
0
 40
1
 40
1
 40
1
 40
1
 10
154.582812
 20
136.384771
 30
0.0
 10
154.582812
 20
138.101917
 30
0.0
 10
155.979813
 20
139.498917
 30
0.0
 10
157.696958
 20
139.498917
 30
0.0
  0
SPLINE
  5
1e0
100
AcDbEntity
  8
0
 62
7
100
AcDbSpline
 70
8
 71
3
 72
8
 73
4
 74
0
 40
0
 40
0
 40
0
 40
0
 40
1
 40
1
 40
1
 40
1
 10
157.696958
 20
139.498917
 30
0.0
 10
159.414104
 20
139.498917
 30
0.0
 10
160.811104
 20
138.101917
 30
0.0
 10
160.811104
 20
136.384771
 30
0.0
  0
SPLINE
  5
1e1
100
AcDbEntity
  8
0
 62
7
100
AcDbSpline
 70
8
 71
3
 72
8
 73
4
 74
0
 40
0
 40
0
 40
0
 40
0
 40
1
 40
1
 40
1
 40
1
 10
160.811104
 20
136.384771
 30
0.0
 10
160.811104
 20
134.924271
 30
0.0
 10
159.797750
 20
133.696604
 30
0.0
 10
158.437792
 20
133.363229
 30
0.0
  0
LWPOLYLINE
  5
1e2
100
AcDbEntity
  8
0
 62
7
100
AcDbPolyline
 90
2
 70
0
 10
156.956125
 20
108.124625
 30
0.0
 10
156.956125
 20
133.363229
 30
0.0
  0
SPLINE
  5
1e3
100
AcDbEntity
  8
0
 62
7
100
AcDbSpline
 70
8
 71
3
 72
8
 73
4
 74
0
 40
0
 40
0
 40
0
 40
0
 40
1
 40
1
 40
1
 40
1
 10
158.437792
 20
108.124625
 30
0.0
 10
159.797750
 20
107.788604
 30
0.0
 10
160.811104
 20
106.563583
 30
0.0
 10
160.811104
 20
105.103083
 30
0.0
  0
LWPOLYLINE
  5
1e4
100
AcDbEntity
  8
0
 62
7
100
AcDbPolyline
 90
2
 70
0
 10
158.437792
 20
133.363229
 30
0.0
 10
158.437792
 20
108.124625
 30
0.0
  0
SPLINE
  5
1e5
100
AcDbEntity
  8
0
 62
7
100
AcDbSpline
 70
8
 71
3
 72
8
 73
4
 74
0
 40
0
 40
0
 40
0
 40
0
 40
1
 40
1
 40
1
 40
1
 10
167.293391
 20
138.017247
 30
0.0
 10
166.632044
 20
138.017247
 30
0.0
 10
166.035818
 20
137.618862
 30
0.0
 10
165.782732
 20
137.007858
 30
0.0
  0
SPLINE
  5
1e6
100
AcDbEntity
  8
0
 62
7
100
AcDbSpline
 70
8
 71
3
 72
8
 73
4
 74
0
 40
0
 40
0
 40
0
 40
0
 40
1
 40
1
 40
1
 40
1
 10
165.782732
 20
137.007858
 30
0.0
 10
165.529646
 20
136.396853
 30
0.0
 10
165.669540
 20
135.693557
 30
0.0
 10
166.137183
 20
135.225914
 30
0.0
  0
SPLINE
  5
1e7
100
AcDbEntity
  8
0
 62
7
100
AcDbSpline
 70
8
 71
3
 72
8
 73
4
 74
0
 40
0
 40
0
 40
0
 40
0
 40
1
 40
1
 40
1
 40
1
 10
166.137183
 20
135.225914
 30
0.0
 10
166.604825
 20
134.758272
 30
0.0
 10
167.308121
 20
134.618378
 30
0.0
 10
167.919126
 20
134.871464
 30
0.0
  0
SPLINE
  5
1e8
100
AcDbEntity
  8
0
 62
7
100
AcDbSpline
 70
8
 71
3
 72
8
 73
4
 74
0
 40
0
 40
0
 40
0
 40
0
 40
1
 40
1
 40
1
 40
1
 10
167.919126
 20
134.871464
 30
0.0
 10
168.530130
 20
135.124550
 30
0.0
 10
168.928515
 20
135.720776
 30
0.0
 10
168.928515
 20
136.382122
 30
0.0
  0
SPLINE
  5
1e9
100
AcDbEntity
  8
0
 62
7
100
AcDbSpline
 70
8
 71
3
 72
8
 73
4
 74
0
 40
0
 40
0
 40
0
 40
0
 40
1
 40
1
 40
1
 40
1
 10
168.928515
 20
136.382122
 30
0.0
 10
168.928515
 20
136.815784
 30
0.0
 10
168.756244
 20
137.231685
 30
0.0
 10
168.449598
 20
137.538330
 30
0.0
  0
SPLINE
  5
1ea
100
AcDbEntity
  8
0
 62
7
100
AcDbSpline
 70
8
 71
3
 72
8
 73
4
 74
0
 40
0
 40
0
 40
0
 40
0
 40
1
 40
1
 40
1
 40
1
 10
168.449598
 20
137.538330
 30
0.0
 10
168.142953
 20
137.844976
 30
0.0
 10
167.727053
 20
138.017247
 30
0.0
 10
167.293391
 20
138.017247
 30
0.0
  0
LWPOLYLINE
  5
1eb
100
AcDbEntity
  8
0
 62
7
100
AcDbPolyline
 90
1
 70
1
 10
160.811104
 20
105.103083
 30
0.0
  0
SPLINE
  5
1ec
100
AcDbEntity
  8
0
 62
7
100
AcDbSpline
 70
8
 71
3
 72
8
 73
4
 74
0
 40
0
 40
0
 40
0
 40
0
 40
1
 40
1
 40
1
 40
1
 10
156.064479
 20
147.952354
 30
0.0
 10
156.064479
 20
147.050125
 30
0.0
 10
156.797375
 20
146.317229
 30
0.0
 10
157.699604
 20
146.317229
 30
0.0
  0
SPLINE
  5
1ed
100
AcDbEntity
  8
0
 62
7
100
AcDbSpline
 70
8
 71
3
 72
8
 73
4
 74
0
 40
0
 40
0
 40
0
 40
0
 40
1
 40
1
 40
1
 40
1
 10
157.699604
 20
146.317229
 30
0.0
 10
158.601833
 20
146.317229
 30
0.0
 10
159.334729
 20
147.050125
 30
0.0
 10
159.334729
 20
147.952354
 30
0.0
  0
SPLINE
  5
1ee
100
AcDbEntity
  8
0
 62
7
100
AcDbSpline
 70
8
 71
3
 72
8
 73
4
 74
0
 40
0
 40
0
 40
0
 40
0
 40
1
 40
1
 40
1
 40
1
 10
159.334729
 20
147.952354
 30
0.0
 10
159.334729
 20
148.854583
 30
0.0
 10
158.601833
 20
149.587479
 30
0.0
 10
157.699604
 20
149.587479
 30
0.0
  0
SPLINE
  5
1ef
100
AcDbEntity
  8
0
 62
7
100
AcDbSpline
 70
8
 71
3
 72
8
 73
4
 74
0
 40
0
 40
0
 40
0
 40
0
 40
1
 40
1
 40
1
 40
1
 10
157.699604
 20
149.587479
 30
0.0
 10
156.797375
 20
149.584833
 30
0.0
 10
156.064479
 20
148.851937
 30
0.0
 10
156.064479
 20
147.952354
 30
0.0
  0
LWPOLYLINE
  5
1f0
100
AcDbEntity
  8
0
 62
7
100
AcDbPolyline
 90
1
 70
1
 10
167.293391
 20
138.017247
 30
0.0
  0
SPLINE
  5
1f1
100
AcDbEntity
  8
0
 62
7
100
AcDbSpline
 70
8
 71
3
 72
8
 73
4
 74
0
 40
0
 40
0
 40
0
 40
0
 40
1
 40
1
 40
1
 40
1
 10
156.064479
 20
105.103083
 30
0.0
 10
156.064479
 20
104.200854
 30
0.0
 10
156.797375
 20
103.467958
 30
0.0
 10
157.699604
 20
103.467958
 30
0.0
  0
SPLINE
  5
1f2
100
AcDbEntity
  8
0
 62
7
100
AcDbSpline
 70
8
 71
3
 72
8
 73
4
 74
0
 40
0
 40
0
 40
0
 40
0
 40
1
 40
1
 40
1
 40
1
 10
157.699604
 20
103.467958
 30
0.0
 10
158.601833
 20
103.467958
 30
0.0
 10
159.334729
 20
104.200854
 30
0.0
 10
159.334729
 20
105.103083
 30
0.0
  0
SPLINE
  5
1f3
100
AcDbEntity
  8
0
 62
7
100
AcDbSpline
 70
8
 71
3
 72
8
 73
4
 74
0
 40
0
 40
0
 40
0
 40
0
 40
1
 40
1
 40
1
 40
1
 10
159.334729
 20
105.103083
 30
0.0
 10
159.334729
 20
106.005313
 30
0.0
 10
158.601833
 20
106.738208
 30
0.0
 10
157.699604
 20
106.738208
 30
0.0
  0
SPLINE
  5
1f4
100
AcDbEntity
  8
0
 62
7
100
AcDbSpline
 70
8
 71
3
 72
8
 73
4
 74
0
 40
0
 40
0
 40
0
 40
0
 40
1
 40
1
 40
1
 40
1
 10
157.699604
 20
106.738208
 30
0.0
 10
156.797375
 20
106.735562
 30
0.0
 10
156.064479
 20
106.002667
 30
0.0
 10
156.064479
 20
105.103083
 30
0.0
  0
LWPOLYLINE
  5
1f5
100
AcDbEntity
  8
0
 62
7
100
AcDbPolyline
 90
1
 70
1
 10
156.064479
 20
147.952354
 30
0.0
  0
SPLINE
  5
1f6
100
AcDbEntity
  8
0
 62
7
100
AcDbSpline
 70
8
 71
3
 72
8
 73
4
 74
0
 40
0
 40
0
 40
0
 40
0
 40
1
 40
1
 40
1
 40
1
 10
140.406437
 20
105.103083
 30
0.0
 10
140.406437
 20
104.200854
 30
0.0
 10
141.139333
 20
103.467958
 30
0.0
 10
142.041562
 20
103.467958
 30
0.0
  0
SPLINE
  5
1f7
100
AcDbEntity
  8
0
 62
7
100
AcDbSpline
 70
8
 71
3
 72
8
 73
4
 74
0
 40
0
 40
0
 40
0
 40
0
 40
1
 40
1
 40
1
 40
1
 10
142.041562
 20
103.467958
 30
0.0
 10
142.943792
 20
103.467958
 30
0.0
 10
143.676687
 20
104.200854
 30
0.0
 10
143.676687
 20
105.103083
 30
0.0
  0
SPLINE
  5
1f8
100
AcDbEntity
  8
0
 62
7
100
AcDbSpline
 70
8
 71
3
 72
8
 73
4
 74
0
 40
0
 40
0
 40
0
 40
0
 40
1
 40
1
 40
1
 40
1
 10
143.676687
 20
105.103083
 30
0.0
 10
143.676687
 20
106.005313
 30
0.0
 10
142.943792
 20
106.738208
 30
0.0
 10
142.041562
 20
106.738208
 30
0.0
  0
SPLINE
  5
1f9
100
AcDbEntity
  8
0
 62
7
100
AcDbSpline
 70
8
 71
3
 72
8
 73
4
 74
0
 40
0
 40
0
 40
0
 40
0
 40
1
 40
1
 40
1
 40
1
 10
142.041562
 20
106.738208
 30
0.0
 10
141.139333
 20
106.735562
 30
0.0
 10
140.406437
 20
106.002667
 30
0.0
 10
140.406437
 20
105.103083
 30
0.0
  0
LWPOLYLINE
  5
1fa
100
AcDbEntity
  8
0
 62
7
100
AcDbPolyline
 90
1
 70
1
 10
156.064479
 20
105.103083
 30
0.0
  0
LWPOLYLINE
  5
1fb
100
AcDbEntity
  8
0
 62
7
100
AcDbPolyline
 90
1
 70
1
 10
140.406437
 20
105.103083
 30
0.0
  0
LWPOLYLINE
  5
1fc
100
AcDbEntity
  8
0
 62
7
100
AcDbPolyline
 90
4
 70
1
 10
101.065544
 20
135.654518
 30
0.0
 10
119.615482
 20
135.654518
 30
0.0
 10
119.615482
 20
117.104580
 30
0.0
 10
101.065544
 20
117.104580
 30
0.0
  0
ENDSEC
  0
SECTION
  2
OBJECTS
  0
DICTIONARY
  5
C
330
0
100
AcDbDictionary
  3
ACAD_GROUP
350
D
  3
ACAD_MLINESTYLE
350
17
  0
DICTIONARY
  5
D
330
C
100
AcDbDictionary
  0
DICTIONARY
  5
1A
330
C
100
AcDbDictionary
  0
DICTIONARY
  5
17
330
C
100
AcDbDictionary
  3
STANDARD
350
18
  0
DICTIONARY
  5
19
330
C
100
AcDbDictionary
  0
ENDSEC
  0
EOF
