<?xml version="1.0" encoding="utf-8"?>
<!-- Generator: Adobe Illustrator 23.0.1, SVG Export Plug-In . SVG Version: 6.00 Build 0)  -->
<svg version="1.1" id="Layer_1" xmlns="http://www.w3.org/2000/svg" xmlns:xlink="http://www.w3.org/1999/xlink" x="0px" y="0px"
	 viewBox="0 0 844 890" style="enable-background:new 0 0 844 890;" xml:space="preserve">
<style type="text/css">
	.st0{opacity:0;fill:#FFFFFF;}
	.st1{fill:#231F20;}
</style>
<rect class="st0" width="844" height="890"/>
<g>
	<g>
		<g>
			<path class="st1" d="M185.09,727.51v10.01h15.88v5.17h-15.88v12.6h-6.11v-32.9H203v5.12H185.09z"/>
			<path class="st1" d="M228.85,747.67H212.4l-3.24,7.61h-6.3l14.8-32.9h6.02l14.85,32.9h-6.39L228.85,747.67z M226.83,742.88
				l-6.2-14.38l-6.16,14.38H226.83z"/>
			<path class="st1" d="M271.95,746.36c0,5.64-4.42,8.93-12.88,8.93h-16.35v-32.9h15.42c7.9,0,12.13,3.34,12.13,8.55
				c0,3.38-1.69,5.88-4.23,7.24C269.55,739.31,271.95,742.08,271.95,746.36z M248.82,727.18v9.07h8.65c4.23,0,6.63-1.5,6.63-4.51
				c0-3.05-2.4-4.56-6.63-4.56H248.82z M265.79,745.75c0-3.29-2.49-4.75-7.1-4.75h-9.87v9.49h9.87
				C263.3,750.49,265.79,749.04,265.79,745.75z"/>
			<path class="st1" d="M284.59,727.51v10.01h15.89v5.17h-15.89v12.6h-6.11v-32.9h24.02v5.12H284.59z"/>
			<path class="st1" d="M328.35,747.67H311.9l-3.24,7.61h-6.3l14.8-32.9h6.02l14.85,32.9h-6.39L328.35,747.67z M326.32,742.88
				l-6.2-14.38l-6.16,14.38H326.32z"/>
			<path class="st1" d="M363.74,755.29l-6.72-9.63c-0.42,0.05-0.85,0.05-1.27,0.05h-7.43v9.59h-6.11v-32.9h13.54
				c8.65,0,14.01,4.42,14.01,11.7c0,4.98-2.54,8.65-7,10.39l7.57,10.81H363.74z M355.46,727.56h-7.14v13.11h7.14
				c5.36,0,8.13-2.44,8.13-6.58S360.82,727.56,355.46,727.56z"/>
			<path class="st1" d="M406.79,755.29l-0.05-21.81l-10.81,18.05h-2.73l-10.81-17.76v21.52h-5.83v-32.9h5.03l13.07,21.81
				l12.83-21.81h5.03l0.05,32.9H406.79z"/>
		</g>
		<g>
			<path class="st1" d="M468.65,745.79h-19.08l-4.18,9.72h-2.58l15.13-34.54h2.4l15.13,34.54h-2.58L468.65,745.79z M467.76,743.67
				l-8.65-19.94l-8.6,19.94H467.76z"/>
			<path class="st1" d="M481.3,720.97h2.4v32.27h18.94v2.27H481.3V720.97z"/>
			<path class="st1" d="M531.49,738.39h2.3v12.93c-2.96,2.96-7.24,4.44-11.75,4.44c-9.92,0-17.2-7.45-17.2-17.52
				s7.28-17.52,17.25-17.52c4.75,0,8.93,1.58,11.84,4.74l-1.5,1.68c-2.87-2.96-6.3-4.1-10.29-4.1c-8.55,0-14.9,6.51-14.9,15.2
				c0,8.64,6.34,15.2,14.9,15.2c3.48,0,6.67-0.89,9.35-3.16V738.39z"/>
			<path class="st1" d="M564.53,745.79h-19.08l-4.18,9.72h-2.58l15.13-34.54h2.4l15.13,34.54h-2.58L564.53,745.79z M563.64,743.67
				l-8.65-19.94l-8.6,19.94H563.64z"/>
			<path class="st1" d="M600.02,755.51l-7.85-11.55c-1.03,0.15-2.07,0.25-3.2,0.25h-9.4v11.3h-2.4v-34.54h11.8
				c8.27,0,13.25,4.34,13.25,11.65c0,5.48-2.82,9.28-7.71,10.81l8.22,12.09H600.02z M588.97,741.99c7.05,0,10.81-3.45,10.81-9.38
				c0-5.97-3.76-9.38-10.81-9.38h-9.4v18.75H588.97z"/>
			<path class="st1" d="M637.15,720.97l-14.66,34.54h-2.4l-14.66-34.54h2.63l13.3,31.29l13.3-31.29H637.15z"/>
			<path class="st1" d="M665.02,753.24v2.27h-22.7v-34.54h22v2.27h-19.6v13.62h17.53v2.22h-17.53v14.16H665.02z"/>
		</g>
	</g>
	<path d="M197.05,390.94l129.87-0.69l-14.97-10.93l23.89-41.44l23.14,10.17c1.85-1.67,3.79-3.24,5.79-4.75
		c-3.36-5.87-6.73-11.75-10.09-17.62c-1.33-2.33-2.66-4.65-4-6.98c-2.17-0.69-4.32-1.41-6.53-1.98c-7.56-1.95-15.29-2.84-23.09-3
		c-30.45-0.63-59.56,10.06-85.53,25.29c-9.29,5.45-17.67-8.98-8.42-14.4c28.4-16.65,60.66-28.27,93.95-27.57
		c5.94,0.13,12.06,0.59,18.1,1.54c-2.91-5.08-5.81-10.15-8.72-15.23c-0.52-0.19-1.16-0.39-2.53-0.87
		c-5.74-2.02-11.75-3.41-17.8-4.03c-22.65-2.35-44.47,4.48-63.91,15.78c-9.31,5.41-17.7-9.01-8.42-14.4
		c22.96-13.34,53.22-22.3,80.61-17.53c-1.85-3.23-3.69-6.45-5.54-9.68c-15.37-9.53-34.98-8.19-50.39,0.52
		c-9.37,5.29-17.76-9.12-8.42-14.4c13.68-7.73,30.36-11.09,45.99-8.51c-1.9-3.32-3.81-6.65-5.71-9.97
		c-5.35-9.34,9.07-17.73,14.4-8.42c3.39,5.93,6.79,11.85,10.18,17.78c1.79,3.12,3.57,6.24,5.36,9.36
		c5.51-14.66,16.56-27.36,29.83-35.29c9.25-5.52,17.62,8.9,8.42,14.4c-15.18,9.07-25.95,25.59-25.24,43.6
		c1.78,3.11,3.56,6.22,5.34,9.33c0.11,0.08,0.25,0.16,0.35,0.24c9.31-26.18,32.06-48.19,54.9-61.55c9.29-5.44,17.68,8.99,8.42,14.4
		c-19.36,11.32-36.26,27.11-45.22,48.01c-2.44,5.7-4.12,11.7-5.27,17.79c-0.54,2.83-0.3,0.98-0.44,3.35
		c2.88,5.02,5.75,10.05,8.63,15.07c2.23-6.2,5.06-12.2,8.08-17.82c15.71-29.25,41.67-51.6,70.05-68.08
		c9.31-5.41,17.7,9.01,8.42,14.4c-26.06,15.13-49.64,35.26-64.07,62.1c-3.74,6.95-6.75,14.23-8.77,21.87
		c-0.59,2.21-1.01,4.44-1.47,6.68c-0.02,0.11-0.04,0.19-0.06,0.27c0,0.06-0.01,0.13-0.02,0.22c-0.04,0.43-0.14,0.82-0.22,1.21
		c1.02,1.79,2.04,3.57,3.07,5.36c3.65-1.78,7.44-3.34,11.35-4.61l2.8-25.1h47.78l2.4,21.5l67.6-118.44c3.76-6.6,1.47-15-5.13-18.76
		l-93.01-53.09c-4.27-2.44-9.51-2.41-13.75,0.07L189.51,258.48c-4.24,2.48-6.84,7.03-6.82,11.94l0.53,106.83
		C183.26,384.85,189.45,390.98,197.05,390.94z"/>
	<path d="M461.55,525.71l-17.83-30.87l-2.79,25.01h-47.78l-2.8-25.1c-11.75-3.8-22.41-10.02-31.36-18.1l-23.14,10.17l-23.89-41.44
		l20.44-14.93c-0.08-0.39-0.15-0.8-0.22-1.19l-135.81,0c-7.6,0-13.75,6.16-13.75,13.75v48.71c59.89,5.19,118.2,24.2,166.87,60.06
		C385.41,538.39,423.19,529.83,461.55,525.71z"/>
	<path d="M509.94,609.46c-39.32,0.63-77.77,10.15-111.62,30.75c-9.2,5.6-17.58-8.83-8.42-14.4c33.54-20.41,71.66-30.79,110.57-32.72
		l-10.89-18.84c-47.15,3.1-92.82,17.1-132.11,43.91c-8.9,6.07-17.23-8.39-8.42-14.4c39.09-26.67,84.54-41.15,131.31-45.46
		l-9.71-16.8c-70.69,6.36-139.32,28.58-198.05,68.53l126.99,73.32c4.25,2.46,9.5,2.46,13.75,0l92.52-53.41
		c6.58-3.8,8.83-12.21,5.03-18.79L509.94,609.46z"/>
	<path d="M182.61,508.41v15.35c35.47,3.74,69.81,14.9,99.61,35.04c8.86,5.98,0.5,20.43-8.42,14.4
		c-27.44-18.53-58.65-29.04-91.2-32.7v9.61c0,4.91,2.62,9.45,6.88,11.91l67.24,38.82c23.29-16.7,48.23-30.54,74.31-41.7
		C286.89,529.5,235.6,513.05,182.61,508.41z"/>
	<rect x="390.8" y="359.45" width="5.35" height="13.36"/>
	<rect x="406.51" y="359.45" width="5.35" height="13.36"/>
	<rect x="422.22" y="359.45" width="5.35" height="13.36"/>
	<rect x="437.93" y="359.45" width="5.35" height="13.36"/>
	<rect x="390.8" y="451.88" width="5.35" height="13.36"/>
	<rect x="406.51" y="451.88" width="5.35" height="13.36"/>
	<rect x="422.22" y="451.88" width="5.35" height="13.36"/>
	<rect x="437.93" y="451.88" width="5.35" height="13.36"/>
	<rect x="364.15" y="433.24" width="13.36" height="5.35"/>
	<rect x="364.15" y="417.53" width="13.36" height="5.35"/>
	<rect x="364.15" y="401.82" width="13.36" height="5.35"/>
	<rect x="364.15" y="386.11" width="13.36" height="5.35"/>
	<rect x="456.57" y="433.24" width="13.36" height="5.35"/>
	<rect x="456.57" y="417.53" width="13.36" height="5.35"/>
	<polygon points="469.93,401.82 469.93,401.82 456.57,401.82 456.57,407.17 469.93,407.17 	"/>
	<rect x="456.57" y="386.11" width="13.36" height="5.35"/>
	<path d="M572.55,298.56c0-3.41-2.77-6.18-6.18-6.18c-3.41,0-6.18,2.77-6.18,6.18c0,3.41,2.77,6.18,6.18,6.18
		C569.78,304.73,572.55,301.96,572.55,298.56z"/>
	<path d="M602.2,374.54c0-3.41-2.77-6.18-6.18-6.18c-3.41,0-6.18,2.77-6.18,6.18s2.77,6.18,6.18,6.18
		C599.43,380.71,602.2,377.94,602.2,374.54z"/>
	<path d="M566.44,486.59c-3.41,0-6.18,2.77-6.18,6.18c0,3.41,2.77,6.18,6.18,6.18c3.41,0,6.18-2.77,6.18-6.18
		C572.61,489.36,569.84,486.59,566.44,486.59z"/>
	<path d="M543.43,591.64c3.57,6.18,11.51,8.31,17.7,4.74l16.99-9.81H540.5L543.43,591.64z"/>
	<polygon points="537.27,580.98 587.79,580.98 617.65,563.75 617.65,557.35 523.62,557.35 	"/>
	<path d="M654.92,277.15l-58.34-33.68v41.37h38.51v48.78h-27.64c-1.26,5.14-5.89,8.97-11.42,8.97c-6.49,0-11.77-5.28-11.77-11.77
		c0-6.49,5.28-11.77,11.77-11.77c5.52,0,10.16,3.83,11.42,8.97h22.06v-37.6h-38.51v-50.18l-29.45-17.01
		c-2.04-1.18-4.26-1.73-6.46-1.73c-4.48,0-8.84,2.32-11.24,6.47l-32.85,56.86h28.67v196.51c5.14,1.26,8.97,5.89,8.97,11.42
		c0,6.49-5.28,11.77-11.77,11.77c-6.49,0-11.77-5.28-11.77-11.77c0-5.52,3.83-10.16,8.97-11.42V290.42h-26.31l-33.09,57.26
		c0.14,0.12,0.29,0.24,0.43,0.36l23.14-10.17l23.89,41.44l-20.44,14.93c1.24,5.84,1.96,11.89,1.96,18.1c0,6.21-0.72,12.26-1.96,18.1
		l20.44,14.93l-10.93,18.96l-12.96,22.48l-20.6-9.05l26.66,46.14h125.21V385.95c-5.14-1.26-8.97-5.89-8.97-11.42
		c0-6.49,5.28-11.77,11.77-11.77c6.49,0,11.77,5.28,11.77,11.77c0,5.52-3.83,10.16-8.97,11.42v143.54H507.52l12.87,22.27h102.85
		v8.75l31.68-18.29c4-2.31,6.48-6.61,6.48-11.22V288.37C661.39,283.76,658.91,279.46,654.92,277.15z M566.44,504.53
		c-6.49,0-11.77-5.28-11.77-11.77c0-5.5,3.8-10.12,8.91-11.4V309.97c-5.14-1.26-8.97-5.89-8.97-11.42c0-6.49,5.28-11.77,11.77-11.77
		c6.49,0,11.77,5.28,11.77,11.77c0,5.52-3.83,10.16-8.97,11.42v171.36c5.17,1.24,9.03,5.89,9.03,11.43
		C578.2,499.25,572.92,504.53,566.44,504.53z M607.79,492.76c0,6.49-5.28,11.77-11.77,11.77c-6.49,0-11.77-5.28-11.77-11.77
		c0-5.52,3.83-10.16,8.97-11.42v-95.39c-5.14-1.26-8.97-5.89-8.97-11.42c0-6.49,5.28-11.77,11.77-11.77
		c6.49,0,11.77,5.28,11.77,11.77c0,5.52-3.83,10.16-8.97,11.42v95.39C603.96,482.61,607.79,487.24,607.79,492.76z"/>
	<circle cx="632.29" cy="374.54" r="6.18"/>
	<path d="M589.85,330.81c0,3.41,2.77,6.18,6.18,6.18c3.41,0,6.18-2.77,6.18-6.18c0-3.41-2.77-6.18-6.18-6.18
		C592.62,324.64,589.85,327.41,589.85,330.81z"/>
	<path d="M589.85,492.76c0,3.41,2.77,6.18,6.18,6.18c3.41,0,6.18-2.77,6.18-6.18c0-3.41-2.77-6.18-6.18-6.18
		C592.62,486.59,589.85,489.36,589.85,492.76z"/>
	<path d="M530.67,492.76c0,3.41,2.77,6.18,6.18,6.18c3.41,0,6.18-2.77,6.18-6.18c0-3.41-2.77-6.18-6.18-6.18
		C533.44,486.59,530.67,489.36,530.67,492.76z"/>
	<rect x="381.98" y="377.29" width="70.11" height="70.11"/>
</g>
</svg>
