  0
SECTION
  2
HEADER
  9
$ACADVER
  1
AC1014
  9
$HANDSEED
  5
FFFF
  9
$MEASUREMENT
 70
     1
  0
ENDSEC
  0
SECTION
  2
TABLES
  0
TABLE
  2
VPORT
  5
8
330
0
100
AcDbSymbolTable
 70
     4
  0
VPORT
  5
2E
330
8
100
AcDbSymbolTableRecord
100
AcDbViewportTableRecord
  2
*ACTIVE
 70
     0
 10
0.0
 20
0.0
 11
1.0
 21
1.0
 12
210.0
 22
148.5
 13
0.0
 23
0.0
 14
10.0
 24
10.0
 15
10.0
 25
10.0
 16
0.0
 26
0.0
 36
1.0
 17
0.0
 27
0.0
 37
0.0
 40
341.0
 41
1.24
 42
50.0
 43
0.0
 44
0.0
 50
0.0
 51
0.0
 71
     0
 72
   100
 73
     1
 74
     3
 75
     0
 76
     0
 77
     0
 78
     0
  0
ENDTAB
  0
TABLE
  2
LTYPE
  5
5
330
0
100
AcDbSymbolTable
 70
     1
  0
LTYPE
  5
14
330
5
100
AcDbSymbolTableRecord
100
AcDbLinetypeTableRecord
  2
BYBLOCK
 70
     0
  3

 72
    65
 73
     0
 40
0.0
  0
LTYPE
  5
15
330
5
100
AcDbSymbolTableRecord
100
AcDbLinetypeTableRecord
  2
BYLAYER
 70
     0
  3

 72
    65
 73
     0
 40
0.0
  0
LTYPE
  5
16
330
5
100
AcDbSymbolTableRecord
100
AcDbLinetypeTableRecord
  2
CONTINUOUS
 70
     0
  3
Solid line
 72
    65
 73
     0
 40
0.0
  0
ENDTAB
  0
TABLE
  2
LAYER
  5
2
100
AcDbSymbolTable
 70
1
  0
LAYER
  5
50
100
AcDbSymbolTableRecord
100
AcDbLayerTableRecord
  2
0
 70
0
  6
CONTINUOUS
  0
ENDTAB
  0
TABLE
  2
STYLE
  5
3
330
0
100
AcDbSymbolTable
 70
     1
  0
STYLE
  5
11
330
3
100
AcDbSymbolTableRecord
100
AcDbTextStyleTableRecord
  2
STANDARD
 70
     0
 40
0.0
 41
1.0
 50
0.0
 71
     0
 42
2.5
  3
txt
  4

  0
ENDTAB
  0
TABLE
  2
VIEW
  5
6
330
0
100
AcDbSymbolTable
 70
     0
  0
ENDTAB
  0
TABLE
  2
UCS
  5
7
330
0
100
AcDbSymbolTable
 70
     0
  0
ENDTAB
  0
TABLE
  2
APPID
  5
9
330
0
100
AcDbSymbolTable
 70
     2
  0
APPID
  5
12
330
9
100
AcDbSymbolTableRecord
100
AcDbRegAppTableRecord
  2
ACAD
 70
     0
  0
ENDTAB
  0
TABLE
  2
DIMSTYLE
  5
A
330
0
100
AcDbSymbolTable
 70
     1
  0
DIMSTYLE
105
27
330
A
100
AcDbSymbolTableRecord
100
AcDbDimStyleTableRecord
  2
ISO-25
 70
     0
  3

  4

  5

  6

  7

 40
1.0
 41
2.5
 42
0.625
 43
3.75
 44
1.25
 45
0.0
 46
0.0
 47
0.0
 48
0.0
140
2.5
141
2.5
142
0.0
143
0.03937007874016
144
1.0
145
0.0
146
1.0
147
0.625
 71
     0
 72
     0
 73
     0
 74
     0
 75
     0
 76
     0
 77
     1
 78
     8
170
     0
171
     3
172
     1
173
     0
174
     0
175
     0
176
     0
177
     0
178
     0
270
     2
271
     2
272
     2
273
     2
274
     3
340
11
275
     0
280
     0
281
     0
282
     0
283
     0
284
     8
285
     0
286
     0
287
     3
288
     0
  0
ENDTAB
  0
TABLE
  2
BLOCK_RECORD
  5
1
330
0
100
AcDbSymbolTable
 70
     1
  0
BLOCK_RECORD
  5
1F
330
1
100
AcDbSymbolTableRecord
100
AcDbBlockTableRecord
  2
*MODEL_SPACE
  0
BLOCK_RECORD
  5
1B
330
1
100
AcDbSymbolTableRecord
100
AcDbBlockTableRecord
  2
*PAPER_SPACE
  0
ENDTAB
  0
ENDSEC
  0
SECTION
  2
BLOCKS
  0
BLOCK
  5
20
330
1F
100
AcDbEntity
  8
0
100
AcDbBlockBegin
  2
*MODEL_SPACE
 70
     0
 10
0.0
 20
0.0
 30
0.0
  3
*MODEL_SPACE
  1

  0
ENDBLK
  5
21
330
1F
100
AcDbEntity
  8
0
100
AcDbBlockEnd
  0
BLOCK
  5
1C
330
1B
100
AcDbEntity
 67
     1
  8
0
100
AcDbBlockBegin
  2
*PAPER_SPACE
  1

  0
ENDBLK
  5
1D
330
1B
100
AcDbEntity
 67
     1
  8
0
100
AcDbBlockEnd
  0
ENDSEC
  0
SECTION
  2
ENTITIES
  0
LWPOLYLINE
  5
100
100
AcDbEntity
  8
0
 62
7
100
AcDbPolyline
 90
4
 70
1
 10
0.000000
 20
235.479167
 30
0.0
 10
223.308333
 20
235.479167
 30
0.0
 10
223.308333
 20
0.000000
 30
0.0
 10
0.000000
 20
0.000000
 30
0.0
  0
LWPOLYLINE
  5
101
100
AcDbEntity
  8
0
 62
7
100
AcDbPolyline
 90
10
 70
1
 10
48.971729
 20
42.992146
 30
0.0
 10
48.971729
 20
40.343667
 30
0.0
 10
53.173313
 20
40.343667
 30
0.0
 10
53.173313
 20
38.975771
 30
0.0
 10
48.971729
 20
38.975771
 30
0.0
 10
48.971729
 20
35.642021
 30
0.0
 10
47.355125
 20
35.642021
 30
0.0
 10
47.355125
 20
44.346812
 30
0.0
 10
53.710417
 20
44.346812
 30
0.0
 10
53.710417
 20
42.992146
 30
0.0
  0
LWPOLYLINE
  5
102
100
AcDbEntity
  8
0
 62
7
100
AcDbPolyline
 90
8
 70
1
 10
60.549896
 20
37.658146
 30
0.0
 10
56.197500
 20
37.658146
 30
0.0
 10
55.340250
 20
35.644667
 30
0.0
 10
53.673375
 20
35.644667
 30
0.0
 10
57.589208
 20
44.349458
 30
0.0
 10
59.182000
 20
44.349458
 30
0.0
 10
63.111063
 20
35.644667
 30
0.0
 10
61.420375
 20
35.644667
 30
0.0
  0
LWPOLYLINE
  5
103
100
AcDbEntity
  8
0
 62
7
100
AcDbPolyline
 90
3
 70
1
 10
60.015437
 20
38.925500
 30
0.0
 10
58.375021
 20
42.730208
 30
0.0
 10
56.745188
 20
38.925500
 30
0.0
  0
SPLINE
  5
104
100
AcDbEntity
  8
0
 62
7
100
AcDbSpline
 70
0
 71
3
 72
10
 73
6
 74
4
 40
0.000000
 40
0.000000
 40
0.000000
 40
0.000000
 40
1.332925
 40
2.731846
 40
4.631086
 40
4.631086
 40
4.631086
 40
4.631086
 10
71.953437
 20
38.004750
 30
0.0
 10
71.881047
 20
37.546233
 30
0.0
 10
71.732683
 20
36.606496
 30
0.0
 10
70.278292
 20
35.723875
 30
0.0
 10
69.178765
 20
35.671932
 30
0.0
 10
68.545604
 20
35.642021
 30
0.0
 11
71.953437
 21
38.004750
 31
0.0
 11
71.567342
 21
36.728968
 31
0.0
 11
70.423950
 21
35.922969
 31
0.0
 11
68.545604
 21
35.642021
 31
0.0
  0
SPLINE
  5
105
100
AcDbEntity
  8
0
 62
7
100
AcDbSpline
 70
0
 71
3
 72
13
 73
9
 74
7
 40
0.000000
 40
0.000000
 40
0.000000
 40
0.000000
 40
1.783193
 40
3.117720
 40
4.371942
 40
5.198164
 40
5.950481
 40
6.696366
 40
6.696366
 40
6.696366
 40
6.696366
 10
68.299542
 20
44.346812
 30
0.0
 10
68.898806
 20
44.313201
 30
0.0
 10
69.946555
 20
44.254434
 30
0.0
 10
71.258284
 20
43.403313
 30
0.0
 10
71.582905
 20
42.222727
 30
0.0
 10
71.422645
 20
41.280363
 30
0.0
 10
71.020547
 20
40.586196
 30
0.0
 10
70.599413
 20
40.307694
 30
0.0
 10
70.389750
 20
40.169042
 30
0.0
 11
68.299542
 21
44.346812
 31
0.0
 11
70.060589
 21
44.066648
 31
0.0
 11
71.141363
 21
43.283775
 31
0.0
 11
71.508938
 21
42.084625
 31
0.0
 11
71.368120
 21
41.270492
 31
0.0
 11
70.978595
 21
40.626869
 31
0.0
 11
70.389750
 21
40.169042
 31
0.0
  0
LWPOLYLINE
  5
106
100
AcDbEntity
  8
0
 62
7
100
AcDbPolyline
 90
4
 70
0
 10
68.545604
 20
35.642021
 30
0.0
 10
64.219667
 20
35.642021
 30
0.0
 10
64.219667
 20
44.346812
 30
0.0
 10
68.299542
 20
44.346812
 30
0.0
  0
LWPOLYLINE
  5
107
100
AcDbEntity
  8
0
 62
7
100
AcDbPolyline
 90
1
 70
1
 10
71.953437
 20
38.004750
 30
0.0
  0
SPLINE
  5
108
100
AcDbEntity
  8
0
 62
7
100
AcDbSpline
 70
0
 71
3
 72
10
 73
6
 74
4
 40
0.000000
 40
0.000000
 40
0.000000
 40
0.000000
 40
0.930074
 40
1.837169
 40
2.854790
 40
2.854790
 40
2.854790
 40
2.854790
 10
70.389750
 20
40.169042
 30
0.0
 10
70.677572
 20
40.044883
 30
0.0
 10
71.246106
 20
39.799634
 30
0.0
 10
71.854798
 20
38.994925
 30
0.0
 10
71.919322
 20
38.347207
 30
0.0
 10
71.953437
 20
38.004750
 30
0.0
 11
70.389750
 21
40.169042
 31
0.0
 11
71.207900
 21
39.726698
 31
0.0
 11
71.754412
 21
39.002719
 31
0.0
 11
71.953437
 21
38.004750
 31
0.0
  0
LWPOLYLINE
  5
109
100
AcDbEntity
  8
0
 62
7
100
AcDbPolyline
 90
3
 70
0
 10
65.833625
 20
43.079458
 30
0.0
 10
65.833625
 20
40.679687
 30
0.0
 10
68.122271
 20
40.679687
 30
0.0
  0
SPLINE
  5
10a
100
AcDbEntity
  8
0
 62
7
100
AcDbSpline
 70
0
 71
3
 72
13
 73
9
 74
7
 40
0.000000
 40
0.000000
 40
0.000000
 40
0.000000
 40
0.961365
 40
1.677712
 40
2.372307
 40
3.074674
 40
3.793258
 40
4.754773
 40
4.754773
 40
4.754773
 40
4.754773
 10
68.122271
 20
40.679687
 30
0.0
 10
68.444197
 20
40.693165
 30
0.0
 10
69.006002
 20
40.716684
 30
0.0
 10
69.741951
 20
41.145947
 30
0.0
 10
69.942452
 20
41.875563
 30
0.0
 10
69.743434
 20
42.606431
 30
0.0
 10
69.007489
 20
43.042360
 30
0.0
 10
68.444479
 20
43.065955
 30
0.0
 10
68.122271
 20
43.079458
 30
0.0
 11
68.122271
 21
40.679687
 31
0.0
 11
69.074477
 21
40.812077
 31
0.0
 11
69.670377
 21
41.209638
 31
0.0
 11
69.876458
 21
41.872958
 31
0.0
 11
69.670377
 21
42.544412
 31
0.0
 11
69.074477
 21
42.945991
 31
0.0
 11
68.122271
 21
43.079458
 31
0.0
  0
LWPOLYLINE
  5
10b
100
AcDbEntity
  8
0
 62
7
100
AcDbPolyline
 90
2
 70
0
 10
68.122271
 20
43.079458
 30
0.0
 10
65.833625
 20
43.079458
 30
0.0
  0
SPLINE
  5
10c
100
AcDbEntity
  8
0
 62
7
100
AcDbSpline
 70
0
 71
3
 72
10
 73
6
 74
4
 40
0.000000
 40
0.000000
 40
0.000000
 40
0.000000
 40
0.744715
 40
1.500169
 40
2.537781
 40
2.537781
 40
2.537781
 40
2.537781
 10
70.323604
 20
38.166146
 30
0.0
 10
70.285196
 20
38.424808
 30
0.0
 10
70.207826
 20
38.945863
 30
0.0
 10
69.385306
 20
39.392934
 30
0.0
 10
68.789718
 20
39.411926
 30
0.0
 10
68.445062
 20
39.422917
 30
0.0
 11
70.323604
 21
38.166146
 31
0.0
 11
70.107626
 21
38.878855
 31
0.0
 11
69.474194
 21
39.290527
 31
0.0
 11
68.445062
 21
39.422917
 31
0.0
  0
LWPOLYLINE
  5
10d
100
AcDbEntity
  8
0
 62
7
100
AcDbPolyline
 90
4
 70
0
 10
68.445062
 20
39.422917
 30
0.0
 10
65.833625
 20
39.422917
 30
0.0
 10
65.833625
 20
36.912021
 30
0.0
 10
68.445062
 20
36.912021
 30
0.0
  0
LWPOLYLINE
  5
10e
100
AcDbEntity
  8
0
 62
7
100
AcDbPolyline
 90
1
 70
1
 10
70.323604
 20
38.166146
 30
0.0
  0
LWPOLYLINE
  5
10f
100
AcDbEntity
  8
0
 62
7
100
AcDbPolyline
 90
10
 70
1
 10
75.297771
 20
42.992146
 30
0.0
 10
75.297771
 20
40.343667
 30
0.0
 10
79.502000
 20
40.343667
 30
0.0
 10
79.502000
 20
38.975771
 30
0.0
 10
75.297771
 20
38.975771
 30
0.0
 10
75.297771
 20
35.642021
 30
0.0
 10
73.681167
 20
35.642021
 30
0.0
 10
73.681167
 20
44.346812
 30
0.0
 10
80.036458
 20
44.346812
 30
0.0
 10
80.036458
 20
42.992146
 30
0.0
  0
LWPOLYLINE
  5
110
100
AcDbEntity
  8
0
 62
7
100
AcDbPolyline
 90
8
 70
1
 10
86.875938
 20
37.658146
 30
0.0
 10
82.523542
 20
37.658146
 30
0.0
 10
81.666292
 20
35.644667
 30
0.0
 10
79.999417
 20
35.644667
 30
0.0
 10
83.915250
 20
44.349458
 30
0.0
 10
85.508042
 20
44.349458
 30
0.0
 10
89.437104
 20
35.644667
 30
0.0
 10
87.746417
 20
35.644667
 30
0.0
  0
LWPOLYLINE
  5
111
100
AcDbEntity
  8
0
 62
7
100
AcDbPolyline
 90
3
 70
1
 10
86.338833
 20
38.925500
 30
0.0
 10
84.698417
 20
42.730208
 30
0.0
 10
83.068583
 20
38.925500
 30
0.0
  0
SPLINE
  5
112
100
AcDbEntity
  8
0
 62
7
100
AcDbSpline
 70
0
 71
3
 72
10
 73
6
 74
4
 40
0.000000
 40
0.000000
 40
0.000000
 40
0.000000
 40
1.037524
 40
1.792285
 40
2.536343
 40
2.536343
 40
2.536343
 40
2.536343
 10
68.445062
 20
36.912021
 30
0.0
 10
68.789632
 20
36.922861
 30
0.0
 10
69.384863
 20
36.941586
 30
0.0
 10
70.207870
 20
37.386936
 30
0.0
 10
70.285210
 20
37.907649
 30
0.0
 10
70.323604
 20
38.166146
 30
0.0
 11
68.445062
 21
36.912021
 31
0.0
 11
69.474194
 21
37.043725
 31
0.0
 11
70.107626
 21
37.454123
 31
0.0
 11
70.323604
 21
38.166146
 31
0.0
  0
LWPOLYLINE
  5
113
100
AcDbEntity
  8
0
 62
7
100
AcDbPolyline
 90
2
 70
0
 10
96.239542
 20
35.642021
 30
0.0
 10
94.461542
 20
38.189958
 30
0.0
  0
SPLINE
  5
114
100
AcDbEntity
  8
0
 62
7
100
AcDbSpline
 70
0
 71
3
 72
10
 73
6
 74
4
 40
0.000000
 40
0.000000
 40
0.000000
 40
0.000000
 40
0.112198
 40
0.224649
 40
0.336461
 40
0.336461
 40
0.336461
 40
0.336461
 10
94.461542
 20
38.189958
 30
0.0
 10
94.424300
 20
38.186398
 30
0.0
 10
94.349732
 20
38.179268
 30
0.0
 10
94.237536
 20
38.176833
 30
0.0
 10
94.162788
 20
38.176764
 30
0.0
 10
94.125521
 20
38.176729
 30
0.0
 11
94.461542
 21
38.189958
 31
0.0
 11
94.349731
 21
38.180649
 31
0.0
 11
94.237332
 21
38.177219
 31
0.0
 11
94.125521
 21
38.176729
 31
0.0
  0
LWPOLYLINE
  5
115
100
AcDbEntity
  8
0
 62
7
100
AcDbPolyline
 90
6
 70
0
 10
94.125521
 20
38.176729
 30
0.0
 10
92.159667
 20
38.176729
 30
0.0
 10
92.159667
 20
35.639375
 30
0.0
 10
90.543062
 20
35.639375
 30
0.0
 10
90.543062
 20
44.344167
 30
0.0
 10
94.125521
 20
44.344167
 30
0.0
  0
LWPOLYLINE
  5
116
100
AcDbEntity
  8
0
 62
7
100
AcDbPolyline
 90
4
 70
0
 10
95.980250
 20
38.499521
 30
0.0
 10
97.983146
 20
35.639375
 30
0.0
 10
96.239542
 20
35.639375
 30
0.0
 10
96.239542
 20
35.642021
 30
0.0
  0
SPLINE
  5
117
100
AcDbEntity
  8
0
 62
7
100
AcDbSpline
 70
0
 71
3
 72
13
 73
9
 74
7
 40
0.000000
 40
0.000000
 40
0.000000
 40
0.000000
 40
2.013344
 40
3.673892
 40
5.393135
 40
6.608844
 40
7.730620
 40
8.913543
 40
8.913543
 40
8.913543
 40
8.913543
 10
94.125521
 20
44.344167
 30
0.0
 10
94.806202
 20
44.291845
 30
0.0
 10
96.048288
 20
44.196369
 30
0.0
 10
97.559569
 20
42.992749
 30
0.0
 10
97.927927
 20
41.411395
 30
0.0
 10
97.705455
 20
40.057399
 30
0.0
 10
97.034074
 20
39.029840
 30
0.0
 10
96.337683
 20
38.679393
 30
0.0
 10
95.980250
 20
38.499521
 30
0.0
 11
94.125521
 21
44.344167
 31
0.0
 11
96.103722
 21
43.969634
 31
0.0
 11
97.379896
 21
42.907185
 31
0.0
 11
97.832333
 21
41.248542
 31
0.0
 11
97.614395
 21
40.052527
 31
0.0
 11
96.984883
 21
39.124035
 31
0.0
 11
95.980250
 21
38.499521
 31
0.0
  0
LWPOLYLINE
  5
118
100
AcDbEntity
  8
0
 62
7
100
AcDbPolyline
 90
4
 70
0
 10
94.048792
 20
42.978917
 30
0.0
 10
92.159667
 20
42.978917
 30
0.0
 10
92.159667
 20
39.510229
 30
0.0
 10
94.048792
 20
39.510229
 30
0.0
  0
LWPOLYLINE
  5
119
100
AcDbEntity
  8
0
 62
7
100
AcDbPolyline
 90
1
 70
1
 10
94.048792
 20
42.978917
 30
0.0
  0
LWPOLYLINE
  5
11a
100
AcDbEntity
  8
0
 62
7
100
AcDbPolyline
 90
13
 70
1
 10
107.629854
 20
35.642021
 30
0.0
 10
107.616625
 20
41.412583
 30
0.0
 10
104.756479
 20
36.636854
 30
0.0
 10
104.034167
 20
36.636854
 30
0.0
 10
101.174021
 20
41.335854
 30
0.0
 10
101.174021
 20
35.642021
 30
0.0
 10
99.631500
 20
35.642021
 30
0.0
 10
99.631500
 20
44.346812
 30
0.0
 10
100.962354
 20
44.346812
 30
0.0
 10
104.420458
 20
38.576250
 30
0.0
 10
107.815062
 20
44.346812
 30
0.0
 10
109.145917
 20
44.346812
 30
0.0
 10
109.159146
 20
35.642021
 30
0.0
  0
LWPOLYLINE
  5
11b
100
AcDbEntity
  8
0
 62
7
100
AcDbPolyline
 90
8
 70
1
 10
123.996979
 20
38.155563
 30
0.0
 10
118.948729
 20
38.155563
 30
0.0
 10
117.842771
 20
35.583812
 30
0.0
 10
117.160146
 20
35.583812
 30
0.0
 10
121.163292
 20
44.722521
 30
0.0
 10
121.798292
 20
44.722521
 30
0.0
 10
125.801437
 20
35.583812
 30
0.0
 10
125.118813
 20
35.583812
 30
0.0
  0
LWPOLYLINE
  5
11c
100
AcDbEntity
  8
0
 62
7
100
AcDbPolyline
 90
3
 70
1
 10
123.761500
 20
38.716479
 30
0.0
 10
121.472854
 20
43.992271
 30
0.0
 10
119.197437
 20
38.716479
 30
0.0
  0
LWPOLYLINE
  5
11d
100
AcDbEntity
  8
0
 62
7
100
AcDbPolyline
 90
6
 70
1
 10
127.343958
 20
44.722521
 30
0.0
 10
127.978958
 20
44.722521
 30
0.0
 10
127.978958
 20
36.184417
 30
0.0
 10
132.990167
 20
36.184417
 30
0.0
 10
132.990167
 20
35.583812
 30
0.0
 10
127.343958
 20
35.583812
 30
0.0
  0
SPLINE
  5
11e
100
AcDbEntity
  8
0
 62
7
100
AcDbSpline
 70
0
 71
3
 72
13
 73
9
 74
7
 40
0.000000
 40
0.000000
 40
0.000000
 40
0.000000
 40
1.206041
 40
2.140388
 40
3.109423
 40
4.075138
 40
5.005443
 40
6.210897
 40
6.210897
 40
6.210897
 40
6.210897
 10
94.048792
 20
39.510229
 30
0.0
 10
94.457162
 20
39.533722
 30
0.0
 10
95.181905
 20
39.575415
 30
0.0
 10
96.064870
 20
40.264967
 30
0.0
 10
96.268434
 20
41.249776
 30
0.0
 10
96.065487
 20
42.234803
 30
0.0
 10
95.179567
 20
42.916316
 30
0.0
 10
94.456756
 20
42.956331
 30
0.0
 10
94.048792
 20
42.978917
 30
0.0
 11
94.048792
 21
39.510229
 31
0.0
 11
95.236771
 21
39.718172
 31
0.0
 11
95.957319
 21
40.312995
 31
0.0
 11
96.199854
 21
41.251188
 31
0.0
 11
95.957319
 21
42.185951
 31
0.0
 11
95.236771
 21
42.774404
 31
0.0
 11
94.048792
 21
42.978917
 31
0.0
  0
LWPOLYLINE
  5
11f
100
AcDbEntity
  8
0
 62
7
100
AcDbPolyline
 90
3
 70
0
 10
140.623396
 20
40.113479
 30
0.0
 10
141.231937
 20
40.113479
 30
0.0
 10
141.231937
 20
36.692417
 30
0.0
  0
SPLINE
  5
120
100
AcDbEntity
  8
0
 62
7
100
AcDbSpline
 70
0
 71
3
 72
19
 73
15
 74
13
 40
0.000000
 40
0.000000
 40
0.000000
 40
0.000000
 40
1.102762
 40
2.230572
 40
3.400183
 40
5.824473
 40
8.121063
 40
10.580471
 40
13.039999
 40
15.338991
 40
17.772292
 40
18.979999
 40
20.117539
 40
21.236116
 40
21.236116
 40
21.236116
 40
21.236116
 10
141.231937
 20
36.692417
 30
0.0
 10
140.947138
 20
36.455850
 30
0.0
 10
140.371071
 20
35.977343
 30
0.0
 10
139.277746
 20
35.603806
 30
0.0
 10
137.710029
 20
35.424490
 30
0.0
 10
135.699654
 20
35.905335
 30
0.0
 10
133.944933
 20
37.712036
 30
0.0
 10
133.379523
 20
40.153167
 30
0.0
 10
133.945136
 20
42.595345
 30
0.0
 10
135.705842
 20
44.403325
 30
0.0
 10
137.732756
 20
44.882850
 30
0.0
 10
139.320284
 20
44.701120
 30
0.0
 10
140.428477
 20
44.295745
 30
0.0
 10
140.990386
 20
43.786850
 30
0.0
 10
141.268979
 20
43.534542
 30
0.0
 11
141.231937
 21
36.692417
 31
0.0
 11
140.343035
 21
36.039778
 31
0.0
 11
139.285388
 21
35.648194
 31
0.0
 11
138.123083
 21
35.517667
 31
0.0
 11
135.776719
 21
36.127384
 31
0.0
 11
134.168836
 21
37.767213
 31
0.0
 11
133.572250
 21
40.153167
 31
0.0
 11
134.169326
 21
42.539120
 31
0.0
 11
135.780639
 21
44.178949
 31
0.0
 11
138.136312
 21
44.788667
 31
0.0
 11
139.335953
 21
44.649319
 31
0.0
 11
140.393894
 21
44.231278
 31
0.0
 11
141.268979
 21
43.534542
 31
0.0
  0
LWPOLYLINE
  5
121
100
AcDbEntity
  8
0
 62
7
100
AcDbPolyline
 90
2
 70
0
 10
141.268979
 20
43.534542
 30
0.0
 10
140.872104
 20
43.090042
 30
0.0
  0
LWPOLYLINE
  5
122
100
AcDbEntity
  8
0
 62
7
100
AcDbPolyline
 90
2
 70
0
 10
140.623396
 20
36.967583
 30
0.0
 10
140.623396
 20
40.113479
 30
0.0
  0
LWPOLYLINE
  5
123
100
AcDbEntity
  8
0
 62
7
100
AcDbPolyline
 90
8
 70
1
 10
149.365229
 20
38.155563
 30
0.0
 10
144.316979
 20
38.155563
 30
0.0
 10
143.211021
 20
35.583812
 30
0.0
 10
142.528396
 20
35.583812
 30
0.0
 10
146.531542
 20
44.722521
 30
0.0
 10
147.166542
 20
44.722521
 30
0.0
 10
151.169687
 20
35.583812
 30
0.0
 10
150.487062
 20
35.583812
 30
0.0
  0
LWPOLYLINE
  5
124
100
AcDbEntity
  8
0
 62
7
100
AcDbPolyline
 90
3
 70
1
 10
149.129750
 20
38.716479
 30
0.0
 10
146.841104
 20
43.992271
 30
0.0
 10
144.565687
 20
38.716479
 30
0.0
  0
SPLINE
  5
125
100
AcDbEntity
  8
0
 62
7
100
AcDbSpline
 70
0
 71
3
 72
19
 73
15
 74
13
 40
0.000000
 40
0.000000
 40
0.000000
 40
0.000000
 40
1.024746
 40
1.996799
 40
3.008792
 40
5.104846
 40
7.099601
 40
9.228461
 40
11.351475
 40
13.347921
 40
15.445861
 40
16.342755
 40
17.214267
 40
18.108318
 40
18.108318
 40
18.108318
 40
18.108318
 10
140.872104
 20
43.090042
 30
0.0
 10
140.614656
 20
43.318755
 30
0.0
 10
140.112997
 20
43.764422
 30
0.0
 10
139.148853
 20
44.110845
 30
0.0
 10
137.791627
 20
44.249762
 30
0.0
 10
136.052494
 20
43.834733
 30
0.0
 10
134.535466
 20
42.266895
 30
0.0
 10
134.037552
 20
40.154958
 30
0.0
 10
134.537015
 20
38.043533
 30
0.0
 10
136.050600
 20
36.475289
 30
0.0
 10
137.752690
 20
36.063671
 30
0.0
 10
139.037700
 20
36.183840
 30
0.0
 10
139.901658
 20
36.443153
 30
0.0
 10
140.380778
 20
36.791292
 30
0.0
 10
140.623396
 20
36.967583
 30
0.0
 11
140.872104
 21
43.090042
 31
0.0
 11
140.063361
 21
43.719358
 31
0.0
 11
139.155840
 21
44.067628
 31
0.0
 11
138.149542
 21
44.174833
 31
0.0
 11
136.122049
 21
43.643119
 31
0.0
 11
134.726617
 21
42.217701
 31
0.0
 11
134.207250
 21
40.153167
 31
0.0
 11
134.726029
 21
38.094512
 31
0.0
 11
136.120873
 21
36.666154
 31
0.0
 11
138.149542
 21
36.131500
 31
0.0
 11
139.042559
 21
36.214795
 31
0.0
 11
139.871489
 21
36.483886
 31
0.0
 11
140.623396
 21
36.967583
 31
0.0
  0
LWPOLYLINE
  5
126
100
AcDbEntity
  8
0
 62
7
100
AcDbPolyline
 90
2
 70
0
 10
158.755292
 20
35.583812
 30
0.0
 10
156.678313
 20
38.639750
 30
0.0
  0
SPLINE
  5
127
100
AcDbEntity
  8
0
 62
7
100
AcDbSpline
 70
0
 71
3
 72
10
 73
6
 74
4
 40
0.000000
 40
0.000000
 40
0.000000
 40
0.000000
 40
0.276385
 40
0.557982
 40
0.849927
 40
0.849927
 40
0.849927
 40
0.849927
 10
156.678313
 20
38.639750
 30
0.0
 10
156.587011
 20
38.627400
 30
0.0
 10
156.402687
 20
38.602466
 30
0.0
 10
156.120163
 20
38.578538
 30
0.0
 10
155.928968
 20
38.575269
 30
0.0
 10
155.831646
 20
38.573604
 30
0.0
 11
156.678313
 21
38.639750
 31
0.0
 11
156.404126
 21
38.604962
 31
0.0
 11
156.123471
 21
38.581934
 31
0.0
 11
155.831646
 21
38.573604
 31
0.0
  0
LWPOLYLINE
  5
128
100
AcDbEntity
  8
0
 62
7
100
AcDbPolyline
 90
6
 70
0
 10
155.831646
 20
38.573604
 30
0.0
 10
153.344562
 20
38.573604
 30
0.0
 10
153.344562
 20
35.583812
 30
0.0
 10
152.709563
 20
35.583812
 30
0.0
 10
152.709563
 20
44.722521
 30
0.0
 10
155.831646
 20
44.722521
 30
0.0
  0
SPLINE
  5
129
100
AcDbEntity
  8
0
 62
7
100
AcDbSpline
 70
0
 71
3
 72
13
 73
9
 74
7
 40
0.000000
 40
0.000000
 40
0.000000
 40
0.000000
 40
1.917294
 40
3.515937
 40
5.227677
 40
6.545929
 40
7.734919
 40
8.990974
 40
8.990974
 40
8.990974
 40
8.990974
 10
155.831646
 20
44.722521
 30
0.0
 10
156.481754
 20
44.671468
 30
0.0
 10
157.673923
 20
44.577848
 30
0.0
 10
159.101797
 20
43.357738
 30
0.0
 10
159.429676
 20
41.766214
 30
0.0
 10
159.204229
 20
40.355724
 30
0.0
 10
158.453082
 20
39.269412
 30
0.0
 10
157.689633
 20
38.946080
 30
0.0
 10
157.297437
 20
38.779979
 30
0.0
 11
155.831646
 21
44.722521
 31
0.0
 11
157.713029
 21
44.353182
 31
0.0
 11
158.914728
 21
43.298867
 31
0.0
 11
159.337375
 21
41.640125
 31
0.0
 11
159.096016
 21
40.344157
 31
0.0
 11
158.401338
 21
39.379211
 31
0.0
 11
157.297437
 21
38.779979
 31
0.0
  0
LWPOLYLINE
  5
12a
100
AcDbEntity
  8
0
 62
7
100
AcDbPolyline
 90
4
 70
0
 10
157.297437
 20
38.779979
 30
0.0
 10
159.472312
 20
35.581167
 30
0.0
 10
158.755292
 20
35.581167
 30
0.0
 10
158.755292
 20
35.583812
 30
0.0
  0
LWPOLYLINE
  5
12b
100
AcDbEntity
  8
0
 62
7
100
AcDbPolyline
 90
5
 70
0
 10
155.831646
 20
44.124562
 30
0.0
 10
153.344563
 20
44.124562
 30
0.0
 10
153.344563
 20
39.163625
 30
0.0
 10
155.831646
 20
39.163625
 30
0.0
 10
155.831646
 20
39.160979
 30
0.0
  0
LWPOLYLINE
  5
12c
100
AcDbEntity
  8
0
 62
7
100
AcDbPolyline
 90
7
 70
1
 10
168.579271
 20
44.722521
 30
0.0
 10
164.700479
 20
35.583812
 30
0.0
 10
164.065479
 20
35.583812
 30
0.0
 10
160.186688
 20
44.722521
 30
0.0
 10
160.882542
 20
44.722521
 30
0.0
 10
164.401500
 20
36.443708
 30
0.0
 10
167.920458
 20
44.722521
 30
0.0
  0
LWPOLYLINE
  5
12d
100
AcDbEntity
  8
0
 62
7
100
AcDbPolyline
 90
12
 70
1
 10
175.953208
 20
36.184417
 30
0.0
 10
175.953208
 20
35.583812
 30
0.0
 10
169.947167
 20
35.583812
 30
0.0
 10
169.947167
 20
44.722521
 30
0.0
 10
175.768000
 20
44.722521
 30
0.0
 10
175.768000
 20
44.121917
 30
0.0
 10
170.582167
 20
44.121917
 30
0.0
 10
170.582167
 20
40.518292
 30
0.0
 10
175.220312
 20
40.518292
 30
0.0
 10
175.220312
 20
39.930917
 30
0.0
 10
170.582167
 20
39.930917
 30
0.0
 10
170.582167
 20
36.184417
 30
0.0
  0
SPLINE
  5
12e
100
AcDbEntity
  8
0
 62
7
100
AcDbSpline
 70
0
 71
3
 72
13
 73
9
 74
7
 40
0.000000
 40
0.000000
 40
0.000000
 40
0.000000
 40
1.597969
 40
2.879674
 40
4.259727
 40
5.644350
 40
6.924504
 40
8.522040
 40
8.522040
 40
8.522040
 40
8.522040
 10
155.831646
 20
39.160979
 30
0.0
 10
156.374415
 20
39.196629
 30
0.0
 10
157.352529
 20
39.260872
 30
0.0
 10
158.521929
 20
40.258145
 30
0.0
 10
158.779497
 20
41.644084
 30
0.0
 10
158.523708
 20
43.030973
 30
0.0
 10
157.351793
 20
44.026968
 30
0.0
 10
156.374298
 20
44.089724
 30
0.0
 10
155.831646
 20
44.124562
 30
0.0
 11
155.831646
 21
39.160979
 31
0.0
 11
157.402193
 21
39.455745
 31
0.0
 11
158.364786
 21
40.302019
 31
0.0
 11
158.691792
 21
41.642771
 31
0.0
 11
158.364786
 21
42.988226
 31
0.0
 11
157.402193
 21
43.832149
 31
0.0
 11
155.831646
 21
44.124562
 31
0.0
  0
SPLINE
  5
12f
100
AcDbEntity
  8
0
 62
7
100
AcDbSpline
 70
0
 71
3
 72
10
 73
6
 74
4
 40
0.000000
 40
0.000000
 40
0.000000
 40
0.000000
 40
0.659537
 40
1.319992
 40
1.982056
 40
1.982056
 40
1.982056
 40
1.982056
 10
94.980125
 20
143.390938
 30
0.0
 10
95.144888
 20
143.536514
 30
0.0
 10
95.474642
 20
143.827870
 30
0.0
 10
95.986841
 20
144.245491
 30
0.0
 10
96.336847
 20
144.513527
 30
0.0
 10
96.512062
 20
144.647708
 30
0.0
 11
94.980125
 21
143.390938
 31
0.0
 11
95.477248
 21
143.824364
 31
0.0
 11
95.988481
 21
144.242504
 31
0.0
 11
96.512062
 21
144.647708
 31
0.0
  0
SPLINE
  5
130
100
AcDbEntity
  8
0
 62
7
100
AcDbSpline
 70
0
 71
3
 72
10
 73
6
 74
4
 40
0.000000
 40
0.000000
 40
0.000000
 40
0.000000
 40
1.790476
 40
3.581755
 40
5.372231
 40
5.372231
 40
5.372231
 40
5.372231
 10
96.512062
 20
144.647708
 30
0.0
 10
96.215522
 20
145.165650
 30
0.0
 10
95.622307
 20
146.201767
 30
0.0
 10
94.732172
 20
147.755608
 30
0.0
 10
94.138958
 20
148.791725
 30
0.0
 10
93.842417
 20
149.309667
 30
0.0
 11
96.512062
 21
144.647708
 31
0.0
 11
95.622377
 21
146.201498
 31
0.0
 11
94.732103
 21
147.755877
 31
0.0
 11
93.842417
 21
149.309667
 31
0.0
  0
SPLINE
  5
131
100
AcDbEntity
  8
0
 62
7
100
AcDbSpline
 70
0
 71
3
 72
10
 73
6
 74
4
 40
0.000000
 40
0.000000
 40
0.000000
 40
0.000000
 40
0.709296
 40
1.418374
 40
2.128547
 40
2.128547
 40
2.128547
 40
2.128547
 10
93.842417
 20
149.309667
 30
0.0
 10
93.725133
 20
149.514958
 30
0.0
 10
93.490603
 20
149.925479
 30
0.0
 10
93.137781
 20
150.541052
 30
0.0
 10
92.902043
 20
150.951217
 30
0.0
 10
92.784083
 20
151.156458
 30
0.0
 11
93.842417
 21
149.309667
 31
0.0
 11
93.490423
 21
149.925460
 31
0.0
 11
93.137841
 21
150.540665
 31
0.0
 11
92.784083
 21
151.156458
 31
0.0
  0
SPLINE
  5
132
100
AcDbEntity
  8
0
 62
7
100
AcDbSpline
 70
0
 71
3
 72
13
 73
9
 74
7
 40
0.000000
 40
0.000000
 40
0.000000
 40
0.000000
 40
0.601806
 40
1.203144
 40
1.805631
 40
3.864384
 40
5.919031
 40
7.978565
 40
7.978565
 40
7.978565
 40
7.978565
 10
92.784083
 20
151.156458
 30
0.0
 10
92.593084
 20
151.217773
 30
0.0
 10
92.211235
 20
151.340355
 30
0.0
 10
91.637160
 20
151.521321
 30
0.0
 10
90.589551
 20
151.814092
 30
0.0
 10
89.047565
 20
152.130821
 30
0.0
 10
87.004410
 20
152.395169
 30
0.0
 10
85.633429
 20
152.447758
 30
0.0
 10
84.947125
 20
152.474083
 30
0.0
 11
92.784083
 21
151.156458
 31
0.0
 11
92.210917
 21
151.339903
 31
0.0
 11
91.636576
 21
151.518056
 31
0.0
 11
91.056354
 21
151.680333
 31
0.0
 11
89.042091
 21
152.106019
 31
0.0
 11
87.003721
 21
152.364134
 31
0.0
 11
84.947125
 21
152.474083
 31
0.0
  0
SPLINE
  5
133
100
AcDbEntity
  8
0
 62
7
100
AcDbSpline
 70
0
 71
3
 72
10
 73
6
 74
4
 40
0.000000
 40
0.000000
 40
0.000000
 40
0.000000
 40
7.957622
 40
15.896115
 40
23.867163
 40
23.867163
 40
23.867163
 40
23.867163
 10
84.947125
 20
152.474083
 30
0.0
 10
82.288673
 20
152.335338
 30
0.0
 10
76.978158
 20
152.058180
 30
0.0
 10
69.331921
 20
149.551077
 30
0.0
 10
64.658703
 20
147.040585
 30
0.0
 10
62.317313
 20
145.782771
 30
0.0
 11
84.947125
 21
152.474083
 31
0.0
 11
77.026382
 21
151.708850
 31
0.0
 11
69.447833
 21
149.345532
 31
0.0
 11
62.317313
 21
145.782771
 31
0.0
  0
SPLINE
  5
134
100
AcDbEntity
  8
0
 62
7
100
AcDbSpline
 70
0
 71
3
 72
10
 73
6
 74
4
 40
0.000000
 40
0.000000
 40
0.000000
 40
0.000000
 40
2.214056
 40
4.339422
 40
6.553280
 40
6.553280
 40
6.553280
 40
6.553280
 10
62.317313
 20
145.782771
 30
0.0
 10
61.528049
 20
145.622422
 30
0.0
 10
59.981138
 20
145.308147
 30
0.0
 10
58.537911
 20
147.787878
 30
0.0
 10
59.565333
 20
148.983016
 30
0.0
 10
60.089521
 20
149.592771
 30
0.0
 11
62.317313
 21
145.782771
 31
0.0
 11
60.103436
 21
145.810993
 31
0.0
 11
59.033147
 21
147.647201
 31
0.0
 11
60.089521
 21
149.592771
 31
0.0
  0
SPLINE
  5
135
100
AcDbEntity
  8
0
 62
7
100
AcDbSpline
 70
0
 71
3
 72
10
 73
6
 74
4
 40
0.000000
 40
0.000000
 40
0.000000
 40
0.000000
 40
8.740361
 40
17.469928
 40
26.198877
 40
26.198877
 40
26.198877
 40
26.198877
 10
60.089521
 20
149.592771
 30
0.0
 10
62.659565
 20
150.967436
 30
0.0
 10
67.796478
 20
153.715070
 30
0.0
 10
76.199457
 20
156.435189
 30
0.0
 10
82.031304
 20
156.736622
 30
0.0
 10
84.947125
 20
156.887333
 30
0.0
 11
60.089521
 21
149.592771
 31
0.0
 11
67.916386
 21
153.483028
 31
0.0
 11
76.257718
 21
156.057424
 31
0.0
 11
84.947125
 21
156.887333
 31
0.0
  0
SPLINE
  5
136
100
AcDbEntity
  8
0
 62
7
100
AcDbSpline
 70
0
 71
3
 72
10
 73
6
 74
4
 40
0.000000
 40
0.000000
 40
0.000000
 40
0.000000
 40
1.586287
 40
3.193190
 40
4.809443
 40
4.809443
 40
4.809443
 40
4.809443
 10
84.947125
 20
156.887333
 30
0.0
 10
85.475627
 20
156.869819
 30
0.0
 10
86.539499
 20
156.834562
 30
0.0
 10
88.138478
 20
156.705024
 30
0.0
 10
89.202519
 20
156.555070
 30
0.0
 10
89.736083
 20
156.479875
 30
0.0
 11
84.947125
 21
156.887333
 31
0.0
 11
86.532077
 21
156.822265
 31
0.0
 11
88.133492
 21
156.689582
 31
0.0
 11
89.736083
 21
156.479875
 31
0.0
  0
SPLINE
  5
137
100
AcDbEntity
  8
0
 62
7
100
AcDbSpline
 70
0
 71
3
 72
10
 73
6
 74
4
 40
0.000000
 40
0.000000
 40
0.000000
 40
0.000000
 40
1.548052
 40
3.095301
 40
4.643353
 40
4.643353
 40
4.643353
 40
4.643353
 10
89.736083
 20
156.479875
 30
0.0
 10
89.479645
 20
156.927662
 30
0.0
 10
88.966902
 20
157.823004
 30
0.0
 10
88.198098
 20
159.166350
 30
0.0
 10
87.685355
 20
160.061692
 30
0.0
 10
87.428917
 20
160.509479
 30
0.0
 11
89.736083
 21
156.479875
 31
0.0
 11
88.966832
 21
157.823272
 31
0.0
 11
88.198168
 21
159.166082
 31
0.0
 11
87.428917
 21
160.509479
 31
0.0
  0
SPLINE
  5
138
100
AcDbEntity
  8
0
 62
7
100
AcDbSpline
 70
0
 71
3
 72
13
 73
9
 74
7
 40
0.000000
 40
0.000000
 40
0.000000
 40
0.000000
 40
0.163263
 40
0.386195
 40
0.707873
 40
2.320464
 40
3.935061
 40
5.546589
 40
5.546589
 40
5.546589
 40
5.546589
 10
87.428917
 20
160.509479
 30
0.0
 10
87.377580
 20
160.527542
 30
0.0
 10
87.256144
 20
160.570269
 30
0.0
 10
87.032184
 20
160.644588
 30
0.0
 10
86.353703
 20
160.882758
 30
0.0
 10
85.224274
 20
161.237064
 30
0.0
 10
83.650373
 20
161.602009
 30
0.0
 10
82.583078
 20
161.738004
 30
0.0
 10
82.049937
 20
161.805937
 30
0.0
 11
87.428917
 21
160.509479
 31
0.0
 11
87.274772
 21
160.563278
 31
0.0
 11
87.063596
 21
160.634715
 31
0.0
 11
86.759521
 21
160.739667
 31
0.0
 11
85.219254
 21
161.217191
 31
0.0
 11
83.644885
 21
161.575358
 31
0.0
 11
82.049938
 21
161.805937
 31
0.0
  0
SPLINE
  5
139
100
AcDbEntity
  8
0
 62
7
100
AcDbSpline
 70
0
 71
3
 72
10
 73
6
 74
4
 40
0.000000
 40
0.000000
 40
0.000000
 40
0.000000
 40
5.906122
 40
11.764099
 40
17.679841
 40
17.679841
 40
17.679841
 40
17.679841
 10
82.049937
 20
161.805937
 30
0.0
 10
80.073283
 20
161.856248
 30
0.0
 10
76.136086
 20
161.956458
 30
0.0
 10
70.371314
 20
160.362242
 30
0.0
 10
66.889743
 20
158.544262
 30
0.0
 10
65.140417
 20
157.630812
 30
0.0
 11
82.049938
 21
161.805937
 31
0.0
 11
76.145515
 21
161.664238
 31
0.0
 11
70.478630
 21
160.180220
 31
0.0
 11
65.140417
 21
157.630812
 31
0.0
  0
SPLINE
  5
13a
100
AcDbEntity
  8
0
 62
7
100
AcDbSpline
 70
0
 71
3
 72
10
 73
6
 74
4
 40
0.000000
 40
0.000000
 40
0.000000
 40
0.000000
 40
2.218264
 40
4.343417
 40
6.554363
 40
6.554363
 40
6.554363
 40
6.554363
 10
65.140417
 20
157.630812
 30
0.0
 10
64.349890
 20
157.472690
 30
0.0
 10
62.802019
 20
157.163081
 30
0.0
 10
61.354795
 20
159.640993
 30
0.0
 10
62.386544
 20
160.833011
 30
0.0
 10
62.912625
 20
161.440812
 30
0.0
 11
65.140417
 21
157.630812
 31
0.0
 11
62.922424
 21
157.665502
 31
0.0
 11
61.851548
 21
159.501123
 31
0.0
 11
62.912625
 21
161.440812
 31
0.0
  0
SPLINE
  5
13b
100
AcDbEntity
  8
0
 62
7
100
AcDbSpline
 70
0
 71
3
 72
10
 73
6
 74
4
 40
0.000000
 40
0.000000
 40
0.000000
 40
0.000000
 40
7.288586
 40
14.799057
 40
22.200830
 40
22.200830
 40
22.200830
 40
22.200830
 10
62.912625
 20
161.440812
 30
0.0
 10
65.081708
 20
162.538290
 30
0.0
 10
69.485907
 20
164.766656
 30
0.0
 10
76.783973
 20
166.620229
 30
0.0
 10
81.767224
 20
166.258503
 30
0.0
 10
84.240688
 20
166.078958
 30
0.0
 11
62.912625
 21
161.440812
 31
0.0
 11
69.531618
 21
164.492438
 31
0.0
 11
76.840292
 21
166.221735
 31
0.0
 11
84.240688
 21
166.078958
 31
0.0
  0
SPLINE
  5
13c
100
AcDbEntity
  8
0
 62
7
100
AcDbSpline
 70
0
 71
3
 72
10
 73
6
 74
4
 40
0.000000
 40
0.000000
 40
0.000000
 40
0.000000
 40
0.983918
 40
1.967034
 40
2.950952
 40
2.950952
 40
2.950952
 40
2.950952
 10
84.240688
 20
166.078958
 30
0.0
 10
84.077735
 20
166.363586
 30
0.0
 10
83.751964
 20
166.932608
 30
0.0
 10
83.263619
 20
167.786475
 30
0.0
 10
82.937848
 20
168.355498
 30
0.0
 10
82.774896
 20
168.640125
 30
0.0
 11
84.240688
 21
166.078958
 31
0.0
 11
83.751894
 21
166.932877
 31
0.0
 11
83.263689
 21
167.786207
 31
0.0
 11
82.774896
 21
168.640125
 31
0.0
  0
SPLINE
  5
13d
100
AcDbEntity
  8
0
 62
7
100
AcDbSpline
 70
0
 71
3
 72
10
 73
6
 74
4
 40
0.000000
 40
0.000000
 40
0.000000
 40
0.000000
 40
4.641324
 40
9.252276
 40
13.908223
 40
13.908223
 40
13.908223
 40
13.908223
 10
82.774896
 20
168.640125
 30
0.0
 10
81.353805
 20
169.291855
 30
0.0
 10
78.520924
 20
170.591049
 30
0.0
 10
73.697299
 20
170.404965
 30
0.0
 10
70.865378
 20
169.138732
 30
0.0
 10
69.442542
 20
168.502542
 30
0.0
 11
82.774896
 21
168.640125
 31
0.0
 11
78.417012
 21
170.237228
 31
0.0
 11
73.807481
 21
170.122772
 31
0.0
 11
69.442542
 21
168.502542
 31
0.0
  0
SPLINE
  5
13e
100
AcDbEntity
  8
0
 62
7
100
AcDbSpline
 70
0
 71
3
 72
10
 73
6
 74
4
 40
0.000000
 40
0.000000
 40
0.000000
 40
0.000000
 40
2.229261
 40
4.353907
 40
6.552475
 40
6.552475
 40
6.552475
 40
6.552475
 10
69.442542
 20
168.502542
 30
0.0
 10
68.648678
 20
168.351669
 30
0.0
 10
67.098206
 20
168.057005
 30
0.0
 10
65.643207
 20
170.529150
 30
0.0
 10
66.684965
 20
171.711340
 30
0.0
 10
67.214750
 20
172.312542
 30
0.0
 11
69.442542
 21
168.502542
 31
0.0
 11
67.213966
 21
168.557810
 31
0.0
 11
66.143090
 21
170.392843
 31
0.0
 11
67.214750
 21
172.312542
 31
0.0
  0
SPLINE
  5
13f
100
AcDbEntity
  8
0
 62
7
100
AcDbSpline
 70
0
 71
3
 72
10
 73
6
 74
4
 40
0.000000
 40
0.000000
 40
0.000000
 40
0.000000
 40
4.181333
 40
8.389929
 40
12.581901
 40
12.581901
 40
12.581901
 40
12.581901
 10
67.214750
 20
172.312542
 30
0.0
 10
68.474328
 20
172.916545
 30
0.0
 10
71.001696
 20
174.128490
 30
0.0
 10
75.188299
 20
174.934196
 30
0.0
 10
77.986571
 20
174.687333
 30
0.0
 10
79.382938
 20
174.564146
 30
0.0
 11
67.214750
 21
172.312542
 31
0.0
 11
71.059146
 21
173.956976
 31
0.0
 11
75.194583
 21
174.738281
 31
0.0
 11
79.382938
 21
174.564146
 31
0.0
  0
SPLINE
  5
140
100
AcDbEntity
  8
0
 62
7
100
AcDbSpline
 70
0
 71
3
 72
10
 73
6
 74
4
 40
0.000000
 40
0.000000
 40
0.000000
 40
0.000000
 40
1.013029
 40
2.026860
 40
3.039889
 40
3.039889
 40
3.039889
 40
3.039889
 10
79.382938
 20
174.564146
 30
0.0
 10
79.215160
 20
174.857192
 30
0.0
 10
78.879473
 20
175.443517
 30
0.0
 10
78.375631
 20
176.322671
 30
0.0
 10
78.039944
 20
176.908995
 30
0.0
 10
77.872167
 20
177.202042
 30
0.0
 11
79.382938
 21
174.564146
 31
0.0
 11
78.879543
 21
175.443248
 31
0.0
 11
78.375561
 21
176.322939
 31
0.0
 11
77.872167
 21
177.202042
 31
0.0
  0
SPLINE
  5
141
100
AcDbEntity
  8
0
 62
7
100
AcDbSpline
 70
0
 71
3
 72
10
 73
6
 74
4
 40
0.000000
 40
0.000000
 40
0.000000
 40
0.000000
 40
2.223745
 40
4.348899
 40
6.553121
 40
6.553121
 40
6.553121
 40
6.553121
 10
77.872167
 20
177.202042
 30
0.0
 10
77.717791
 20
177.994237
 30
0.0
 10
77.415885
 20
179.543507
 30
0.0
 10
79.890922
 20
180.994511
 30
0.0
 10
81.077859
 20
179.957704
 30
0.0
 10
81.682167
 20
179.429833
 30
0.0
 11
77.872167
 21
177.202042
 31
0.0
 11
77.917440
 21
179.425326
 31
0.0
 11
79.753060
 21
180.496202
 31
0.0
 11
81.682167
 21
179.429833
 31
0.0
  0
SPLINE
  5
142
100
AcDbEntity
  8
0
 62
7
100
AcDbSpline
 70
0
 71
3
 72
10
 73
6
 74
4
 40
0.000000
 40
0.000000
 40
0.000000
 40
0.000000
 40
1.807006
 40
3.613794
 40
5.420801
 40
5.420801
 40
5.420801
 40
5.420801
 10
81.682167
 20
179.429833
 30
0.0
 10
81.981297
 20
178.907025
 30
0.0
 10
82.579522
 20
177.861470
 30
0.0
 10
83.478270
 20
176.293905
 30
0.0
 10
84.076495
 20
175.248350
 30
0.0
 10
84.375625
 20
174.725542
 30
0.0
 11
81.682167
 21
179.429833
 31
0.0
 11
82.579790
 21
177.861540
 31
0.0
 11
83.478002
 21
176.293835
 31
0.0
 11
84.375625
 21
174.725542
 31
0.0
  0
SPLINE
  5
143
100
AcDbEntity
  8
0
 62
7
100
AcDbSpline
 70
0
 71
3
 72
10
 73
6
 74
4
 40
0.000000
 40
0.000000
 40
0.000000
 40
0.000000
 40
0.951368
 40
1.902445
 40
2.853813
 40
2.853813
 40
2.853813
 40
2.853813
 10
84.375625
 20
174.725542
 30
0.0
 10
84.533314
 20
174.450403
 30
0.0
 10
84.848642
 20
173.900211
 30
0.0
 10
85.320774
 20
173.074373
 30
0.0
 10
85.636103
 20
172.524180
 30
0.0
 10
85.793792
 20
172.249042
 30
0.0
 11
84.375625
 21
174.725542
 31
0.0
 11
84.848543
 21
173.900042
 31
0.0
 11
85.320873
 21
173.074542
 31
0.0
 11
85.793792
 21
172.249042
 31
0.0
  0
SPLINE
  5
144
100
AcDbEntity
  8
0
 62
7
100
AcDbSpline
 70
0
 71
3
 72
10
 73
6
 74
4
 40
0.000000
 40
0.000000
 40
0.000000
 40
0.000000
 40
4.146524
 40
8.305934
 40
12.426935
 40
12.426935
 40
12.426935
 40
12.426935
 10
85.793792
 20
172.249042
 30
0.0
 10
86.376799
 20
173.506894
 30
0.0
 10
87.544627
 20
176.026508
 30
0.0
 10
90.281768
 20
179.224947
 30
0.0
 10
92.554979
 20
180.801545
 30
0.0
 10
93.686313
 20
181.586187
 30
0.0
 11
85.793792
 21
172.249042
 31
0.0
 11
87.707709
 21
175.927436
 31
0.0
 11
90.403617
 21
179.094890
 31
0.0
 11
93.686313
 21
181.586187
 31
0.0
  0
SPLINE
  5
145
100
AcDbEntity
  8
0
 62
7
100
AcDbSpline
 70
0
 71
3
 72
10
 73
6
 74
4
 40
0.000000
 40
0.000000
 40
0.000000
 40
0.000000
 40
2.206286
 40
4.330847
 40
6.552704
 40
6.552704
 40
6.552704
 40
6.552704
 10
93.686313
 20
181.586187
 30
0.0
 10
94.473162
 20
181.751019
 30
0.0
 10
96.017716
 20
182.074575
 30
0.0
 10
97.455005
 20
179.592097
 30
0.0
 10
96.435346
 20
178.390457
 30
0.0
 10
95.914104
 20
177.776187
 30
0.0
 11
93.686313
 21
181.586187
 31
0.0
 11
95.892546
 21
181.570900
 31
0.0
 11
96.962246
 21
179.735280
 31
0.0
 11
95.914104
 21
177.776187
 31
0.0
  0
SPLINE
  5
146
100
AcDbEntity
  8
0
 62
7
100
AcDbSpline
 70
0
 71
3
 72
10
 73
6
 74
4
 40
0.000000
 40
0.000000
 40
0.000000
 40
0.000000
 40
4.653060
 40
9.267106
 40
13.904367
 40
13.904367
 40
13.904367
 40
13.904367
 10
95.914104
 20
177.776187
 30
0.0
 10
94.659536
 20
176.852441
 30
0.0
 10
92.160918
 20
175.012692
 30
0.0
 10
89.635296
 20
170.900329
 30
0.0
 10
89.369335
 20
167.796276
 30
0.0
 10
89.236021
 20
166.240354
 30
0.0
 11
95.914104
 21
177.776187
 31
0.0
 11
92.355948
 21
174.777772
 31
0.0
 11
89.991357
 21
170.815686
 31
0.0
 11
89.236021
 21
166.240354
 31
0.0
  0
SPLINE
  5
147
100
AcDbEntity
  8
0
 62
7
100
AcDbSpline
 70
0
 71
3
 72
10
 73
6
 74
4
 40
0.000000
 40
0.000000
 40
0.000000
 40
0.000000
 40
0.948098
 40
1.896197
 40
2.844295
 40
2.844295
 40
2.844295
 40
2.844295
 10
89.236021
 20
166.240354
 30
0.0
 10
89.393007
 20
165.966069
 30
0.0
 10
89.706979
 20
165.417500
 30
0.0
 10
90.177938
 20
164.594646
 30
0.0
 10
90.491910
 20
164.046076
 30
0.0
 10
90.648896
 20
163.771792
 30
0.0
 11
89.236021
 21
166.240354
 31
0.0
 11
89.706979
 21
165.417500
 31
0.0
 11
90.177938
 21
164.594646
 31
0.0
 11
90.648896
 21
163.771792
 31
0.0
  0
SPLINE
  5
148
100
AcDbEntity
  8
0
 62
7
100
AcDbSpline
 70
0
 71
3
 72
10
 73
6
 74
4
 40
0.000000
 40
0.000000
 40
0.000000
 40
0.000000
 40
0.037590
 40
0.076157
 40
0.112303
 40
0.112303
 40
0.112303
 40
0.112303
 10
90.648896
 20
163.771792
 30
0.0
 10
90.659197
 20
163.764657
 30
0.0
 10
90.680068
 20
163.750204
 30
0.0
 10
90.711811
 20
163.730317
 30
0.0
 10
90.731820
 20
163.715473
 30
0.0
 10
90.741500
 20
163.708292
 30
0.0
 11
90.648896
 21
163.771792
 31
0.0
 11
90.679960
 21
163.750625
 31
0.0
 11
90.712200
 21
163.729458
 31
0.0
 11
90.741500
 21
163.708292
 31
0.0
  0
SPLINE
  5
149
100
AcDbEntity
  8
0
 62
7
100
AcDbSpline
 70
0
 71
3
 72
10
 73
6
 74
4
 40
0.000000
 40
0.000000
 40
0.000000
 40
0.000000
 40
7.404159
 40
14.919080
 40
22.196166
 40
22.196166
 40
22.196166
 40
22.196166
 10
90.741500
 20
163.708292
 30
0.0
 10
91.802591
 20
165.950614
 30
0.0
 10
93.940647
 20
170.468802
 30
0.0
 10
99.142160
 20
175.911178
 30
0.0
 10
103.247473
 20
178.647321
 30
0.0
 10
105.267125
 20
179.993396
 30
0.0
 11
90.741500
 21
163.708292
 31
0.0
 11
94.259282
 21
170.223411
 31
0.0
 11
99.362801
 21
175.739582
 31
0.0
 11
105.267125
 21
179.993396
 31
0.0
  0
SPLINE
  5
14a
100
AcDbEntity
  8
0
 62
7
100
AcDbSpline
 70
0
 71
3
 72
10
 73
6
 74
4
 40
0.000000
 40
0.000000
 40
0.000000
 40
0.000000
 40
2.214668
 40
4.340329
 40
6.553199
 40
6.553199
 40
6.553199
 40
6.553199
 10
105.267125
 20
179.993396
 30
0.0
 10
106.056498
 20
180.153048
 30
0.0
 10
107.603521
 20
180.465937
 30
0.0
 10
109.048215
 20
177.986946
 30
0.0
 10
108.019575
 20
176.792582
 30
0.0
 10
107.494917
 20
176.183396
 30
0.0
 11
105.267125
 21
179.993396
 31
0.0
 11
107.481590
 21
179.963410
 31
0.0
 11
108.552466
 21
178.127201
 31
0.0
 11
107.494917
 21
176.183396
 31
0.0
  0
SPLINE
  5
14b
100
AcDbEntity
  8
0
 62
7
100
AcDbSpline
 70
0
 71
3
 72
10
 73
6
 74
4
 40
0.000000
 40
0.000000
 40
0.000000
 40
0.000000
 40
5.921886
 40
11.803729
 40
17.716839
 40
17.716839
 40
17.716839
 40
17.716839
 10
107.494917
 20
176.183396
 30
0.0
 10
105.837257
 20
175.109017
 30
0.0
 10
102.533147
 20
172.967525
 30
0.0
 10
98.297206
 20
168.724886
 30
0.0
 10
96.454336
 20
165.231882
 30
0.0
 10
95.530458
 20
163.480750
 30
0.0
 11
107.494917
 21
176.183396
 31
0.0
 11
102.643242
 21
172.787812
 31
0.0
 11
98.547688
 21
168.566140
 31
0.0
 11
95.530458
 21
163.480750
 31
0.0
  0
SPLINE
  5
14c
100
AcDbEntity
  8
0
 62
7
100
AcDbSpline
 70
0
 71
3
 72
10
 73
6
 74
4
 40
0.000000
 40
0.000000
 40
0.000000
 40
0.000000
 40
1.638894
 40
3.277943
 40
4.917765
 40
4.917765
 40
4.917765
 40
4.917765
 10
95.530458
 20
163.480750
 30
0.0
 10
95.328519
 20
162.972891
 30
0.0
 10
94.924620
 20
161.957124
 30
0.0
 10
94.468765
 20
160.379510
 30
0.0
 10
94.247008
 20
159.309129
 30
0.0
 10
94.136104
 20
158.773812
 30
0.0
 11
95.530458
 21
163.480750
 31
0.0
 11
94.949649
 21
161.948225
 31
0.0
 11
94.489372
 21
160.375130
 31
0.0
 11
94.136104
 21
158.773812
 31
0.0
  0
SPLINE
  5
14d
100
AcDbEntity
  8
0
 62
7
100
AcDbSpline
 70
0
 71
3
 72
10
 73
6
 74
4
 40
0.000000
 40
0.000000
 40
0.000000
 40
0.000000
 40
0.431775
 40
0.553860
 40
0.896281
 40
0.896281
 40
0.896281
 40
0.896281
 10
94.136104
 20
158.773812
 30
0.0
 10
94.104508
 20
158.633307
 30
0.0
 10
94.063977
 20
158.453073
 30
0.0
 10
94.023256
 20
158.156836
 30
0.0
 10
94.021202
 20
158.001769
 30
0.0
 10
94.019688
 20
157.887458
 30
0.0
 11
94.136104
 21
158.773812
 31
0.0
 11
94.050654
 21
158.350577
 31
0.0
 11
94.034583
 21
158.229555
 31
0.0
 11
94.019688
 21
157.887458
 31
0.0
  0
SPLINE
  5
14e
100
AcDbEntity
  8
0
 62
7
100
AcDbSpline
 70
0
 71
3
 72
10
 73
6
 74
4
 40
0.000000
 40
0.000000
 40
0.000000
 40
0.000000
 40
1.531522
 40
3.063262
 40
4.594784
 40
4.594784
 40
4.594784
 40
4.594784
 10
94.019688
 20
157.887458
 30
0.0
 10
94.273536
 20
157.444538
 30
0.0
 10
94.781270
 20
156.558634
 30
0.0
 10
95.541459
 20
155.229012
 30
0.0
 10
96.049193
 20
154.343108
 30
0.0
 10
96.303042
 20
153.900187
 30
0.0
 11
94.019688
 21
157.887458
 31
0.0
 11
94.781002
 21
156.558564
 31
0.0
 11
95.541728
 21
155.229082
 31
0.0
 11
96.303042
 21
153.900187
 31
0.0
  0
SPLINE
  5
14f
100
AcDbEntity
  8
0
 62
7
100
AcDbSpline
 70
0
 71
3
 72
10
 73
6
 74
4
 40
0.000000
 40
0.000000
 40
0.000000
 40
0.000000
 40
1.742385
 40
3.474562
 40
5.181071
 40
5.181071
 40
5.181071
 40
5.181071
 10
96.303042
 20
153.900187
 30
0.0
 10
96.509914
 20
154.443028
 30
0.0
 10
96.922448
 20
155.525530
 30
0.0
 10
97.646118
 20
157.095172
 30
0.0
 10
98.177277
 20
158.110960
 30
0.0
 10
98.440875
 20
158.615062
 30
0.0
 11
96.303042
 21
153.900187
 31
0.0
 11
96.941961
 21
155.521201
 31
0.0
 11
97.662608
 21
157.096354
 31
0.0
 11
98.440875
 21
158.615062
 31
0.0
  0
SPLINE
  5
150
100
AcDbEntity
  8
0
 62
7
100
AcDbSpline
 70
0
 71
3
 72
10
 73
6
 74
4
 40
0.000000
 40
0.000000
 40
0.000000
 40
0.000000
 40
8.707888
 40
17.419775
 40
26.137782
 40
26.137782
 40
26.137782
 40
26.137782
 10
98.440875
 20
158.615062
 30
0.0
 10
100.002247
 20
161.073884
 30
0.0
 10
103.125707
 20
165.992655
 30
0.0
 10
109.612257
 20
171.956921
 30
0.0
 10
114.520136
 20
175.070540
 30
0.0
 10
116.974938
 20
176.627896
 30
0.0
 11
98.440875
 21
158.615062
 31
0.0
 11
103.424743
 21
165.755677
 31
0.0
 11
109.756222
 21
171.739768
 31
0.0
 11
116.974938
 21
176.627896
 31
0.0
  0
SPLINE
  5
151
100
AcDbEntity
  8
0
 62
7
100
AcDbSpline
 70
0
 71
3
 72
10
 73
6
 74
4
 40
0.000000
 40
0.000000
 40
0.000000
 40
0.000000
 40
2.218264
 40
4.343417
 40
6.554363
 40
6.554363
 40
6.554363
 40
6.554363
 10
116.974938
 20
176.627896
 30
0.0
 10
117.765464
 20
176.786019
 30
0.0
 10
119.313335
 20
177.095627
 30
0.0
 10
120.760559
 20
174.617716
 30
0.0
 10
119.728810
 20
173.425697
 30
0.0
 10
119.202729
 20
172.817896
 30
0.0
 11
116.974938
 21
176.627896
 31
0.0
 11
119.192930
 21
176.593206
 31
0.0
 11
120.263806
 21
174.757586
 31
0.0
 11
119.202729
 21
172.817896
 31
0.0
  0
SPLINE
  5
152
100
AcDbEntity
  8
0
 62
7
100
AcDbSpline
 70
0
 71
3
 72
10
 73
6
 74
4
 40
0.000000
 40
0.000000
 40
0.000000
 40
0.000000
 40
7.975222
 40
15.915883
 40
23.877245
 40
23.877245
 40
23.877245
 40
23.877245
 10
119.202729
 20
172.817896
 30
0.0
 10
116.954982
 20
171.396741
 30
0.0
 10
112.469229
 20
168.560589
 30
0.0
 10
106.530013
 20
163.126254
 30
0.0
 10
103.678492
 20
158.635547
 30
0.0
 10
102.250875
 20
156.387271
 30
0.0
 11
119.202729
 21
172.817896
 31
0.0
 11
112.591772
 21
168.357021
 31
0.0
 11
106.810430
 21
162.913660
 31
0.0
 11
102.250875
 21
156.387271
 31
0.0
  0
SPLINE
  5
153
100
AcDbEntity
  8
0
 62
7
100
AcDbSpline
 70
0
 71
3
 72
10
 73
6
 74
4
 40
0.000000
 40
0.000000
 40
0.000000
 40
0.000000
 40
2.083646
 40
4.163118
 40
6.247196
 40
6.247196
 40
6.247196
 40
6.247196
 10
102.250875
 20
156.387271
 30
0.0
 10
101.934239
 20
155.768923
 30
0.0
 10
101.301600
 20
154.533467
 30
0.0
 10
100.515780
 20
152.600402
 30
0.0
 10
100.125723
 20
151.267848
 30
0.0
 10
99.930479
 20
150.600833
 30
0.0
 11
102.250875
 21
156.387271
 31
0.0
 11
101.328263
 21
154.519019
 31
0.0
 11
100.549702
 21
152.590794
 31
0.0
 11
99.930479
 21
150.600833
 31
0.0
  0
SPLINE
  5
154
100
AcDbEntity
  8
0
 62
7
100
AcDbSpline
 70
0
 71
3
 72
19
 73
15
 74
13
 40
0.000000
 40
0.000000
 40
0.000000
 40
0.000000
 40
0.603620
 40
1.206175
 40
1.809955
 40
1.837226
 40
1.861046
 40
1.883149
 40
1.900022
 40
1.919329
 40
1.941622
 40
2.053281
 40
2.161268
 40
2.267189
 40
2.267189
 40
2.267189
 40
2.267189
 10
99.930479
 20
150.600833
 30
0.0
 10
99.881283
 20
150.405709
 30
0.0
 10
99.782978
 20
150.015804
 30
0.0
 10
99.661939
 20
149.424600
 30
0.0
 10
99.578456
 20
149.022078
 30
0.0
 10
99.536519
 20
148.807775
 30
0.0
 10
99.531589
 20
148.783918
 30
0.0
 10
99.524740
 20
148.763862
 30
0.0
 10
99.525344
 20
148.744259
 30
0.0
 10
99.522708
 20
148.724939
 30
0.0
 10
99.517165
 20
148.674159
 30
0.0
 10
99.506960
 20
148.594086
 30
0.0
 10
99.484503
 20
148.487858
 30
0.0
 10
99.469564
 20
148.418145
 30
0.0
 10
99.462167
 20
148.383625
 30
0.0
 11
99.930479
 21
150.600833
 31
0.0
 11
99.787310
 21
150.014438
 31
0.0
 11
99.661780
 21
149.425103
 31
0.0
 11
99.541542
 21
148.833417
 31
0.0
 11
99.536250
 21
148.806664
 31
0.0
 11
99.530958
 21
148.783440
 31
0.0
 11
99.525667
 21
148.761979
 31
0.0
 11
99.524883
 21
148.745124
 31
0.0
 11
99.522923
 21
148.725917
 31
0.0
 11
99.520375
 21
148.703771
 31
0.0
 11
99.505284
 21
148.593136
 31
0.0
 11
99.484313
 21
148.487204
 31
0.0
 11
99.462167
 21
148.383625
 31
0.0
  0
SPLINE
  5
155
100
AcDbEntity
  8
0
 62
7
100
AcDbSpline
 70
0
 71
3
 72
10
 73
6
 74
4
 40
0.000000
 40
0.000000
 40
0.000000
 40
0.000000
 40
0.544552
 40
1.088886
 40
1.634315
 40
1.634315
 40
1.634315
 40
1.634315
 10
99.462167
 20
148.383625
 30
0.0
 10
99.552110
 20
148.225958
 30
0.0
 10
99.731960
 20
147.910688
 30
0.0
 10
100.002761
 20
147.437990
 30
0.0
 10
100.183818
 20
147.123074
 30
0.0
 10
100.274438
 20
146.965458
 30
0.0
 11
99.462167
 21
148.383625
 31
0.0
 11
99.732140
 21
147.910707
 31
0.0
 11
100.002701
 21
147.438377
 31
0.0
 11
100.274438
 21
146.965458
 31
0.0
  0
LWPOLYLINE
  5
156
100
AcDbEntity
  8
0
 62
7
100
AcDbPolyline
 90
5
 70
0
 10
52.136146
 20
132.042958
 30
0.0
 10
86.497583
 20
132.225521
 30
0.0
 10
82.536771
 20
135.117417
 30
0.0
 10
88.857667
 20
146.081750
 30
0.0
 10
94.980125
 20
143.390938
 30
0.0
  0
SPLINE
  5
157
100
AcDbEntity
  8
0
 62
7
100
AcDbSpline
 70
0
 71
3
 72
10
 73
6
 74
4
 40
0.000000
 40
0.000000
 40
0.000000
 40
0.000000
 40
1.076816
 40
2.158122
 40
3.243619
 40
3.243619
 40
3.243619
 40
3.243619
 10
100.274438
 20
146.965458
 30
0.0
 10
100.599086
 20
147.118638
 30
0.0
 10
101.249735
 20
147.425637
 30
0.0
 10
102.251413
 20
147.834708
 30
0.0
 10
102.935002
 20
148.068210
 30
0.0
 10
103.277458
 20
148.185187
 30
0.0
 11
100.274438
 21
146.965458
 31
0.0
 11
101.252318
 21
147.416328
 31
0.0
 11
102.253717
 21
147.824276
 31
0.0
 11
103.277458
 21
148.185187
 31
0.0
  0
LWPOLYLINE
  5
158
100
AcDbEntity
  8
0
 62
7
100
AcDbPolyline
 90
5
 70
0
 10
103.277458
 20
148.185187
 30
0.0
 10
104.018292
 20
154.826229
 30
0.0
 10
116.660083
 20
154.826229
 30
0.0
 10
117.295083
 20
149.137687
 30
0.0
 10
135.180917
 20
180.474937
 30
0.0
  0
SPLINE
  5
159
100
AcDbEntity
  8
0
 62
7
100
AcDbSpline
 70
0
 71
3
 72
10
 73
6
 74
4
 40
0.000000
 40
0.000000
 40
0.000000
 40
0.000000
 40
1.902983
 40
3.748997
 40
5.651144
 40
5.651144
 40
5.651144
 40
5.651144
 10
135.180917
 20
180.474937
 30
0.0
 10
135.409789
 20
181.078500
 30
0.0
 10
135.860683
 20
182.267556
 30
0.0
 10
135.321661
 20
184.242468
 30
0.0
 10
134.327917
 20
185.035876
 30
0.0
 10
133.823604
 20
185.438521
 30
0.0
 11
135.180917
 21
180.474937
 31
0.0
 11
135.659225
 21
182.316829
 31
0.0
 11
135.172685
 21
184.097573
 31
0.0
 11
133.823604
 21
185.438521
 31
0.0
  0
LWPOLYLINE
  5
15a
100
AcDbEntity
  8
0
 62
7
100
AcDbPolyline
 90
2
 70
0
 10
133.823604
 20
185.438521
 30
0.0
 10
109.214708
 20
199.485250
 30
0.0
  0
SPLINE
  5
15b
100
AcDbEntity
  8
0
 62
7
100
AcDbSpline
 70
0
 71
3
 72
10
 73
6
 74
4
 40
0.000000
 40
0.000000
 40
0.000000
 40
0.000000
 40
1.270269
 40
2.521569
 40
3.790950
 40
3.790950
 40
3.790950
 40
3.790950
 10
109.214708
 20
199.485250
 30
0.0
 10
108.824426
 20
199.657153
 30
0.0
 10
108.049690
 20
199.998392
 30
0.0
 10
106.735841
 20
199.991451
 30
0.0
 10
105.964915
 20
199.642471
 30
0.0
 10
105.576688
 20
199.466729
 30
0.0
 11
109.214708
 21
199.485250
 31
0.0
 11
108.018694
 21
199.913189
 31
0.0
 11
106.767410
 21
199.906623
 31
0.0
 11
105.576688
 21
199.466729
 31
0.0
  0
LWPOLYLINE
  5
15c
100
AcDbEntity
  8
0
 62
7
100
AcDbPolyline
 90
2
 70
0
 10
105.576688
 20
199.466729
 30
0.0
 10
50.141188
 20
167.089667
 30
0.0
  0
SPLINE
  5
15d
100
AcDbEntity
  8
0
 62
7
100
AcDbSpline
 70
0
 71
3
 72
10
 73
6
 74
4
 40
0.000000
 40
0.000000
 40
0.000000
 40
0.000000
 40
1.269595
 40
2.520939
 40
3.790082
 40
3.790082
 40
3.790082
 40
3.790082
 10
50.141188
 20
167.089667
 30
0.0
 10
49.797619
 20
166.837459
 30
0.0
 10
49.115421
 20
166.336670
 30
0.0
 10
48.463896
 20
165.196392
 30
0.0
 10
48.379317
 20
164.354474
 30
0.0
 10
48.336729
 20
163.930542
 30
0.0
 11
50.141188
 21
167.089667
 31
0.0
 11
49.173596
 21
166.267694
 31
0.0
 11
48.552904
 21
165.181139
 31
0.0
 11
48.336729
 21
163.930542
 31
0.0
  0
LWPOLYLINE
  5
15e
100
AcDbEntity
  8
0
 62
7
100
AcDbPolyline
 90
2
 70
0
 10
48.336729
 20
163.930542
 30
0.0
 10
48.476958
 20
135.665104
 30
0.0
  0
LWPOLYLINE
  5
15f
100
AcDbEntity
  8
0
 62
7
100
AcDbPolyline
 90
1
 70
1
 10
52.136146
 20
132.042958
 30
0.0
  0
SPLINE
  5
160
100
AcDbEntity
  8
0
 62
7
100
AcDbSpline
 70
0
 71
3
 72
10
 73
6
 74
4
 40
0.000000
 40
0.000000
 40
0.000000
 40
0.000000
 40
1.903753
 40
3.750827
 40
5.654346
 40
5.654346
 40
5.654346
 40
5.654346
 10
48.476958
 20
135.665104
 30
0.0
 10
48.580390
 20
135.027638
 30
0.0
 10
48.784174
 20
133.771684
 30
0.0
 10
50.239701
 20
132.330502
 30
0.0
 10
51.497687
 20
132.139763
 30
0.0
 10
52.136146
 20
132.042958
 30
0.0
 11
48.476958
 21
135.665104
 31
0.0
 11
48.983488
 21
133.829974
 31
0.0
 11
50.296116
 21
132.530478
 31
0.0
 11
52.136146
 21
132.042958
 31
0.0
  0
LWPOLYLINE
  5
161
100
AcDbEntity
  8
0
 62
7
100
AcDbPolyline
 90
5
 70
0
 10
122.118437
 20
96.385062
 30
0.0
 10
117.400917
 20
104.552750
 30
0.0
 10
116.662729
 20
97.935521
 30
0.0
 10
104.020938
 20
97.935521
 30
0.0
 10
103.280104
 20
104.576562
 30
0.0
  0
SPLINE
  5
162
100
AcDbEntity
  8
0
 62
7
100
AcDbSpline
 70
0
 71
3
 72
10
 73
6
 74
4
 40
0.000000
 40
0.000000
 40
0.000000
 40
0.000000
 40
3.242247
 40
6.451653
 40
9.643544
 40
9.643544
 40
9.643544
 40
9.643544
 10
103.280104
 20
104.576562
 30
0.0
 10
102.265684
 20
104.952768
 30
0.0
 10
100.247119
 20
105.701370
 30
0.0
 10
97.446591
 20
107.321882
 30
0.0
 10
95.802545
 20
108.685552
 30
0.0
 10
94.982771
 20
109.365521
 30
0.0
 11
103.280104
 21
104.576562
 31
0.0
 11
100.273458
 21
105.789922
 31
0.0
 11
97.495529
 21
107.397217
 31
0.0
 11
94.982771
 21
109.365521
 31
0.0
  0
LWPOLYLINE
  5
163
100
AcDbEntity
  8
0
 62
7
100
AcDbPolyline
 90
4
 70
0
 10
94.982771
 20
109.365521
 30
0.0
 10
88.860312
 20
106.674708
 30
0.0
 10
82.539417
 20
117.639042
 30
0.0
 10
87.947500
 20
121.589271
 30
0.0
  0
SPLINE
  5
164
100
AcDbEntity
  8
0
 62
7
100
AcDbSpline
 70
0
 71
3
 72
10
 73
6
 74
4
 40
0.000000
 40
0.000000
 40
0.000000
 40
0.000000
 40
0.106528
 40
0.213993
 40
0.320197
 40
0.320197
 40
0.320197
 40
0.320197
 10
87.947500
 20
121.589271
 30
0.0
 10
87.940595
 20
121.624103
 30
0.0
 10
87.926724
 20
121.694074
 30
0.0
 10
87.907977
 20
121.799151
 30
0.0
 10
87.895496
 20
121.869272
 30
0.0
 10
87.889292
 20
121.904125
 30
0.0
 11
87.947500
 21
121.589271
 31
0.0
 11
87.927117
 21
121.693830
 31
0.0
 11
87.907910
 21
121.799566
 31
0.0
 11
87.889292
 21
121.904125
 31
0.0
  0
LWPOLYLINE
  5
165
100
AcDbEntity
  8
0
 62
7
100
AcDbPolyline
 90
2
 70
0
 10
87.889292
 20
121.904125
 30
0.0
 10
51.956229
 20
121.904125
 30
0.0
  0
SPLINE
  5
166
100
AcDbEntity
  8
0
 62
7
100
AcDbSpline
 70
0
 71
3
 72
10
 73
6
 74
4
 40
0.000000
 40
0.000000
 40
0.000000
 40
0.000000
 40
1.902923
 40
3.748588
 40
5.650222
 40
5.650222
 40
5.650222
 40
5.650222
 10
51.956229
 20
121.904125
 30
0.0
 10
51.318474
 20
121.804052
 30
0.0
 10
50.062153
 20
121.606917
 30
0.0
 10
48.615216
 20
120.159210
 30
0.0
 10
48.418192
 20
118.903392
 30
0.0
 10
48.318208
 20
118.266104
 30
0.0
 11
51.956229
 21
121.904125
 31
0.0
 11
50.119335
 21
121.407198
 31
0.0
 11
48.814547
 21
120.101823
 31
0.0
 11
48.318208
 21
118.266104
 31
0.0
  0
SPLINE
  5
167
100
AcDbEntity
  8
0
 62
7
100
AcDbSpline
 70
0
 71
3
 72
10
 73
6
 74
4
 40
0.000000
 40
0.000000
 40
0.000000
 40
0.000000
 40
15.845954
 40
31.616084
 40
47.452348
 40
47.452348
 40
47.452348
 40
47.452348
 10
48.318208
 20
105.378250
 30
0.0
 10
53.559405
 20
104.677953
 30
0.0
 10
64.016718
 20
103.280711
 30
0.0
 10
79.138295
 20
98.071664
 30
0.0
 10
88.019390
 20
92.352793
 30
0.0
 10
92.469229
 20
89.487375
 30
0.0
 11
48.318208
 21
105.378250
 31
0.0
 11
63.945774
 21
102.756523
 31
0.0
 11
78.820747
 21
97.518949
 31
0.0
 11
92.469229
 21
89.487375
 31
0.0
  0
LWPOLYLINE
  5
168
100
AcDbEntity
  8
0
 62
7
100
AcDbPolyline
 90
2
 70
0
 10
48.318208
 20
118.266104
 30
0.0
 10
48.318208
 20
105.378250
 30
0.0
  0
SPLINE
  5
169
100
AcDbEntity
  8
0
 62
7
100
AcDbSpline
 70
0
 71
3
 72
10
 73
6
 74
4
 40
0.000000
 40
0.000000
 40
0.000000
 40
0.000000
 40
10.147101
 40
20.316807
 40
30.511337
 40
30.511337
 40
30.511337
 40
30.511337
 10
92.469229
 20
89.487375
 30
0.0
 10
95.670565
 20
90.583729
 30
0.0
 10
102.080369
 20
92.778879
 30
0.0
 10
112.015468
 20
95.061365
 30
0.0
 10
118.748045
 20
95.943471
 30
0.0
 10
122.118437
 20
96.385063
 30
0.0
 11
92.469229
 21
89.487375
 31
0.0
 11
102.124561
 21
92.607988
 31
0.0
 11
112.032717
 21
94.899574
 31
0.0
 11
122.118437
 21
96.385063
 31
0.0
  0
SPLINE
  5
16a
100
AcDbEntity
  8
0
 62
7
100
AcDbSpline
 70
0
 71
3
 72
10
 73
6
 74
4
 40
0.000000
 40
0.000000
 40
0.000000
 40
0.000000
 40
10.335960
 40
20.606210
 40
30.958175
 40
30.958175
 40
30.958175
 40
30.958175
 10
134.921625
 20
74.226208
 30
0.0
 10
131.478879
 20
74.014921
 30
0.0
 10
124.615275
 20
73.593689
 30
0.0
 10
114.531109
 20
70.940533
 30
0.0
 10
108.444298
 20
67.711290
 30
0.0
 10
105.388833
 20
66.090271
 30
0.0
 11
134.921625
 21
74.226208
 31
0.0
 11
124.631489
 21
73.254012
 31
0.0
 11
114.714122
 21
70.584954
 31
0.0
 11
105.388833
 21
66.090271
 31
0.0
  0
SPLINE
  5
16b
100
AcDbEntity
  8
0
 62
7
100
AcDbSpline
 70
0
 71
3
 72
10
 73
6
 74
4
 40
0.000000
 40
0.000000
 40
0.000000
 40
0.000000
 40
2.198002
 40
4.323368
 40
6.553061
 40
6.553061
 40
6.553061
 40
6.553061
 10
105.388833
 20
66.090271
 30
0.0
 10
104.604718
 20
65.920836
 30
0.0
 10
103.062399
 20
65.587566
 30
0.0
 10
101.629773
 20
68.073567
 30
0.0
 10
102.642532
 20
69.281722
 30
0.0
 10
103.161042
 20
69.900271
 30
0.0
 11
105.388833
 21
66.090271
 31
0.0
 11
103.190832
 21
66.092035
 31
0.0
 11
102.120543
 21
67.928243
 31
0.0
 11
103.161042
 21
69.900271
 31
0.0
  0
LWPOLYLINE
  5
16c
100
AcDbEntity
  8
0
 62
7
100
AcDbPolyline
 90
1
 70
1
 10
122.118437
 20
96.385063
 30
0.0
  0
SPLINE
  5
16d
100
AcDbEntity
  8
0
 62
7
100
AcDbSpline
 70
0
 71
3
 72
10
 73
6
 74
4
 40
0.000000
 40
0.000000
 40
0.000000
 40
0.000000
 40
10.291979
 40
20.524218
 40
30.791363
 40
30.791363
 40
30.791363
 40
30.791363
 10
103.161042
 20
69.900271
 30
0.0
 10
106.191425
 20
71.523002
 30
0.0
 10
112.234601
 20
74.759046
 30
0.0
 10
122.194385
 20
77.602368
 30
0.0
 10
129.004943
 20
78.238720
 30
0.0
 10
132.416021
 20
78.557437
 30
0.0
 11
103.161042
 21
69.900271
 31
0.0
 11
112.401958
 21
74.431309
 31
0.0
 11
122.227897
 21
77.286066
 31
0.0
 11
132.416021
 21
78.557437
 31
0.0
  0
SPLINE
  5
16e
100
AcDbEntity
  8
0
 62
7
100
AcDbSpline
 70
0
 71
3
 72
10
 73
6
 74
4
 40
0.000000
 40
0.000000
 40
0.000000
 40
0.000000
 40
12.427641
 40
24.785233
 40
37.227927
 40
37.227927
 40
37.227927
 40
37.227927
 10
129.534708
 20
83.542187
 30
0.0
 10
125.413215
 20
83.078338
 30
0.0
 10
117.193458
 20
82.153254
 30
0.0
 10
105.252996
 20
78.322096
 30
0.0
 10
98.146197
 20
74.061794
 30
0.0
 10
94.580604
 20
71.924333
 30
0.0
 11
129.534708
 21
83.542187
 31
0.0
 11
117.238149
 21
81.741943
 31
0.0
 11
105.490747
 21
77.906758
 31
0.0
 11
94.580604
 21
71.924333
 31
0.0
  0
SPLINE
  5
16f
100
AcDbEntity
  8
0
 62
7
100
AcDbSpline
 70
0
 71
3
 72
10
 73
6
 74
4
 40
0.000000
 40
0.000000
 40
0.000000
 40
0.000000
 40
2.143615
 40
4.269027
 40
6.543228
 40
6.543228
 40
6.543228
 40
6.543228
 10
94.580604
 20
71.924333
 30
0.0
 10
93.814722
 20
71.727466
 30
0.0
 10
92.289461
 20
71.335403
 30
0.0
 10
90.896946
 20
73.842195
 30
0.0
 10
91.856704
 20
75.089559
 30
0.0
 10
92.352812
 20
75.734333
 30
0.0
 11
94.580604
 21
71.924333
 31
0.0
 11
92.438459
 21
71.844958
 31
0.0
 11
91.371110
 21
73.682931
 31
0.0
 11
92.352812
 21
75.734333
 31
0.0
  0
LWPOLYLINE
  5
170
100
AcDbEntity
  8
0
 62
7
100
AcDbPolyline
 90
2
 70
0
 10
132.416021
 20
78.557437
 30
0.0
 10
129.534708
 20
83.542187
 30
0.0
  0
SPLINE
  5
171
100
AcDbEntity
  8
0
 62
7
100
AcDbSpline
 70
0
 71
3
 72
10
 73
6
 74
4
 40
0.000000
 40
0.000000
 40
0.000000
 40
0.000000
 40
12.402620
 40
24.738405
 40
37.119251
 40
37.119251
 40
37.119251
 40
37.119251
 10
92.352812
 20
75.734333
 30
0.0
 10
95.902487
 20
77.870876
 30
0.0
 10
102.982707
 20
82.132447
 30
0.0
 10
114.830537
 20
86.088326
 30
0.0
 10
123.002047
 20
87.203625
 30
0.0
 10
127.095250
 20
87.762292
 30
0.0
 11
92.352812
 21
75.734333
 31
0.0
 11
103.206903
 21
81.735475
 31
0.0
 11
114.886493
 21
85.705205
 31
0.0
 11
127.095250
 21
87.762292
 31
0.0
  0
LWPOLYLINE
  5
172
100
AcDbEntity
  8
0
 62
7
100
AcDbPolyline
 90
2
 70
0
 10
127.095250
 20
87.762292
 30
0.0
 10
124.526146
 20
92.207292
 30
0.0
  0
SPLINE
  5
173
100
AcDbEntity
  8
0
 62
7
100
AcDbSpline
 70
0
 71
3
 72
10
 73
6
 74
4
 40
0.000000
 40
0.000000
 40
0.000000
 40
0.000000
 40
18.703553
 40
37.320001
 40
55.982456
 40
55.982456
 40
55.982456
 40
55.982456
 10
124.526146
 20
92.207292
 30
0.0
 10
118.341387
 20
91.368571
 30
0.0
 10
106.000673
 20
89.695037
 30
0.0
 10
88.142096
 20
83.698695
 30
0.0
 10
77.468701
 20
77.285800
 30
0.0
 10
72.125417
 20
74.075396
 30
0.0
 11
124.526146
 21
92.207292
 31
0.0
 11
106.081258
 21
89.107453
 31
0.0
 11
88.460694
 21
83.100137
 31
0.0
 11
72.125417
 21
74.075396
 31
0.0
  0
LWPOLYLINE
  5
174
100
AcDbEntity
  8
0
 62
7
100
AcDbPolyline
 90
2
 70
0
 10
72.125417
 20
74.075396
 30
0.0
 10
105.724854
 20
54.676146
 30
0.0
  0
SPLINE
  5
175
100
AcDbEntity
  8
0
 62
7
100
AcDbSpline
 70
0
 71
3
 72
10
 73
6
 74
4
 40
0.000000
 40
0.000000
 40
0.000000
 40
0.000000
 40
1.269532
 40
2.521403
 40
3.790935
 40
3.790935
 40
3.790935
 40
3.790935
 10
105.724854
 20
54.676146
 30
0.0
 10
106.114011
 20
54.502336
 30
0.0
 10
106.886911
 20
54.157133
 30
0.0
 10
108.200818
 20
54.157133
 30
0.0
 10
108.973718
 20
54.502336
 30
0.0
 10
109.362875
 20
54.676146
 30
0.0
 11
105.724854
 21
54.676146
 31
0.0
 11
106.917929
 21
54.242229
 31
0.0
 11
108.169800
 21
54.242229
 31
0.0
 11
109.362875
 21
54.676146
 31
0.0
  0
LWPOLYLINE
  5
176
100
AcDbEntity
  8
0
 62
7
100
AcDbPolyline
 90
2
 70
0
 10
109.362875
 20
54.676146
 30
0.0
 10
133.842125
 20
68.807542
 30
0.0
  0
LWPOLYLINE
  5
177
100
AcDbEntity
  8
0
 62
7
100
AcDbPolyline
 90
2
 70
0
 10
135.172979
 20
73.779062
 30
0.0
 10
134.921625
 20
74.226208
 30
0.0
  0
SPLINE
  5
178
100
AcDbEntity
  8
0
 62
7
100
AcDbSpline
 70
0
 71
3
 72
10
 73
6
 74
4
 40
0.000000
 40
0.000000
 40
0.000000
 40
0.000000
 40
1.902905
 40
3.749069
 40
5.652132
 40
5.652132
 40
5.652132
 40
5.652132
 10
133.842125
 20
68.807542
 30
0.0
 10
134.344355
 20
69.213125
 30
0.0
 10
135.333839
 20
70.012198
 30
0.0
 10
135.863132
 20
71.990136
 30
0.0
 10
135.405346
 20
73.176751
 30
0.0
 10
135.172979
 20
73.779062
 30
0.0
 11
133.842125
 21
68.807542
 31
0.0
 11
135.184346
 21
70.156427
 31
0.0
 11
135.661674
 21
71.939816
 31
0.0
 11
135.172979
 21
73.779062
 31
0.0
  0
SPLINE
  5
179
100
AcDbEntity
  8
0
 62
7
100
AcDbSpline
 70
0
 71
3
 72
10
 73
6
 74
4
 40
0.000000
 40
0.000000
 40
0.000000
 40
0.000000
 40
9.399304
 40
18.765088
 40
28.188951
 40
28.188951
 40
28.188951
 40
28.188951
 10
48.315563
 20
96.901000
 30
0.0
 10
51.417733
 20
96.440970
 30
0.0
 10
57.611012
 20
95.522551
 30
0.0
 10
66.586354
 20
92.471566
 30
0.0
 10
71.970376
 20
89.247178
 30
0.0
 10
74.670708
 20
87.630000
 30
0.0
 11
48.315563
 21
96.901000
 31
0.0
 11
57.567258
 21
95.241769
 31
0.0
 11
66.419138
 21
92.182009
 31
0.0
 11
74.670708
 21
87.630000
 31
0.0
  0
SPLINE
  5
17a
100
AcDbEntity
  8
0
 62
7
100
AcDbSpline
 70
0
 71
3
 72
10
 73
6
 74
4
 40
0.000000
 40
0.000000
 40
0.000000
 40
0.000000
 40
2.271961
 40
4.397751
 40
6.546425
 40
6.546425
 40
6.546425
 40
6.546425
 10
74.670708
 20
87.630000
 30
0.0
 10
75.169852
 20
86.987154
 30
0.0
 10
76.136025
 20
85.742822
 30
0.0
 10
74.737179
 20
83.238046
 30
0.0
 10
73.210395
 20
83.625324
 30
0.0
 10
72.442917
 20
83.820000
 30
0.0
 11
74.670708
 21
87.630000
 31
0.0
 11
75.659466
 21
85.584477
 31
0.0
 11
74.590353
 21
83.747093
 31
0.0
 11
72.442917
 21
83.820000
 31
0.0
  0
LWPOLYLINE
  5
17b
100
AcDbEntity
  8
0
 62
7
100
AcDbPolyline
 90
2
 70
0
 10
48.315563
 20
100.962354
 30
0.0
 10
48.315563
 20
96.901000
 30
0.0
  0
SPLINE
  5
17c
100
AcDbEntity
  8
0
 62
7
100
AcDbSpline
 70
0
 71
3
 72
10
 73
6
 74
4
 40
0.000000
 40
0.000000
 40
0.000000
 40
0.000000
 40
8.659402
 40
17.241307
 40
25.858334
 40
25.858334
 40
25.858334
 40
25.858334
 10
72.442917
 20
83.820000
 30
0.0
 10
69.965342
 20
85.311264
 30
0.0
 10
65.032365
 20
88.280447
 30
0.0
 10
56.824609
 20
91.146612
 30
0.0
 10
51.154007
 20
92.029520
 30
0.0
 10
48.312917
 20
92.471875
 30
0.0
 11
72.442917
 21
83.820000
 31
0.0
 11
64.874069
 21
88.026875
 31
0.0
 11
56.783111
 21
90.887903
 31
0.0
 11
48.312917
 21
92.471875
 31
0.0
  0
LWPOLYLINE
  5
17d
100
AcDbEntity
  8
0
 62
7
100
AcDbPolyline
 90
2
 70
0
 10
48.312917
 20
92.471875
 30
0.0
 10
48.312917
 20
89.929229
 30
0.0
  0
SPLINE
  5
17e
100
AcDbEntity
  8
0
 62
7
100
AcDbSpline
 70
0
 71
3
 72
10
 73
6
 74
4
 40
0.000000
 40
0.000000
 40
0.000000
 40
0.000000
 40
1.269187
 40
2.520873
 40
3.791663
 40
3.791663
 40
3.791663
 40
3.791663
 10
48.312917
 20
89.929229
 30
0.0
 10
48.357259
 20
89.505455
 30
0.0
 10
48.445332
 20
88.663749
 30
0.0
 10
49.102582
 20
87.525954
 30
0.0
 10
49.787964
 20
87.028601
 30
0.0
 10
50.133250
 20
86.778042
 30
0.0
 11
48.312917
 21
89.929229
 31
0.0
 11
48.534383
 21
88.679514
 31
0.0
 11
49.160367
 21
87.595604
 31
0.0
 11
50.133250
 21
86.778042
 31
0.0
  0
SPLINE
  5
17f
100
AcDbEntity
  8
0
 62
7
100
AcDbSpline
 70
0
 71
3
 72
10
 73
6
 74
4
 40
0.000000
 40
0.000000
 40
0.000000
 40
0.000000
 40
7.556219
 40
15.078325
 40
22.585049
 40
22.585049
 40
22.585049
 40
22.585049
 10
67.923833
 20
76.506917
 30
0.0
 10
70.004302
 20
77.928109
 30
0.0
 10
74.155848
 20
80.764077
 30
0.0
 10
80.739625
 20
84.442289
 30
0.0
 10
85.304780
 20
86.508162
 30
0.0
 10
87.585021
 20
87.540042
 30
0.0
 11
67.923833
 21
76.506917
 31
0.0
 11
74.226502
 21
80.674986
 31
0.0
 11
80.790227
 21
84.349167
 31
0.0
 11
87.585021
 21
87.540042
 31
0.0
  0
LWPOLYLINE
  5
180
100
AcDbEntity
  8
0
 62
7
100
AcDbPolyline
 90
2
 70
0
 10
50.133250
 20
86.778042
 30
0.0
 10
67.923833
 20
76.506917
 30
0.0
  0
LWPOLYLINE
  5
181
100
AcDbEntity
  8
0
 62
7
100
AcDbPolyline
 90
1
 70
1
 10
48.315563
 20
100.962354
 30
0.0
  0
LWPOLYLINE
  5
182
100
AcDbEntity
  8
0
 62
7
100
AcDbPolyline
 90
4
 70
1
 10
103.399164
 20
140.374685
 30
0.0
 10
104.814685
 20
140.374685
 30
0.0
 10
104.814685
 20
136.839852
 30
0.0
 10
103.399164
 20
136.839852
 30
0.0
  0
LWPOLYLINE
  5
183
100
AcDbEntity
  8
0
 62
7
100
AcDbPolyline
 90
4
 70
1
 10
107.555773
 20
140.374685
 30
0.0
 10
108.971294
 20
140.374685
 30
0.0
 10
108.971294
 20
136.839852
 30
0.0
 10
107.555773
 20
136.839852
 30
0.0
  0
LWPOLYLINE
  5
184
100
AcDbEntity
  8
0
 62
7
100
AcDbPolyline
 90
4
 70
1
 10
111.712375
 20
140.374685
 30
0.0
 10
113.127896
 20
140.374685
 30
0.0
 10
113.127896
 20
136.839852
 30
0.0
 10
111.712375
 20
136.839852
 30
0.0
  0
LWPOLYLINE
  5
185
100
AcDbEntity
  8
0
 62
7
100
AcDbPolyline
 90
4
 70
1
 10
115.868977
 20
140.374685
 30
0.0
 10
117.284497
 20
140.374685
 30
0.0
 10
117.284497
 20
136.839852
 30
0.0
 10
115.868977
 20
136.839852
 30
0.0
  0
LWPOLYLINE
  5
186
100
AcDbEntity
  8
0
 62
7
100
AcDbPolyline
 90
4
 70
1
 10
103.399164
 20
115.919250
 30
0.0
 10
104.814685
 20
115.919250
 30
0.0
 10
104.814685
 20
112.384417
 30
0.0
 10
103.399164
 20
112.384417
 30
0.0
  0
LWPOLYLINE
  5
187
100
AcDbEntity
  8
0
 62
7
100
AcDbPolyline
 90
4
 70
1
 10
107.555773
 20
115.919250
 30
0.0
 10
108.971294
 20
115.919250
 30
0.0
 10
108.971294
 20
112.384417
 30
0.0
 10
107.555773
 20
112.384417
 30
0.0
  0
LWPOLYLINE
  5
188
100
AcDbEntity
  8
0
 62
7
100
AcDbPolyline
 90
4
 70
1
 10
111.712375
 20
115.919250
 30
0.0
 10
113.127896
 20
115.919250
 30
0.0
 10
113.127896
 20
112.384417
 30
0.0
 10
111.712375
 20
112.384417
 30
0.0
  0
LWPOLYLINE
  5
189
100
AcDbEntity
  8
0
 62
7
100
AcDbPolyline
 90
4
 70
1
 10
115.868977
 20
115.919250
 30
0.0
 10
117.284497
 20
115.919250
 30
0.0
 10
117.284497
 20
112.384417
 30
0.0
 10
115.868977
 20
112.384417
 30
0.0
  0
LWPOLYLINE
  5
18a
100
AcDbEntity
  8
0
 62
7
100
AcDbPolyline
 90
4
 70
1
 10
96.348018
 20
120.851086
 30
0.0
 10
99.882852
 20
120.851086
 30
0.0
 10
99.882852
 20
119.435565
 30
0.0
 10
96.348018
 20
119.435565
 30
0.0
  0
LWPOLYLINE
  5
18b
100
AcDbEntity
  8
0
 62
7
100
AcDbPolyline
 90
4
 70
1
 10
96.348018
 20
125.007688
 30
0.0
 10
99.882852
 20
125.007688
 30
0.0
 10
99.882852
 20
123.592167
 30
0.0
 10
96.348018
 20
123.592167
 30
0.0
  0
LWPOLYLINE
  5
18c
100
AcDbEntity
  8
0
 62
7
100
AcDbPolyline
 90
4
 70
1
 10
96.348018
 20
129.164289
 30
0.0
 10
99.882852
 20
129.164289
 30
0.0
 10
99.882852
 20
127.748768
 30
0.0
 10
96.348018
 20
127.748768
 30
0.0
  0
LWPOLYLINE
  5
18d
100
AcDbEntity
  8
0
 62
7
100
AcDbPolyline
 90
4
 70
1
 10
96.348018
 20
133.320898
 30
0.0
 10
99.882852
 20
133.320898
 30
0.0
 10
99.882852
 20
131.905378
 30
0.0
 10
96.348018
 20
131.905378
 30
0.0
  0
LWPOLYLINE
  5
18e
100
AcDbEntity
  8
0
 62
7
100
AcDbPolyline
 90
4
 70
1
 10
120.800815
 20
120.851086
 30
0.0
 10
124.335648
 20
120.851086
 30
0.0
 10
124.335648
 20
119.435565
 30
0.0
 10
120.800815
 20
119.435565
 30
0.0
  0
LWPOLYLINE
  5
18f
100
AcDbEntity
  8
0
 62
7
100
AcDbPolyline
 90
4
 70
1
 10
120.800815
 20
125.007688
 30
0.0
 10
124.335648
 20
125.007688
 30
0.0
 10
124.335648
 20
123.592167
 30
0.0
 10
120.800815
 20
123.592167
 30
0.0
  0
SPLINE
  5
190
100
AcDbEntity
  8
0
 62
7
100
AcDbSpline
 70
0
 71
3
 72
10
 73
6
 74
4
 40
0.000000
 40
0.000000
 40
0.000000
 40
0.000000
 40
13.964107
 40
27.889890
 40
41.894128
 40
41.894128
 40
41.894128
 40
41.894128
 10
87.585021
 20
87.540042
 30
0.0
 10
83.574591
 20
89.921165
 30
0.0
 10
75.564739
 20
94.676877
 30
0.0
 10
62.187100
 20
99.118860
 30
0.0
 10
52.948059
 20
100.346706
 30
0.0
 10
48.315563
 20
100.962354
 30
0.0
 11
87.585021
 21
87.540042
 31
0.0
 11
75.329129
 21
94.232530
 31
0.0
 11
62.132496
 21
98.679588
 31
0.0
 11
48.315563
 21
100.962354
 31
0.0
  0
SPLINE
  5
191
100
AcDbEntity
  8
0
 62
7
100
AcDbSpline
 70
0
 71
3
 72
16
 73
12
 74
10
 40
0.000000
 40
0.000000
 40
0.000000
 40
0.000000
 40
0.854634
 40
1.684476
 40
2.539110
 40
3.393744
 40
4.223586
 40
5.078220
 40
5.932854
 40
6.762696
 40
7.617330
 40
7.617330
 40
7.617330
 40
7.617330
 10
151.487187
 20
156.485167
 30
0.0
 10
151.442143
 20
156.773284
 30
0.0
 10
151.353359
 20
157.341160
 30
0.0
 10
150.702516
 20
157.966205
 30
0.0
 10
149.853566
 20
158.198494
 30
0.0
 10
148.995681
 20
157.966106
 30
0.0
 10
148.371123
 20
157.341548
 30
0.0
 10
148.138735
 20
156.483663
 30
0.0
 10
148.371024
 20
155.634713
 30
0.0
 10
148.996069
 20
154.983870
 30
0.0
 10
149.563945
 20
154.895087
 30
0.0
 10
149.852062
 20
154.850042
 30
0.0
 11
151.487187
 21
156.485167
 31
0.0
 11
151.263762
 21
157.310079
 31
0.0
 11
150.676975
 21
157.896866
 31
0.0
 11
149.852063
 21
158.120292
 31
0.0
 11
149.027150
 21
157.896866
 31
0.0
 11
148.440363
 21
157.310079
 31
0.0
 11
148.216938
 21
156.485167
 31
0.0
 11
148.440363
 21
155.660255
 31
0.0
 11
149.027150
 21
155.073468
 31
0.0
 11
149.852063
 21
154.850042
 31
0.0
  0
LWPOLYLINE
  5
192
100
AcDbEntity
  8
0
 62
7
100
AcDbPolyline
 90
4
 70
1
 10
120.800815
 20
133.320898
 30
0.0
 10
124.335648
 20
133.320898
 30
0.0
 10
124.335648
 20
131.905378
 30
0.0
 10
120.800815
 20
131.905378
 30
0.0
  0
SPLINE
  5
193
100
AcDbEntity
  8
0
 62
7
100
AcDbSpline
 70
0
 71
3
 72
10
 73
6
 74
4
 40
0.000000
 40
0.000000
 40
0.000000
 40
0.000000
 40
0.855097
 40
1.684939
 40
2.537870
 40
2.537870
 40
2.537870
 40
2.537870
 10
149.852063
 20
154.850042
 30
0.0
 10
150.138416
 20
154.895833
 30
0.0
 10
150.702667
 20
154.986063
 30
0.0
 10
151.352832
 20
155.635535
 30
0.0
 10
151.441994
 20
156.199377
 30
0.0
 10
151.487187
 20
156.485167
 30
0.0
 11
149.852063
 21
154.850042
 31
0.0
 11
150.676975
 21
155.075231
 31
0.0
 11
151.263762
 21
155.662019
 31
0.0
 11
151.487187
 21
156.485167
 31
0.0
  0
SPLINE
  5
194
100
AcDbEntity
  8
0
 62
7
100
AcDbSpline
 70
0
 71
3
 72
16
 73
12
 74
10
 40
0.000000
 40
0.000000
 40
0.000000
 40
0.000000
 40
0.854634
 40
1.684476
 40
2.539110
 40
3.393744
 40
4.223586
 40
5.078220
 40
5.932854
 40
6.762696
 40
7.617330
 40
7.617330
 40
7.617330
 40
7.617330
 10
159.332083
 20
136.382125
 30
0.0
 10
159.287038
 20
136.670242
 30
0.0
 10
159.198255
 20
137.238118
 30
0.0
 10
158.547412
 20
137.863163
 30
0.0
 10
157.698462
 20
138.095452
 30
0.0
 10
156.840577
 20
137.863064
 30
0.0
 10
156.216019
 20
137.238506
 30
0.0
 10
155.983631
 20
136.380621
 30
0.0
 10
156.215920
 20
135.531671
 30
0.0
 10
156.840965
 20
134.880828
 30
0.0
 10
157.408841
 20
134.792045
 30
0.0
 10
157.696958
 20
134.747000
 30
0.0
 11
159.332083
 21
136.382125
 31
0.0
 11
159.108657
 21
137.207037
 31
0.0
 11
158.521870
 21
137.793824
 31
0.0
 11
157.696958
 21
138.017250
 31
0.0
 11
156.872046
 21
137.793824
 31
0.0
 11
156.285259
 21
137.207037
 31
0.0
 11
156.061833
 21
136.382125
 31
0.0
 11
156.285259
 21
135.557213
 31
0.0
 11
156.872046
 21
134.970426
 31
0.0
 11
157.696958
 21
134.747000
 31
0.0
  0
LWPOLYLINE
  5
195
100
AcDbEntity
  8
0
 62
7
100
AcDbPolyline
 90
1
 70
1
 10
151.487187
 20
156.485167
 30
0.0
  0
SPLINE
  5
196
100
AcDbEntity
  8
0
 62
7
100
AcDbSpline
 70
0
 71
3
 72
10
 73
6
 74
4
 40
0.000000
 40
0.000000
 40
0.000000
 40
0.000000
 40
0.855097
 40
1.684939
 40
2.537870
 40
2.537870
 40
2.537870
 40
2.537870
 10
157.696958
 20
134.747000
 30
0.0
 10
157.983312
 20
134.792791
 30
0.0
 10
158.547563
 20
134.883022
 30
0.0
 10
159.197727
 20
135.532493
 30
0.0
 10
159.286890
 20
136.096336
 30
0.0
 10
159.332083
 20
136.382125
 30
0.0
 11
157.696958
 21
134.747000
 31
0.0
 11
158.521870
 21
134.972190
 31
0.0
 11
159.108657
 21
135.558977
 31
0.0
 11
159.332083
 21
136.382125
 31
0.0
  0
SPLINE
  5
197
100
AcDbEntity
  8
0
 62
7
100
AcDbSpline
 70
0
 71
3
 72
16
 73
12
 74
10
 40
0.000000
 40
0.000000
 40
0.000000
 40
0.000000
 40
0.854634
 40
1.684476
 40
2.539110
 40
3.393744
 40
4.223586
 40
5.078220
 40
5.932854
 40
6.762696
 40
7.617330
 40
7.617330
 40
7.617330
 40
7.617330
 10
149.870583
 20
106.735562
 30
0.0
 10
149.582466
 20
106.690518
 30
0.0
 10
149.014590
 20
106.601734
 30
0.0
 10
148.389545
 20
105.950891
 30
0.0
 10
148.157256
 20
105.101941
 30
0.0
 10
148.389644
 20
104.244056
 30
0.0
 10
149.014202
 20
103.619498
 30
0.0
 10
149.872087
 20
103.387110
 30
0.0
 10
150.721037
 20
103.619399
 30
0.0
 10
151.371880
 20
104.244444
 30
0.0
 10
151.460663
 20
104.812320
 30
0.0
 10
151.505708
 20
105.100437
 30
0.0
 11
149.870583
 21
106.735562
 31
0.0
 11
149.045671
 21
106.512137
 31
0.0
 11
148.458884
 21
105.925350
 31
0.0
 11
148.235458
 21
105.100437
 31
0.0
 11
148.458884
 21
104.275525
 31
0.0
 11
149.045671
 21
103.688738
 31
0.0
 11
149.870583
 21
103.465312
 31
0.0
 11
150.695495
 21
103.688738
 31
0.0
 11
151.282282
 21
104.275525
 31
0.0
 11
151.505708
 21
105.100437
 31
0.0
  0
LWPOLYLINE
  5
198
100
AcDbEntity
  8
0
 62
7
100
AcDbPolyline
 90
1
 70
1
 10
159.332083
 20
136.382125
 30
0.0
  0
SPLINE
  5
199
100
AcDbEntity
  8
0
 62
7
100
AcDbSpline
 70
0
 71
3
 72
10
 73
6
 74
4
 40
0.000000
 40
0.000000
 40
0.000000
 40
0.000000
 40
0.855097
 40
1.684939
 40
2.537870
 40
2.537870
 40
2.537870
 40
2.537870
 10
151.505708
 20
105.100437
 30
0.0
 10
151.459917
 20
105.386791
 30
0.0
 10
151.369687
 20
105.951042
 30
0.0
 10
150.720215
 20
106.601207
 30
0.0
 10
150.156373
 20
106.690369
 30
0.0
 10
149.870583
 20
106.735562
 30
0.0
 11
151.505708
 21
105.100437
 31
0.0
 11
151.280519
 21
105.925350
 31
0.0
 11
150.693731
 21
106.512137
 31
0.0
 11
149.870583
 21
106.735562
 31
0.0
  0
LWPOLYLINE
  5
19a
100
AcDbEntity
  8
0
 62
7
100
AcDbPolyline
 90
1
 70
1
 10
149.870583
 20
106.735562
 30
0.0
  0
LWPOLYLINE
  5
19b
100
AcDbEntity
  8
0
 62
7
100
AcDbPolyline
 90
4
 70
0
 10
148.465646
 20
77.686958
 30
0.0
 10
152.960917
 20
80.282521
 30
0.0
 10
143.007292
 20
80.282521
 30
0.0
 10
143.782521
 20
78.941083
 30
0.0
  0
SPLINE
  5
19c
100
AcDbEntity
  8
0
 62
7
100
AcDbSpline
 70
0
 71
3
 72
10
 73
6
 74
4
 40
0.000000
 40
0.000000
 40
0.000000
 40
0.000000
 40
1.790240
 40
3.530515
 40
5.322187
 40
5.322187
 40
5.322187
 40
5.322187
 10
143.782521
 20
78.941083
 30
0.0
 10
144.164566
 20
78.469067
 30
0.0
 10
144.917994
 20
77.538207
 30
0.0
 10
146.779964
 20
77.039477
 30
0.0
 10
147.898327
 20
77.469048
 30
0.0
 10
148.465646
 20
77.686958
 30
0.0
 11
143.782521
 21
78.941083
 31
0.0
 11
145.052521
 21
77.679315
 31
0.0
 11
146.733507
 21
77.228935
 31
0.0
 11
148.465646
 21
77.686958
 31
0.0
  0
LWPOLYLINE
  5
19d
100
AcDbEntity
  8
0
 62
7
100
AcDbPolyline
 90
6
 70
0
 10
173.280917
 20
162.149896
 30
0.0
 10
157.845125
 20
171.061062
 30
0.0
 10
157.845125
 20
160.115250
 30
0.0
 10
168.034229
 20
160.115250
 30
0.0
 10
168.034229
 20
147.208875
 30
0.0
 10
160.721146
 20
147.208875
 30
0.0
  0
SPLINE
  5
19e
100
AcDbEntity
  8
0
 62
7
100
AcDbSpline
 70
0
 71
3
 72
19
 73
15
 74
13
 40
0.000000
 40
0.000000
 40
0.000000
 40
0.000000
 40
1.362146
 40
2.711479
 40
4.106630
 40
5.733870
 40
7.314700
 40
8.941939
 40
10.569179
 40
12.150009
 40
13.777249
 40
15.171254
 40
16.521046
 40
17.883455
 40
17.883455
 40
17.883455
 40
17.883455
 10
160.721146
 20
147.208875
 30
0.0
 10
160.554293
 20
146.778751
 30
0.0
 10
160.222156
 20
145.922548
 30
0.0
 10
159.084031
 20
145.049755
 30
0.0
 10
157.624932
 20
144.708169
 30
0.0
 10
156.068633
 20
145.129451
 30
0.0
 10
154.879764
 20
146.319760
 30
0.0
 10
154.436176
 20
147.949704
 30
0.0
 10
154.879768
 20
149.579674
 30
0.0
 10
156.068619
 20
150.769908
 30
0.0
 10
157.624595
 20
151.191353
 30
0.0
 10
159.083263
 20
150.849237
 30
0.0
 10
160.221509
 20
149.976982
 30
0.0
 10
160.554085
 20
149.120683
 30
0.0
 10
160.721146
 20
148.690542
 30
0.0
 11
160.721146
 21
147.208875
 31
0.0
 11
160.114760
 21
145.989146
 31
0.0
 11
159.059171
 21
145.148653
 31
0.0
 11
157.699604
 21
144.835562
 31
0.0
 11
156.129057
 21
145.261346
 31
0.0
 11
155.011242
 21
146.379161
 31
0.0
 11
154.585458
 21
147.949708
 31
0.0
 11
155.011242
 21
149.520255
 31
0.0
 11
156.129057
 21
150.638071
 31
0.0
 11
157.699604
 21
151.063854
 31
0.0
 11
159.057995
 21
150.750764
 31
0.0
 11
160.114172
 21
149.910271
 31
0.0
 11
160.721146
 21
148.690542
 31
0.0
  0
LWPOLYLINE
  5
19f
100
AcDbEntity
  8
0
 62
7
100
AcDbPolyline
 90
6
 70
0
 10
160.721146
 20
148.690542
 30
0.0
 10
166.557854
 20
148.690542
 30
0.0
 10
166.557854
 20
158.638875
 30
0.0
 10
156.368750
 20
158.638875
 30
0.0
 10
156.368750
 20
171.915667
 30
0.0
 10
148.576771
 20
176.416229
 30
0.0
  0
SPLINE
  5
1a0
100
AcDbEntity
  8
0
 62
7
100
AcDbSpline
 70
0
 71
3
 72
13
 73
9
 74
7
 40
0.000000
 40
0.000000
 40
0.000000
 40
0.000000
 40
0.610586
 40
1.203785
 40
1.787756
 40
2.961605
 40
4.141496
 40
5.363022
 40
5.363022
 40
5.363022
 40
5.363022
 10
148.576771
 20
176.416229
 30
0.0
 10
148.395128
 20
176.509278
 30
0.0
 10
148.037016
 20
176.692727
 30
0.0
 10
147.454740
 20
176.839803
 30
0.0
 10
146.671038
 20
176.908205
 30
0.0
 10
145.690116
 20
176.734972
 30
0.0
 10
144.610580
 20
176.150510
 30
0.0
 10
144.135370
 20
175.495359
 30
0.0
 10
143.893646
 20
175.162104
 30
0.0
 11
148.576771
 21
176.416229
 31
0.0
 11
148.023106
 21
176.673659
 31
0.0
 11
147.449450
 21
176.824667
 31
0.0
 11
146.867562
 21
176.873958
 31
0.0
 11
145.710843
 21
176.674149
 31
0.0
 11
144.683476
 21
176.093927
 31
0.0
 11
143.893646
 21
175.162104
 31
0.0
  0
LWPOLYLINE
  5
1a1
100
AcDbEntity
  8
0
 62
7
100
AcDbPolyline
 90
4
 70
0
 10
143.893646
 20
175.162104
 30
0.0
 10
135.202083
 20
160.117896
 30
0.0
 10
142.787688
 20
160.117896
 30
0.0
 10
142.787688
 20
108.124625
 30
0.0
  0
SPLINE
  5
1a2
100
AcDbEntity
  8
0
 62
7
100
AcDbSpline
 70
0
 71
3
 72
19
 73
15
 74
13
 40
0.000000
 40
0.000000
 40
0.000000
 40
0.000000
 40
1.362146
 40
2.711479
 40
4.106630
 40
5.733870
 40
7.314700
 40
8.941939
 40
10.569179
 40
12.150009
 40
13.777249
 40
15.171254
 40
16.521046
 40
17.883455
 40
17.883455
 40
17.883455
 40
17.883455
 10
142.787688
 20
108.124625
 30
0.0
 10
143.217812
 20
107.957772
 30
0.0
 10
144.074015
 20
107.625635
 30
0.0
 10
144.946807
 20
106.487510
 30
0.0
 10
145.288393
 20
105.028411
 30
0.0
 10
144.867112
 20
103.472112
 30
0.0
 10
143.676803
 20
102.283243
 30
0.0
 10
142.046858
 20
101.839655
 30
0.0
 10
140.416888
 20
102.283247
 30
0.0
 10
139.226655
 20
103.472098
 30
0.0
 10
138.805209
 20
105.028074
 30
0.0
 10
139.147325
 20
106.486742
 30
0.0
 10
140.019581
 20
107.624988
 30
0.0
 10
140.875880
 20
107.957564
 30
0.0
 10
141.306021
 20
108.124625
 30
0.0
 11
142.787688
 21
108.124625
 31
0.0
 11
144.007417
 21
107.518239
 31
0.0
 11
144.847910
 21
106.462650
 31
0.0
 11
145.161000
 21
105.103083
 31
0.0
 11
144.735217
 21
103.532536
 31
0.0
 11
143.617401
 21
102.414721
 31
0.0
 11
142.046854
 21
101.988937
 31
0.0
 11
140.476307
 21
102.414721
 31
0.0
 11
139.358492
 21
103.532536
 31
0.0
 11
138.932708
 21
105.103083
 31
0.0
 11
139.245799
 21
106.461474
 31
0.0
 11
140.086292
 21
107.517651
 31
0.0
 11
141.306021
 21
108.124625
 31
0.0
  0
LWPOLYLINE
  5
1a3
100
AcDbEntity
  8
0
 62
7
100
AcDbPolyline
 90
4
 70
0
 10
141.306021
 20
108.124625
 30
0.0
 10
141.306021
 20
158.638875
 30
0.0
 10
134.344833
 20
158.638875
 30
0.0
 10
125.589771
 20
143.488833
 30
0.0
  0
SPLINE
  5
1a4
100
AcDbEntity
  8
0
 62
7
100
AcDbSpline
 70
0
 71
3
 72
10
 73
6
 74
4
 40
0.000000
 40
0.000000
 40
0.000000
 40
0.000000
 40
0.049310
 40
0.099070
 40
0.148380
 40
0.148380
 40
0.148380
 40
0.148380
 10
125.589771
 20
143.488833
 30
0.0
 10
125.602320
 20
143.478218
 30
0.0
 10
125.627533
 20
143.456890
 30
0.0
 10
125.665779
 20
143.425526
 30
0.0
 10
125.690992
 20
143.404199
 30
0.0
 10
125.703542
 20
143.393583
 30
0.0
 11
125.589771
 21
143.488833
 31
0.0
 11
125.627498
 21
143.457083
 31
0.0
 11
125.665814
 21
143.425333
 31
0.0
 11
125.703542
 21
143.393583
 31
0.0
  0
LWPOLYLINE
  5
1a5
100
AcDbEntity
  8
0
 62
7
100
AcDbPolyline
 90
4
 70
0
 10
125.703542
 20
143.393583
 30
0.0
 10
131.826000
 20
146.084396
 30
0.0
 10
138.146896
 20
135.120062
 30
0.0
 10
132.738813
 20
131.169833
 30
0.0
  0
SPLINE
  5
1a6
100
AcDbEntity
  8
0
 62
7
100
AcDbSpline
 70
0
 71
3
 72
13
 73
9
 74
7
 40
0.000000
 40
0.000000
 40
0.000000
 40
0.000000
 40
1.588123
 40
3.195175
 40
4.824799
 40
6.454422
 40
8.061475
 40
9.649597
 40
9.649597
 40
9.649597
 40
9.649597
 10
132.738813
 20
131.169833
 30
0.0
 10
132.839504
 20
130.649932
 30
0.0
 10
133.042087
 20
129.603931
 30
0.0
 10
133.214673
 20
128.003096
 30
0.0
 10
133.278906
 20
126.380875
 30
0.0
 10
133.214673
 20
124.758654
 30
0.0
 10
133.042087
 20
123.157819
 30
0.0
 10
132.839504
 20
122.111818
 30
0.0
 10
132.738813
 20
121.591917
 30
0.0
 11
132.738813
 21
131.169833
 31
0.0
 11
133.019075
 21
129.606636
 31
0.0
 11
133.195856
 21
128.009336
 31
0.0
 11
133.257396
 21
126.380875
 31
0.0
 11
133.195856
 21
124.752414
 31
0.0
 11
133.019075
 21
123.155114
 31
0.0
 11
132.738813
 21
121.591917
 31
0.0
  0
LWPOLYLINE
  5
1a7
100
AcDbEntity
  8
0
 62
7
100
AcDbPolyline
 90
8
 70
0
 10
132.738813
 20
121.591917
 30
0.0
 10
138.146896
 20
117.641687
 30
0.0
 10
135.255000
 20
112.625187
 30
0.0
 10
131.826000
 20
106.677354
 30
0.0
 10
126.375583
 20
109.071833
 30
0.0
 10
133.429375
 20
96.863958
 30
0.0
 10
166.557854
 20
96.863958
 30
0.0
 10
166.557854
 20
133.363229
 30
0.0
  0
SPLINE
  5
1a8
100
AcDbEntity
  8
0
 62
7
100
AcDbSpline
 70
0
 71
3
 72
19
 73
15
 74
13
 40
0.000000
 40
0.000000
 40
0.000000
 40
0.000000
 40
1.362146
 40
2.711479
 40
4.106630
 40
5.733870
 40
7.314700
 40
8.941939
 40
10.569179
 40
12.150009
 40
13.777249
 40
15.171254
 40
16.521046
 40
17.883455
 40
17.883455
 40
17.883455
 40
17.883455
 10
166.557854
 20
133.363229
 30
0.0
 10
166.127730
 20
133.530082
 30
0.0
 10
165.271527
 20
133.862219
 30
0.0
 10
164.398734
 20
135.000344
 30
0.0
 10
164.057149
 20
136.459443
 30
0.0
 10
164.478430
 20
138.015742
 30
0.0
 10
165.668739
 20
139.204611
 30
0.0
 10
167.298683
 20
139.648199
 30
0.0
 10
168.928653
 20
139.204607
 30
0.0
 10
170.118887
 20
138.015756
 30
0.0
 10
170.540333
 20
136.459780
 30
0.0
 10
170.198217
 20
135.001112
 30
0.0
 10
169.325961
 20
133.862866
 30
0.0
 10
168.469662
 20
133.530290
 30
0.0
 10
168.039521
 20
133.363229
 30
0.0
 11
166.557854
 21
133.363229
 31
0.0
 11
165.338125
 21
133.969615
 31
0.0
 11
164.497632
 21
135.025204
 31
0.0
 11
164.184542
 21
136.384771
 31
0.0
 11
164.610325
 21
137.955318
 31
0.0
 11
165.728140
 21
139.073133
 31
0.0
 11
167.298687
 21
139.498917
 31
0.0
 11
168.869235
 21
139.073133
 31
0.0
 11
169.987050
 21
137.955318
 31
0.0
 11
170.412833
 21
136.384771
 31
0.0
 11
170.099743
 21
135.026380
 31
0.0
 11
169.259250
 21
133.970203
 31
0.0
 11
168.039521
 21
133.363229
 31
0.0
  0
LWPOLYLINE
  5
1a9
100
AcDbEntity
  8
0
 62
7
100
AcDbPolyline
 90
7
 70
0
 10
168.039521
 20
133.363229
 30
0.0
 10
168.039521
 20
95.384937
 30
0.0
 10
134.281333
 20
95.384937
 30
0.0
 10
137.686521
 20
89.492667
 30
0.0
 10
164.898917
 20
89.492667
 30
0.0
 10
164.898917
 20
87.177562
 30
0.0
 10
173.280917
 20
92.016792
 30
0.0
  0
SPLINE
  5
1aa
100
AcDbEntity
  8
0
 62
7
100
AcDbSpline
 70
0
 71
3
 72
10
 73
6
 74
4
 40
0.000000
 40
0.000000
 40
0.000000
 40
0.000000
 40
1.195928
 40
2.376569
 40
3.570978
 40
3.570978
 40
3.570978
 40
3.570978
 10
173.280917
 20
92.016792
 30
0.0
 10
173.605573
 20
92.252954
 30
0.0
 10
174.250735
 20
92.722259
 30
0.0
 10
174.869469
 20
93.793807
 30
0.0
 10
174.953272
 20
94.586681
 30
0.0
 10
174.995417
 20
94.985417
 30
0.0
 11
173.280917
 21
92.016792
 31
0.0
 11
174.195787
 21
92.787023
 31
0.0
 11
174.786102
 21
93.809491
 31
0.0
 11
174.995417
 21
94.985417
 31
0.0
  0
LWPOLYLINE
  5
1ab
100
AcDbEntity
  8
0
 62
7
100
AcDbPolyline
 90
2
 70
0
 10
174.995417
 20
94.985417
 30
0.0
 10
174.995417
 20
159.181271
 30
0.0
  0
SPLINE
  5
1ac
100
AcDbEntity
  8
0
 62
7
100
AcDbSpline
 70
0
 71
3
 72
10
 73
6
 74
4
 40
0.000000
 40
0.000000
 40
0.000000
 40
0.000000
 40
1.194720
 40
2.375360
 40
3.569940
 40
3.569940
 40
3.569940
 40
3.569940
 10
174.995417
 20
159.181271
 30
0.0
 10
174.952555
 20
159.579998
 30
0.0
 10
174.867338
 20
160.372753
 30
0.0
 10
174.249163
 20
161.443853
 30
0.0
 10
173.604926
 20
161.913629
 30
0.0
 10
173.280917
 20
162.149896
 30
0.0
 11
174.995417
 21
159.181271
 31
0.0
 11
174.784338
 21
160.357197
 31
0.0
 11
174.194023
 21
161.379664
 31
0.0
 11
173.280917
 21
162.149896
 31
0.0
  0
LWPOLYLINE
  5
1ad
100
AcDbEntity
  8
0
 62
7
100
AcDbPolyline
 90
1
 70
1
 10
173.280917
 20
162.149896
 30
0.0
  0
SPLINE
  5
1ae
100
AcDbEntity
  8
0
 62
7
100
AcDbSpline
 70
0
 71
3
 72
13
 73
9
 74
7
 40
0.000000
 40
0.000000
 40
0.000000
 40
0.000000
 40
1.627240
 40
3.208070
 40
4.835310
 40
6.224012
 40
7.568153
 40
8.924690
 40
8.924690
 40
8.924690
 40
8.924690
 10
149.870583
 20
101.988937
 30
0.0
 10
149.322048
 20
102.074955
 30
0.0
 10
148.240622
 20
102.244538
 30
0.0
 10
147.050373
 20
103.482734
 30
0.0
 10
146.629463
 20
105.023861
 30
0.0
 10
146.969261
 20
106.481908
 30
0.0
 10
147.835253
 20
107.616262
 30
0.0
 10
148.686366
 20
107.951130
 30
0.0
 10
149.113875
 20
108.119333
 30
0.0
 11
149.870583
 21
101.988937
 31
0.0
 11
148.300036
 21
102.414721
 31
0.0
 11
147.182221
 21
103.532536
 31
0.0
 11
146.756438
 21
105.103083
 31
0.0
 11
147.067176
 21
106.456574
 31
0.0
 11
147.901789
 21
107.510204
 31
0.0
 11
149.113875
 21
108.119333
 31
0.0
  0
LWPOLYLINE
  5
1af
100
AcDbEntity
  8
0
 62
7
100
AcDbPolyline
 90
2
 70
0
 10
149.113875
 20
108.119333
 30
0.0
 10
149.113875
 20
153.466271
 30
0.0
  0
SPLINE
  5
1b0
100
AcDbEntity
  8
0
 62
7
100
AcDbSpline
 70
0
 71
3
 72
19
 73
15
 74
13
 40
0.000000
 40
0.000000
 40
0.000000
 40
0.000000
 40
1.362146
 40
2.711479
 40
4.106630
 40
5.733870
 40
7.314700
 40
8.941939
 40
10.569179
 40
12.150009
 40
13.777249
 40
15.171254
 40
16.521046
 40
17.883455
 40
17.883455
 40
17.883455
 40
17.883455
 10
149.113875
 20
153.466271
 30
0.0
 10
148.683751
 20
153.633124
 30
0.0
 10
147.827548
 20
153.965261
 30
0.0
 10
146.954755
 20
155.103386
 30
0.0
 10
146.613169
 20
156.562485
 30
0.0
 10
147.034451
 20
158.118784
 30
0.0
 10
148.224760
 20
159.307653
 30
0.0
 10
149.854704
 20
159.751241
 30
0.0
 10
151.484674
 20
159.307649
 30
0.0
 10
152.674908
 20
158.118798
 30
0.0
 10
153.096353
 20
156.562821
 30
0.0
 10
152.754237
 20
155.104154
 30
0.0
 10
151.881982
 20
153.965908
 30
0.0
 10
151.025683
 20
153.633332
 30
0.0
 10
150.595542
 20
153.466271
 30
0.0
 11
149.113875
 21
153.466271
 31
0.0
 11
147.894146
 21
154.072657
 31
0.0
 11
147.053653
 21
155.128246
 31
0.0
 11
146.740562
 21
156.487812
 31
0.0
 11
147.166346
 21
158.058360
 31
0.0
 11
148.284161
 21
159.176175
 31
0.0
 11
149.854708
 21
159.601958
 31
0.0
 11
151.425255
 21
159.176175
 31
0.0
 11
152.543071
 21
158.058360
 31
0.0
 11
152.968854
 21
156.487812
 31
0.0
 11
152.655764
 21
155.129422
 31
0.0
 11
151.815271
 21
154.073245
 31
0.0
 11
150.595542
 21
153.466271
 31
0.0
  0
SPLINE
  5
1b1
100
AcDbEntity
  8
0
 62
7
100
AcDbSpline
 70
0
 71
3
 72
10
 73
6
 74
4
 40
0.000000
 40
0.000000
 40
0.000000
 40
0.000000
 40
1.367998
 40
2.722454
 40
4.121094
 40
4.121094
 40
4.121094
 40
4.121094
 10
150.595542
 20
108.127271
 30
0.0
 10
151.025911
 20
107.961467
 30
0.0
 10
151.882388
 20
107.631500
 30
0.0
 10
152.796775
 20
106.492213
 30
0.0
 10
152.921411
 20
105.571055
 30
0.0
 10
152.984729
 20
105.103083
 30
0.0
 11
150.595542
 21
108.127271
 31
0.0
 11
151.822914
 21
107.523139
 31
0.0
 11
152.669287
 21
106.465687
 31
0.0
 11
152.984729
 21
105.103083
 31
0.0
  0
LWPOLYLINE
  5
1b2
100
AcDbEntity
  8
0
 62
7
100
AcDbPolyline
 90
2
 70
0
 10
150.595542
 20
153.466271
 30
0.0
 10
150.595542
 20
108.127271
 30
0.0
  0
SPLINE
  5
1b3
100
AcDbEntity
  8
0
 62
7
100
AcDbSpline
 70
0
 71
3
 72
10
 73
6
 74
4
 40
0.000000
 40
0.000000
 40
0.000000
 40
0.000000
 40
1.627702
 40
3.208532
 40
4.834070
 40
4.834070
 40
4.834070
 40
4.834070
 10
152.984729
 20
105.103083
 30
0.0
 10
152.898015
 20
104.557877
 30
0.0
 10
152.727084
 20
103.483164
 30
0.0
 10
151.489530
 20
102.244917
 30
0.0
 10
150.415225
 20
102.075053
 30
0.0
 10
149.870583
 20
101.988937
 30
0.0
 11
152.984729
 21
105.103083
 31
0.0
 11
152.557182
 21
103.532536
 31
0.0
 11
151.439367
 21
102.414721
 31
0.0
 11
149.870583
 21
101.988937
 31
0.0
  0
LWPOLYLINE
  5
1b4
100
AcDbEntity
  8
0
 62
7
100
AcDbPolyline
 90
1
 70
1
 10
149.870583
 20
101.988937
 30
0.0
  0
SPLINE
  5
1b5
100
AcDbEntity
  8
0
 62
7
100
AcDbSpline
 70
0
 71
3
 72
16
 73
12
 74
10
 40
0.000000
 40
0.000000
 40
0.000000
 40
0.000000
 40
1.627240
 40
3.208070
 40
4.835310
 40
6.462549
 40
8.043379
 40
9.670619
 40
11.064624
 40
12.414417
 40
13.776825
 40
13.776825
 40
13.776825
 40
13.776825
 10
160.811104
 20
105.103083
 30
0.0
 10
160.725166
 20
104.554539
 30
0.0
 10
160.555742
 20
103.473096
 30
0.0
 10
159.316376
 20
102.282974
 30
0.0
 10
157.699822
 20
101.839728
 30
0.0
 10
156.066251
 20
102.283228
 30
0.0
 10
154.876963
 20
103.472103
 30
0.0
 10
154.455267
 20
105.028073
 30
0.0
 10
154.797440
 20
106.486742
 30
0.0
 10
155.669682
 20
107.624988
 30
0.0
 10
156.525983
 20
107.957564
 30
0.0
 10
156.956125
 20
108.124625
 30
0.0
 11
160.811104
 21
105.103083
 31
0.0
 11
160.385321
 21
103.532536
 31
0.0
 11
159.267505
 21
102.414721
 31
0.0
 11
157.696958
 21
101.988937
 31
0.0
 11
156.126411
 21
102.414721
 31
0.0
 11
155.008596
 21
103.532536
 31
0.0
 11
154.582812
 21
105.103083
 31
0.0
 11
154.895903
 21
106.461474
 31
0.0
 11
155.736396
 21
107.517651
 31
0.0
 11
156.956125
 21
108.124625
 31
0.0
  0
LWPOLYLINE
  5
1b6
100
AcDbEntity
  8
0
 62
7
100
AcDbPolyline
 90
2
 70
0
 10
156.956125
 20
108.124625
 30
0.0
 10
156.956125
 20
133.363229
 30
0.0
  0
SPLINE
  5
1b7
100
AcDbEntity
  8
0
 62
7
100
AcDbSpline
 70
0
 71
3
 72
19
 73
15
 74
13
 40
0.000000
 40
0.000000
 40
0.000000
 40
0.000000
 40
1.362146
 40
2.711479
 40
4.106630
 40
5.733870
 40
7.314700
 40
8.941939
 40
10.569179
 40
12.150009
 40
13.777249
 40
15.171254
 40
16.521046
 40
17.883455
 40
17.883455
 40
17.883455
 40
17.883455
 10
156.956125
 20
133.363229
 30
0.0
 10
156.526001
 20
133.530082
 30
0.0
 10
155.669798
 20
133.862219
 30
0.0
 10
154.797005
 20
135.000344
 30
0.0
 10
154.455419
 20
136.459443
 30
0.0
 10
154.876701
 20
138.015742
 30
0.0
 10
156.067010
 20
139.204611
 30
0.0
 10
157.696954
 20
139.648199
 30
0.0
 10
159.326924
 20
139.204607
 30
0.0
 10
160.517158
 20
138.015756
 30
0.0
 10
160.938603
 20
136.459780
 30
0.0
 10
160.596487
 20
135.001112
 30
0.0
 10
159.724232
 20
133.862866
 30
0.0
 10
158.867933
 20
133.530290
 30
0.0
 10
158.437792
 20
133.363229
 30
0.0
 11
156.956125
 21
133.363229
 31
0.0
 11
155.736396
 21
133.969615
 31
0.0
 11
154.895903
 21
135.025204
 31
0.0
 11
154.582812
 21
136.384771
 31
0.0
 11
155.008596
 21
137.955318
 31
0.0
 11
156.126411
 21
139.073133
 31
0.0
 11
157.696958
 21
139.498917
 31
0.0
 11
159.267505
 21
139.073133
 31
0.0
 11
160.385321
 21
137.955318
 31
0.0
 11
160.811104
 21
136.384771
 31
0.0
 11
160.498014
 21
135.026380
 31
0.0
 11
159.657521
 21
133.970203
 31
0.0
 11
158.437792
 21
133.363229
 31
0.0
  0
LWPOLYLINE
  5
1b8
100
AcDbEntity
  8
0
 62
7
100
AcDbPolyline
 90
2
 70
0
 10
158.437792
 20
133.363229
 30
0.0
 10
158.437792
 20
108.124625
 30
0.0
  0
SPLINE
  5
1b9
100
AcDbEntity
  8
0
 62
7
100
AcDbSpline
 70
0
 71
3
 72
10
 73
6
 74
4
 40
0.000000
 40
0.000000
 40
0.000000
 40
0.000000
 40
1.362933
 40
2.712265
 40
4.105697
 40
4.105697
 40
4.105697
 40
4.105697
 10
158.437792
 20
108.124625
 30
0.0
 10
158.865534
 20
107.957027
 30
0.0
 10
159.716751
 20
107.623505
 30
0.0
 10
160.624624
 20
106.487046
 30
0.0
 10
160.748281
 20
105.569323
 30
0.0
 10
160.811104
 20
105.103083
 30
0.0
 11
158.437792
 21
108.124625
 31
0.0
 11
159.657521
 21
107.516475
 31
0.0
 11
160.498014
 21
106.460886
 31
0.0
 11
160.811104
 21
105.103083
 31
0.0
  0
LWPOLYLINE
  5
1ba
100
AcDbEntity
  8
0
 62
7
100
AcDbPolyline
 90
1
 70
1
 10
160.811104
 20
105.103083
 30
0.0
  0
SPLINE
  5
1bb
100
AcDbEntity
  8
0
 62
7
100
AcDbSpline
 70
0
 71
3
 72
25
 73
21
 74
19
 40
0.000000
 40
0.000000
 40
0.000000
 40
0.000000
 40
0.641815
 40
1.272201
 40
1.914016
 40
2.555831
 40
3.186217
 40
3.828032
 40
4.469847
 40
5.100233
 40
5.742048
 40
6.383863
 40
7.014249
 40
7.656064
 40
8.084099
 40
8.508592
 40
8.936626
 40
9.364661
 40
9.789153
 40
10.217188
 40
10.217188
 40
10.217188
 40
10.217188
 10
167.293391
 20
138.017247
 30
0.0
 10
167.078071
 20
137.992401
 30
0.0
 10
166.651266
 20
137.943152
 30
0.0
 10
166.107366
 20
137.565352
 30
0.0
 10
165.742926
 20
137.025175
 30
0.0
 10
165.615905
 20
136.381711
 30
0.0
 10
165.743522
 20
135.740415
 30
0.0
 10
166.106716
 20
135.195432
 30
0.0
 10
166.651624
 20
134.832257
 30
0.0
 10
167.293196
 20
134.704640
 30
0.0
 10
167.935619
 20
134.831643
 30
0.0
 10
168.479671
 20
135.196154
 30
0.0
 10
168.843175
 20
135.739791
 30
0.0
 10
168.957039
 20
136.311078
 30
0.0
 10
168.890848
 20
136.810131
 30
0.0
 10
168.725702
 20
137.208959
 30
0.0
 10
168.462953
 20
137.552044
 30
0.0
 10
168.120299
 20
137.813073
 30
0.0
 10
167.721467
 20
137.984637
 30
0.0
 10
167.436477
 20
138.006347
 30
0.0
 10
167.293391
 20
138.017247
 30
0.0
 11
167.293391
 21
138.017247
 31
0.0
 11
166.664048
 21
137.891332
 31
0.0
 11
166.139901
 21
137.541109
 31
0.0
 11
165.782732
 21
137.007858
 31
0.0
 11
165.658223
 21
136.378235
 31
0.0
 11
165.781206
 21
135.759962
 31
0.0
 11
166.137183
 21
135.225914
 31
0.0
 11
166.671230
 21
134.869937
 31
0.0
 11
167.289504
 21
134.746955
 31
0.0
 11
167.919126
 21
134.871464
 31
0.0
 11
168.452377
 21
135.228633
 31
0.0
 11
168.802601
 21
135.752780
 31
0.0
 11
168.928515
 21
136.382122
 31
0.0
 11
168.872495
 21
136.806475
 31
0.0
 11
168.710049
 21
137.198655
 31
0.0
 11
168.449598
 21
137.538330
 31
0.0
 11
168.109923
 21
137.798781
 31
0.0
 11
167.717743
 21
137.961227
 31
0.0
 11
167.293391
 21
138.017247
 31
0.0
  0
SPLINE
  5
1bc
100
AcDbEntity
  8
0
 62
7
100
AcDbSpline
 70
0
 71
3
 72
16
 73
12
 74
10
 40
0.000000
 40
0.000000
 40
0.000000
 40
0.000000
 40
0.854634
 40
1.684476
 40
2.539110
 40
3.393744
 40
4.223586
 40
5.078220
 40
5.932854
 40
6.762696
 40
7.617330
 40
7.617330
 40
7.617330
 40
7.617330
 10
156.064479
 20
147.952354
 30
0.0
 10
156.109524
 20
147.664237
 30
0.0
 10
156.198307
 20
147.096361
 30
0.0
 10
156.849150
 20
146.471316
 30
0.0
 10
157.698101
 20
146.239027
 30
0.0
 10
158.555985
 20
146.471415
 30
0.0
 10
159.180544
 20
147.095973
 30
0.0
 10
159.412931
 20
147.953858
 30
0.0
 10
159.180643
 20
148.802808
 30
0.0
 10
158.555598
 20
149.453651
 30
0.0
 10
157.987721
 20
149.542434
 30
0.0
 10
157.699604
 20
149.587479
 30
0.0
 11
156.064479
 21
147.952354
 31
0.0
 11
156.287905
 21
147.127442
 31
0.0
 11
156.874692
 21
146.540655
 31
0.0
 11
157.699604
 21
146.317229
 31
0.0
 11
158.524516
 21
146.540655
 31
0.0
 11
159.111303
 21
147.127442
 31
0.0
 11
159.334729
 21
147.952354
 31
0.0
 11
159.111303
 21
148.777266
 31
0.0
 11
158.524516
 21
149.364053
 31
0.0
 11
157.699604
 21
149.587479
 31
0.0
  0
LWPOLYLINE
  5
1bd
100
AcDbEntity
  8
0
 62
7
100
AcDbPolyline
 90
1
 70
1
 10
167.293391
 20
138.017247
 30
0.0
  0
SPLINE
  5
1be
100
AcDbEntity
  8
0
 62
7
100
AcDbSpline
 70
0
 71
3
 72
10
 73
6
 74
4
 40
0.000000
 40
0.000000
 40
0.000000
 40
0.000000
 40
0.855097
 40
1.684939
 40
2.537870
 40
2.537870
 40
2.537870
 40
2.537870
 10
157.699604
 20
149.587479
 30
0.0
 10
157.413250
 20
149.541688
 30
0.0
 10
156.849000
 20
149.451458
 30
0.0
 10
156.198835
 20
148.801986
 30
0.0
 10
156.109672
 20
148.238144
 30
0.0
 10
156.064479
 20
147.952354
 30
0.0
 11
157.699604
 21
149.587479
 31
0.0
 11
156.874692
 21
149.362289
 31
0.0
 11
156.287905
 21
148.775502
 31
0.0
 11
156.064479
 21
147.952354
 31
0.0
  0
SPLINE
  5
1bf
100
AcDbEntity
  8
0
 62
7
100
AcDbSpline
 70
0
 71
3
 72
16
 73
12
 74
10
 40
0.000000
 40
0.000000
 40
0.000000
 40
0.000000
 40
0.854634
 40
1.684476
 40
2.539110
 40
3.393744
 40
4.223586
 40
5.078220
 40
5.932854
 40
6.762696
 40
7.617330
 40
7.617330
 40
7.617330
 40
7.617330
 10
156.064479
 20
105.103083
 30
0.0
 10
156.109524
 20
104.814966
 30
0.0
 10
156.198307
 20
104.247090
 30
0.0
 10
156.849150
 20
103.622045
 30
0.0
 10
157.698101
 20
103.389756
 30
0.0
 10
158.555985
 20
103.622144
 30
0.0
 10
159.180544
 20
104.246702
 30
0.0
 10
159.412931
 20
105.104587
 30
0.0
 10
159.180643
 20
105.953537
 30
0.0
 10
158.555598
 20
106.604380
 30
0.0
 10
157.987721
 20
106.693163
 30
0.0
 10
157.699604
 20
106.738208
 30
0.0
 11
156.064479
 21
105.103083
 31
0.0
 11
156.287905
 21
104.278171
 31
0.0
 11
156.874692
 21
103.691384
 31
0.0
 11
157.699604
 21
103.467958
 31
0.0
 11
158.524516
 21
103.691384
 31
0.0
 11
159.111303
 21
104.278171
 31
0.0
 11
159.334729
 21
105.103083
 31
0.0
 11
159.111303
 21
105.927995
 31
0.0
 11
158.524516
 21
106.514782
 31
0.0
 11
157.699604
 21
106.738208
 31
0.0
  0
LWPOLYLINE
  5
1c0
100
AcDbEntity
  8
0
 62
7
100
AcDbPolyline
 90
1
 70
1
 10
156.064479
 20
147.952354
 30
0.0
  0
SPLINE
  5
1c1
100
AcDbEntity
  8
0
 62
7
100
AcDbSpline
 70
0
 71
3
 72
10
 73
6
 74
4
 40
0.000000
 40
0.000000
 40
0.000000
 40
0.000000
 40
0.855097
 40
1.684939
 40
2.537870
 40
2.537870
 40
2.537870
 40
2.537870
 10
157.699604
 20
106.738208
 30
0.0
 10
157.413250
 20
106.692417
 30
0.0
 10
156.849000
 20
106.602187
 30
0.0
 10
156.198835
 20
105.952715
 30
0.0
 10
156.109672
 20
105.388873
 30
0.0
 10
156.064479
 20
105.103083
 30
0.0
 11
157.699604
 21
106.738208
 31
0.0
 11
156.874692
 21
106.513019
 31
0.0
 11
156.287905
 21
105.926231
 31
0.0
 11
156.064479
 21
105.103083
 31
0.0
  0
SPLINE
  5
1c2
100
AcDbEntity
  8
0
 62
7
100
AcDbSpline
 70
0
 71
3
 72
16
 73
12
 74
10
 40
0.000000
 40
0.000000
 40
0.000000
 40
0.000000
 40
0.854634
 40
1.684476
 40
2.539110
 40
3.393744
 40
4.223586
 40
5.078220
 40
5.932854
 40
6.762696
 40
7.617330
 40
7.617330
 40
7.617330
 40
7.617330
 10
140.406437
 20
105.103083
 30
0.0
 10
140.451482
 20
104.814966
 30
0.0
 10
140.540266
 20
104.247090
 30
0.0
 10
141.191109
 20
103.622045
 30
0.0
 10
142.040059
 20
103.389756
 30
0.0
 10
142.897944
 20
103.622144
 30
0.0
 10
143.522502
 20
104.246702
 30
0.0
 10
143.754890
 20
105.104587
 30
0.0
 10
143.522601
 20
105.953537
 30
0.0
 10
142.897556
 20
106.604380
 30
0.0
 10
142.329680
 20
106.693163
 30
0.0
 10
142.041562
 20
106.738208
 30
0.0
 11
140.406437
 21
105.103083
 31
0.0
 11
140.629863
 21
104.278171
 31
0.0
 11
141.216650
 21
103.691384
 31
0.0
 11
142.041562
 21
103.467958
 31
0.0
 11
142.866475
 21
103.691384
 31
0.0
 11
143.453262
 21
104.278171
 31
0.0
 11
143.676687
 21
105.103083
 31
0.0
 11
143.453262
 21
105.927995
 31
0.0
 11
142.866475
 21
106.514782
 31
0.0
 11
142.041562
 21
106.738208
 31
0.0
  0
LWPOLYLINE
  5
1c3
100
AcDbEntity
  8
0
 62
7
100
AcDbPolyline
 90
1
 70
1
 10
156.064479
 20
105.103083
 30
0.0
  0
LWPOLYLINE
  5
1c4
100
AcDbEntity
  8
0
 62
7
100
AcDbPolyline
 90
1
 70
1
 10
140.406437
 20
105.103083
 30
0.0
  0
SPLINE
  5
1c5
100
AcDbEntity
  8
0
 62
7
100
AcDbSpline
 70
0
 71
3
 72
10
 73
6
 74
4
 40
0.000000
 40
0.000000
 40
0.000000
 40
0.000000
 40
0.855097
 40
1.684939
 40
2.537870
 40
2.537870
 40
2.537870
 40
2.537870
 10
142.041562
 20
106.738208
 30
0.0
 10
141.755209
 20
106.692417
 30
0.0
 10
141.190958
 20
106.602187
 30
0.0
 10
140.540793
 20
105.952715
 30
0.0
 10
140.451631
 20
105.388873
 30
0.0
 10
140.406437
 20
105.103083
 30
0.0
 11
142.041562
 21
106.738208
 31
0.0
 11
141.216650
 21
106.513019
 31
0.0
 11
140.629863
 21
105.926231
 31
0.0
 11
140.406437
 21
105.103083
 31
0.0
  0
LWPOLYLINE
  5
1c6
100
AcDbEntity
  8
0
 62
7
100
AcDbPolyline
 90
4
 70
1
 10
101.065544
 20
135.654518
 30
0.0
 10
119.615482
 20
135.654518
 30
0.0
 10
119.615482
 20
117.104580
 30
0.0
 10
101.065544
 20
117.104580
 30
0.0
  0
ENDSEC
  0
SECTION
  2
OBJECTS
  0
DICTIONARY
  5
C
330
0
100
AcDbDictionary
  3
ACAD_GROUP
350
D
  3
ACAD_MLINESTYLE
350
17
  0
DICTIONARY
  5
D
330
C
100
AcDbDictionary
  0
DICTIONARY
  5
1A
330
C
100
AcDbDictionary
  0
DICTIONARY
  5
17
330
C
100
AcDbDictionary
  3
STANDARD
350
18
  0
DICTIONARY
  5
19
330
C
100
AcDbDictionary
  0
ENDSEC
  0
EOF
