<?xml version="1.0" encoding="UTF-8" standalone="no"?>
<svg
   xmlns:dc="http://purl.org/dc/elements/1.1/"
   xmlns:cc="http://creativecommons.org/ns#"
   xmlns:rdf="http://www.w3.org/1999/02/22-rdf-syntax-ns#"
   xmlns:svg="http://www.w3.org/2000/svg"
   xmlns="http://www.w3.org/2000/svg"
   xmlns:sodipodi="http://sodipodi.sourceforge.net/DTD/sodipodi-0.dtd"
   xmlns:inkscape="http://www.inkscape.org/namespaces/inkscape"
   inkscape:version="1.0 (4035a4fb49, 2020-05-01)"
   height="639.38202"
   width="500"
   sodipodi:docname="123color.svg"
   xml:space="preserve"
   viewBox="0 0 500 639.38202"
   y="0px"
   x="0px"
   id="Layer_1"
   version="1.1"
   inkscape:export-filename="D:\OneDrive\fablab files\A Fablab FabFarm\logo fabfarm 2020\revision_3\123color.png"
   inkscape:export-xdpi="96"
   inkscape:export-ydpi="96"><metadata
   id="metadata226"><rdf:RDF><cc:Work
       rdf:about=""><dc:format>image/svg+xml</dc:format><dc:type
         rdf:resource="http://purl.org/dc/dcmitype/StillImage" /><dc:title /></cc:Work></rdf:RDF></metadata><defs
   id="defs224" /><sodipodi:namedview
   inkscape:current-layer="g219"
   inkscape:window-maximized="1"
   inkscape:window-y="-8"
   inkscape:window-x="-8"
   inkscape:cy="363.51938"
   inkscape:cx="323.83722"
   inkscape:zoom="1.1647459"
   showgrid="false"
   id="namedview222"
   inkscape:window-height="1017"
   inkscape:window-width="1920"
   inkscape:pageshadow="2"
   inkscape:pageopacity="0"
   guidetolerance="10"
   gridtolerance="10"
   objecttolerance="10"
   borderopacity="1"
   bordercolor="#666666"
   pagecolor="#ffffff"
   inkscape:document-rotation="0" />
<style
   id="style119"
   type="text/css">
	.st0{opacity:0;fill:#FFFFFF;}
	.st1{fill:#231F20;}
</style>
<rect
   y="0"
   x="0"
   id="rect121"
   height="890"
   width="844"
   class="st0" />
<g
   id="g219">
	
	
	
	
	
	
	
	
	
	
	
	
	
	
	
	
	
	
	
	
	
	
	
	
	
	
	
	
	
	
	
	<g
   inkscape:export-ydpi="96"
   inkscape:export-xdpi="96"
   transform="matrix(1.0287219,0,0,1.0287219,-1172.9281,-146.7022)"
   id="g1099"><g
     id="g155"
     style="fill:#000000"
     transform="translate(961.2,8.3764706)">
		<g
   id="g137"
   style="fill:#000000">
			<path
   class="st1"
   d="m 185.09,727.51 v 10.01 h 15.88 v 5.17 h -15.88 v 12.6 h -6.11 v -32.9 H 203 v 5.12 z"
   id="path123"
   style="fill:#000000" />
			<path
   class="st1"
   d="M 228.85,747.67 H 212.4 l -3.24,7.61 h -6.3 l 14.8,-32.9 h 6.02 l 14.85,32.9 h -6.39 z m -2.02,-4.79 -6.2,-14.38 -6.16,14.38 z"
   id="path125"
   style="fill:#000000" />
			<path
   class="st1"
   d="m 271.95,746.36 c 0,5.64 -4.42,8.93 -12.88,8.93 h -16.35 v -32.9 h 15.42 c 7.9,0 12.13,3.34 12.13,8.55 0,3.38 -1.69,5.88 -4.23,7.24 3.51,1.13 5.91,3.9 5.91,8.18 z m -23.13,-19.18 v 9.07 h 8.65 c 4.23,0 6.63,-1.5 6.63,-4.51 0,-3.05 -2.4,-4.56 -6.63,-4.56 z m 16.97,18.57 c 0,-3.29 -2.49,-4.75 -7.1,-4.75 h -9.87 v 9.49 h 9.87 c 4.61,0 7.1,-1.45 7.1,-4.74 z"
   id="path127"
   style="fill:#000000" />
			<path
   class="st1"
   d="m 284.59,727.51 v 10.01 h 15.89 v 5.17 h -15.89 v 12.6 h -6.11 v -32.9 h 24.02 v 5.12 z"
   id="path129"
   style="fill:#000000" />
			<path
   class="st1"
   d="M 328.35,747.67 H 311.9 l -3.24,7.61 h -6.3 l 14.8,-32.9 h 6.02 l 14.85,32.9 h -6.39 z m -2.03,-4.79 -6.2,-14.38 -6.16,14.38 z"
   id="path131"
   style="fill:#000000" />
			<path
   class="st1"
   d="m 363.74,755.29 -6.72,-9.63 c -0.42,0.05 -0.85,0.05 -1.27,0.05 h -7.43 v 9.59 h -6.11 v -32.9 h 13.54 c 8.65,0 14.01,4.42 14.01,11.7 0,4.98 -2.54,8.65 -7,10.39 l 7.57,10.81 h -6.59 z m -8.28,-27.73 h -7.14 v 13.11 h 7.14 c 5.36,0 8.13,-2.44 8.13,-6.58 0,-4.14 -2.77,-6.53 -8.13,-6.53 z"
   id="path133"
   style="fill:#000000" />
			<path
   class="st1"
   d="m 406.79,755.29 -0.05,-21.81 -10.81,18.05 h -2.73 l -10.81,-17.76 v 21.52 h -5.83 v -32.9 h 5.03 l 13.07,21.81 12.83,-21.81 h 5.03 l 0.05,32.9 z"
   id="path135"
   style="fill:#000000" />
		</g>
		<g
   id="g153"
   style="fill:#000000">
			<path
   class="st1"
   d="m 468.65,745.79 h -19.08 l -4.18,9.72 h -2.58 l 15.13,-34.54 h 2.4 l 15.13,34.54 h -2.58 z m -0.89,-2.12 -8.65,-19.94 -8.6,19.94 z"
   id="path139"
   style="fill:#000000" />
			<path
   class="st1"
   d="m 481.3,720.97 h 2.4 v 32.27 h 18.94 v 2.27 H 481.3 Z"
   id="path141"
   style="fill:#000000" />
			<path
   class="st1"
   d="m 531.49,738.39 h 2.3 v 12.93 c -2.96,2.96 -7.24,4.44 -11.75,4.44 -9.92,0 -17.2,-7.45 -17.2,-17.52 0,-10.07 7.28,-17.52 17.25,-17.52 4.75,0 8.93,1.58 11.84,4.74 l -1.5,1.68 c -2.87,-2.96 -6.3,-4.1 -10.29,-4.1 -8.55,0 -14.9,6.51 -14.9,15.2 0,8.64 6.34,15.2 14.9,15.2 3.48,0 6.67,-0.89 9.35,-3.16 z"
   id="path143"
   style="fill:#000000" />
			<path
   class="st1"
   d="m 564.53,745.79 h -19.08 l -4.18,9.72 h -2.58 l 15.13,-34.54 h 2.4 l 15.13,34.54 h -2.58 z m -0.89,-2.12 -8.65,-19.94 -8.6,19.94 z"
   id="path145"
   style="fill:#000000" />
			<path
   class="st1"
   d="m 600.02,755.51 -7.85,-11.55 c -1.03,0.15 -2.07,0.25 -3.2,0.25 h -9.4 v 11.3 h -2.4 v -34.54 h 11.8 c 8.27,0 13.25,4.34 13.25,11.65 0,5.48 -2.82,9.28 -7.71,10.81 l 8.22,12.09 h -2.71 z m -11.05,-13.52 c 7.05,0 10.81,-3.45 10.81,-9.38 0,-5.97 -3.76,-9.38 -10.81,-9.38 h -9.4 v 18.75 h 9.4 z"
   id="path147"
   style="fill:#000000" />
			<path
   class="st1"
   d="m 637.15,720.97 -14.66,34.54 h -2.4 l -14.66,-34.54 h 2.63 l 13.3,31.29 13.3,-31.29 z"
   id="path149"
   style="fill:#000000" />
			<path
   class="st1"
   d="m 665.02,753.24 v 2.27 h -22.7 v -34.54 h 22 v 2.27 h -19.6 v 13.62 h 17.53 v 2.22 h -17.53 v 14.16 z"
   id="path151"
   style="fill:#000000" />
		</g>
	</g><path
     d="m 1158.25,399.31647 129.87,-0.69 -14.97,-10.93 23.89,-41.44 23.14,10.17 c 1.85,-1.67 3.79,-3.24 5.79,-4.75 -3.36,-5.87 -6.73,-11.75 -10.09,-17.62 -1.33,-2.33 -2.66,-4.65 -4,-6.98 -2.17,-0.69 -4.32,-1.41 -6.53,-1.98 -7.56,-1.95 -15.29,-2.84 -23.09,-3 -30.45,-0.63 -59.56,10.06 -85.53,25.29 -9.29,5.45 -17.67,-8.98 -8.42,-14.4 28.4,-16.65 60.66,-28.27 93.95,-27.57 5.94,0.13 12.06,0.59 18.1,1.54 -2.91,-5.08 -5.81,-10.15 -8.72,-15.23 -0.52,-0.19 -1.16,-0.39 -2.53,-0.87 -5.74,-2.02 -11.75,-3.41 -17.8,-4.03 -22.65,-2.35 -44.47,4.48 -63.91,15.78 -9.31,5.41 -17.7,-9.01 -8.42,-14.4 22.96,-13.34 53.22,-22.3 80.61,-17.53 -1.85,-3.23 -3.69,-6.45 -5.54,-9.68 -15.37,-9.53 -34.98,-8.19 -50.39,0.52 -9.37,5.29 -17.76,-9.12 -8.42,-14.4 13.68,-7.73 30.36,-11.09 45.99,-8.51 -1.9,-3.32 -3.81,-6.65 -5.71,-9.97 -5.35,-9.34 9.07,-17.73 14.4,-8.42 3.39,5.93 6.79,11.85 10.18,17.78 1.79,3.12 3.57,6.24 5.36,9.36 5.51,-14.66 16.56,-27.36 29.83,-35.29 9.25,-5.52 17.62,8.9 8.42,14.4 -15.18,9.07 -25.95,25.59 -25.24,43.6 1.78,3.11 3.56,6.22 5.34,9.33 0.11,0.08 0.25,0.16 0.35,0.24 9.31,-26.18 32.06,-48.19 54.9,-61.55 9.29,-5.44 17.68,8.99 8.42,14.4 -19.36,11.32 -36.26,27.11 -45.22,48.01 -2.44,5.7 -4.12,11.7 -5.27,17.79 -0.54,2.83 -0.3,0.98 -0.44,3.35 2.88,5.02 5.75,10.05 8.63,15.07 2.23,-6.2 5.06,-12.2 8.08,-17.82 15.71,-29.25 41.67,-51.6 70.05,-68.08 9.31,-5.41 17.7,9.01 8.42,14.4 -26.06,15.13 -49.64,35.26 -64.07,62.1 -3.74,6.95 -6.75,14.23 -8.77,21.87 -0.59,2.21 -1.01,4.44 -1.47,6.68 -0.02,0.11 -0.04,0.19 -0.06,0.27 0,0.06 -0.01,0.13 -0.02,0.22 -0.04,0.43 -0.14,0.82 -0.22,1.21 1.02,1.79 2.04,3.57 3.07,5.36 3.65,-1.78 7.44,-3.34 11.35,-4.61 l 2.8,-25.1 h 47.78 l 2.4,21.5 67.6,-118.44 c 3.76,-6.6 1.47,-15 -5.13,-18.76 l -93.01,-53.09 c -4.27,-2.44 -9.51,-2.41 -13.75,0.07 l -209.52,122.37 c -4.24,2.48 -6.84,7.03 -6.82,11.94 l 0.53,106.83 c 0.04,7.6 6.23,13.73 13.83,13.69 z"
     id="path157"
     style="fill:#0041ff;fill-opacity:1" /><path
     d="m 1422.75,534.08647 -17.83,-30.87 -2.79,25.01 h -47.78 l -2.8,-25.1 c -11.75,-3.8 -22.41,-10.02 -31.36,-18.1 l -23.14,10.17 -23.89,-41.44 20.44,-14.93 c -0.08,-0.39 -0.15,-0.8 -0.22,-1.19 h -135.81 c -7.6,0 -13.75,6.16 -13.75,13.75 v 48.71 c 59.89,5.19 118.2,24.2 166.87,60.06 35.92,-13.39 73.7,-21.95 112.06,-26.07 z"
     id="path159"
     style="fill:#008000" /><path
     d="m 1471.14,617.83647 c -39.32,0.63 -77.77,10.15 -111.62,30.75 -9.2,5.6 -17.58,-8.83 -8.42,-14.4 33.54,-20.41 71.66,-30.79 110.57,-32.72 l -10.89,-18.84 c -47.15,3.1 -92.82,17.1 -132.11,43.91 -8.9,6.07 -17.23,-8.39 -8.42,-14.4 39.09,-26.67 84.54,-41.15 131.31,-45.46 l -9.71,-16.8 c -70.69,6.36 -139.32,28.58 -198.05,68.53 l 126.99,73.32 c 4.25,2.46 9.5,2.46 13.75,0 l 92.52,-53.41 c 6.58,-3.8 8.83,-12.21 5.03,-18.79 z"
     id="path161"
     style="fill:#008000" /><path
     d="m 1143.81,516.78647 v 15.35 c 35.47,3.74 69.81,14.9 99.61,35.04 8.86,5.98 0.5,20.43 -8.42,14.4 -27.44,-18.53 -58.65,-29.04 -91.2,-32.7 v 9.61 c 0,4.91 2.62,9.45 6.88,11.91 l 67.24,38.82 c 23.29,-16.7 48.23,-30.54 74.31,-41.7 -44.14,-29.64 -95.43,-46.09 -148.42,-50.73 z"
     id="path163"
     style="fill:#008000" /><rect
     x="1352"
     y="367.82648"
     width="5.3499999"
     height="13.36"
     id="rect165" /><rect
     x="1367.71"
     y="367.82648"
     width="5.3499999"
     height="13.36"
     id="rect167" /><rect
     x="1383.42"
     y="367.82648"
     width="5.3499999"
     height="13.36"
     id="rect169" /><rect
     x="1399.13"
     y="367.82648"
     width="5.3499999"
     height="13.36"
     id="rect171" /><rect
     x="1352"
     y="460.25647"
     width="5.3499999"
     height="13.36"
     id="rect173" /><rect
     x="1367.71"
     y="460.25647"
     width="5.3499999"
     height="13.36"
     id="rect175" /><rect
     x="1383.42"
     y="460.25647"
     width="5.3499999"
     height="13.36"
     id="rect177" /><rect
     x="1399.13"
     y="460.25647"
     width="5.3499999"
     height="13.36"
     id="rect179" /><rect
     x="1325.35"
     y="441.61646"
     width="13.36"
     height="5.3499999"
     id="rect181" /><rect
     x="1325.35"
     y="425.90646"
     width="13.36"
     height="5.3499999"
     id="rect183" /><rect
     x="1325.35"
     y="410.19647"
     width="13.36"
     height="5.3499999"
     id="rect185" /><rect
     x="1325.35"
     y="394.48645"
     width="13.36"
     height="5.3499999"
     id="rect187" /><rect
     x="1417.77"
     y="441.61646"
     width="13.36"
     height="5.3499999"
     id="rect189" /><rect
     x="1417.77"
     y="425.90646"
     width="13.36"
     height="5.3499999"
     id="rect191" /><polygon
     points="456.57,401.82 456.57,407.17 469.93,407.17 469.93,401.82 "
     id="polygon193"
     transform="translate(961.2,8.3764706)" /><rect
     x="1417.77"
     y="394.48645"
     width="13.36"
     height="5.3499999"
     id="rect195" /><path
     d="m 1533.75,306.93647 c 0,-3.41 -2.77,-6.18 -6.18,-6.18 -3.41,0 -6.18,2.77 -6.18,6.18 0,3.41 2.77,6.18 6.18,6.18 3.41,-0.01 6.18,-2.78 6.18,-6.18 z"
     id="path197"
     style="fill:#d40000" /><path
     d="m 1563.4,382.91647 c 0,-3.41 -2.77,-6.18 -6.18,-6.18 -3.41,0 -6.18,2.77 -6.18,6.18 0,3.41 2.77,6.18 6.18,6.18 3.41,-0.01 6.18,-2.78 6.18,-6.18 z"
     id="path199"
     style="fill:#d40000" /><path
     d="m 1527.64,494.96647 c -3.41,0 -6.18,2.77 -6.18,6.18 0,3.41 2.77,6.18 6.18,6.18 3.41,0 6.18,-2.77 6.18,-6.18 -0.01,-3.41 -2.78,-6.18 -6.18,-6.18 z"
     id="path201"
     style="fill:#d40000" /><path
     d="m 1504.63,600.01647 c 3.57,6.18 11.51,8.31 17.7,4.74 l 16.99,-9.81 h -37.62 z"
     id="path203"
     style="fill:#d40000" /><polygon
     points="617.65,563.75 617.65,557.35 523.62,557.35 537.27,580.98 587.79,580.98 "
     id="polygon205"
     style="fill:#d40000"
     transform="translate(961.2,8.3764706)" /><path
     d="m 1616.12,285.52647 -58.34,-33.68 v 41.37 h 38.51 v 48.78 h -27.64 c -1.26,5.14 -5.89,8.97 -11.42,8.97 -6.49,0 -11.77,-5.28 -11.77,-11.77 0,-6.49 5.28,-11.77 11.77,-11.77 5.52,0 10.16,3.83 11.42,8.97 h 22.06 v -37.6 h -38.51 v -50.18 l -29.45,-17.01 c -2.04,-1.18 -4.26,-1.73 -6.46,-1.73 -4.48,0 -8.84,2.32 -11.24,6.47 l -32.85,56.86 h 28.67 v 196.51 c 5.14,1.26 8.97,5.89 8.97,11.42 0,6.49 -5.28,11.77 -11.77,11.77 -6.49,0 -11.77,-5.28 -11.77,-11.77 0,-5.52 3.83,-10.16 8.97,-11.42 v -190.92 h -26.31 l -33.09,57.26 c 0.14,0.12 0.29,0.24 0.43,0.36 l 23.14,-10.17 23.89,41.44 -20.44,14.93 c 1.24,5.84 1.96,11.89 1.96,18.1 0,6.21 -0.72,12.26 -1.96,18.1 l 20.44,14.93 -10.93,18.96 -12.96,22.48 -20.6,-9.05 26.66,46.14 h 125.21 v -137.95 c -5.14,-1.26 -8.97,-5.89 -8.97,-11.42 0,-6.49 5.28,-11.77 11.77,-11.77 6.49,0 11.77,5.28 11.77,11.77 0,5.52 -3.83,10.16 -8.97,11.42 v 143.54 h -127.59 l 12.87,22.27 h 102.85 v 8.75 l 31.68,-18.29 c 4,-2.31 6.48,-6.61 6.48,-11.22 v -242.63 c -0.01,-4.61 -2.49,-8.91 -6.48,-11.22 z m -88.48,227.38 c -6.49,0 -11.77,-5.28 -11.77,-11.77 0,-5.5 3.8,-10.12 8.91,-11.4 v -171.39 c -5.14,-1.26 -8.97,-5.89 -8.97,-11.42 0,-6.49 5.28,-11.77 11.77,-11.77 6.49,0 11.77,5.28 11.77,11.77 0,5.52 -3.83,10.16 -8.97,11.42 v 171.36 c 5.17,1.24 9.03,5.89 9.03,11.43 -0.01,6.49 -5.29,11.77 -11.77,11.77 z m 41.35,-11.77 c 0,6.49 -5.28,11.77 -11.77,11.77 -6.49,0 -11.77,-5.28 -11.77,-11.77 0,-5.52 3.83,-10.16 8.97,-11.42 v -95.39 c -5.14,-1.26 -8.97,-5.89 -8.97,-11.42 0,-6.49 5.28,-11.77 11.77,-11.77 6.49,0 11.77,5.28 11.77,11.77 0,5.52 -3.83,10.16 -8.97,11.42 v 95.39 c 5.14,1.27 8.97,5.9 8.97,11.42 z"
     id="path207"
     style="fill:#d40000" /><circle
     cx="1593.49"
     cy="382.91647"
     r="6.1799998"
     id="circle209"
     style="fill:#d40000" /><path
     d="m 1551.05,339.18647 c 0,3.41 2.77,6.18 6.18,6.18 3.41,0 6.18,-2.77 6.18,-6.18 0,-3.41 -2.77,-6.18 -6.18,-6.18 -3.41,0.01 -6.18,2.78 -6.18,6.18 z"
     id="path211"
     style="fill:#d40000" /><path
     d="m 1551.05,501.13647 c 0,3.41 2.77,6.18 6.18,6.18 3.41,0 6.18,-2.77 6.18,-6.18 0,-3.41 -2.77,-6.18 -6.18,-6.18 -3.41,0.01 -6.18,2.78 -6.18,6.18 z"
     id="path213"
     style="fill:#d40000" /><path
     d="m 1491.87,501.13647 c 0,3.41 2.77,6.18 6.18,6.18 3.41,0 6.18,-2.77 6.18,-6.18 0,-3.41 -2.77,-6.18 -6.18,-6.18 -3.41,0.01 -6.18,2.78 -6.18,6.18 z"
     id="path215"
     style="fill:#d40000" /><rect
     x="1343.1801"
     y="385.66647"
     width="70.110001"
     height="70.110001"
     id="rect217" /></g>
</g>
</svg>
